<svg width="222" height="186" viewBox="0 0 222 186" fill="none" xmlns="http://www.w3.org/2000/svg">
<path d="M150.409 63.3148C163.783 56.0238 172.217 61.0508 185.246 65.2578C188.671 66.3638 192.522 67.0798 196.008 68.0748C185.23 74.7438 172.484 84.1928 159.253 80.6928C152.685 78.9558 146.045 74.3318 140.238 70.7378C140.725 70.3228 140.82 70.2728 141.406 69.8678C142.561 68.7868 143.938 66.4608 144.965 66.0828C146.096 65.6648 146.215 65.8918 147.369 64.9868C148.637 64.3708 149.2 64.0898 150.409 63.3148Z" fill="#8B9293"/>
<path d="M132.355 64.943C132.362 61.419 132.547 57.897 132.911 54.392C134.946 33.408 147.979 30.608 164.331 22C163.017 25.675 161.191 30.638 160.546 34.399C158.665 45.364 157.276 53.495 148.178 60.902C146.788 61.67 146.623 61.896 145.517 63.028C145.22 62.684 145.034 62.358 144.634 62.212C143.666 62.463 135.067 64.521 134.665 64.723C134.355 65.184 134.482 65.763 134.489 66.288C134.336 66.558 134.183 66.828 134.03 67.097C133.382 66.185 133.091 65.793 132.355 64.943Z" fill="#8B9293"/>
<path d="M91.1926 67.1884C102.062 59.1664 116.316 58.1174 128.111 64.8704C133.426 69.5234 134.337 70.9354 138.764 76.0544C143.436 85.8604 144.001 94.5734 140.581 105.128C135.996 119.278 123.293 125.2 112.114 133.454C101.079 141.602 89.3776 151.661 83.6676 164.468C81.2096 157.258 76.5856 152.785 71.5706 147.217C71.3336 146.552 71.4976 146.83 70.8476 146.562C66.2696 142.429 62.9006 139.534 58.0786 135.695L57.5996 133.761C68.0586 140.863 76.7956 150.288 83.8776 160.682C90.3806 150.009 95.8836 144.7 105.544 136.77C119.928 124.961 136.894 119.569 140.723 99.3614C142.46 90.6584 140.574 81.6224 135.502 74.3394C125.423 59.9394 106.647 57.8384 92.6346 67.7664L91.1926 67.1884Z" fill="#0A0A0A" fill-opacity="0.964706"/>
<path d="M25.1251 95.7838C24.1281 82.3588 29.059 70.9558 41.119 64.3248C48.742 60.2288 57.684 59.3438 65.961 61.8678C74.866 64.6188 79.451 69.6288 83.573 77.6818C85.861 73.0728 87.0241 71.2578 90.7271 67.6838L90.9601 69.2428C87.1691 72.7358 85.489 76.0018 84.074 80.9198L83.4991 81.2688C79.1131 72.2568 77.1961 67.1488 66.1931 63.2898C58.7461 60.6158 50.536 61.0418 43.405 64.4718C35.962 68.1348 30.2571 74.5778 27.5231 82.4098C26.6091 85.0918 25.918 88.4308 25.772 91.2518C25.329 92.1748 25.293 92.6438 25.828 93.5248C26.997 109.468 35.1121 119.133 48.2571 127.235C50.5981 128.678 52.8921 130.486 55.3181 131.792L54.867 133.383C49.233 128.562 42.314 125.611 36.115 119.743C35.937 119.259 35.845 119.187 35.356 119.029C29.403 113.04 26.2021 105.404 25.2971 97.0858C25.3831 96.3298 25.4691 96.3428 25.1251 95.7838Z" fill="#0A0A0A" fill-opacity="0.960784"/>
<path d="M134.489 66.2879C134.482 65.7629 134.355 65.1839 134.665 64.7229C135.067 64.5209 143.666 62.4629 144.634 62.2119C145.034 62.3579 145.22 62.6839 145.517 63.0279L145.342 63.6699C138.977 65.3589 144.966 65.9889 141.595 68.3149L141.103 68.6449C138.379 65.3299 139.554 65.6549 134.489 66.2879Z" fill="#FEFEFE" fill-opacity="0.882353"/>
<path d="M128.109 64.8705C130.04 64.4815 130.367 64.7586 132.354 64.9426C133.09 65.7926 133.381 66.1845 134.029 67.0965C134.095 67.9485 134.024 68.6655 134.566 69.3545L135.284 69.7685C138.215 71.4005 138.354 72.9686 138.762 76.0546C134.335 70.9356 133.424 69.5235 128.109 64.8705Z" fill="#FCFBF9" fill-opacity="0.945098"/>
<path d="M134.488 66.2876C139.553 65.6546 138.378 65.3295 141.102 68.6445L141.406 69.8675C140.82 70.2725 140.725 70.3225 140.238 70.7375C139.935 70.0855 139.414 68.8705 138.516 68.9375L138.469 69.0116C137.287 69.3426 135.804 66.1215 134.566 69.3545C134.024 68.6655 134.095 67.9485 134.029 67.0965C134.182 66.8275 134.335 66.5576 134.488 66.2876Z" fill="#FEFEFE" fill-opacity="0.0862745"/>
<path d="M141.104 68.6449L141.596 68.3149C144.967 65.9889 138.978 65.3589 145.343 63.6699C146.224 64.6919 146.113 64.6619 147.371 64.9869C146.217 65.8919 146.098 65.6649 144.967 66.0829C143.94 66.4609 142.563 68.7869 141.408 69.8679L141.104 68.6449Z" fill="#FEFEFE" fill-opacity="0.384314"/>
<path d="M145.517 63.0274C146.623 61.8954 146.788 61.6694 148.178 60.9014C149.76 62.3674 149.241 61.6214 150.41 63.3144C149.201 64.0894 148.638 64.3704 147.37 64.9864C146.112 64.6614 146.223 64.6914 145.342 63.6694L145.517 63.0274Z" fill="#FEFEFE" fill-opacity="0.27451"/>
<path d="M55.667 132.253L57.089 133.209L56.803 134.851L56.081 134.531C55.913 133.704 55.776 133.08 55.667 132.253Z" fill="#0A0A0A" fill-opacity="0.960784"/>
<path d="M91.1916 67.1885L92.6335 67.7664C92.0415 68.3254 91.5836 68.7195 90.9596 69.2425L90.7266 67.6835L91.1916 67.1885Z" fill="#393330" fill-opacity="0.85098"/>
<path d="M25.8284 93.525C25.2934 92.644 25.3294 92.175 25.7724 91.252C25.9814 92.405 25.9834 92.367 25.8284 93.525Z" fill="#0A0A0A" fill-opacity="0.639216"/>
<path d="M57.0887 133.209C57.2617 133.39 57.4507 133.56 57.5987 133.762L58.0777 135.696C57.6527 135.414 57.2277 135.133 56.8027 134.851L57.0887 133.209Z" fill="#393330" fill-opacity="0.819608"/>
<path d="M55.3182 131.792C55.4352 131.946 55.5512 132.099 55.6672 132.253C55.7762 133.08 55.9132 133.704 56.0812 134.531C55.6732 134.137 55.2922 133.759 54.8672 133.383L55.3182 131.792Z" fill="#393330" fill-opacity="0.807843"/>
<path d="M25.125 95.7832C25.469 96.3422 25.383 96.3292 25.297 97.0852C25.034 96.4762 25.079 96.4752 25.125 95.7832Z" fill="#141013" fill-opacity="0.498039"/>
</svg>
