<svg width="1087" height="308" viewBox="0 0 1087 308" fill="none" xmlns="http://www.w3.org/2000/svg">
<path d="M492.845 112.86C496.963 110.208 501.368 101.696 505.585 99.573C524.588 90.0068 561.438 88.6813 580.348 98.0315C587.572 101.603 589.65 113.447 597.325 111.941C596.535 113.229 595.15 115.298 594.634 116.616C595.075 119.821 595.55 123.021 596.06 126.216C608.931 141.222 614.866 156.347 602.72 174.495C600.352 177.916 599.742 177.962 596.662 180.457C597.894 180.72 599.128 180.969 600.365 181.203C598.678 182.619 596.396 184.01 594.38 185.658C592.035 189.204 590.587 188.682 593.676 192.268C593.2 192.408 592.627 192.577 591.958 192.774C588.55 198.1 585.223 202.907 580.636 207.189C564.079 222.643 532.62 218.875 513.897 208.888C505.593 204.458 499.864 195.308 495.253 193.126C496.549 188.779 494.232 185.955 491.794 182.737C492.844 171.91 487.031 171.509 482.078 162.854C480.831 160.675 480.09 156.95 478.175 155.403L475.558 156.493L475.253 155.921C476.344 149.381 476.454 144.189 475.916 137.635C477.145 137.712 477.31 137.615 478.482 137.353C482.61 131.067 486.15 128.011 492.437 124.423L492.58 115.315L492.996 114.611L492.845 112.86ZM517.486 207.742C522.099 206.116 522.035 208.002 525.449 206.038C519.441 199.79 514.948 192.052 507.432 187.222C506.175 186.414 501.229 182.265 500.343 183.151C497.778 181.871 495.728 180.752 495.659 184.542C501.827 192.613 504.754 202.463 517.486 207.742Z" fill="#C6A49B"/>
<path d="M594.38 185.658C593.197 183.208 593.31 178.46 596.662 180.457C597.894 180.72 599.128 180.969 600.365 181.203C598.678 182.619 596.396 184.01 594.38 185.658Z" fill="#FAF9F9"/>
<path d="M495.317 126.821C495.32 124.371 495.062 120.219 495.602 117.962C501.973 91.3074 534.455 93.5411 554.511 97.5664L557.453 98.7585C572.094 107.12 586.779 120.824 598.377 132.977C611.172 146.383 609.812 171.966 590.796 179.053C591.159 207.887 561.16 221.555 536.589 211.08C526.601 206.822 521.956 196.052 514.232 189.288C506.706 182.696 497.131 177.548 490.234 170.175C486.882 166.638 484.249 162.485 482.479 157.945C480.008 151.506 479.466 142.779 482.336 136.392C484.941 130.596 489.892 128.867 495.317 126.821Z" fill="#E2CECA"/>
<path d="M542.096 146.654C545.914 145.076 550.29 146.872 551.9 150.677C553.511 154.482 551.754 158.874 547.964 160.518C544.127 162.182 539.67 160.399 538.039 156.546C536.409 152.694 538.231 148.251 542.096 146.654Z" fill="#523026"/>
<path d="M554.511 97.566L553.156 95.5061L553.326 94.712C557.014 92.9448 566.752 95.2391 570.674 96.596C584.422 101.353 590.745 110.806 593.857 124.447C588.172 119.073 565.829 98.3018 559.46 97.9347L557.452 98.7581L554.511 97.566Z" fill="#E2CECA"/>
<path d="M500.342 183.151C501.228 182.265 506.174 186.414 507.431 187.222C514.947 192.052 519.44 199.79 525.448 206.038C522.034 208.002 522.098 206.116 517.485 207.742C504.753 202.463 501.826 192.613 495.658 184.542C498.263 184.305 498.307 184.644 500.342 183.151Z" fill="#E2CECA" fill-opacity="0.988235"/>
<path d="M525.449 206.038C530.353 210.39 531.262 210.575 536.732 214.003C527.086 211.969 526.457 212.061 517.486 207.742C522.099 206.116 522.035 208.002 525.449 206.038Z" fill="#E2CECA"/>
<path d="M495.658 184.542C495.727 180.752 497.777 181.871 500.342 183.151C498.307 184.644 498.263 184.305 495.658 184.542Z" fill="#FAF9F9" fill-opacity="0.823529"/>
<path d="M688.681 133.752C689.861 133.317 690.109 133.018 691.045 132.229C693.007 127.113 688.427 125.716 687.519 121.638C682.062 97.1361 684.597 80.9524 701.292 61.5205C715.762 77.7411 719.957 95.5484 712.356 116.299C711.079 119.787 708.486 122.3 707.212 126.269C711.26 124.813 720.147 120.204 724.483 118.159L725.524 119.339C722.38 120.779 720.496 121.389 718.068 123.829C732.911 126.255 742.322 126.706 754.129 138.442C721.308 173.097 701.169 139.157 695.193 140.26C695.691 144.228 696.889 148.343 696.265 152.255L694.705 153.468C694.331 154.89 693.702 156.539 693.693 157.947C694.125 159.496 694.191 159.552 694.045 161.152C689.908 166.171 688.165 168.251 682.379 171.629C684.406 186.068 674.267 192.067 661.02 193.151C660.395 192.928 652.969 192.472 651.765 192.391C639.071 188.715 638.542 184.536 629.386 177.335C612.155 163.782 604.157 138.8 622.872 121.974C625.713 119.793 631.613 120.574 634.996 120.933C635.855 121.025 638.256 116.869 638.823 116.044C642.518 113.153 645.458 111.423 650.177 110.646C658.417 109.289 667.107 112.01 672.318 118.718C674.361 121.348 674.815 124.479 675.733 127.596C675.816 127.871 676.349 129.98 676.352 129.981C681.73 131.43 683.698 131.125 688.681 133.752ZM711.427 97.6249C711.45 92.566 704.29 94.0544 710.057 97.3981L711.427 97.6249Z" fill="#523026"/>
<path d="M710.057 97.3979C704.29 94.0542 711.45 92.5658 711.427 97.6247L710.057 97.3979Z" fill="#C6AD9E" fill-opacity="0.960784"/>
<path d="M688.681 133.752C689.861 133.317 690.109 133.018 691.045 132.229C693.007 127.113 688.427 125.716 687.519 121.638C682.062 97.1361 684.597 80.9524 701.292 61.5205C715.762 77.7411 719.957 95.5484 712.356 116.299C711.079 119.787 708.486 122.3 707.212 126.269C707.29 126.114 692.707 136.287 690.582 138.114C696.461 128.06 698.118 121.785 702.346 111.224C703.634 108.009 709.172 100.584 711.427 97.6249C711.45 92.566 704.29 94.0544 710.057 97.3981C707.566 99.8943 706.04 102.647 704.195 105.63L702.268 103.692C703.206 98.9094 704.045 85.9983 702.558 81.6592L701.946 81.7189C701.397 83.6234 701.875 92.3353 701.784 94.9534C701.353 107.34 697.945 124.172 691.067 134.635L689.868 134.823L688.681 133.752Z" fill="#C6AD9E"/>
<path d="M701.282 131.965C705.759 129.116 712.799 124.743 717.703 122.938L718.068 123.828C732.911 126.254 742.322 126.705 754.129 138.442C721.308 173.097 701.169 139.157 695.193 140.26L693.651 140.533C693.266 138.868 693.235 139.665 693.708 138.053C699.434 137.603 732.267 138.351 733.659 137.8C731.396 135.71 705.418 136.466 700.511 136.54C698.946 133.698 702.461 135.876 701.282 131.965Z" fill="#C6AD9E"/>
<path d="M667.73 141.66C668.449 140.756 675.303 132.38 675.761 132.167C682.183 129.191 691.057 137.479 693.327 141.091L693.65 140.533L695.192 140.26C695.69 144.228 696.888 148.343 696.264 152.255L694.704 153.468C694.33 154.89 693.701 156.539 693.692 157.947C689.493 165.484 688.695 166.43 681.445 170.395C676.593 164.698 675.941 164.585 669.757 160.787C671.302 152.077 672.5 150.963 667.73 141.66Z" fill="#C6A49B"/>
<path d="M693.651 140.533L695.193 140.26C695.691 144.228 696.889 148.343 696.265 152.255L694.705 153.468C694.656 148.034 694.977 148.192 693.744 142.875C693.611 142.279 693.472 141.684 693.328 141.091L693.651 140.533Z" fill="#815B58"/>
<path d="M701.283 131.966C702.462 135.877 698.947 133.699 700.512 136.541C690.162 138.957 697.109 134.428 701.283 131.966Z" fill="#C6A49B"/>
<path d="M702.267 103.692L704.194 105.63C701.143 110.101 701.697 107.183 702.267 103.692Z" fill="#C6A49B"/>
<path d="M648.059 134.636C675.694 133.746 676.873 167.932 649.383 177.443C644.175 178.344 637.943 179.424 633.319 176.316C623.854 169.954 626.807 152.853 632.43 144.91C636.834 138.69 640.872 136.091 648.059 134.636Z" fill="#C6A49B"/>
<path d="M651.42 111.602C657.228 111.51 662.336 112.153 667.243 115.685C670.977 118.328 673.457 122.393 674.1 126.923C674.979 133.046 670.946 135.642 666.916 140.763C665.471 139.538 664.176 138.3 662.65 137.034C653.727 132.02 649.887 132.507 640.531 135.508C639.882 128.836 639.996 127.968 636.775 122.203L636.554 121.801C641.22 115.344 643.319 113.53 651.42 111.602Z" fill="#C6A49B"/>
<path d="M626.645 122.042C638.402 121.345 638.169 126.795 639.161 136.395C626.582 145.365 623.699 158.859 628.233 173.106L627.798 173.499C624.609 172.327 618.734 164.752 617.314 161.534C611.246 147.782 611.582 129.422 626.645 122.042Z" fill="#C6A49B"/>
<path d="M669.227 162.357C696.212 176.39 675.011 196.412 648.589 190.009C641.156 187.069 638.068 184.099 632.938 178.456C649.893 182.69 660.421 176.682 669.227 162.357Z" fill="#C6A49B"/>
<path d="M387.304 109.874C386.228 104.042 384.191 86.976 386.059 81.9941L386.675 81.9992C387.238 87.4971 386.761 92.6701 387.2 97.6441C388.251 109.553 392.753 124.211 397.663 135.1L398.646 135.365L399.609 134.031C404.078 131.499 407.054 131.288 411.853 130.018C412.037 129.97 414.396 121.798 414.827 121.062C423.794 105.754 442.985 107.643 453.305 119.924C466.088 120.679 472.526 124.317 475.915 137.635C476.453 144.189 476.343 149.381 475.252 155.921L475.557 156.493C469.244 169.457 462.125 175.666 451.347 185.023C445.951 189.707 441.842 190.032 435.836 192.856C433.32 192.842 431.247 192.684 428.837 193.421C415.377 192.835 404.857 186.771 407.116 171.889C401.089 168.508 399.338 166.484 394.876 161.444C391.205 163.397 374.298 172.045 372.469 173.409C365.307 175.822 363.311 177.28 357.453 182.112L353.532 184.922C352.907 185.102 352.788 185.185 352.549 185.793C343.892 193.331 335.305 201.036 328.394 210.264L328.346 227.81C331.082 230.412 332.909 231.257 333.103 235.138C333.759 248.201 317.364 243.926 317.192 234.388C317.159 232.545 320.273 228.689 322.041 228.181C323.088 228.052 325.702 227.66 326.136 226.68C328.34 221.711 326.406 213.913 325.276 209.384C324.578 213.451 324.221 216.725 323.714 220.747C323.506 222.403 322.234 222.572 322.251 225.206C320.257 226.444 318.353 226.312 316.167 226.083L315.488 226.008C313.798 226.634 311.684 229.194 311.012 230.535C309.234 234.079 305.521 236.792 309.277 239.615C313.063 242.46 312.343 248.913 309.884 252.629C303.879 261.704 285.58 254.273 292.812 243.056C296.321 237.614 299.261 236.897 305.446 236.904C306.476 235.151 312.35 225.887 311.41 223.967C309.351 219.76 306.012 216.439 310.436 212.087C314.237 208.348 318.665 209.853 323.267 210.017C324.142 210.049 326.377 209.297 326.93 208.714C334.279 200.967 341.235 192.87 349.486 186.025C352.411 183.604 354.958 181.915 357.567 179.076L357.425 178.073C349.131 172.546 299.201 190.435 289.162 194.34L288.16 193.386C301.839 185.992 332.378 177.478 348.338 176.182C346.166 173.91 343.222 171.812 340.694 169.883L340.654 167.664C344.294 170.59 347.356 172.855 351.184 175.527C371.229 172.864 376.499 169.135 394.284 159.679C392.504 153.94 392.411 150.122 393.313 144.254C393.895 143.52 395.717 139.377 396.232 138.262C385.588 138.232 375.178 137.901 364.505 138.411C362.107 138.525 357.276 139.281 355.693 138.404L356.108 137.742C364.54 135.643 384.069 137.328 393.42 136.254L393.368 135.833L390.746 134.108L391.913 132.954C392.982 133.645 394.044 134.347 395.098 135.06C396.577 129.956 379.214 98.8817 379.305 98.019C382.68 102.078 384.567 105.353 387.304 109.874ZM301.981 251.217C301.388 250.242 300.946 250.584 299.984 251.012C300.419 252.563 300.843 252.004 301.981 251.217Z" fill="#523026" fill-opacity="0.988235"/>
<path d="M434.535 134.623L435.321 134.593C450.95 134.093 461.675 147.384 461.606 162.264C461.549 174.294 457.327 178.353 445.821 178.526C419.695 175.941 406.204 144.271 434.535 134.623Z" fill="#C6A49B"/>
<path d="M456.763 121.617C458.646 121.385 458.848 121.248 460.684 121.772C475.165 126.701 477.211 142.762 473.701 155.85C471.435 164.301 466.606 169.464 460.402 175.121C465.715 158.73 463.083 146.186 448.688 136.187C449.984 128.923 449.684 125.366 456.763 121.617Z" fill="#C6A49B"/>
<path d="M456.763 121.617C458.646 121.385 458.848 121.248 460.684 121.772C458.86 121.886 458.541 121.879 456.763 121.617Z" fill="#7F665D"/>
<path d="M431.222 111.621C437.909 111.547 445.726 112.928 450.27 118.649C453.443 122.645 449.908 124.322 448.838 128.104C448.17 130.461 447.863 132.78 447.454 135.257C441.087 132.884 438.63 132.401 432.033 133.88C426.732 136.112 426.204 136.571 421.851 140.081C415.606 134.093 410.896 129.863 416.641 120.85C420.488 114.816 424.332 113.061 431.222 111.621Z" fill="#C6A49B"/>
<path d="M406.556 132.337C409.381 131.806 409.57 131.772 412.425 132.107C415.521 135.192 417.668 138.117 421.139 141.503C420.693 142.244 420.255 142.989 419.824 143.739C416.424 149.747 416.958 154.975 418.703 161.214C411.936 165.17 412.495 164.676 407.594 170.694C403.161 167.931 398.181 164.807 396.216 159.807C391.098 146.788 395.11 138.22 406.556 132.337Z" fill="#C6A49B"/>
<path d="M406.556 132.337C409.381 131.806 409.57 131.772 412.425 132.107C409.836 132.417 409.167 132.438 406.556 132.337Z" fill="#7F665D"/>
<path d="M419.066 162.211C421.303 165.543 422.854 167.589 425.381 170.68C426.197 171.087 426.063 171.005 426.532 171.871C435.447 180.279 444.958 181.368 456.34 178.444C454.506 180.294 452.318 182.692 450.279 184.28C442.73 190.05 433.187 192.561 423.777 191.254C416.238 190.153 406.289 185.011 407.88 175.632C408.997 169.05 413.953 165.781 419.066 162.211Z" fill="#C6A49B"/>
<path d="M425.382 170.68C426.198 171.087 426.064 171.005 426.533 171.871C425.788 171.487 425.884 171.475 425.382 170.68Z" fill="#7F665D"/>
<path d="M299.085 238.727C313.441 237.015 313.725 249.92 304.537 255.378C299.303 255.426 296.844 255.222 293.629 250.68C290.211 245.851 295.762 240.709 299.085 238.727ZM301.982 251.217C301.389 250.242 300.947 250.584 299.985 251.012C300.42 252.563 300.844 252.004 301.982 251.217Z" fill="#848180"/>
<path d="M299.984 251.012C300.946 250.584 301.388 250.242 301.981 251.217C300.843 252.004 300.419 252.563 299.984 251.012Z" fill="#848180" fill-opacity="0.705882"/>
<path d="M313.751 211.653C315.959 210.546 318.601 210.758 320.603 212.206C322.606 213.653 323.638 216.094 323.281 218.539C322.923 220.984 321.236 223.028 318.903 223.841C315.603 224.991 311.978 223.381 310.617 220.162C309.256 216.943 310.627 213.22 313.751 211.653Z" fill="#7D8689"/>
<path d="M330.347 231.674C334.413 238.746 326.655 244.514 321.467 240.336C316.091 236.007 320.897 228.417 327.731 229.173C328.989 230.145 329.27 230.457 330.347 231.674Z" fill="#7D8689"/>
<path d="M327.73 229.172C328.988 230.144 329.269 230.456 330.346 231.673C328.969 230.619 328.735 230.505 327.73 229.172Z" fill="#6C6C68"/>
<path d="M845.708 173.025C863.029 177.164 863.151 189.284 851.071 200.317C857.122 205.85 859.419 214.127 854.094 220.636C850.572 224.943 842.388 226.776 837.154 228.747C835.819 237.864 836.864 246.035 823.659 247.251C819.436 247.64 813.836 245.109 809.931 241.312C807.798 239.224 805.901 236.907 804.275 234.403C802.577 231.687 801.16 228.805 800.047 225.8C797.175 217.947 796.287 201.872 799.618 194.5L800.498 193.598C802.132 190.626 816.599 182.778 820.9 179.971C825.461 177.591 827.549 176.561 832.431 174.883C838.001 173.867 840.035 173.527 845.708 173.025Z" fill="#BB807C"/>
<path d="M812.098 188.756C818.231 186.264 838.867 183.462 835.839 194.786C834.553 196.712 833.175 197.102 831.091 198.039C831.355 201.519 839.756 205.922 833.582 213.581C832.811 216.331 822.129 216.207 821.82 217.516C820.963 221.146 822.491 227.101 815.996 226.822C806.219 226.401 802.08 210.064 801.518 202.805L802.821 202.713C808.134 197.269 806.243 194.75 812.806 189.498L812.098 188.756Z" fill="#BB807C"/>
<path d="M812.098 188.756C818.231 186.264 838.867 183.462 835.839 194.786C834.553 196.712 833.175 197.102 831.091 198.039C831.355 201.519 839.756 205.922 833.582 213.581C832.811 216.331 822.129 216.207 821.82 217.516C820.963 221.146 822.491 227.101 815.996 226.822C806.219 226.401 802.08 210.064 801.518 202.805L802.821 202.713C803.21 208.857 807.088 226.176 817.371 225.459C819.839 225.287 819.69 221.343 820.013 220.49C820.756 218.523 818.809 214.565 819.459 214.087C823.426 214.887 823.351 217.093 828.588 214.924C837.512 211.228 835.253 202.649 827.907 199.042C827.274 198.731 826.938 199.126 826.435 198.416C826.549 197.287 840.846 195.428 831.859 189.268C827.128 186.026 818.202 187.728 812.806 189.498L812.098 188.756Z" fill="#523026"/>
<path d="M845.708 173.025C863.029 177.164 863.151 189.284 851.071 200.317C857.122 205.85 859.419 214.127 854.094 220.636C850.572 224.943 842.388 226.776 837.154 228.747C835.819 237.864 836.864 246.035 823.659 247.251C819.436 247.64 813.836 245.109 809.931 241.312C807.798 239.224 805.901 236.907 804.275 234.403L804.978 233.618C808.511 238.493 811.985 242.476 817.693 244.604C826.204 247.478 835.288 244.82 835.616 234.469C835.859 226.792 833.984 229.72 831.796 224.813C836.823 225.662 838.951 227.997 845.634 225.183C849.76 223.468 853.003 220.135 854.603 215.962C857.327 208.652 854.407 202.824 847.191 200.209L846.48 199.955C847.071 199.733 847.658 199.5 848.241 199.257C865.826 191.897 861.209 161.159 821.404 181.187L820.9 179.971C825.461 177.591 827.549 176.561 832.431 174.883C838.001 173.867 840.035 173.527 845.708 173.025Z" fill="#523026"/>
<path d="M820.9 179.971L821.404 181.187C818.457 183.036 813.73 185.763 811.368 188.09L812.098 188.755L812.806 189.497C806.243 194.749 808.134 197.268 802.821 202.712L801.518 202.804C799.297 203.464 799.242 204.095 798.981 206.57C799.03 209.668 799.062 213.527 799.011 216.621C799.33 222.463 802.073 228.566 804.978 233.618L804.275 234.403C802.577 231.687 801.16 228.805 800.047 225.8C797.175 217.947 796.287 201.872 799.618 194.5L800.498 193.598C802.132 190.626 816.599 182.778 820.9 179.971Z" fill="#523026"/>
<path d="M798.981 206.57C799.03 209.668 799.062 213.527 799.011 216.621C797.991 212.47 797.963 210.728 798.981 206.57Z" fill="#815B58"/>
<path d="M241.474 173.173C246.623 173.359 251.574 173.444 256.498 175.193C262.62 177.27 270.298 181.124 275.22 185.301C280.366 189.469 281.899 188.128 288.161 193.386L289.163 194.34C292.469 206.966 291.414 221.591 284.781 233.189C278.389 244.365 262.862 255.109 253.164 240.809C250.67 235.144 250.951 234.168 251.895 227.909C242.73 226.79 232.965 224.35 231.644 212.614C231.087 207.665 233.839 203.505 237.02 199.861C232.025 195.198 230.648 193.17 229.179 186.617C229.595 177.011 232.754 175.253 241.474 173.173Z" fill="#BB807C"/>
<path d="M287.093 205.291C287.348 217.113 269.903 240.943 266.641 218.229C265.06 216.362 261.492 216.685 258.923 216.036C252.416 214.394 251.123 210.641 253.01 204.599C254.086 201.156 257.458 201.119 258.415 198.34C254.844 196.578 252.852 196.779 252.57 192.629C256.143 183.471 269.552 187.335 276.431 188.275L276.845 188.603L274.918 189.268C280.943 192.259 279.613 193.157 282.895 198.688C284.932 202.119 286.456 200.689 286.55 205.287L287.093 205.291Z" fill="#BB807C"/>
<path d="M287.093 205.291C287.348 217.113 269.903 240.943 266.641 218.229C265.06 216.362 261.492 216.685 258.923 216.036C252.416 214.394 251.123 210.641 253.01 204.599C254.086 201.156 257.458 201.119 258.415 198.34C254.844 196.578 252.852 196.779 252.57 192.629C256.143 183.471 269.552 187.335 276.431 188.275L276.845 188.603L274.918 189.268C269.595 187.843 261.79 186.421 256.918 189.449C247.249 195.461 262.793 197.779 262.886 197.87C263.165 199.006 259.097 200.228 258.024 200.933C249.263 206.689 255.362 217.284 264.835 215.649C266.106 215.431 268.763 214.045 269.362 214.081C269.601 214.42 266.65 219.779 268.764 223.071C270.982 226.525 272.412 226.034 276.002 224.396C283.532 220.229 283.755 212.141 286.55 205.287L287.093 205.291Z" fill="#523026"/>
<path d="M275.22 185.301C280.366 189.469 281.899 188.128 288.161 193.386L289.163 194.34C292.469 206.966 291.414 221.591 284.781 233.189C278.389 244.365 262.862 255.109 253.164 240.809L253.726 239.581C261.639 250.061 268.98 246.388 278.319 239.452C285.401 234.192 293.997 210.021 288.146 203.989L287.093 205.291L286.55 205.287C286.456 200.689 284.932 202.119 282.895 198.688C279.613 193.157 280.943 192.259 274.918 189.268L276.845 188.603L276.431 188.275L273.795 186.063L275.22 185.301Z" fill="#523026"/>
<path d="M229.179 186.617L230.476 187.764C232.752 195.069 234.683 197.518 241.799 199.847C240.102 201.241 238.585 200.595 237.918 201.008C235.837 202.3 233.779 206.622 232.928 208.685C233.232 211.283 233.307 211.345 232.871 213.998C235.099 219.617 238.379 224.918 244.962 225.791C247.584 225.702 251.115 225.792 253.797 225.858L254.461 225.575C254.402 226.233 254.295 226.798 254.188 227.453C251.104 230.233 252.44 236.199 253.726 239.581L253.164 240.809C250.67 235.144 250.951 234.168 251.895 227.909C242.73 226.79 232.965 224.35 231.644 212.614C231.087 207.665 233.839 203.505 237.02 199.861C232.025 195.198 230.648 193.17 229.179 186.617Z" fill="#180E0D"/>
<path d="M244.962 225.791C247.584 225.702 251.115 225.792 253.797 225.858C250.708 227.177 248.167 226.721 244.962 225.791Z" fill="#815B58"/>
<path d="M232.87 213.999C232.366 211.466 232.497 211.178 232.927 208.686C233.231 211.284 233.306 211.346 232.87 213.999Z" fill="#815B58"/>
<path d="M241.474 173.173C246.623 173.359 251.574 173.444 256.498 175.193C262.62 177.27 270.298 181.124 275.22 185.301L273.795 186.063C262.437 178.029 230.679 163.293 230.476 187.764L229.179 186.617C229.595 177.011 232.754 175.253 241.474 173.173Z" fill="#523026"/>
<path d="M254.461 225.575C258.591 223.195 257.072 225.56 254.188 227.453C254.295 226.798 254.402 226.233 254.461 225.575Z" fill="#815B58"/>
<path d="M695.805 171.402C701.328 173.263 707.237 173.076 712.533 175.802C730.813 185.214 744.844 201.285 744.944 222.812C744.993 233.48 745.307 239.123 740.607 249.114L737.238 254.252C718.929 235.51 714.634 219.846 707.376 195.021C704.903 186.56 702.623 177.262 695.805 171.402Z" fill="#C6AD9E"/>
<path d="M704.973 175.729C712.614 178.868 721.976 193.023 725.882 200.145C731.874 211.071 736.202 226.717 736.104 239.188C733.89 237.555 732.49 221.519 731.314 217.13C726.375 198.699 716.858 189.298 704.973 175.729Z" fill="#523026"/>
<path d="M370.255 178.9C378.396 175.097 380.546 173.317 389.371 173.258C377.54 200.169 373.393 236.647 351.114 254.567C338.73 228.613 341.684 200.082 365.415 181.686C367.193 180.647 368.35 179.863 370.255 178.9Z" fill="#C6AD9E"/>
<path d="M384.174 174.513C384.06 174.993 383.945 175.474 383.831 175.955C377.633 182.025 368.525 192.157 364.482 199.477C357.392 212.311 355.657 226.22 353.711 240.208C352.436 237.421 352.971 232.899 353.426 229.751C356.762 206.685 366.291 188.988 384.174 174.513Z" fill="#523026"/>
<path d="M793.127 93.8338C807.965 64.6275 829.026 60.4922 855.476 78.6526C846.501 95.7975 821.76 111.746 803.299 100.753C801.27 99.5455 795.578 96.1472 793.892 95.5513L793.127 93.8338ZM822.08 86.0428C823.995 85.5495 825.63 85.2724 827.532 84.8587L828.529 84.621C829.544 84.4036 830.498 84.308 831.525 84.1799C832.95 83.8739 833.655 83.6496 835.024 83.2389L835.043 83.2828L835.658 82.9723C835.664 82.9701 835.669 82.968 835.674 82.9659L835.633 82.8417C833.955 82.3702 832.233 82.612 830.585 83.073L830.061 83.2016C828.537 83.4618 827.012 83.7133 825.485 83.9561C823.863 84.3598 823.64 84.4297 822.196 85.1486C819.591 85.637 806.243 89.0082 805.199 90.5104L805.222 90.6622C805.825 90.9912 820.295 86.657 822.08 86.0428Z" fill="#7D8689"/>
<path d="M822.196 85.1494L822.08 86.0436C820.295 86.6578 805.825 90.992 805.222 90.663L805.199 90.5112C806.243 89.009 819.591 85.6378 822.196 85.1494Z" fill="#E2CECA" fill-opacity="0.223529"/>
<path d="M803.235 90.5586C807.571 91.5787 796.065 94.267 795.557 94.3918C795.143 94.3371 795.066 94.365 794.686 94.1958C794.253 93.5888 795.574 93.125 795.936 93.0043L803.235 90.5586Z" fill="#E2CECA"/>
<path d="M822.196 85.1486C823.64 84.4297 823.863 84.3598 825.485 83.9561L827.532 84.8587C825.63 85.2724 823.995 85.5495 822.08 86.0428L822.196 85.1486Z" fill="#FAF9F9" fill-opacity="0.568627"/>
<path d="M830.585 83.0738C832.233 82.6128 833.955 82.371 835.633 82.8425L835.674 82.9667C835.669 82.9688 835.664 82.9709 835.658 82.9731L835.043 83.2836L835.024 83.2397C833.655 83.6504 832.95 83.8747 831.525 84.1807L830.585 83.0738Z" fill="#FAF9F9" fill-opacity="0.666667"/>
<path d="M825.484 83.9566C827.011 83.7138 828.536 83.4623 830.06 83.2021L828.528 84.6215L827.531 84.8592L825.484 83.9566Z" fill="#E2CECA" fill-opacity="0.196078"/>
<path d="M830.585 83.0732L831.525 84.1801C830.498 84.3082 829.544 84.4038 828.529 84.6212L830.061 83.2018L830.585 83.0732Z" fill="#FAF9F9" fill-opacity="0.4"/>
<path d="M233.496 79.3218C246.02 70.1149 260.533 63.5141 275.779 71.275C284.714 75.8231 292.561 84.7541 295.724 94.2972L295.71 95.814L294.356 95.116C271.657 114.79 247.845 100.471 233.496 79.3218ZM285.034 90.4669C276.517 86.5141 260.799 82.5556 251.419 82.7026C260.095 84.8338 268.9 85.9031 277.431 88.8849C280.64 90.0064 281.589 90.3701 285.034 90.4669Z" fill="#7D8689"/>
<path d="M285.673 90.6943C287.898 90.9768 294.419 92.4251 294.356 95.1167C294.187 95.0651 284.844 91.4241 285.009 91.5234C285.025 91.2255 285.438 90.9241 285.673 90.6943Z" fill="#FAF9F9"/>
<path d="M251.419 82.7032C260.799 82.5562 276.517 86.5147 285.034 90.4675C281.589 90.3707 280.64 90.007 277.431 88.8855C268.9 85.9037 260.095 84.8344 251.419 82.7032Z" fill="#E2CECA" fill-opacity="0.192157"/>
<path d="M386.956 61.5713C420.547 97.4775 393.864 123.05 397.794 132.783L399.609 134.031L398.646 135.365L397.663 135.1C392.753 124.211 388.251 109.553 387.2 97.6444C386.761 92.6704 387.238 87.4974 386.675 81.9995L386.059 81.9944C384.191 86.9763 386.228 104.043 387.304 109.874C384.567 105.354 382.68 102.078 379.305 98.0193C379.214 98.882 396.577 129.956 395.098 135.06C394.044 134.347 392.982 133.645 391.913 132.955L390.746 134.108C386.36 131.002 382.476 129.051 378.115 126.235L378.874 125.376L379.02 124.868L380.743 124.135C380.44 120.134 375.125 111.886 374.086 107.056C370.715 91.3873 376.347 73.3146 386.956 61.5713Z" fill="#C6AD9E"/>
<path d="M378.115 126.235L378.874 125.376C383.017 127.552 388.08 130.28 391.913 132.954L390.746 134.108C386.36 131.002 382.476 129.051 378.115 126.235Z" fill="#523D37"/>
<path d="M315.649 102.122L316.644 101.501C322.244 103.28 338.482 108.385 343.013 110.762C322.659 136.44 310.383 136.094 279.445 133.465C286.204 113.543 296.713 107.913 315.649 102.122ZM307.124 116.144C304.991 116.971 303.528 117.512 301.494 118.552C296.858 120.727 298.062 121.193 302.374 119.582C304.276 118.561 306.467 117.831 308.505 117.073L307.124 116.144ZM331.327 111.174C339.126 109.95 336.445 108.597 331.158 109.977L331.327 111.174Z" fill="#7D8689"/>
<path d="M307.124 116.144C312.252 113.687 325.336 110.735 331.158 109.977L331.327 111.173C323.586 112.597 315.829 114.086 308.505 117.073L307.124 116.144Z" fill="#FAF9F9"/>
<path d="M307.124 116.144L308.505 117.073C306.467 117.83 304.276 118.56 302.374 119.581L301.494 118.552C303.528 117.511 304.991 116.97 307.124 116.144Z" fill="#FAF9F9" fill-opacity="0.745098"/>
<path d="M331.158 109.976C336.445 108.596 339.126 109.949 331.327 111.173L331.158 109.976Z" fill="#FAF9F9" fill-opacity="0.756863"/>
<path d="M301.494 118.552L302.374 119.581C298.062 121.192 296.858 120.726 301.494 118.552Z" fill="#E2CECA" fill-opacity="0.588235"/>
<path d="M923.093 152.121C942.273 142.856 942.784 134.994 955.184 120.196C958.014 116.823 966.244 118.755 967.184 123.575C970.794 136.912 939.153 146.021 935.853 151.813C938.383 152.492 954.424 151.459 957.554 151.039C963.074 150.3 971.873 144.077 976.593 140.675C976.963 136.658 977.273 133.076 980.513 130.2C981.823 129.016 983.564 128.418 985.334 128.545C994.774 129.133 1000.58 147.984 979.243 144.123C976.623 145.506 965.433 150.931 964.253 152.665L964.873 153.067L964.194 153.405C955.964 152.941 951.113 153.625 943.243 153.561L899.544 152.895C894.874 152.864 879.874 153.928 877.104 151.742C880.864 151.821 885.264 151.776 888.924 152.353C894.834 149.556 897.124 148.478 903.054 143.391C909.754 137.643 917.153 119.101 928.383 122.439C934.493 124.255 932.244 132.807 928.034 135.415C919.834 142.469 908.583 146.279 898.873 150.998C907.453 151.882 914.473 150.842 923.093 152.121Z" fill="#7D8689"/>
<path d="M768.79 102.608C771.135 101.979 771.662 101.397 773.884 101.98L775.192 103.288C794.838 107.488 802.866 116.103 811.056 133.716C792.21 134.755 772.429 137.107 757.763 123.476C752.64 118.715 750.255 114.756 746.211 110.679C747.816 109.694 752.183 108.39 754.186 107.726L754.12 108.846C756.253 109.15 758.329 109.528 760.486 109.826C760.229 106.825 759.458 108.245 759.365 105.646C762.842 104.739 765.445 103.818 768.79 102.608ZM787.045 119.61C792.327 122.147 791.876 120.329 787.447 118.476C783.008 116.363 779.463 115.165 774.884 113.703C773.201 113.23 771.866 112.781 770.137 112.373L769.978 113.849C771.722 114.124 772.337 114.363 774.019 114.866C778.515 116.386 782.639 117.73 787.045 119.61Z" fill="#7D8689"/>
<path d="M774.885 113.704C779.464 115.166 783.009 116.364 787.448 118.477L787.046 119.611C782.64 117.731 778.516 116.387 774.02 114.867L774.885 113.704Z" fill="#E2CECA" fill-opacity="0.972549"/>
<path d="M770.138 112.373C771.867 112.782 773.202 113.231 774.885 113.704L774.02 114.866C772.338 114.364 771.723 114.125 769.979 113.85L770.138 112.373Z" fill="#FAF9F9" fill-opacity="0.85098"/>
<path d="M787.447 118.477C791.876 120.33 792.327 122.148 787.045 119.611L787.447 118.477Z" fill="#FAF9F9" fill-opacity="0.713726"/>
<path d="M754.12 108.846C756.253 109.15 758.329 109.528 760.486 109.826C763.148 110.816 767.171 111.48 770.137 112.373L769.978 113.85C767.765 112.999 753.112 109.963 752.645 109.218C752.92 109.065 753.773 108.921 754.12 108.846Z" fill="#FAF9F9"/>
<path d="M768.79 102.608C771.135 101.979 771.662 101.397 773.884 101.98L775.192 103.288C772.274 103.767 771.269 103.959 768.79 102.608Z" fill="#FAF9F9"/>
<path d="M311.429 49.251C325.763 58.9619 336.542 68.43 340.595 86.1358C342.976 96.5359 339.336 103.982 339.966 107.525C339.076 107.352 337.86 106.836 336.972 106.506L335.273 105.928C326.513 103.258 317.767 100.541 309.035 97.7765L315.694 97.3697C315.435 95.6937 314.134 94.104 313.199 92.6388C304.452 78.929 306.415 63.8472 311.429 49.251ZM323.414 86.2582C322.967 82.8956 322.458 81.4481 320.617 78.5677C321.2 82.1748 321.249 83.2563 323.414 86.2582Z" fill="#7D8689"/>
<path d="M335.273 105.928C334.088 104.25 327.74 95.9207 327.549 94.6519L327.942 94.2559C329.159 94.775 337.401 105.432 336.972 106.506L335.273 105.928Z" fill="#E2CECA"/>
<path d="M320.617 78.5669C318.486 77.3856 318.696 75.0914 318.944 72.8779C319.814 74.5974 321.346 76.7055 320.617 78.5669Z" fill="#B6BCBE"/>
<path d="M320.617 78.5674C322.458 81.4478 322.967 82.8953 323.414 86.2579C321.249 83.256 321.2 82.1745 320.617 78.5674Z" fill="#E2CECA" fill-opacity="0.164706"/>
<path d="M777.772 49C781.252 59.0944 783.596 70.3472 780.967 80.9338C780.047 84.5643 778.637 88.0529 776.778 91.304C775.302 93.8515 771.709 97.6438 772.009 100.147C770.001 101.194 758.385 104.178 754.635 105.439C753.708 105.807 752.785 106.18 751.863 106.558L750.084 107.413C745.477 78.54 755.536 64.8119 777.772 49Z" fill="#7D8689"/>
<path d="M751.863 106.558C757.557 98.7536 762.543 93.17 765.98 83.6952C766.427 82.4608 769.684 73.6056 770.487 73.7089C773.207 77.3198 757.647 101.492 754.636 105.439C753.709 105.806 752.785 106.179 751.863 106.558Z" fill="#FAF9F9"/>
<path d="M369.822 122.922L370.371 122.374C373.197 123.645 375.39 124.756 378.116 126.235C382.477 129.051 386.361 131.002 390.747 134.108L393.369 135.833L393.421 136.254C384.07 137.328 364.541 135.643 356.109 137.742L355.694 138.404C357.277 139.281 362.108 138.525 364.506 138.411C375.179 137.901 385.589 138.232 396.233 138.262C395.718 139.377 393.896 143.52 393.314 144.254C388.094 141.856 379.622 154.802 368.359 154.178C353.325 153.345 345.66 148.646 335.16 139.035C347.83 127.877 354.072 126.154 369.822 122.922Z" fill="#C6AD9E" fill-opacity="0.988235"/>
<path d="M428.837 193.422C431.247 192.685 433.321 192.843 435.837 192.857C434.509 197.816 430.198 222.755 422.769 219.717C418.786 214.395 423.105 206.463 425.611 201.461C419.546 205.385 415.172 209.744 411.022 215.669C411.947 221.855 414.827 237.348 407.626 239.862C404.714 239.19 405.724 239.76 403.65 237.843C402.771 235.282 402.742 234.697 402.527 232.052L400.359 232.394L399.325 232.248C398.755 233.252 395.047 239.726 395.411 240.166C398.986 244.491 398.634 248.616 394.001 252.207C392.838 252.948 390.554 253.478 389.369 252.747C377.561 245.46 387.851 242.23 392.509 237.756C394.039 236.286 399.427 225.431 400.697 223.051C397.408 224.943 391.926 228.201 388.257 228.385C386.461 228.487 384.697 227.871 383.354 226.674C382.349 225.791 382.696 226.141 382.562 224.558C386.533 216.542 411.771 215.173 411.559 208.828C407.603 207.895 401.133 211.24 396.366 208.659C393.666 204.553 396.891 200.727 401.236 200.12C407.677 199.222 414.639 200.209 420.996 200.925L428.884 194.093L428.837 193.422Z" fill="#C6AD9E"/>
<path d="M400.361 232.393C399.818 229.227 403.509 224.575 405.461 221.41C404.084 225.389 403 227.837 402.529 232.051L400.361 232.393Z" fill="#FAF9F9"/>
<path d="M493.468 191.207C487.773 190.665 462.458 189.55 467.329 179.525C474.242 173.782 485.084 179.1 491.794 182.737C494.232 185.955 496.549 188.779 495.253 193.126C492.613 195.178 491.293 196.374 488.931 198.753C489.138 205.728 492.666 230.269 482.868 230.292C472.689 225.348 483.007 211.634 479.327 209.629C476.669 209.995 472.729 215.054 471.057 217.233C470.709 217.689 470.37 218.151 470.038 218.618C468.408 218.116 468.534 218.138 467.664 216.677C468.203 215.01 474.375 208.79 476.069 206.909C475.743 207.022 475.414 207.131 475.084 207.233C468.886 209.199 452.837 215.546 450.342 206.394C452.297 196.465 473.271 201.413 480.627 201.529C484.727 198.777 489.586 194.471 493.468 191.207Z" fill="#523026"/>
<path d="M476.069 206.909C477.807 207.078 479.123 207.418 480.838 206.727C482.248 206.158 482.683 208.821 480.356 209.362C480.012 209.445 479.669 209.534 479.327 209.629C476.669 209.995 472.729 215.054 471.057 217.233C470.709 217.689 470.37 218.151 470.038 218.618C468.408 218.116 468.534 218.138 467.664 216.677C468.203 215.01 474.375 208.79 476.069 206.909Z" fill="#614436"/>
<path d="M651.765 192.392C652.969 192.473 660.395 192.929 661.02 193.152L660.226 194.538C661.514 196.626 666.216 199.378 668.493 200.89C674.954 200.415 693.007 197.777 694.813 205.983C692.825 212.818 686.29 209.128 681.564 209.643C680.79 208.881 677.433 206.946 676.754 207.741C676.778 208.384 680.277 212.651 681.674 211.878C685.903 218.203 706.358 216.266 707.434 225.24C707.954 229.581 701.247 228.665 699.895 228.549C696.327 228.242 689.565 221.154 688.274 221.759L688.532 222.418L688.174 222.507C687.14 222.713 686.605 222.628 685.945 223.45C688.02 225.524 688.518 226.526 689.812 229.15L688.786 230.924C686.231 233.719 688.701 239.998 681.822 240.1C676.822 236.577 678.112 221.359 679.818 215.878C677.046 212.278 670.865 205.384 666.731 203.714L666.141 204.384C666.999 208.23 670.27 214.765 668.304 218.006C666.495 219.154 666.087 219.073 663.916 219.013C663.407 218.757 662.795 218.448 662.08 218.086C658.238 211.084 655.259 199.609 651.765 192.392Z" fill="#C6AD9E"/>
<path d="M685.945 223.449C688.02 225.523 688.518 226.525 689.812 229.149L688.786 230.923C686.083 230.003 686.263 226.285 685.945 223.449Z" fill="#FAF9F9"/>
<path d="M659.729 197.22C662.736 198.85 665.573 199.54 666.479 203.419C662.623 204.311 661.686 200.644 659.729 197.22Z" fill="#E2CECA"/>
<path d="M306.73 164.825C286.966 175.716 282.987 144.222 302.039 147.246C311.679 148.777 305.723 162.25 316.094 163.766L316.488 164.104C318.239 165.627 318.048 165.669 320.063 166.935C320.711 169.591 334.756 168.221 336.91 167.626C337.211 167.225 335.632 164.555 333.907 165.827C333.269 163.16 331.437 162.488 329.098 163.786L327.488 164.377C326.496 164.739 326.096 164.8 325.066 164.968C323.176 164.14 321.351 163.558 319.507 162.606C318.928 159.96 318.125 157.568 318.852 154.994C320.485 152.602 322.39 150.646 325.276 149.919C329 150.534 330.782 153.851 331.33 157.39C332.226 163.189 336.451 164.499 340.654 167.664L340.694 169.883C338.147 169.117 327.237 169.419 324.889 170.578C319.899 173.041 316.629 178.359 310.065 178.041C305.823 175.973 306.804 170.501 307.874 166.631C307.497 165.542 307.613 165.33 306.73 164.825Z" fill="#685349"/>
<path d="M306.73 164.825C306.259 164.491 305.732 164.006 305.186 163.939C285.903 172.263 286.973 143.427 303.125 149.269C310.835 152.058 306.009 162.563 306.241 163.353C307.016 163.609 307.23 162.714 308.167 162.428C309.336 162.99 311.413 163.647 312.316 164.326C312.643 165.65 309.186 166.742 307.874 166.631C307.497 165.542 307.613 165.33 306.73 164.825Z" fill="#7D8689"/>
<path d="M323.38 152.904C324.406 152.844 325.423 152.783 326.451 152.78C328.372 153.288 329.839 154.84 330.238 156.787C330.637 158.733 329.898 160.738 328.332 161.96C326.336 162.897 325.541 162.936 323.335 162.753C321.258 162 319.878 160.022 319.888 157.813C319.898 155.603 321.296 153.638 323.38 152.904Z" fill="#7D8689"/>
<path d="M328.332 161.96C326.336 162.897 325.541 162.936 323.335 162.753C325.026 163.366 326.913 163.067 328.332 161.96Z" fill="#6C6C68"/>
<path d="M323.38 152.904C324.406 152.844 325.423 152.783 326.451 152.78C325.438 152.513 324.368 152.556 323.38 152.904Z" fill="#7F665D"/>
<path d="M313.044 166.123C315.782 165.774 318.29 167.693 318.671 170.427C319.052 173.161 317.164 175.692 314.435 176.106C312.641 176.377 310.84 175.663 309.719 174.236C308.598 172.809 308.33 170.89 309.018 169.21C309.707 167.531 311.244 166.352 313.044 166.123Z" fill="#7D8689"/>
<path d="M850.04 150.723C860.959 145.677 864.736 141.848 872.843 133.263C879.553 126.16 892.173 103.026 903.033 106.936C915.563 116.332 886.013 137.941 878.253 141.518C872.137 144.332 865.506 148.473 858.884 150.119C858.167 150.657 857.462 151.208 856.767 151.773C854.262 151.754 852.184 151.984 850.04 150.723Z" fill="#7D8689"/>
<path d="M231.845 151.255C215.103 144.816 193.902 134.09 184.206 118.493C178.378 106.564 189.881 102.281 197.887 111.345C210.947 126.133 220.12 143.252 239.174 151.068C235.509 152.984 225.865 152.026 221.519 151.773L231.845 151.255Z" fill="#7D8689"/>
<path d="M263.033 149.033C264.468 148.742 266.314 148.576 267.377 147.78C255.978 142.176 216.929 127.199 221.999 109.755C222.253 108.882 223.724 107.558 224.698 107.522C232.511 106.616 240.437 116.15 244.888 120.999C256.142 133.26 264.052 143.192 279.987 149.404C276.119 151.603 267.224 150.34 263.033 149.033Z" fill="#7D8689"/>
<path d="M809.318 149.244C826.113 141.553 834.777 130.604 846.925 116.885C850.098 113.301 862.123 101.409 866.495 111.466C870.799 128.342 825.689 145.335 815.496 150.07C812.128 150.692 811.808 150.734 809.318 149.244Z" fill="#7D8689"/>
<path d="M594.314 192.396C595.568 192.07 596.061 192.243 596.703 191.077C600.863 194.459 604.815 198.067 608.81 201.642C616.223 200.039 622.668 200.599 630.077 200.625C639.99 200.66 642.11 209.487 634.254 211.688C630.041 212.869 620.191 207.019 613.991 207.621C613.003 207.548 612.181 206.629 611.509 205.976L610.05 206.817C606.827 209.48 614.468 221.96 611.587 226.715C609.6 229.995 606.668 230.303 603.529 228.792C598.976 223.536 600.79 206.182 600.582 197.964L594.314 192.396Z" fill="#523026"/>
<path d="M850.342 154.299C851.633 153.573 853.442 153.598 854.969 153.474C862.748 157.389 901.713 174.479 896.723 188.17C893.853 196.035 881.533 188.088 879.053 183.734C870.164 172.985 862.515 161.702 850.342 154.299Z" fill="#7D8689"/>
<path d="M467.664 216.677C468.534 218.138 468.408 218.116 470.038 218.618C470.58 225.082 474.641 247.977 465.005 247.835C460.285 247.765 461.131 240.36 461.11 237.535C459.379 237.28 459.68 237.338 458.095 236.506C457.085 236.567 452.488 244.853 451.899 246.005C450.921 245.655 450.755 245.636 449.926 245.02C451.948 240.937 457.652 229.639 460.865 226.906C460.945 226.297 461.152 225.367 461.063 224.779C460.951 224.694 460.839 224.609 460.727 224.524C454.992 226.516 448.549 235.734 441.747 233.469C440.472 233.053 439.416 232.145 438.812 230.947C434.241 221.723 461.904 219.543 467.664 216.677Z" fill="#523026"/>
<path d="M460.865 226.906C463.75 225.535 462.431 223.124 465.05 223.9C465.667 224.03 465.49 223.947 465.719 224.098C466.034 224.888 461.646 235.751 461.11 237.535C459.379 237.28 459.68 237.338 458.095 236.506C457.085 236.567 452.488 244.853 451.899 246.005C450.921 245.655 450.755 245.636 449.926 245.02C451.948 240.937 457.652 229.639 460.865 226.906Z" fill="#614436"/>
<path d="M465.05 223.9C465.667 224.03 465.49 223.947 465.719 224.098C466.034 224.888 461.646 235.751 461.11 237.535C459.923 236.152 458.749 235.593 458.346 234.914C458.326 233.771 464.183 225.375 465.05 223.9Z" fill="#FAF9F9"/>
<path d="M230.088 153.911C232.353 152.994 237.444 153.507 240.059 153.762C227.171 160.241 217.743 173.535 208.772 184.511C197.156 198.724 183.166 186.851 197.703 174.916C207.599 166.792 219.075 161.256 230.208 155.003L230.088 153.911Z" fill="#7D8689"/>
<path d="M986.933 152.844C998.273 148.364 1011.46 145.413 1023.4 150.13C1032.03 153.538 1031.53 161.223 1021.87 162.418C1010.12 164.016 994.553 161.896 984.913 154.746L984.873 154.324L986.933 152.844Z" fill="#7D8689"/>
<path d="M103.422 154.895C95.955 158.702 89.477 161.568 81.045 162.444C74.358 163.138 59.525 164.975 59 155.457C63.877 142.307 92.383 149.319 102.291 152.978L103.422 154.895Z" fill="#7D8689"/>
<path d="M733.599 181.522C738.658 185.652 743.106 189.477 747.704 194.201C752.803 199.438 757.796 205.696 763.481 210.267C766.909 213.023 773.528 207.35 777.228 210.952C782.673 215.973 781.053 220.277 776.81 225.025C778.666 228.295 781.677 233.253 783.253 236.494C787.177 237.118 794.983 238.484 796.758 242.337C803.628 257.251 773.568 263.981 777.946 243.281C779.42 247.648 778.051 248.716 781.406 252.61C786.626 258.67 794.216 254.42 796.067 248.037C796.938 245.032 792.802 240.049 790.508 239.179C784.797 237.014 782.21 240.766 778.286 242.589C779.435 240.071 780.156 239.665 782.289 237.931C779.522 233.328 777.826 230.687 774.538 226.457C770.117 226.342 769.778 226.261 765.674 224.22C765.343 220.952 763.862 220.377 763.969 215.805C764.11 209.805 760.819 215.725 762.124 220.08C763.264 223.885 760.441 225.474 764.81 228.848C760.866 229.846 754.496 230.046 756.205 236.89C756.641 238.572 757.757 239.997 759.286 240.823C764.871 243.877 772.828 237.514 767.92 231.808C767 230.739 767.329 230.377 767.852 229.447C770.47 231.813 772.717 237.651 769.5 239.99C759.262 247.437 744.703 236.626 761.029 227.459C760.531 221.385 760.255 217.202 761.147 211.168C755.198 203.765 749.189 197.904 742.503 191.206C741.354 189.759 740.921 188.708 739.209 188.208L736.549 185.947C736.199 185.143 736.074 185.148 735.247 184.849L732.062 182.4L733.599 181.522ZM773.189 216.43C773.667 214.429 771.354 215.335 769.795 215.463C770.428 217.33 771.444 216.701 773.189 216.43Z" fill="#685349" fill-opacity="0.960784"/>
<path d="M776.079 212.431C778.9 214.401 779.742 218.205 778.016 221.182C776.289 224.159 772.571 225.318 769.46 223.848C766.349 222.378 764.882 218.769 766.085 215.545C767.288 212.32 770.759 210.555 774.073 211.482C774.79 211.683 775.469 212.004 776.079 212.431ZM773.189 216.43C773.667 214.429 771.354 215.335 769.795 215.463C770.428 217.33 771.444 216.701 773.189 216.43Z" fill="#7D8689"/>
<path d="M769.795 215.463C771.354 215.335 773.667 214.429 773.189 216.43C771.444 216.701 770.428 217.33 769.795 215.463Z" fill="#7D8689" fill-opacity="0.223529"/>
<path d="M890.833 155.059C893.173 154.154 894.263 154.366 896.603 154.708C897.543 155.19 898.123 155.481 899.113 155.861C905.033 159.775 939.313 174.707 931.123 186.73C922.113 199.955 907.813 171.26 903.803 166.048C900.433 161.653 895.853 158.343 890.833 155.059Z" fill="#7D8689"/>
<path d="M774.227 163.705C775.459 163.428 779.458 161.741 779.863 160.567C780.578 157.948 779.495 156.018 780.645 153.174C783.893 145.146 796.966 144.909 799.346 153.551C802.245 164.078 791.905 169.412 783.273 164.821C782.336 164.323 779.2 163.686 780.332 165.778C784.719 172.514 780.351 180.552 772.125 177.457C769.141 176.335 768.868 172.245 768.47 169.483C767.655 169.14 767.091 169.018 766.197 168.959C766.768 168.832 767.101 168.77 767.659 168.592L768.051 168.465L769.781 166.479C771.685 164.83 772.086 164.824 774.227 163.705Z" fill="#614436"/>
<path d="M787.966 148.849C789.948 148.748 790.312 148.722 792.318 149.023C792.844 149.192 793.352 149.414 793.833 149.685C794.6 150.205 794.871 150.413 795.582 151.01C798.03 153.448 798.677 157.164 797.197 160.286C795.717 163.408 792.432 165.259 788.996 164.907C785.559 164.554 782.718 162.075 781.902 158.718C781.789 156.845 781.689 156.201 782.061 154.3C782.936 151.572 785.178 149.502 787.966 148.849Z" fill="#7D8689"/>
<path d="M782.061 154.3C781.603 155.73 781.548 157.258 781.902 158.718C781.789 156.845 781.689 156.201 782.061 154.3Z" fill="#6C6C68"/>
<path d="M787.966 148.849C789.948 148.748 790.312 148.722 792.318 149.023C790.91 148.572 789.406 148.511 787.966 148.849Z" fill="#6C6C68"/>
<path d="M772.776 166.542C775.386 165.192 778.597 166.213 779.947 168.824C781.298 171.434 780.278 174.646 777.668 175.998C775.057 177.35 771.845 176.329 770.494 173.717C769.143 171.106 770.165 167.893 772.776 166.542Z" fill="#7D8689"/>
<path d="M610.051 206.818L611.51 205.977C612.182 206.63 613.004 207.549 613.992 207.622C617.705 211.23 619.817 213.716 623.103 217.739C629.642 218.905 649.519 221.425 650.832 229.391C650.068 231.575 649.91 231.795 648.132 233.277C639.566 236.337 634.015 224.84 627.915 224.642C626.967 226.295 627.418 226.576 627.414 228.511C627.494 228.741 627.575 228.971 627.655 229.201L625.767 230.717C626.723 233.369 626.947 235.673 627.824 238.121C628.181 242.332 627.783 247.029 622.781 247.966C616.234 244.568 619.392 224.821 619.324 217.889C616.499 214.285 613.035 210.359 610.051 206.818Z" fill="#523026"/>
<path d="M625.766 230.716C625.548 229.972 624.241 226.425 624.669 225.539C624.692 225.491 624.825 225.456 624.879 225.472C625.65 225.698 627.172 228.186 627.413 228.51C627.493 228.74 627.574 228.97 627.654 229.2L625.766 230.716Z" fill="#FAF9F9"/>
<path d="M191.971 154.457C193.889 154.469 196.451 154.221 197.996 155.104C191.163 159.067 189.004 160.567 183.561 166.693C177.161 173.899 173.372 190.953 161.485 188.752C157.846 188.078 155.087 182.57 157.081 179.055C162.927 168.749 178.97 161.624 188.936 156.166C189.939 155.571 190.988 155.093 191.971 154.457Z" fill="#7D8689"/>
<path d="M153.929 152.404C151.378 145.496 115.515 137.416 123.034 122.265C124.706 118.898 130.168 117.528 133.217 119.662C139.809 124.277 142.012 133.419 147.029 139.485C151.126 144.121 159.623 149.492 164.869 152.869C162.066 153.095 156.18 153.652 153.929 152.404Z" fill="#7D8689"/>
<path d="M925.673 155.011L931.633 154.825C941.473 159.975 959.753 166.739 964.753 176.58C967.363 181.717 958.673 189.159 953.733 184.406C941.983 173.098 939.873 164.848 925.673 155.011Z" fill="#7D8689"/>
<path d="M610.962 100.656C616.975 99.5931 627.909 97.3324 633.15 100.171C638.022 102.809 631.978 109.021 629.88 110.917C628.518 111.514 628.039 111.739 626.785 112.503C617.59 115.427 606.507 114.878 596.785 115.444C598.972 112.193 607.629 102.17 610.962 100.656Z" fill="#7D8689"/>
<path d="M476.747 98.7741C481.577 101.45 488.889 111.055 492.996 114.611L492.58 115.315C486.313 115.068 454.748 116.837 455.743 102.636C456.269 95.1289 472.664 101.075 476.747 98.7741Z" fill="#7D8689"/>
<path d="M157.199 154.612C159.219 154.569 161.416 154.286 163.169 155.102C147.106 163.509 148.056 171.719 136.863 183.293C135.509 184.515 131.312 185.733 129.693 185.046C107.445 175.604 152.832 156.809 157.199 154.612Z" fill="#7D8689"/>
<path d="M188.71 150.631C181.127 145.851 170.215 142.656 162.381 137.835C158.59 135.502 153.615 128.724 157.433 124.837C167.781 114.301 178.606 136.578 184.294 142.611C186.747 145.213 188.952 146.411 191.64 148.616L191.371 149.171C191.115 149.727 190.87 149.998 190.358 150.306L189.86 150.611L188.71 150.631Z" fill="#7D8689"/>
<path d="M474.587 94.3106C479.036 89.0681 469.437 85.4559 474.395 79.501C482.14 70.2005 488.548 82.0369 489.209 89.512C489.84 96.6578 489.722 101.291 489.645 107.95C489.062 107.894 475.132 95.1027 474.587 94.3106Z" fill="#7D8689"/>
<path d="M601.172 107.177C600.475 99.9774 598.925 78.0569 608.722 76.5602C610.699 76.2542 612.716 76.7667 614.307 77.9796C619.615 82.055 612.08 88.5423 612.989 95.1718C613.235 95.3763 613.549 95.5459 613.612 95.8554C612.185 97.7055 603.829 104.461 601.172 107.177Z" fill="#7D8689"/>
<path d="M128.336 154.731C130.139 154.828 132.05 154.839 133.786 155.267C128.016 157.438 117.122 163.261 111.75 166.304C112.053 170.183 112.399 175.723 106.49 178.623C92.4958 185.491 88.9778 154.875 108.995 163.195C110.809 163.949 124.544 156.646 128.336 154.731Z" fill="#7D8689"/>
<path d="M604.8 178.967C608.381 177.68 616.564 175.029 619.656 177.528C633.031 188.337 601.275 190.364 596.705 191.078C596.063 192.244 595.569 192.071 594.315 192.397L593.676 192.269C590.587 188.683 592.035 189.205 594.38 185.659C596.396 184.011 598.678 182.62 600.365 181.204C601.964 180.283 603.296 179.843 604.8 178.967Z" fill="#523026"/>
<path d="M808 151.682C811.458 151.022 812.52 150.857 815.732 152.196C817.531 153.931 825.498 157.95 828.154 159.61C834.953 163.86 839.762 167.739 845.708 173.025C840.035 173.527 838.001 173.867 832.431 174.883C824.399 167.196 815.873 159.406 808 151.682Z" fill="#7D8689"/>
<path d="M808 151.682C806.655 150.779 806.962 151.364 806.697 150.097L809.318 149.244C811.808 150.734 812.128 150.692 815.496 150.07L816.289 150.29C820.156 151.256 822.84 151.102 826.759 150.806C833.253 150.948 843.956 151.506 850.04 150.722C852.184 151.983 854.262 151.753 856.767 151.772L860.065 151.632C865.605 151.682 871.606 151.854 877.103 151.742C879.873 153.928 894.873 152.864 899.543 152.895L943.243 153.561C951.113 153.625 955.963 152.941 964.193 153.405L964.873 153.067C972.483 153.462 979.393 152.815 986.933 152.844L984.873 154.324C982.163 154.012 969.363 153.942 966.823 154.495L962.363 155.065C960.483 154.799 959.193 154.989 957.413 155.677C952.273 153.876 937.713 154.632 931.633 154.825L925.673 155.011L923.103 154.77C918.523 153.94 901.433 154.026 896.603 154.707C894.263 154.365 893.173 154.153 890.833 155.058C887.313 153.611 860.936 153.616 854.969 153.473C853.442 153.597 851.633 153.572 850.342 154.298C847.835 153.181 830.836 152.364 826.949 152.058C823.69 151.443 819.042 150.979 815.92 152.185L815.732 152.196C812.52 150.857 811.458 151.022 808 151.682Z" fill="#614436" fill-opacity="0.984314"/>
<path d="M276.174 151.739C278.71 151.105 279.381 151.298 281.942 151.655C272.078 159.864 265.517 165.971 256.498 175.193C251.574 173.444 246.623 173.359 241.474 173.173C255.688 164.183 259.665 160.102 276.174 151.739Z" fill="#7D8689"/>
<path d="M623.951 89.7143C625.465 88.4128 631.972 83.5334 633.623 83.1748C637.416 84.9558 652.673 82.9605 653.687 88.2828C656.608 103.608 630.44 92.0656 623.951 89.7143Z" fill="#7D8689"/>
<path d="M457.174 83.6396C458.861 84.234 463.771 87.8581 465.305 89.1392C462.731 90.0539 430.451 104.966 436.545 87.6593C438.012 83.4924 451.996 84.2039 457.174 83.6396Z" fill="#7D8689"/>
<path d="M978.333 163.588C979.683 164.084 990.513 157.565 993.363 166.964C998.303 183.298 973.113 183.227 976.273 166.409C976.953 165.461 977.633 164.521 978.333 163.588Z" fill="#7D8689"/>
<path d="M627.238 84.9453C627.376 78.1212 627.391 69.0313 629.738 62.623C631.349 59.5072 637.247 58.7121 639.63 60.8402C645.965 66.4978 634.332 72.9168 640.489 76.4137C638.976 77.9503 630.013 83.2366 627.238 84.9453Z" fill="#7D8689"/>
<path d="M449.917 76.5698C455.468 75.0309 445.235 67.7671 448.476 62.5751C451.745 57.3405 459.668 60.1648 460.38 65.877C461.726 72.446 461.438 77.4182 461.995 83.5124C459.633 82.9758 450.88 78.4793 449.917 76.5698Z" fill="#7D8689"/>
<path d="M778.286 242.589C782.21 240.766 784.796 237.014 790.507 239.179C792.801 240.049 796.937 245.032 796.066 248.037C794.215 254.42 786.625 258.67 781.405 252.61C778.05 248.716 779.419 247.648 777.945 243.281L778.286 242.589Z" fill="#7D8689"/>
<path d="M109.116 143.807C100.075 149.396 89.1387 137.332 98.2837 130.047C100.071 128.624 103.166 128.232 105.37 128.714C107.449 129.168 109.247 130.463 110.337 132.291C112.192 135.371 111.72 138.251 110.875 141.493C110.281 142.258 109.694 143.03 109.116 143.807Z" fill="#7D8689"/>
<path d="M757.892 160.465L758.69 160.412L760.304 162.318L759.381 163.111C757.399 162.615 751.52 166.126 754.524 167.679C755.846 168.352 755.933 168.372 756.997 169.419C754.573 169.39 751.577 169.271 749.207 169.367C747.263 170.716 743.981 172.703 742.807 174.549L743.541 176.28C747.009 177.592 751.035 178.109 754.707 178.798C770.373 181.736 786.164 186.584 800.498 193.598L799.618 194.5C776.22 186.264 758.711 179.45 733.153 176.9C730.552 176.387 728.191 175.925 725.561 175.628C724.545 175.606 724.523 175.727 723.626 176.277C721.002 175.252 717.394 173.276 714.798 171.954L715.746 170.932C724.012 173.625 729.481 174.656 738.118 175.706C742.438 172.294 755.564 163.538 757.892 160.465Z" fill="#614436" fill-opacity="0.964706"/>
<path d="M627.915 224.642C628.831 226.398 639.761 245.178 639.885 245.174C647.524 244.933 651.912 252.33 644.812 257.194C641.886 259.198 635.915 257.554 634.976 253.611C633.282 249.465 637.013 246.402 636.759 245.634C636.244 245.415 635.732 245.935 635.305 246.188C634.093 245.434 633.297 238.719 631.952 236.129C630.449 233.405 629.447 231.784 627.655 229.201C627.575 228.971 627.494 228.741 627.414 228.511C627.418 226.576 626.967 226.295 627.915 224.642Z" fill="#523026"/>
<path d="M685.945 223.449C686.605 222.627 687.14 222.712 688.174 222.506L688.532 222.417C691.751 226.408 695.455 233.798 697.771 238.438C700.465 239.563 703.821 240.711 704.8 243.683C707.385 251.522 697.711 257.837 693.612 248.573C691.128 242.959 695.813 242.736 695.047 238.664C694.981 238.313 692.468 238.772 692.968 237.246C694.058 235.265 691.148 231.239 689.812 229.149C688.518 226.525 688.02 225.523 685.945 223.449Z" fill="#C6A49B"/>
<path d="M198.083 151.839L200.46 152.338C202.7 154.106 203.888 152.629 206.873 153.362C206.169 153.281 206.163 153.426 205.748 154.049C203.167 154.15 200.281 154.037 197.996 155.104C196.451 154.221 193.889 154.469 191.971 154.457C189.987 154.42 188.004 154.346 186.022 154.238C181.021 154.144 167.128 153.474 163.169 155.102C161.416 154.286 159.219 154.569 157.199 154.612C150.794 154.201 139.936 153.523 133.786 155.267C132.05 154.839 130.139 154.828 128.336 154.731C120.217 154.548 111.58 154.796 103.422 154.895L102.291 152.978C110.277 152.97 118.263 152.917 126.248 152.817C128.914 153.164 129.592 153.117 132.164 152.406L133.373 153.042C135.954 154.103 139.177 153.535 141.832 152.966C146.055 152.918 149.723 152.945 153.93 152.403C156.181 153.651 162.067 153.094 164.87 152.868C169.546 152.313 175.074 152.405 179.853 152.353C184.409 153.072 189.362 152.899 193.983 152.738C196.185 152.701 196.143 152.737 198.083 151.839Z" fill="#523D37" fill-opacity="0.945098"/>
<path d="M757.892 160.466C753.205 149.167 775.582 146.111 769.989 162.81C769 163.031 769.067 163.051 768.991 164.038C764.612 164.688 763.493 164.989 759.382 163.112L760.304 162.319L758.69 160.413L757.892 160.466Z" fill="#7D8689"/>
<path d="M757.892 160.466C753.205 149.167 775.582 146.111 769.989 162.81C769 163.031 769.067 163.051 768.991 164.038C764.612 164.688 763.493 164.989 759.382 163.112L760.304 162.319C765.952 163.548 772.561 162.369 768.015 154.637C765.249 149.932 758.578 153.124 758.69 160.413L757.892 160.466Z" fill="#6C6C68"/>
<path d="M295.724 94.2979C299.136 94.9919 305.801 96.5006 309.035 97.7764C317.767 100.541 326.513 103.258 335.273 105.928L336.972 106.506C337.86 106.836 339.076 107.352 339.966 107.525C347.766 110.514 355.447 113.804 362.993 117.387C366.317 118.961 376.008 123.88 379.021 124.869L378.875 125.377L378.116 126.236C375.39 124.756 373.197 123.646 370.371 122.375L369.822 122.923C366.311 119.449 348.055 112.656 343.013 110.762C338.482 108.385 322.244 103.28 316.644 101.501L315.649 102.122C312.765 100.168 299.62 96.8895 295.71 95.8147L295.724 94.2979Z" fill="#614436" fill-opacity="0.964706"/>
<path d="M451.899 246.005C456.481 250.271 454.659 257.627 448.191 258.219C446.421 258.371 444.668 257.766 443.369 256.552C438.841 252.309 440.338 244.095 449.926 245.02C450.755 245.636 450.921 245.655 451.899 246.005Z" fill="#523026"/>
<path d="M437.079 71.2646C435.15 74.2342 431.234 75.1726 428.169 73.3998C425.104 71.6269 423.964 67.7638 425.574 64.6101C427.185 61.4564 430.983 60.1169 434.215 61.5623C437.448 63.0077 438.982 66.7317 437.707 70.0355C437.541 70.4658 437.33 70.8777 437.079 71.2646Z" fill="#523026"/>
<path d="M764.81 228.848C765.962 228.844 766.571 228.772 767.701 229.028L767.852 229.447C767.329 230.377 767 230.739 767.92 231.808C772.828 237.514 764.872 243.877 759.287 240.823C757.758 239.997 756.641 238.572 756.205 236.89C754.496 230.046 760.866 229.846 764.81 228.848Z" fill="#7D8689"/>
<path d="M651.719 69.4344C650.796 66.1721 652.521 62.7456 655.691 61.5454C658.862 60.3452 662.423 61.7701 663.891 64.8262C665.359 67.8822 664.245 71.5536 661.328 73.279C658.41 75.0045 654.657 74.2106 652.688 71.4511C652.251 70.8396 651.924 70.1574 651.719 69.4344Z" fill="#523026"/>
<path d="M651.719 69.4346C651.924 70.1576 652.251 70.8398 652.688 71.4513C650.645 72.6383 634.375 82.9299 633.624 83.1748C631.973 83.5334 625.466 88.4128 623.952 89.7143C619.985 92.7809 614.319 96.993 610.962 100.656C607.629 102.17 598.972 112.193 596.785 115.444L594.634 116.616C595.15 115.299 596.535 113.229 597.325 111.941C598.676 110.368 599.896 108.805 601.172 107.177C603.829 104.462 612.185 97.7059 613.612 95.8558C613.549 95.5463 613.235 95.3767 612.989 95.1722C615.621 94.0646 624.607 87.085 627.238 84.9456C630.013 83.2369 638.976 77.9506 640.489 76.414L651.719 69.4346Z" fill="#614436" fill-opacity="0.984314"/>
<path d="M437.706 70.0361C441.041 70.7512 446.972 74.6134 449.916 76.5698C450.879 78.4793 459.632 82.9758 461.994 83.5124C465.657 88.1852 471.202 90.6503 474.587 94.3103C475.132 95.1024 489.062 107.894 489.645 107.95C490.483 110.38 491.187 110.993 492.844 112.861L492.995 114.611C488.888 111.055 481.576 101.45 476.746 98.7742C473.992 95.93 468.558 91.7624 465.305 89.1393C463.771 87.8582 458.861 84.2341 457.174 83.6397C453.48 80.7972 441.701 74.0798 437.078 71.2652C437.329 70.8783 437.54 70.4664 437.706 70.0361Z" fill="#614436" fill-opacity="0.988235"/>
<path d="M793.126 93.834L793.891 95.5515C789.851 96.9586 775.706 100.141 773.883 101.98C771.661 101.397 771.134 101.979 768.789 102.608C765.444 103.819 762.841 104.739 759.364 105.646C757.61 106.224 755.773 106.769 754.185 107.726C752.182 108.39 747.815 109.694 746.21 110.679C738.915 113.516 732.631 115.986 725.523 119.339L724.482 118.159C732.642 114.128 741.594 110.776 750.083 107.412L751.862 106.557C752.784 106.179 753.708 105.806 754.635 105.439C758.385 104.177 770.001 101.193 772.009 100.146C778.544 98.3391 786.95 96.2554 793.126 93.834Z" fill="#614436" fill-opacity="0.952941"/>
<path d="M239.174 151.068C246.714 152.039 255.852 151.328 263.033 149.033C267.224 150.34 276.119 151.603 279.987 149.404C281.769 149.757 282.619 149.575 283.581 150.728L281.942 151.655C279.381 151.298 278.71 151.105 276.174 151.739C271.091 151.637 244.063 152.473 240.059 153.761C237.444 153.506 232.353 152.993 230.088 153.91L226.792 153.615C222.594 153.268 215.245 153.192 211.025 153.372C212.94 153.201 214.19 153.715 215.398 152.297L221.519 151.773C225.865 152.026 235.509 152.984 239.174 151.068Z" fill="#614436" fill-opacity="0.980392"/>
<path d="M626.784 112.503C628.038 111.739 628.517 111.514 629.879 110.918C635.119 115.073 633.236 114.7 638.822 116.045C638.255 116.869 635.854 121.025 634.995 120.934C631.612 120.574 625.712 119.793 622.871 121.974C624.249 117.573 623.73 116.492 626.784 112.503Z" fill="#FAF9F9" fill-opacity="0.317647"/>
<path d="M110.874 141.493C115.785 143.786 127.937 149.865 132.163 152.406C129.591 153.117 128.913 153.164 126.247 152.817C120.933 149.382 114.822 147.155 109.115 143.807C109.693 143.03 110.28 142.258 110.874 141.493Z" fill="#7D8689"/>
<path d="M957.412 155.678C959.192 154.99 960.482 154.8 962.362 155.066C965.952 157.797 973.922 161.621 978.332 163.589C977.632 164.522 976.952 165.462 976.272 166.41C971.432 163.408 962.612 158.514 957.412 155.678Z" fill="#7D8689"/>
<path d="M694.705 153.468L696.265 152.255C695.827 157.146 693.61 159.14 696.723 160.792C702.751 163.99 708.676 167.228 714.769 170.314L714.096 171.743C711.549 170.311 695.334 162.326 694.045 161.152C694.191 159.552 694.125 159.496 693.693 157.947C693.702 156.539 694.331 154.89 694.705 153.468Z" fill="#685349" fill-opacity="0.937255"/>
<path d="M325.277 209.384C326.407 213.913 328.341 221.711 326.137 226.68C325.703 227.66 323.089 228.052 322.042 228.181C322.422 226.896 322.308 226.602 322.252 225.206C322.235 222.572 323.507 222.403 323.715 220.747C324.222 216.725 324.579 213.451 325.277 209.384Z" fill="#FAF9F9"/>
<path d="M357.453 182.112C363.311 177.28 365.307 175.822 372.469 173.409C370.741 175.975 370.295 176.39 367.064 176.833L367.007 176.912C367.169 177.319 369.744 178.627 370.255 178.9C368.35 179.863 367.193 180.647 365.415 181.686C360.351 180.925 362.467 181.588 357.453 182.112Z" fill="#FAF9F9" fill-opacity="0.196078"/>
<path d="M764.809 228.848C760.44 225.474 763.263 223.885 762.123 220.08C760.818 215.725 764.109 209.805 763.968 215.805C763.861 220.377 765.342 220.952 765.673 224.22C765.554 226.98 766.208 226.722 767.7 229.028C766.57 228.772 765.961 228.844 764.809 228.848Z" fill="#FAF9F9"/>
<path d="M325.067 164.968C326.097 164.8 326.497 164.739 327.489 164.377L329.099 163.786L328.978 164.788C327.4 165.953 324.633 168.087 328.851 167.619C328.818 167.391 328.786 167.162 328.753 166.934C329.184 166.595 329.708 166.327 330.19 166.018C331.407 165.964 332.703 165.932 333.908 165.827C335.633 164.555 337.212 167.225 336.911 167.626C334.757 168.221 320.712 169.591 320.064 166.935C321.864 166.588 324.225 166.699 325.067 164.968Z" fill="#FAF9F9" fill-opacity="0.458824"/>
<path d="M625.768 230.716L627.656 229.2C629.448 231.783 630.45 233.404 631.953 236.128C630.266 236.888 629.578 237.494 627.825 238.12C626.948 235.672 626.724 233.368 625.768 230.716Z" fill="#FAF9F9" fill-opacity="0.490196"/>
<path d="M754.523 167.679C758.72 168.142 764.657 167.845 768.05 168.465L767.658 168.592C767.1 168.77 766.767 168.832 766.196 168.959C767.09 169.018 767.654 169.14 768.469 169.483C765.966 170.136 759.345 170.066 756.996 169.419C755.932 168.372 755.845 168.352 754.523 167.679Z" fill="#614436" fill-opacity="0.878431"/>
<path d="M896.604 154.707C901.434 154.026 918.524 153.94 923.104 154.77C917.094 155.389 902.884 154.264 899.114 155.86C898.124 155.48 897.544 155.189 896.604 154.707Z" fill="#FAF9F9" fill-opacity="0.0588235"/>
<path d="M602.72 174.495C603.017 178.014 601.597 177.682 604.8 178.966C603.296 179.842 601.964 180.282 600.365 181.203C599.128 180.969 597.894 180.72 596.662 180.457C599.742 177.962 600.352 177.916 602.72 174.495Z" fill="#FAF9F9" fill-opacity="0.152941"/>
<path d="M316.095 163.766C317.429 163.22 318.065 162.932 319.508 162.606C321.352 163.558 323.177 164.14 325.067 164.968C324.225 166.699 321.864 166.588 320.064 166.935C318.049 165.669 318.24 165.627 316.489 164.104L316.095 163.766Z" fill="#FAF9F9" fill-opacity="0.027451"/>
<path d="M189.861 150.611C191.81 151.436 192.269 151.544 193.983 152.738C189.362 152.899 184.41 153.072 179.854 152.353C183.116 151.739 185.471 151.398 188.711 150.631L189.861 150.611Z" fill="#FAF9F9"/>
<path d="M754.185 107.726C755.773 106.769 757.61 106.224 759.364 105.646C759.457 108.245 760.228 106.825 760.485 109.826C758.328 109.528 756.252 109.15 754.119 108.846L754.185 107.726Z" fill="#7D8689" fill-opacity="0.956863"/>
<path d="M200.46 152.338C202.99 152.174 212.856 152.101 215.398 152.297C214.19 153.715 212.94 153.201 211.025 153.372C209.428 153.456 208.478 153.44 206.873 153.362C203.888 152.629 202.7 154.106 200.46 152.338Z" fill="#848180" fill-opacity="0.882353"/>
<path d="M723.626 176.277C724.523 175.727 724.545 175.606 725.561 175.628C727.289 177.292 729.478 179.181 731.781 179.924L733.599 181.522L732.063 182.4C729.345 180.375 726.114 178.27 723.626 176.277Z" fill="#848180" fill-opacity="0.745098"/>
<path d="M191.639 148.616C194.199 149.965 195.307 150.704 198.082 151.839C196.142 152.737 196.184 152.701 193.982 152.738C192.268 151.544 191.808 151.436 189.859 150.611L190.357 150.306C190.869 149.998 191.114 149.727 191.37 149.171L191.639 148.616Z" fill="#7D8689"/>
<path d="M205.748 154.05C206.163 153.427 206.169 153.282 206.873 153.363C208.478 153.441 209.428 153.457 211.025 153.373C215.245 153.193 222.594 153.269 226.792 153.616C222.913 154.12 209.969 154.325 205.748 154.05Z" fill="#7F665D" fill-opacity="0.768627"/>
<path d="M725.561 175.628C728.191 175.925 730.552 176.387 733.153 176.9L731.781 179.924C729.478 179.181 727.289 177.292 725.561 175.628Z" fill="#FAF9F9" fill-opacity="0.988235"/>
<path d="M966.822 154.495C969.362 153.942 982.162 154.012 984.872 154.324L984.912 154.746C979.292 154.755 972.292 155.164 966.822 154.495Z" fill="#685349" fill-opacity="0.737255"/>
<path d="M769.987 162.81C771.632 163.487 772.467 163.467 774.226 163.706C772.085 164.825 771.684 164.831 769.78 166.48L768.99 164.038C769.066 163.051 768.998 163.031 769.987 162.81Z" fill="#FAF9F9" fill-opacity="0.788235"/>
<path d="M681.674 211.877C680.277 212.65 676.778 208.383 676.754 207.74C677.433 206.945 680.79 208.88 681.564 209.642L681.674 211.877Z" fill="#FAF9F9" fill-opacity="0.988235"/>
<path d="M815.92 152.185C819.042 150.979 823.69 151.443 826.949 152.058C823.246 152.207 819.629 152.125 815.92 152.185Z" fill="#7F665D" fill-opacity="0.564706"/>
<path d="M330.19 166.018C329.708 166.327 329.184 166.595 328.753 166.934C328.786 167.162 328.818 167.391 328.851 167.619C324.633 168.087 327.4 165.953 328.978 164.788C329.406 165.196 329.78 165.592 330.19 166.018Z" fill="#FAF9F9" fill-opacity="0.0980392"/>
<path d="M816.289 150.29C820.174 150.186 822.93 150.136 826.759 150.806C822.84 151.102 820.156 151.256 816.289 150.29Z" fill="#7F665D" fill-opacity="0.717647"/>
<path d="M186.021 154.238C188.003 154.346 189.986 154.42 191.97 154.457C190.987 155.093 189.938 155.571 188.935 156.166L186.021 154.238Z" fill="#FAF9F9" fill-opacity="0.0235294"/>
<path d="M133.373 153.042C136.34 152.756 138.869 152.872 141.832 152.966C139.177 153.535 135.954 154.103 133.373 153.042Z" fill="#7F665D" fill-opacity="0.65098"/>
<path d="M966.113 139.58C966.793 139.42 966.623 139.314 967.063 139.889C966.753 140.047 966.573 140.19 966.293 140.127C966.173 139.927 966.243 140.077 966.113 139.58Z" fill="#FAF9F9" fill-opacity="0.270588"/>
<path d="M739.209 188.208C740.921 188.708 741.354 189.759 742.503 191.206C741.481 190.382 739.939 189.245 739.209 188.208Z" fill="#848180" fill-opacity="0.596078"/>
<path d="M856.768 151.772C857.463 151.207 858.168 150.656 858.885 150.118L860.066 151.632L856.768 151.772Z" fill="#FAF9F9" fill-opacity="0.133333"/>
<path d="M714.769 170.314C715.375 170.539 715.262 170.483 715.746 170.932L714.798 171.954L714.096 171.743L714.769 170.314Z" fill="#7F665D" fill-opacity="0.839216"/>
<path d="M352.55 185.793C352.789 185.185 352.908 185.102 353.533 184.922C353.12 185.516 353.223 185.381 352.55 185.793Z" fill="#7F665D" fill-opacity="0.780392"/>
<path d="M735.248 184.85C736.075 185.149 736.2 185.144 736.55 185.948C735.813 185.434 735.822 185.485 735.248 184.85Z" fill="#C6A49B" fill-opacity="0.509804"/>
</svg>
