<svg width="188" height="162" viewBox="0 0 188 162" fill="none" xmlns="http://www.w3.org/2000/svg">
<path d="M94.303 19C96.068 28.511 96.036 41.39 104.95 47.276C111.376 51.518 122.267 52.211 129.909 53.216C120.493 54.815 106.56 56.143 100.832 64.419C95.856 71.611 96.269 80.456 94.108 88.352C93.822 86.923 93.6251 85.378 93.2661 84.008C89.4171 58.774 84.353 57.658 60.208 53.452C60.456 53.31 60.705 53.168 60.954 53.026C90.732 49.322 89.156 46.632 94.303 19Z" fill="#CDB59F" fill-opacity="0.972549"/>
<path d="M93.5244 96.9375C94.2944 97.5345 94.5204 97.6755 94.5714 98.6995C95.1374 109.606 98.0034 117.568 110.027 118.703C112.435 118.93 116.343 119.759 118.897 120.221C105.413 122.02 97.9104 120.754 95.0784 136.229C94.7504 138.034 94.3614 139.826 93.9104 141.604L93.9014 141.752L93.9744 141.848L93.6644 142.193L93.9374 142.195L93.8094 142.555C93.1514 142.957 93.0964 141.927 93.0504 141.497C92.5114 136.455 92.4664 128.064 88.0254 124.724C83.7194 121.485 76.0154 120.828 70.8594 119.924C90.9754 116.854 89.8024 115.865 93.5244 96.9375Z" fill="#CDB59F"/>
<path d="M48 91.2966C51.513 90.5496 53.937 90.1847 57.274 88.7337C60.955 87.1327 63.799 78.5566 63.275 78.8676L63.327 78.8847C63.652 79.2477 63.847 80.3037 63.926 80.7277C65.425 88.7817 72.2811 89.9026 78.8051 91.1306C77.5971 91.4856 76.581 91.8326 75.396 92.2576C64.991 93.6916 64.789 97.6587 63.251 106.83C62.187 100.61 62.7851 98.3926 58.2271 93.6646C57.1331 93.3626 55.876 93.0086 54.771 92.7766L48 91.2966Z" fill="#CDB59F"/>
<path d="M110.264 91.6032C122.247 87.7532 122.88 87.5852 124.386 74.7002L125.559 82.2272C126.641 89.2672 133.699 89.8822 139.781 91.3622C133.791 92.3052 131.595 92.0592 126.946 96.3562L126.378 96.8722C124.884 101.047 124.507 105.19 123.725 109.537C123.301 101.02 124.585 94.3032 114.282 92.6102L110.425 91.9812L110.264 91.6032Z" fill="#CDB59F"/>
<path d="M93.2659 84.0078C93.6249 85.3778 93.8219 86.9228 94.1079 88.3518C90.0599 91.5488 90.5849 86.3078 92.8369 84.3828L93.2659 84.0078Z" fill="#FEFEFE" fill-opacity="0.92549"/>
<path d="M78.8052 91.1309C82.3152 92.3539 75.2111 92.2609 75.3961 92.2579C76.5811 91.8329 77.5972 91.4859 78.8052 91.1309Z" fill="#E9E2DB" fill-opacity="0.788235"/>
<path d="M60.2079 53.4521C60.0349 53.2791 59.8999 53.2051 59.8369 53.0041C60.1719 52.9211 60.5949 52.9941 60.9539 53.0261C60.7049 53.1681 60.4559 53.3101 60.2079 53.4521Z" fill="#E0CFC1" fill-opacity="0.521569"/>
</svg>
