<svg width="554" height="524" viewBox="0 0 554 524" fill="none" xmlns="http://www.w3.org/2000/svg">
<path d="M432.544 361.728C432.887 362.913 432.764 363.452 432.751 364.69L432.666 365.182L433.813 366.698C436.547 368.753 439.22 370.72 441.928 372.835C445.279 371.234 448.361 369.88 451.746 368.382C456.123 366.444 458.743 368.404 459.099 364.278C460.363 367.144 462.739 366.164 466.195 365.879C483.859 370.14 484.247 384.381 477.888 398.601C484.894 400.123 494.624 402.703 498.281 409.382C505.207 422.032 495.298 436.662 483.604 441.52C490.843 467.043 467.146 482.296 447.699 468.212C446.634 467.627 446.133 467.295 445.146 466.59C442.249 468.029 438.073 473.493 433.56 475.299C415.396 482.569 387.487 464.537 395.62 443.236C392.309 440.475 389.883 438.531 387.19 435.154C386.894 434.469 382.791 424.733 383.045 425.196L383.48 422.625C383.273 421.57 383.258 420.482 383.32 419.409C383.977 407.895 386.904 397.647 395.584 389.696C396.339 388.86 396.233 388.75 396.705 387.646C396.747 387.866 396.863 388.718 397.029 389.021C397.399 388.974 398.171 388.402 398.516 388.217C401.675 386.523 404.781 386.768 408.049 387.951C408.83 388.233 412.74 390.001 413.123 390.01C413.572 389.571 413.362 388.853 413.336 388.295C414.033 389.916 413.893 390.161 415.604 390.887C415.356 391.049 415.154 391.159 414.934 391.359C414.938 391.377 419.055 394.772 418.906 394.697C420.607 394.213 420.72 389.217 416.299 390C416.657 388.073 414.739 387.382 413.159 387.639C411.821 385.978 407.372 384.79 404.983 383.621C405.792 382.157 409.523 377.114 409.166 376.591C416.067 371.803 414.809 370.668 424.568 366.82C426.11 365.641 428.663 364.41 429.817 363.177L430.352 362.632C430.573 362.387 430.482 362.446 430.629 362.384C430.812 362.419 430.691 362.372 431.018 362.625C431.699 362.299 432.079 362.21 432.544 361.728ZM421.839 423.716C423.671 427.079 430.994 436.757 437.336 433.215C438.38 432.632 436.418 431.249 435.264 431C428.832 429.611 427.499 426.46 424.026 422.247C422.973 423.22 423.259 423.307 421.839 423.716ZM410.085 421.614L409.854 422.052C407.815 425.869 405.532 430.286 405.939 434.912C406.091 436.644 408.23 434.861 408.264 434.623C408.922 430.006 410.04 428.248 411.748 424.101C412.008 423.738 417.408 416.24 417.305 416.318L419.811 415.379C421.69 414.182 423.32 414.249 422.981 411.936L422.892 411.209C421.396 411.478 421.362 411.7 419.965 411.25L420.756 407.723C421.838 403.089 422.161 402.797 424.135 398.703L424.348 398.252C424.679 397.46 424.722 397.358 425.167 396.633C426.493 393.081 435.476 386.522 435.481 386.366C435.264 386.05 434.831 385.995 434.488 385.898C434.528 385.659 434.567 385.42 434.607 385.181L434.471 385.061C431.55 384.779 425.094 392.458 423.496 394.64C421.5 394.121 421.033 391.319 420.587 395.365C420.469 396.432 420.761 397.412 420.77 398.568C419.727 400.933 418.903 402.82 418.347 405.332C416.948 406.983 418.006 410.987 418.328 412.955C413.404 416.629 413.599 417.557 410.085 421.614ZM460.897 421.773C462.512 418.24 461.544 413.172 460.515 409.57C458.913 407.322 459.505 407.578 457.271 405.568C454.263 403.902 451.838 403.456 448.391 403.368C449.16 404.033 450.488 404.841 450.236 406.143C449.891 406.445 449.901 406.399 449.407 406.421C451.723 406.723 452.435 406.796 454.7 407.474C456.935 409.842 456.829 409.204 458.642 412.048L458.8 413.013C459.134 414.899 459.033 416.52 458.955 418.435C458.149 420.845 458.351 420.594 457.241 422.873C456.012 425.396 452.678 427.554 452.856 429.313C455.393 432.569 460.168 423.379 460.897 421.773ZM453.054 456.268C453.213 454.659 452.756 453.179 453.964 451.901C461.656 443.763 450.925 449.708 448.244 451.258C447.458 452.545 446.717 453.76 445.98 455.081C447.991 454.232 448.507 453.789 450.582 453.591C453.287 452.913 452.553 453.68 453.054 456.268ZM438.393 417.121C440.323 418.824 443.347 418.128 442.679 416.395C441.537 415.888 440.506 415.183 439.364 414.679C439.031 415.603 438.801 416.214 438.393 417.121ZM466.501 432.804C465.772 437.379 463.687 440.648 460.493 443.973C459.247 445.27 461.411 446.052 461.518 445.987C465.199 443.729 467.805 439.023 469.239 435.14C469.361 432.345 470.451 417.44 467.721 416.129L467.596 416.183C465.594 418.945 466.593 429.033 466.501 432.804ZM446.777 417.979C448.863 415.93 450.076 415.696 447.45 413.944C446.035 415.104 443.717 416.799 446.777 417.979ZM446.636 433.41C454.331 433.893 453.861 428.418 450.05 429.693C447.46 430.559 445.257 430.721 444.97 432.834C444.428 431.127 439.494 431.547 438.467 431.916C437.843 436.295 444.085 434.39 446.636 433.41ZM471.296 404.9L471.033 404.265C470.148 402.076 469.547 400.987 468.131 399.087C467.376 399.89 466.914 400.569 466.21 401.432C466.774 402.846 468.213 405.85 468.906 407.2C469.069 411.467 467.572 412.653 469.382 417.115L470 417.207L469.917 417.333L469.933 417.336C472.169 414.198 472.348 408.569 471.296 404.9ZM410.983 441.22C409.781 439.192 409.398 437.038 408.483 435.355C407.876 435.644 406.115 436.874 406.283 437.88C407.282 443.83 408.542 439.757 410.179 441.393C410.565 442.853 409.964 443.623 410.553 445.494C413.559 447.557 411.588 445.911 413.991 445.391C413.409 443.752 412.189 442.486 410.983 441.22ZM433.175 404.666C432.425 404.129 431.796 403.739 430.907 403.52L430.084 403.292C428.95 404.066 426.89 406.135 425.836 407.182L426.798 410.586C429.086 408.082 430.669 406.883 433.175 404.666ZM417.871 448.266C416.229 446.945 415.99 445.846 414.418 446.804C413.46 448.616 414.96 449.359 416.174 450.551C416.82 449.538 417.095 449.175 417.871 448.266Z" fill="#CDB59F"/>
<path d="M448.244 451.258C450.925 449.708 461.656 443.763 453.964 451.901C452.756 453.179 453.213 454.659 453.054 456.268C452.553 453.68 453.287 452.913 450.582 453.591C448.507 453.789 447.99 454.232 445.979 455.081C446.716 453.76 447.458 452.545 448.244 451.258Z" fill="#FCFBF9" fill-opacity="0.945098"/>
<path d="M416.173 450.551C414.959 449.359 413.459 448.616 414.417 446.804C415.989 445.846 416.228 446.945 417.87 448.266C417.094 449.175 416.819 449.538 416.173 450.551Z" fill="#FEFEFE" fill-opacity="0.588235"/>
<path d="M417.87 448.266L418.286 448.492C429.223 454.586 436.043 455.645 448.243 451.258C447.457 452.545 446.716 453.76 445.979 455.081C444.482 455.265 443.042 455.82 441.488 456.107C433.231 457.633 422.77 456.472 416.173 450.551C416.819 449.538 417.094 449.175 417.87 448.266Z" fill="#FCFBF9"/>
<path d="M450.582 453.59C453.287 452.912 452.553 453.679 453.054 456.267C451.483 464.318 449.446 463.732 447.698 468.211C446.633 467.626 446.133 467.294 445.146 466.589C445.675 463.642 449.584 460.046 450.325 455.243L450.423 454.58L450.582 453.59Z" fill="#FCFBF9"/>
<path d="M432.543 361.728C432.886 362.913 432.763 363.452 432.75 364.69L432.665 365.182L433.812 366.698C430.448 366.489 427.633 366.963 424.567 366.82C426.109 365.641 428.662 364.41 429.816 363.177L430.351 362.632C430.572 362.387 430.481 362.446 430.628 362.384C430.811 362.419 430.69 362.372 431.017 362.625C431.698 362.299 432.078 362.21 432.543 361.728Z" fill="#FEFEFE"/>
<path d="M432.544 361.728C432.887 362.913 432.764 363.452 432.751 364.69L432.666 365.182C431.827 364.216 431.651 363.745 431.018 362.625C431.699 362.299 432.079 362.21 432.544 361.728Z" fill="#9E9F9F"/>
<path d="M463.579 394.929C460.986 390.49 460.121 388.651 455.125 385.916C450.326 383.29 444.072 383.608 439.068 385.39C438.602 385.536 437.682 385.99 437.124 385.744C431.732 383.37 443.411 381.354 444.492 381.215C450.139 380.459 455.851 382.017 460.332 385.534C467.785 391.269 464.373 394.209 468.13 399.086C467.375 399.889 466.913 400.568 466.209 401.431C457.374 392.556 441.99 398.727 433.174 404.665C432.424 404.128 431.795 403.738 430.906 403.519L430.083 403.291C441.377 394.215 449.851 393.527 463.579 394.929Z" fill="#FCFBF9"/>
<path d="M448.39 403.367C449.159 404.032 450.488 404.84 450.236 406.142C449.891 406.444 449.9 406.398 449.406 406.42C442.866 406.874 438.763 407.586 439.364 414.678C439.031 415.602 438.8 416.213 438.392 417.12C431.514 409.773 441.274 404.191 448.39 403.367Z" fill="#FCFBF9"/>
<path d="M424.025 422.246C427.498 426.459 428.831 429.61 435.263 430.999C436.417 431.248 438.379 432.631 437.335 433.214C430.993 436.756 423.67 427.078 421.838 423.715C423.258 423.306 422.972 423.219 424.025 422.246Z" fill="#FCFBF9" fill-opacity="0.972549"/>
<path d="M466.5 432.804C466.592 429.033 465.593 418.945 467.595 416.183L467.72 416.129C470.45 417.44 469.36 432.345 469.238 435.14C469.133 434.841 468.904 433.704 468.474 433.579C468.317 433.846 468.16 434.113 468.002 434.38L467.942 434.371C467.177 433.525 467.72 433.059 466.5 432.804Z" fill="#FCFBF9" fill-opacity="0.25098"/>
<path d="M418.327 412.954C418.005 410.986 416.947 406.982 418.346 405.331L419.457 405.858C419.982 406.741 420.128 406.939 420.755 407.722L419.964 411.249C418.369 412.563 419.309 413.955 417.304 416.317C417.407 416.239 412.007 423.737 411.747 424.1C410.825 422.959 410.737 422.903 410.084 421.613C413.598 417.556 413.403 416.628 418.327 412.954Z" fill="#FCFBF9" fill-opacity="0.980392"/>
<path d="M422.892 411.209C423.045 409.415 424.336 408.765 425.836 407.182L426.798 410.586C423.23 415.041 423.212 416.657 424.026 422.247C422.973 423.22 423.259 423.307 421.839 423.716C421.231 421.924 420.558 420.023 420.262 418.146L419.811 415.379C421.69 414.182 423.32 414.249 422.981 411.936L422.892 411.209Z" fill="#FBF9F8"/>
<path d="M466.5 432.804C467.72 433.059 467.177 433.525 467.942 434.371L468.002 434.38C468.16 434.113 468.317 433.846 468.474 433.579C468.904 433.704 469.133 434.841 469.238 435.14C467.804 439.023 465.198 443.729 461.517 445.987C461.41 446.052 459.246 445.27 460.492 443.973C463.686 440.648 465.771 437.379 466.5 432.804Z" fill="#FEFEFE" fill-opacity="0.0196078"/>
<path d="M410.084 421.613C410.737 422.903 410.825 422.959 411.747 424.1C410.039 428.247 408.921 430.005 408.263 434.622C408.229 434.86 406.09 436.643 405.938 434.911C405.531 430.285 407.814 425.868 409.853 422.051L410.084 421.613Z" fill="#FEFEFE" fill-opacity="0.964706"/>
<path d="M423.495 394.639C425.093 392.457 431.549 384.778 434.47 385.06L434.606 385.18C434.566 385.419 434.527 385.658 434.487 385.897C434.83 385.994 435.263 386.049 435.48 386.365C435.475 386.521 426.492 393.08 425.166 396.632C424.586 395.942 424.053 395.364 423.495 394.639Z" fill="#FEFEFE" fill-opacity="0.423529"/>
<path d="M458.954 418.435L459.181 419.065C459.553 420.135 460.196 420.892 460.897 421.773C460.168 423.379 455.392 432.569 452.855 429.313C452.677 427.554 456.012 425.396 457.241 422.873C458.351 420.594 458.148 420.845 458.954 418.435Z" fill="#FEFEFE" fill-opacity="0.0352941"/>
<path d="M468.905 407.199C469.758 405.646 469.738 405.488 471.295 404.899C472.347 408.568 472.168 414.197 469.932 417.335L469.916 417.332L469.999 417.206L469.381 417.114C467.571 412.652 469.068 411.466 468.905 407.199Z" fill="#FBF9F8" fill-opacity="0.929412"/>
<path d="M460.515 409.569C461.544 413.171 462.512 418.239 460.897 421.772C460.196 420.891 459.553 420.134 459.181 419.064L458.955 418.434C459.033 416.519 459.134 414.898 458.8 413.012L458.642 412.047C459.913 411.016 459.878 411.072 460.515 409.569Z" fill="#FCFBF9" fill-opacity="0.698039"/>
<path d="M425.835 407.181C426.889 406.134 428.949 404.065 430.083 403.291L430.906 403.519C431.795 403.738 432.424 404.128 433.174 404.665C430.668 406.882 429.085 408.081 426.797 410.585L425.835 407.181Z" fill="#FEFEFE" fill-opacity="0.905882"/>
<path d="M466.209 401.432C466.913 400.569 467.375 399.89 468.13 399.087C469.546 400.987 470.147 402.076 471.032 404.265L471.295 404.9C469.738 405.489 469.758 405.647 468.905 407.2C468.212 405.85 466.773 402.846 466.209 401.432Z" fill="#FBF9F8" fill-opacity="0.733333"/>
<path d="M444.97 432.833C445.257 430.72 447.46 430.558 450.05 429.692C453.861 428.417 454.331 433.892 446.636 433.409L444.97 432.833Z" fill="#FEFEFE" fill-opacity="0.921569"/>
<path d="M448.391 403.367C451.838 403.455 454.263 403.901 457.271 405.567C456.28 406.19 455.628 406.783 454.7 407.473C452.435 406.795 451.723 406.722 449.407 406.42C449.901 406.398 449.891 406.444 450.236 406.142C450.488 404.84 449.16 404.032 448.391 403.367Z" fill="#FEFEFE" fill-opacity="0.815686"/>
<path d="M410.552 445.493C409.963 443.622 410.564 442.852 410.178 441.392C408.541 439.756 407.281 443.829 406.282 437.879C406.114 436.873 407.875 435.643 408.482 435.354C409.397 437.037 409.78 439.191 410.982 441.219C410.999 443.32 410.995 443.428 410.552 445.493Z" fill="#FEFEFE" fill-opacity="0.619608"/>
<path d="M420.77 398.568C420.761 397.412 420.469 396.432 420.587 395.365C421.033 391.319 421.5 394.121 423.496 394.64C424.054 395.365 424.587 395.943 425.167 396.633C424.722 397.358 424.679 397.46 424.348 398.252C423.432 398.505 422.86 398.71 421.962 399.044L420.77 398.568Z" fill="#FCFBF9" fill-opacity="0.196078"/>
<path d="M457.27 405.567C459.504 407.577 458.912 407.321 460.514 409.569C459.877 411.072 459.912 411.016 458.641 412.047C456.828 409.203 456.934 409.841 454.699 407.473C455.627 406.783 456.279 406.19 457.27 405.567Z" fill="#FCFBF9" fill-opacity="0.921569"/>
<path d="M446.635 433.409C444.084 434.389 437.842 436.294 438.466 431.915C439.493 431.546 444.427 431.126 444.969 432.833L446.635 433.409Z" fill="#FCFBF9" fill-opacity="0.603922"/>
<path d="M421.961 399.044C422.859 398.71 423.431 398.505 424.347 398.252L424.134 398.703C422.16 402.797 421.837 403.089 420.755 407.723C420.128 406.94 419.982 406.742 419.457 405.859C421.351 403.841 419.115 402.734 421.539 399.613L421.961 399.044Z" fill="#FCFBF9" fill-opacity="0.764706"/>
<path d="M419.964 411.25C421.361 411.7 421.395 411.478 422.891 411.209L422.98 411.936C423.319 414.249 421.689 414.182 419.81 415.379L417.304 416.318C419.309 413.956 418.369 412.564 419.964 411.25Z" fill="#FEFEFE" fill-opacity="0.231373"/>
<path d="M449.239 409.7C452.736 410.995 452.349 411.64 450.293 414.829C447.605 414.329 448.621 411.798 449.093 410.203L449.239 409.7Z" fill="#FCFBF9"/>
<path d="M439.364 414.679C440.506 415.183 441.537 415.888 442.679 416.395C443.347 418.128 440.323 418.824 438.393 417.121C438.801 416.214 439.031 415.603 439.364 414.679Z" fill="#FEFEFE" fill-opacity="0.541176"/>
<path d="M410.982 441.22C412.188 442.486 413.408 443.752 413.99 445.391C411.587 445.911 413.558 447.557 410.552 445.494C410.995 443.429 410.999 443.321 410.982 441.22Z" fill="#FEFEFE" fill-opacity="0.52549"/>
<path d="M420.77 398.567L421.962 399.043L421.54 399.612C419.116 402.733 421.352 403.84 419.458 405.858L418.347 405.331C418.903 402.819 419.727 400.932 420.77 398.567Z" fill="#FBF9F8" fill-opacity="0.666667"/>
<path d="M447.449 413.943C450.075 415.695 448.862 415.929 446.776 417.978C443.716 416.798 446.034 415.103 447.449 413.943Z" fill="#FEFEFE" fill-opacity="0.458824"/>
<path d="M277.043 338.019C297.766 347.092 321.257 361.373 335.909 379.235C341.22 385.709 345.178 397.666 348.876 404.179C351.199 408.269 368.937 419.785 373.746 422.872C371.509 423.882 369.353 422.538 366.596 422.375C362.297 422.12 364.335 424.171 360.854 424.93C359.581 423.286 359.275 422.65 356.625 422.533C333.398 421.511 300.473 425.315 277.701 429.906C268.213 431.818 242.6 441.847 232.92 445.681C218.383 451.439 195.434 460.14 181.966 466.888C181.632 465.836 181.144 464.839 180.519 463.93C189.429 460.599 201.167 454.605 210.921 450.745C224.728 445.28 247.686 438.384 260.122 431.789C237.599 430.431 191.506 427.927 171.831 437.156C171.759 436.097 171.432 435.072 170.877 434.167C175.763 432.153 184.984 429.878 190.094 428.71C184.293 427.714 177.562 427.092 171.579 426.242C161.544 424.815 150.358 421.687 140.339 423.247C136.396 423.861 129.662 427.25 125.99 429.04L125.506 429.685C123.02 434.189 120.449 439.389 117.284 443.352C107.197 455.982 86.224 464.779 71.131 470.409C76.235 454.073 89.174 434.856 106.641 430.313C113.323 428.575 121.008 427.689 127.211 424.766C125.589 423.263 125.425 423.269 123.36 422.424C99.239 412.544 95.7 424.35 75.771 424.107C58.645 423.899 36.809 410.649 25 398.664C26.593 397.888 28.192 397.319 29.88 396.785C35.751 394.988 41.82 393.915 47.952 393.588C65.591 392.48 72.055 396.153 86.926 404.502C93.49 408.267 100.141 411.88 106.873 415.336L109.864 415.801C118.106 417.224 128.358 420.079 136.396 417.614C137.552 417.544 138.65 417.482 139.804 417.369C125.809 410.36 108.055 409.835 100.905 392.213C100.295 390.708 99.206 387.046 99.939 385.527C112.07 383.233 145.661 415.857 156.533 420.122C163.996 423.05 190.971 426.043 198.703 426.178C186.212 419.539 165.409 405.829 157.538 394.044C158.11 393.579 158.629 393.053 159.087 392.475C166.092 401.833 196.909 425.161 208.556 426.546C215.684 427.394 236.501 427.571 244.737 427.628C245.906 427.636 248.607 426.491 249.82 425.876L250.073 425.352C244.784 421.907 229.012 419.57 222.374 417.577C219.104 419.695 215.424 420.328 213.583 415.993C212.978 414.527 213.037 412.871 213.746 411.452C215.047 408.861 218.05 408.548 220.623 408.68C221.463 409.707 222.283 410.291 223.333 411.124C224.675 415.176 223.196 413.918 226.156 416.259C228.997 416.254 232.817 417.159 235.683 417.628C234.587 416.599 233.101 414.932 231.797 414.441C228.555 412.178 227.368 411.619 223.795 410.099C222.765 409.42 221.906 408.82 220.917 408.08L215.58 402.928L214.887 403.075C203.653 405.361 196.829 395.425 203.058 388.273C204.487 386.607 206.563 385.636 208.758 385.607C215.312 385.509 219.009 391.398 218.121 396.841C217.913 398.117 217.663 399.712 218.582 400.585C221.725 403.57 233.122 412.575 237.259 411.916C237.818 410.407 236.121 405.815 235.535 403.871C232.551 403.117 230.404 402.267 228.508 399.785C220.507 389.311 238.398 376.883 244.154 389.8C246.921 396.008 243.811 399.173 239.008 403.156C240.393 407.531 242.242 413.836 244.173 417.918C250.335 421.118 256.814 424.389 262.882 427.739C276.019 426.748 300.996 424.036 313.99 420.924C309.627 419.398 305.074 417.744 300.665 416.422C296.489 415.169 292.095 414.704 287.95 413.168C266.132 405.085 257.664 391.517 254.219 369.66C281.615 371.442 285.371 392.603 299.518 411.782C307.528 415.224 316.958 418.976 325.52 420.311C334.292 421.679 344.887 419.555 353.648 420.303C357.013 418.486 356.611 419.145 358.993 416.26C356.16 414.4 350.373 410.496 347.562 409.248C339.715 405.762 332.044 403.312 324.216 399.63C304.582 390.392 296.679 376.474 286.839 358.072C284.058 352.872 278.932 343.472 277.043 338.019ZM103.863 450.059L104.469 449.308C105.509 448.09 105.329 447.901 103.988 447.323C102.346 449.139 101.83 449.136 103.863 450.059Z" fill="#8B9293"/>
<path d="M109.864 415.8C108.737 416.601 107.973 417.174 106.305 416.83C100.806 415.695 95.0751 414.4 89.6021 413.266C78.0421 410.795 66.4141 408.655 54.7321 406.847C52.1231 406.438 43.4721 405.548 42.2461 403.995C49.0931 402.482 81.2181 410.923 90.2621 412.126C95.1001 412.769 101.664 415.548 106.873 415.335L109.864 415.8Z" fill="#4A2619"/>
<path d="M125.506 429.684C122.996 430.017 113.585 438.129 110.933 440.069L105.293 444.264L101.296 447.26C96.8888 450.623 91.8198 454.538 87.2168 457.549C86.9688 457.71 85.5398 457.289 87.4168 456.137C90.4948 454.248 93.7408 451.748 96.5998 449.514C102.556 444.894 108.569 440.346 114.636 435.873C114.836 435.729 117.228 433.851 117.15 433.883C120.123 432.691 123.041 427.08 125.99 429.039L125.506 429.684Z" fill="#393330"/>
<path d="M358.993 416.26C361.805 417.897 364.081 419.455 367.019 421.068C364.463 421.109 356.045 420.925 353.648 420.303C357.013 418.486 356.611 419.145 358.993 416.26Z" fill="#FEFEFE"/>
<path d="M139.804 417.368C143.331 417.797 148.569 419.487 152.171 420.389C150.237 420.419 135.892 419.865 135.164 419.331C135.523 418.719 135.966 418.178 136.396 417.613C137.552 417.543 138.65 417.481 139.804 417.368Z" fill="#FCFBF9"/>
<path d="M123.36 422.423C123.708 420.808 131.405 422.704 132.987 422.93C131.464 423.661 128.759 425.524 127.211 424.765C125.589 423.262 125.425 423.268 123.36 422.423Z" fill="#FEFEFE"/>
<path d="M250.575 425.511C251.511 425.731 254.598 426.574 254.907 427.418C254.815 427.607 254.899 427.487 254.557 427.787C253.923 427.781 246.447 428.235 250.048 425.871L250.575 425.511Z" fill="#FEFEFE"/>
<path d="M103.988 447.322C105.329 447.9 105.509 448.089 104.469 449.307L103.863 450.058C101.83 449.135 102.346 449.138 103.988 447.322Z" fill="#8E9290" fill-opacity="0.92549"/>
<path d="M427.806 113.477C427.699 108.338 427.629 94.161 426.54 89.867C422.769 75.004 416.468 64.767 417.554 48.658C418.052 41.268 424.513 19.313 429.561 15C431.412 16.346 434.996 26.565 435.911 28.859C443.873 48.822 444.337 65.517 434.271 84.754C432.943 87.291 430.261 92.46 429.892 95.261C429.435 98.725 430.227 104.177 430.608 107.763C430.847 109.531 431.095 109.474 432.218 110.16C432.584 111.132 432.975 112.06 433.317 113.041L435.533 114.356C438.185 111.363 441.038 103.027 442.406 98.875C448.289 81.013 467.497 69.427 484.866 63.682C482.725 75.98 472.784 91.712 462.342 98.84C455.039 103.825 450.525 105.148 443.06 108.588C435.713 121.178 432.251 125.96 433.468 141.08C434.585 154.949 437.291 167.886 439.286 181.612C439.324 181.913 439.51 182.336 439.632 182.635C443.384 181.18 447.217 161.218 449.37 155.971C450.206 156.185 450.802 156.38 451.623 156.652C444.811 180.857 441.287 200.435 445.326 225.899C446.016 230.25 446.397 236.115 447.496 240.262L447.911 241.518C449.222 239.843 449.733 239.059 450.095 236.828C452.861 228.571 473.295 168.731 477.524 165.338L478.672 165.972L477.61 165.284L478.689 165.902C477.936 171.23 474.497 179.405 472.474 184.701C465.392 203.237 458.788 221.783 453.186 240.832C451.778 245.62 450.173 250.739 449.496 255.718C448.865 271.282 449.631 286.718 447.392 302.239C446.405 309.083 446.146 316.21 444.918 323.042C444.163 328.338 441.783 337.725 441.653 342.449C440.556 341.751 440.735 342.821 440.496 343.833C439.163 349.467 437.562 355.021 436.245 360.66C435.966 361.857 435.598 364.343 434.75 365.216C434.684 365.217 434.617 365.218 434.55 365.219C434.43 365.024 434.492 365.148 434.373 364.825L432.75 364.689C432.763 363.451 432.886 362.912 432.543 361.727C432.111 359.309 431.306 356.831 431.249 354.409C432.196 354.093 433.146 353.783 434.098 353.48C434.435 353.448 434.779 353.457 435.11 353.383C435.879 353.213 436.133 352.919 436.416 352.237C437.506 349.62 437.614 345.898 438.115 343.052C439.303 336.305 440.818 329.555 441.618 322.75C443.169 309.547 446.913 254.565 442.332 244.885C440.674 241.382 428.753 226.883 425.578 224.78C421.339 221.972 416.062 220.529 411.296 218.894C402.86 231.695 389.946 216.909 399.033 208.467C400.918 206.716 405.307 207.013 407.678 207.822C408.943 208.633 410.089 209.394 411.392 210.162C411.945 211.471 412.094 213.769 413.215 213.893C418.453 214.475 412.683 210.175 411.889 209.404C411.388 208.462 411.366 208.323 410.655 207.58C407.976 203.936 405.735 200.809 403.302 197.006L402.654 197.213C400.193 197.976 397.488 198.643 395.191 197.208C384.993 190.81 392.163 174.351 404.061 181.076C405.383 181.823 407.04 183.902 407.09 185.415C407.377 194.146 408.059 201.608 416.108 207.112C420.057 205.843 418.188 199.971 417.811 196.547C414.074 193.812 409.32 188.782 414.09 184.422C415.816 182.861 418.122 182.105 420.436 182.343C429.564 183.278 425.003 191.957 421.575 196.222C422.359 208.459 425.172 217.795 432.656 227.614C434.428 229.94 437.383 234.263 439.663 235.96C440.395 235.299 441.137 234.65 441.89 234.012C442.779 230.213 436.21 179.803 435.306 172.21C430 165.098 422.584 158.524 415.833 152.747C412.682 150.051 405.54 145.63 403.442 142.693C403.6 141.68 403.639 141.697 403.457 140.75C413.36 144.844 425.503 156.852 433.068 164.717C431.476 153.393 427.644 141.981 423.112 131.46C420.15 124.583 394.219 93.28 400.253 88.235C401.314 88.031 402.209 88.001 403.159 88.618C416.857 97.51 420.384 107.198 424.916 121.268C425.455 123.513 426.109 128.166 427.744 129.652C429.37 126.928 428.406 116.463 427.806 113.477ZM461.781 93.066C463.943 91.991 472.392 86.219 468.567 83.437C465.914 85.301 462.985 88.314 461.415 91.189C460.754 92.4 461.376 91.848 461.781 93.066ZM418.824 211.338C419.092 211.616 419.15 211.768 419.45 211.86C420.259 211.628 419.063 207.163 418.833 206.466C415.441 208.726 416.499 208.462 418.824 211.338ZM420.449 218.696C419.53 217.011 418.074 215.708 416.569 214.524C416.414 217.958 416.229 216.986 419.717 218.406L420.449 218.696ZM419.713 189.21C419.787 189.116 419.993 188.931 419.999 188.767C419.789 188.794 419.579 188.821 419.368 188.848C419.093 189.203 419.156 189.08 419.09 189.258L419.108 189.292C419.31 189.265 419.511 189.238 419.713 189.21Z" fill="#8B9293"/>
<path d="M431.249 354.409C432.196 354.093 433.146 353.783 434.098 353.48C434.72 353.796 435.345 354.115 435.957 354.448C436.097 355.845 434.357 361.617 434.373 364.826L432.75 364.69C432.763 363.452 432.886 362.912 432.543 361.727C432.111 359.309 431.306 356.831 431.249 354.409Z" fill="#FEFEFE"/>
<path d="M432.218 110.16C432.584 111.132 432.975 112.06 433.317 113.041C433.465 113.277 434.994 115.477 434.977 115.531C434.239 117.918 432.553 120.845 431.367 123.064C431.265 119.768 430.204 113.301 431.773 110.864L432.218 110.16Z" fill="#FEFEFE"/>
<path d="M427.744 129.652C427.817 129.632 428.753 129.315 428.989 129.397C429.526 130.763 430.21 137.482 430.27 139.075C428.433 136.978 427.165 132.518 427.744 129.652Z" fill="#FCFBF9"/>
<path d="M439.663 235.961C440.395 235.3 441.137 234.651 441.89 234.013C442.282 235.175 443.403 238.944 442.407 239.809C441.218 239.629 439.92 237.031 439.663 235.961Z" fill="#FEFEFE"/>
<path d="M447.911 241.519C449.442 242.248 448.231 244.676 447.823 246.171C446.837 244.798 446.798 242.835 447.911 241.519Z" fill="#E9E2DB"/>
<path d="M428.72 31.9277L429.354 32.4527C431.023 37.0457 429.75 84.8348 429.476 92.6848C428.34 90.7498 428.783 81.7798 428.799 79.0858C428.863 68.2258 428.733 57.2637 428.586 46.4067C428.528 42.1567 428.081 35.8287 428.72 31.9277Z" fill="#393330"/>
<path d="M472.223 75.4209C472.535 75.5699 472.905 75.6389 473.067 75.9389C471.093 78.5749 465.902 83.5369 463.374 86.2679C456.899 93.2669 449.749 99.6069 443.375 106.785C443.187 106.9 443.128 106.976 442.948 106.962C442.855 106.852 442.862 106.89 442.902 106.669C443.169 105.202 469.211 77.9409 472.223 75.4209Z" fill="#393330"/>
<path d="M468.568 83.4375C472.393 86.2195 463.944 91.9915 461.782 93.0665C461.377 91.8485 460.755 92.4005 461.416 91.1895C462.986 88.3145 465.915 85.3015 468.568 83.4375Z" fill="#8E9290" fill-opacity="0.909804"/>
<path d="M442.094 182.355C442.157 184.223 441.406 189.61 440.763 191.334C439.615 187.244 438.303 184.477 442.094 182.355Z" fill="#FEFEFE"/>
<path d="M418.833 206.467C419.063 207.164 420.259 211.629 419.45 211.861C419.15 211.769 419.092 211.617 418.824 211.339C416.499 208.463 415.441 208.727 418.833 206.467Z" fill="#FCFBF9" fill-opacity="0.988235"/>
<path d="M416.569 214.524C418.074 215.708 419.53 217.011 420.449 218.696L419.717 218.406C416.229 216.986 416.414 217.958 416.569 214.524Z" fill="#FEFEFE" fill-opacity="0.215686"/>
<path d="M419.368 188.849C419.579 188.822 419.789 188.795 419.999 188.768C419.993 188.932 419.787 189.117 419.713 189.211C419.511 189.239 419.31 189.266 419.108 189.293L419.09 189.259C419.156 189.081 419.093 189.204 419.368 188.849Z" fill="#8E9290" fill-opacity="0.215686"/>
<path d="M472.302 73.8301C472.39 73.8951 472.478 73.9611 472.566 74.0261C472.544 74.2451 472.39 74.404 472.215 74.621C472.137 74.558 472.06 74.4941 471.982 74.4301C472.064 74.1201 472.092 74.1221 472.302 73.8301Z" fill="#595A5B"/>
<path d="M340.687 324.583C345.961 325.172 351.194 325.696 356.329 324.463C371.473 320.826 382.516 310.378 394.572 326.733C401.23 335.766 408.053 347.758 405.008 359.505C404.185 360.774 403.448 362.09 402.647 363.373C402.457 365.258 401.806 370.701 401.954 372.265L401.401 373.04C400.038 374.966 400.388 375.303 397.84 376.367C402.048 379.103 400.093 379.089 405.264 376.407C406.989 376.608 407.463 376.68 409.165 376.59C409.522 377.113 405.791 382.156 404.982 383.62C407.371 384.789 411.82 385.977 413.158 387.638L413.335 388.294C413.361 388.852 413.571 389.57 413.122 390.009C412.739 390 408.829 388.232 408.048 387.95C404.78 386.767 401.674 386.522 398.515 388.216C398.17 388.401 397.398 388.973 397.028 389.02C396.862 388.717 396.746 387.865 396.704 387.645C396.232 388.749 396.338 388.859 395.583 389.695C394.463 388.416 393.662 386.452 392.908 384.868C382.699 390.406 376.038 391.966 364.812 388.368C333.983 378.485 350.646 359.148 339.967 339.52C342.85 338.261 343.716 337.853 346.914 337.228C348.884 337.255 351.917 337.267 353.86 337.005C357.856 337.485 360.951 338.721 364.274 340.946C363.869 340.469 369.675 346.848 368.925 346.146C371.805 352.234 373.614 358.158 374.245 364.896C374.383 366.37 375.181 368.424 375.812 369.764C380.754 378.279 383.082 374.144 378.976 369.949C375.282 360.612 377.327 353.833 370.829 344.043C369.908 342.934 368.157 340.754 367.19 339.891C365.494 338.235 362.49 336.568 365.086 335.452C366.055 334.137 366.107 333.969 367.353 332.913C363.618 331.727 355.795 333.097 351.936 333.664C350.661 333.86 348.469 334.331 347.25 334.699C345.846 331.08 343.053 327.721 340.687 324.583ZM384.059 337.961C387.622 339.273 390.94 341.34 393.84 343.775C394.585 344.523 395.34 345.262 396.104 345.992C396.707 346.844 397.277 347.523 397.922 348.33C398.507 349.381 399.061 350.431 399.653 351.478L401.632 348.6C401.068 347.597 400.493 346.603 399.836 345.657C399.038 344.638 398.178 343.648 397.34 342.659C396.402 341.429 393.581 339.287 392.326 338.382C391.579 338.033 390.861 337.638 390.137 337.243C387.878 335.992 386.455 335.014 383.787 335.108C384.122 335.689 384.407 336.249 384.716 336.843L384.059 337.961Z" fill="#CA9D91"/>
<path d="M384.716 336.844C387.008 338.721 387.12 337.983 390.137 337.244C390.861 337.639 391.579 338.034 392.326 338.383C393.208 340.914 393.303 341.044 393.84 343.776C390.94 341.341 387.622 339.274 384.059 337.962L384.716 336.844Z" fill="#FBF9F8" fill-opacity="0.92549"/>
<path d="M392.326 338.383C393.581 339.288 396.402 341.43 397.34 342.66L396.968 343.115C396.326 343.849 396.58 344.839 396.104 345.993C395.34 345.263 394.585 344.524 393.84 343.776C393.303 341.044 393.208 340.914 392.326 338.383Z" fill="#FBF9F8" fill-opacity="0.807843"/>
<path d="M396.104 345.992C396.58 344.838 396.327 343.848 396.969 343.114L397.341 342.659C398.179 343.648 399.038 344.638 399.836 345.657C399.444 347.505 399.523 347.35 397.923 348.33C397.278 347.523 396.707 346.844 396.104 345.992Z" fill="#FBF9F8" fill-opacity="0.952941"/>
<path d="M399.836 345.657C400.493 346.603 401.068 347.597 401.632 348.6L399.653 351.478C399.061 350.431 398.507 349.381 397.922 348.33C399.522 347.35 399.444 347.505 399.836 345.657Z" fill="#FEFEFE" fill-opacity="0.886275"/>
<path d="M383.787 335.109C386.455 335.015 387.878 335.993 390.137 337.244C387.12 337.983 387.008 338.721 384.716 336.844C384.407 336.25 384.122 335.69 383.787 335.109Z" fill="#FBF9F8" fill-opacity="0.470588"/>
<path d="M340.688 324.583C345.962 325.172 351.195 325.696 356.33 324.463C371.474 320.826 382.517 310.378 394.573 326.733C401.231 335.766 408.054 347.758 405.009 359.505C404.249 354.44 403.749 353.132 401.633 348.6C401.069 347.597 400.493 346.603 399.836 345.657C399.038 344.638 398.179 343.648 397.341 342.659C396.403 341.429 393.582 339.287 392.327 338.382C391.58 338.033 390.862 337.638 390.138 337.243C387.879 335.992 386.456 335.014 383.788 335.108C381.738 334.206 380.226 333.348 377.742 333.677C374.315 334.132 370.76 333.427 367.354 332.913C363.619 331.727 355.796 333.097 351.937 333.664C350.662 333.86 348.469 334.331 347.25 334.699C345.846 331.08 343.053 327.721 340.688 324.583Z" fill="#CA9D91"/>
<path d="M396.704 387.646C397.087 382.589 391.422 386.012 395.484 380.585C395.743 380.239 389.92 379.663 391.238 379.712C389.438 379.645 381.527 377.435 381.014 376.444C381.039 376.223 382.244 373.196 383.743 374.232C387.877 377.089 392.998 377.028 397.84 376.368C402.048 379.104 400.093 379.09 405.264 376.408C406.989 376.609 407.463 376.681 409.165 376.591C409.522 377.114 405.791 382.157 404.982 383.621C407.371 384.79 411.82 385.978 413.158 387.639L413.335 388.295C413.361 388.853 413.571 389.571 413.122 390.01C412.739 390.001 408.829 388.233 408.048 387.951C404.78 386.768 401.674 386.523 398.515 388.217C398.17 388.402 397.398 388.974 397.028 389.021C396.862 388.718 396.746 387.866 396.704 387.646Z" fill="#FEFEFE"/>
<path d="M365.086 335.452C366.055 334.137 366.107 333.969 367.353 332.913C370.759 333.427 374.314 334.132 377.741 333.677C380.225 333.348 381.737 334.206 383.787 335.108C384.122 335.689 384.407 336.249 384.716 336.843L384.059 337.961C377.456 335.412 371.842 335.848 365.086 335.452Z" fill="#FEFEFE"/>
<path d="M401.632 348.601C403.748 353.133 404.248 354.441 405.008 359.506C404.185 360.775 403.448 362.091 402.647 363.374C401.485 358.802 401.644 356.186 399.653 351.479L401.632 348.601Z" fill="#FEFEFE"/>
<path d="M360.855 424.929C364.336 424.17 362.298 422.119 366.597 422.374C369.354 422.537 371.51 423.881 373.747 422.871C375.621 423.469 376.983 424.098 378.767 424.769C379.56 424.14 382.407 423.071 383.48 422.624L383.045 425.195C382.658 426.54 381.351 426.201 379.843 426.705L378.854 426.98L378.888 427.525L378.935 428.329C379.127 430.771 378.117 430.688 376.004 430.091C369.548 436.16 365.186 440.919 358.067 447.009C319.858 479.699 289.583 489.125 239.561 484.577C244.767 480.411 249.866 475.442 255.261 471.451C274.722 457.056 300.708 445.249 323.819 438.072C329.551 436.291 335.315 434.616 341.109 433.048C345.239 431.973 350.943 430.808 354.827 429.444L355.217 428.534C357.178 426.444 358.086 425.969 360.855 424.929ZM336.722 454.888C338.499 452.446 338.192 452.498 335.396 451.901L335.066 452.616C334.082 454.604 334.937 454.537 336.722 454.888Z" fill="#8B9293"/>
<path d="M378.888 427.526C378.553 427.643 372.725 430.917 371.845 431.386L350.435 442.765C328.067 454.417 304.47 464.986 280.392 472.51C276.172 473.829 249.836 482.381 247.805 481.394C248.963 480.198 282.99 470.297 287.959 468.59C311.012 460.673 332.329 450.256 354.04 439.305C361.218 435.685 371.508 429.316 378.273 426.552L378.854 426.981L378.888 427.526Z" fill="#4A2619"/>
<path d="M360.855 424.929C364.336 424.17 362.298 422.119 366.597 422.374C369.354 422.537 371.51 423.881 373.747 422.871C375.621 423.469 376.983 424.098 378.767 424.769C378.255 426.589 371.564 426.182 369.5 427.232C369.415 427.276 364.286 428.216 363.998 428.202C361.197 428.066 357.01 430.758 355.217 428.534C357.178 426.444 358.086 425.969 360.855 424.929Z" fill="#FEFEFE"/>
<path d="M335.395 451.901C338.191 452.498 338.498 452.446 336.721 454.888C334.936 454.537 334.081 454.604 335.065 452.616L335.395 451.901Z" fill="#8B9293" fill-opacity="0.858824"/>
<path d="M447.776 336.184C457.825 297.044 470.921 253.769 503.406 227.014C503.243 235.363 502.246 243.466 501.908 251.31C500.588 281.927 492.702 304.707 473.471 329.083C469.488 334.13 463.541 340.825 459.798 346.157C459.172 347.049 459.672 347.732 460.014 348.505C462.622 350.145 464.154 349.893 466.426 352.116L465.492 353.258C462.761 351.663 460.235 352.215 458.651 349.844C458.399 349.467 457.954 348.57 457.51 348.403C457.015 348.525 456.297 349.573 456.031 349.967C452.954 352.796 448.997 357.402 445.842 359.619C443.963 361.703 443.04 362.24 443.799 358.831L443.812 356.843C444.899 351.896 446.378 349.913 442.136 347.924L442.083 347.485L444.478 347.078C446.051 345.274 445.768 344.602 446.286 342.037C446.736 340.044 447.3 338.172 447.776 336.184Z" fill="#8B9293"/>
<path d="M443.799 358.831C448.436 352.35 452.996 342.776 456.614 335.649C467.502 314.359 477.237 292.499 485.779 270.164C488.036 264.381 497.033 239.569 499.496 236.008L500.124 236.194C500.371 238.278 495.9 247.77 494.802 250.714C484.951 277.145 474.495 302.625 462.136 327.996C459.136 334.155 446.456 355.043 445.842 359.619C443.963 361.703 443.04 362.24 443.799 358.831Z" fill="#4A2619"/>
<path d="M396.298 238.098C400.781 238.459 405.417 239.555 409.314 241.824C427.197 252.235 431.247 282.673 421.827 299.352C421.992 309.874 422.15 323.541 424.774 333.574C426.504 340.189 429.292 347.499 431.25 354.41C431.307 356.832 432.112 359.31 432.544 361.728C432.079 362.21 431.699 362.299 431.018 362.625C430.691 362.372 430.812 362.419 430.629 362.384C430.482 362.446 430.573 362.387 430.352 362.632C430.194 359.048 428.312 354.129 427.28 350.705C423.874 339.402 422.137 332.856 413.776 324.062C411.655 321.832 408.763 317.929 405.942 316.242C402.105 313.948 395.826 312.977 391.823 311.097C377.182 304.221 364.963 291.585 355.424 278.853C368.573 275.532 386.367 276.932 397.274 285.729C408.017 294.394 409.388 303.043 410.902 315.853C413.747 318.66 416.56 321.501 419.339 324.373C419.542 316.697 418.683 306.345 418.472 298.256C404.25 276.187 398.07 265.571 396.298 238.098Z" fill="#8B9293"/>
<path d="M376.612 441.781C379.008 440.562 379.034 439.61 381.384 439.856C378.383 449.125 377.634 456.873 375.468 465.933C371.271 483.492 353.548 499.857 338.477 508.818C339.222 491.335 349.712 465.113 362.994 453.161C367.329 449.26 372.036 445.419 376.612 441.781Z" fill="#4A2619"/>
<path d="M466.427 352.116C490.754 330.399 497.342 326.755 529.325 318.68C514.219 339.925 494.409 356.55 468.088 361.052C466.845 361.097 465.011 361.025 463.887 361.422C461.59 361.605 459.318 361.699 457.018 361.817C459.187 359.44 461.609 357.068 463.67 354.755C464.338 354.32 464.845 353.719 465.493 353.258L466.427 352.116Z" fill="#4A2619"/>
<path d="M481.334 141.715C487.544 140.504 493.57 144.527 494.832 150.728C496.095 156.928 492.123 162.986 485.933 164.301C479.67 165.631 473.523 161.601 472.246 155.327C470.968 149.053 475.049 142.94 481.334 141.715Z" fill="#4A2619"/>
<path d="M181.966 466.888C183.748 472.498 180.9 478.532 175.436 480.722C169.972 482.911 163.745 480.514 161.16 475.226C158.575 469.938 160.509 463.551 165.592 460.585C170.676 457.618 177.188 459.077 180.519 463.93C181.144 464.839 181.632 465.836 181.966 466.888Z" fill="#4A2619"/>
<path d="M434.373 364.825C434.492 365.148 434.43 365.024 434.55 365.219C434.617 365.218 434.684 365.217 434.75 365.216C435.598 364.343 435.966 361.857 436.245 360.66C437.562 355.021 439.163 349.467 440.496 343.833C440.735 342.821 440.556 341.751 441.653 342.449C441.756 344.266 441.833 345.667 442.083 347.484L442.136 347.923C442.108 353.099 442.935 352.651 443.812 356.842L443.799 358.83C443.04 362.239 443.963 361.702 445.842 359.618C448.997 357.401 452.954 352.795 456.031 349.966C455.965 351.555 454.236 353.521 452.891 354.481C451.488 355.481 449.308 358.873 452.943 357.95C453.616 357.779 454.254 356.064 455.615 356.329C456.688 356.318 456.731 356.517 457.752 356.747C460.576 357.383 460.396 354.98 463.669 354.754C461.608 357.067 459.186 359.439 457.017 361.816C459.317 361.698 461.589 361.604 463.886 361.421C470.772 361.778 459.2 364.256 459.098 364.277C458.742 368.403 456.122 366.443 451.745 368.381C448.36 369.879 445.278 371.233 441.927 372.834C439.219 370.719 436.546 368.752 433.812 366.697L432.665 365.181L432.75 364.689L434.373 364.825Z" fill="#FEFEFE" fill-opacity="0.984314"/>
<path d="M403.442 142.694C403.335 142.514 403.228 142.233 403.061 142.179C402.674 142.261 401.774 143.711 401.567 143.995C395.619 152.129 384.524 148.353 383.649 138.648C382.762 128.8 395.236 123.929 401.465 131.22C404.4 134.655 403.695 136.793 403.457 140.751C403.639 141.698 403.6 141.681 403.442 142.694Z" fill="#4A2619"/>
<path d="M157.538 394.044C153.383 397.421 147.313 396.962 143.714 392.998C140.114 389.034 140.241 382.948 144.002 379.137C147.763 375.325 153.846 375.119 157.858 378.665C161.869 382.212 162.409 388.275 159.087 392.475C158.629 393.053 158.11 393.579 157.538 394.044Z" fill="#4A2619"/>
<path d="M171.831 437.156C172.056 440.47 169.772 443.43 166.51 444.052C163.247 444.674 160.034 442.762 159.024 439.598C158.014 436.434 159.525 433.014 162.544 431.631C165.564 430.248 169.141 431.336 170.877 434.167C171.432 435.072 171.759 436.097 171.831 437.156Z" fill="#4A2619"/>
<path d="M449.37 155.972C448.022 154.023 445.957 151.801 446.41 149.155C447.536 142.589 455.765 141.998 458.729 147.393C459.489 148.77 459.657 150.396 459.194 151.899C458.133 155.254 455.03 157.052 451.623 156.653C450.802 156.381 450.206 156.186 449.37 155.972Z" fill="#4A2619"/>
<path d="M370.83 344.043C377.328 353.833 375.283 360.612 378.977 369.949C377.267 369.127 377.568 369.226 375.813 369.764C375.182 368.424 374.384 366.37 374.246 364.896C373.615 358.158 371.806 352.234 368.926 346.146C369.58 345.195 370.085 345.092 370.83 344.043ZM375.623 361.838L375.766 361.156C375.935 360.396 375.817 360.169 375.031 360.305L374.831 360.879C374.351 362.154 374.541 362.156 375.623 361.838Z" fill="#FEFEFE" fill-opacity="0.01"/>
<path d="M375.031 360.306C375.817 360.17 375.935 360.397 375.766 361.157L375.623 361.839C374.541 362.157 374.351 362.155 374.831 360.88L375.031 360.306Z" fill="#FEFEFE" fill-opacity="0.152941"/>
<path d="M456.031 349.966C456.297 349.572 457.015 348.524 457.51 348.402C457.954 348.569 458.399 349.466 458.651 349.843C460.235 352.214 462.761 351.662 465.492 353.257C464.844 353.718 464.337 354.319 463.669 354.754C460.396 354.98 460.576 357.383 457.752 356.747C456.731 356.517 456.688 356.318 455.615 356.329C454.254 356.064 453.616 357.779 452.943 357.95C449.308 358.873 451.488 355.481 452.891 354.481C454.236 353.521 455.965 351.555 456.031 349.966Z" fill="#FEFEFE" fill-opacity="0.894118"/>
<path d="M378.854 426.98L379.843 426.705C383.357 429.212 381.862 435.424 381.341 439.407L381.384 439.856C379.034 439.61 379.008 440.562 376.612 441.781L376.592 439.896C376.506 435.214 379.839 433.64 376.004 430.091C378.117 430.688 379.127 430.771 378.935 428.329L378.888 427.525L378.854 426.98Z" fill="#FEFEFE" fill-opacity="0.45098"/>
<path d="M379.842 426.706C381.35 426.202 382.657 426.541 383.044 425.196C382.79 424.733 386.893 434.469 387.189 435.154C384.501 438.324 384.744 437.318 381.34 439.408C381.861 435.425 383.356 429.213 379.842 426.706Z" fill="#FEFEFE" fill-opacity="0.388235"/>
<path d="M427.806 113.478C428.406 116.464 429.37 126.929 427.744 129.653C426.109 128.167 425.455 123.514 424.916 121.269C425.194 120.175 425.544 117.219 426.989 116.918C427.154 117.2 427.319 117.483 427.483 117.765C427.903 117.313 427.761 114.337 427.806 113.478Z" fill="#FEFEFE" fill-opacity="0.168627"/>
<path d="M463.887 361.422C465.011 361.025 466.845 361.097 468.088 361.052C467.481 362.163 465.447 364.921 466.195 365.879C462.739 366.164 460.363 367.144 459.099 364.278C459.201 364.257 470.773 361.779 463.887 361.422Z" fill="#FEFEFE" fill-opacity="0.537255"/>
<path d="M397.84 376.368C400.388 375.304 400.038 374.967 401.401 373.041L401.954 372.266C404.122 376.868 403.569 373.982 405.264 376.408C400.093 379.09 402.048 379.104 397.84 376.368Z" fill="#FEFEFE" fill-opacity="0.847059"/>
<path d="M347.25 334.699C348.469 334.331 350.661 333.86 351.936 333.664C353.209 334.94 353.69 335.252 353.86 337.005C351.917 337.267 348.884 337.255 346.914 337.228C347.043 336.387 347.155 335.544 347.25 334.699Z" fill="#FEFEFE" fill-opacity="0.701961"/>
<path d="M367.19 339.892C368.157 340.755 369.908 342.935 370.829 344.044C370.084 345.093 369.579 345.196 368.925 346.147C369.675 346.849 363.869 340.47 364.274 340.947C365.322 339.086 365.05 339.906 367.19 339.892Z" fill="#FEFEFE" fill-opacity="0.352941"/>
<path d="M446.286 342.037C445.138 340.194 443.338 335.796 445.257 334.02C445.434 333.854 445.68 333.785 445.918 333.834C446.607 333.977 446.985 334.922 447.282 335.444L447.776 336.184C447.3 338.172 446.736 340.044 446.286 342.037Z" fill="#FEFEFE" fill-opacity="0.12549"/>
<path d="M375.812 369.765C377.567 369.227 377.267 369.128 378.977 369.95C383.083 374.145 380.754 378.28 375.812 369.765Z" fill="#FBF9F8" fill-opacity="0.270588"/>
<path d="M231.797 414.441C233.101 414.932 234.587 416.599 235.683 417.628C232.817 417.159 228.997 416.254 226.156 416.259C228.685 414.079 228.307 414.397 231.797 414.441Z" fill="#FEFEFE" fill-opacity="0.439216"/>
<path d="M442.136 347.924C446.378 349.913 444.899 351.896 443.812 356.843C442.935 352.652 442.108 353.1 442.136 347.924Z" fill="#FEFEFE" fill-opacity="0.890196"/>
<path d="M416.299 389.999C420.72 389.216 420.607 394.212 418.906 394.696C419.055 394.771 414.938 391.376 414.934 391.358C415.154 391.158 415.356 391.048 415.604 390.886L416.299 389.999Z" fill="#FCFBF9" fill-opacity="0.956863"/>
<path d="M447.496 240.263C447.627 239.596 449.277 230.134 449.988 235.998L450.095 236.829C449.733 239.06 449.222 239.844 447.911 241.519L447.496 240.263Z" fill="#FEFEFE" fill-opacity="0.188235"/>
<path d="M411.89 209.404C412.684 210.175 418.454 214.475 413.216 213.893C412.095 213.769 411.946 211.471 411.393 210.162L411.89 209.404Z" fill="#FEFEFE" fill-opacity="0.027451"/>
<path d="M413.158 387.638C414.738 387.381 416.656 388.072 416.298 389.999L415.603 390.886C413.892 390.16 414.032 389.915 413.335 388.294L413.158 387.638Z" fill="#FEFEFE" fill-opacity="0.372549"/>
<path d="M410.656 207.58C411.367 208.323 411.389 208.462 411.89 209.404L411.393 210.162C410.09 209.394 408.944 208.633 407.679 207.822C408.672 207.749 409.665 207.668 410.656 207.58Z" fill="#FEFEFE" fill-opacity="0.694118"/>
<path d="M220.917 408.079C221.906 408.819 222.765 409.419 223.795 410.098L223.333 411.123C222.283 410.29 221.463 409.706 220.623 408.679L220.917 408.079Z" fill="#FEFEFE" fill-opacity="0.235294"/>
</svg>
