<svg width="251" height="199" viewBox="0 0 251 199" fill="none" xmlns="http://www.w3.org/2000/svg">
<path d="M144.415 59.3114C146.589 59.8754 154.268 60.5914 157.377 61.1254C169.854 63.2684 180.177 69.1404 188.739 78.4064C198.673 89.1274 203.824 103.426 203.009 118.02C202.393 132.692 195.856 146.487 184.89 156.253C173.686 166.356 158.877 171.507 143.821 170.539C124.476 169.317 104.21 157.487 96.1336 139.557C94.9406 136.907 93.4186 133.732 91.5136 131.573C90.3236 131.711 90.3246 131.767 89.2616 132.292C68.8246 129.354 50.6156 117.851 42.4466 98.3794C36.6296 84.2924 36.6986 68.4615 42.6356 54.4255C48.1506 41.3195 59.3026 31.2814 72.3876 26.0044C86.0016 20.5824 101.209 20.7744 114.682 26.5384C129.542 33.0204 139.04 43.1404 144.954 57.9864L144.415 59.3114ZM103.679 125.196C103.284 124.21 102.883 123.238 102.438 122.274C130.64 108.446 137.121 102.469 138.415 70.3424C118.416 74.1724 104.288 88.5364 100.642 108.699C99.8206 113.236 99.6856 117.757 100.555 122.307C100.624 122.663 100.699 123.019 100.78 123.373C101.328 124.557 101.458 125.437 101.854 126.679C103.24 130.663 104.639 134.477 106.772 138.104C119.526 159.681 148.716 167.543 170.339 154.459C206.867 132.358 197.468 79.8264 156.248 70.6514C153.903 70.1294 148.478 68.8975 146.496 70.1025C148.6 72.7455 148.369 73.4994 148.467 76.6944C149.091 96.9314 137.856 116.63 119.604 125.653C115.615 127.624 108.901 131.051 104.878 128.002L103.679 125.196ZM89.8896 120.128C89.8166 114.184 89.8036 109.206 91.0286 103.441C95.5416 82.2094 112.298 66.9014 132.718 60.9584C133.709 60.6704 133.995 59.6064 133.926 58.6994C132.106 51.5964 123.848 43.7204 118.399 40.0204C109.215 33.7754 98.0846 31.0554 87.0556 32.3594C42.0556 39.4604 33.2736 98.4944 75.0766 118.065C80.5926 120.647 83.7496 120.417 89.2066 124.278L89.9156 124.126C90.3046 122.305 90.1586 121.922 89.8896 120.128Z" fill="#CDB59F"/>
<path d="M144.953 57.9873L144.414 59.3123C142.115 59.5953 135.696 61.6093 133.973 60.0473L134.498 59.5843L134.306 59.6164C136.003 58.2874 142.758 57.9413 144.953 57.9873Z" fill="#FEFEFE"/>
<path d="M138.723 71.6877C140.355 69.2057 143.798 69.7377 146.495 70.1027C145.382 73.4417 141.851 72.5277 138.723 71.6877Z" fill="#FEFEFE"/>
<path d="M88.1035 125.036C91.0725 125.672 92.2395 127.17 91.2695 130.604C89.3235 131.671 88.8135 127.041 88.2805 125.526L88.1035 125.036Z" fill="#FEFEFE"/>
<path d="M100.779 123.374L102.437 122.275C102.882 123.239 103.283 124.211 103.678 125.197L101.853 126.68C101.457 125.438 101.327 124.558 100.779 123.374Z" fill="#FEFEFE" fill-opacity="0.619608"/>
<path d="M179.515 40.3129C196.211 26.2939 203.878 28.4939 222.704 35.6569C214.107 42.2419 206.264 48.1619 194.571 46.5889C189.392 45.8919 186.97 43.2579 181.844 41.9279L181.557 41.8509C181.006 41.8099 181.049 41.7829 180.477 41.5379C179.257 41.1629 178.029 40.8139 176.793 40.4919C178.111 40.3079 178.247 40.2289 179.515 40.3129Z" fill="#8B9293"/>
<path d="M146.711 44.849L148.102 44.461C164.053 40.168 153.831 20.755 181.616 14C182.207 24.25 182.387 28.375 175.507 36.604L175.031 37.078C174.187 37.941 173.21 38.582 172.256 39.314C170.852 40.116 169.679 40.4 168.225 41.042C164.254 41.311 160.359 41.366 156.386 41.528L155.662 42.035C153.832 43.289 152.884 44.436 151.447 46.097C149.174 45.91 148.558 46.125 146.711 44.849Z" fill="#8B9293"/>
<path d="M29 164.966C38.561 156.108 45.314 151.818 58.544 154.738L59.784 154.999C62.3 157.011 68.566 160.612 71.905 159.326C73.266 159.263 73.362 159.33 74.712 159.598C66.019 162.616 59.86 170.444 50.067 170.175C43.518 169.996 35.065 167.547 29 164.966Z" fill="#8B9293"/>
<path d="M67.4004 186.91C67.5354 177.445 68.3104 170.666 75.3674 163.767C80.3264 158.92 85.2654 159.59 91.9604 159.659C93.4184 159.826 93.4244 159.784 94.7504 160.366L94.2404 160.919C89.7374 165.714 90.4444 170.549 86.5294 176.077C81.7014 182.894 75.2354 185.294 67.4004 186.91Z" fill="#8B9293"/>
<path d="M66.7768 153.549C58.3618 146.825 45.7838 138.128 66.0678 138.336C75.3108 138.43 79.5318 145.369 85.2478 150.974C87.1158 151.438 89.0528 151.842 90.8668 152.441C89.8858 152.729 88.9798 152.873 87.9868 153.074C86.4898 153.979 85.0558 155.063 83.3518 154.853L82.8528 154.752C79.0558 153.486 79.5078 154.408 75.4778 154.819C74.6818 154.815 73.8858 154.823 73.0898 154.844C71.8308 154.396 68.0298 153.206 66.7768 153.549Z" fill="#8B9293"/>
<path d="M82.853 154.752C82.455 154.184 81.706 153.714 81.961 153.237C83.739 152.36 86.135 152.699 87.987 153.074C86.49 153.979 85.056 155.063 83.352 154.853L82.853 154.752Z" fill="#FBF9F8"/>
<path d="M172.671 45.2842C173.299 45.6672 173.668 45.8772 174.316 46.2092C186.518 46.0182 192.058 51.3892 196.506 62.2142C182.985 64.1262 175.804 62.5892 168.5 50.4602C166.471 49.9332 165.076 49.6252 163.013 49.2512L163.385 47.4062C166.701 47.8872 170.193 48.4422 172.349 45.4152L172.671 45.2842Z" fill="#8B9293"/>
<path d="M156.386 41.528C160.359 41.366 164.254 41.311 168.225 41.042C168.544 41.822 167.58 42.367 168.864 42.543C169.902 42.685 171.085 42.404 172.302 42.447C165.473 45.621 159.28 48.481 151.447 46.097C152.884 44.436 153.832 43.289 155.662 42.035L156.386 41.528Z" fill="url(#paint0_linear_117_14995)"/>
<path d="M66.7762 153.549C68.0292 153.206 71.8302 154.396 73.0892 154.844C72.3282 156.984 72.2392 157.123 71.9042 159.326C68.5652 160.612 62.2992 157.011 59.7832 154.999C63.7382 154.358 63.2712 155.962 66.7762 153.549Z" fill="#FEFEFE" fill-opacity="0.87451"/>
<path d="M90.8665 152.441C95.4475 153.954 99.9326 155.143 104.553 156.755C98.9516 157.831 99.7925 157.509 94.7505 160.366C93.4245 159.784 93.4186 159.826 91.9606 159.659C92.6946 159.084 94.1045 157.994 95.0865 158.014C95.4135 158.247 97.0866 157.789 97.1106 157.417C97.4116 152.755 86.4666 155.216 84.0146 156.322L83.3516 154.853C85.0556 155.063 86.4896 153.979 87.9866 153.074C88.9796 152.873 89.8855 152.729 90.8665 152.441Z" fill="#9E9F9F" fill-opacity="0.976471"/>
<path d="M174.466 41.5652C175.509 41.1912 175.819 41.0202 176.793 40.4922C178.029 40.8142 179.257 41.1632 180.477 41.5382C178.15 41.6702 171.18 41.7782 172.671 45.2842L172.349 45.4152C169.728 43.2122 166.205 45.7732 163.385 47.4062L163.013 49.2512C157.567 48.2632 150.035 47.6212 144.881 46.1512C145.312 45.2522 145.376 45.3612 146.321 44.8342L146.711 44.8492C148.558 46.1252 149.174 45.9102 151.447 46.0972C159.28 48.4812 165.473 45.6212 172.302 42.4472L174.466 41.5652Z" fill="#9E9F9F" fill-opacity="0.976471"/>
<path d="M75.4785 154.819C79.5085 154.408 79.0565 153.486 82.8535 154.752C81.9145 156.713 80.8535 156.82 78.6045 157.772C77.2515 158.055 77.2455 158.016 76.0505 158.662C75.2395 158.66 74.2655 158.745 73.5435 158.718C73.3575 158.601 73.3345 158.622 73.2695 158.464C73.6335 157.66 74.4726 155.439 75.0826 155.069L75.4785 154.819Z" fill="#FEFEFE" fill-opacity="0.0117647"/>
<path d="M180.477 41.5381C181.049 41.7831 181.006 41.8101 181.557 41.8511L180.915 42.0891C179.893 42.4261 179.363 43.405 177.804 44.048L177.306 44.2581C175.845 44.8541 176.234 44.02 175.604 43.821C175.354 44.218 174.744 45.514 174.316 46.209C173.668 45.877 173.299 45.6671 172.671 45.2841C171.18 41.7781 178.15 41.6701 180.477 41.5381Z" fill="#FEFEFE" fill-opacity="0.0588235"/>
<path d="M175.507 36.6035C176.819 37.9885 178.021 39.0975 179.515 40.3125C178.247 40.2285 178.111 40.3075 176.793 40.4915C175.819 41.0195 175.509 41.1905 174.466 41.5645C172.768 40.9335 172.111 41.2215 172.256 39.3135C173.21 38.5815 174.187 37.9405 175.031 37.0775L175.507 36.6035Z" fill="#FEFEFE" fill-opacity="0.4"/>
<path d="M163.385 47.4057C166.205 45.7727 169.728 43.2116 172.349 45.4146C170.193 48.4416 166.701 47.8867 163.385 47.4057Z" fill="#FEFEFE" fill-opacity="0.968627"/>
<path d="M172.256 39.3145C172.111 41.2225 172.768 40.9344 174.466 41.5654L172.302 42.4474C171.085 42.4044 169.902 42.6854 168.864 42.5434C167.58 42.3674 168.544 41.8224 168.225 41.0424C169.679 40.4004 170.852 40.1165 172.256 39.3145Z" fill="#FEFEFE" fill-opacity="0.0509804"/>
<path d="M73.0893 154.844C73.8853 154.823 74.6813 154.815 75.4773 154.819L75.0813 155.069C74.4713 155.439 73.6323 157.66 73.2683 158.464C73.3333 158.622 73.3563 158.601 73.5423 158.718C74.2643 158.745 75.2383 158.66 76.0493 158.662L75.8663 159.306C75.4893 159.4 75.0843 159.493 74.7113 159.598C73.3613 159.33 73.2653 159.263 71.9043 159.326C72.2393 157.123 72.3283 156.984 73.0893 154.844Z" fill="#9E9F9F" fill-opacity="0.552941"/>
<path d="M82.8525 154.752L83.3515 154.853L84.0145 156.322C82.0165 157.315 81.0195 157.738 78.8675 158.348L78.6035 157.772C80.8525 156.82 81.9135 156.713 82.8525 154.752Z" fill="#8E9290" fill-opacity="0.803922"/>
<path d="M144.881 46.151C144.407 46.064 143.349 45.997 143.12 45.437C143.496 44.543 145.615 44.828 146.321 44.834C145.376 45.361 145.312 45.252 144.881 46.151Z" fill="#9E9F9F" fill-opacity="0.780392"/>
<path d="M76.0502 158.661C77.2452 158.015 77.2512 158.054 78.6042 157.771L78.8682 158.348C77.7412 158.772 77.0092 158.986 75.8672 159.305L76.0502 158.661Z" fill="#9E9F9F" fill-opacity="0.47451"/>
<defs>
<linearGradient id="paint0_linear_117_14995" x1="162.075" y1="45.1757" x2="161.054" y2="41.3479" gradientUnits="userSpaceOnUse">
<stop stop-color="white" stop-opacity="0"/>
<stop offset="1" stop-color="white" stop-opacity="0.0392157"/>
</linearGradient>
</defs>
</svg>
