<svg width="439" height="688" viewBox="0 0 439 688" fill="none" xmlns="http://www.w3.org/2000/svg">
<path d="M211.228 152.73C204.554 145.484 197.776 134.808 197.691 124.632C197.582 108.475 200.262 92.1439 220.04 92.0009C239.482 91.8619 243.901 107.78 243.37 123.918C243.035 134.098 236.242 146.215 229.438 153.038C230.177 160.325 230.127 163.472 234.531 169.181C236.188 169.605 237.653 169.948 239.333 170.296C240.354 167.636 241.358 166.849 242.549 163.312C242.593 161.706 242.695 160.202 242.811 158.605C243.5 154.339 244.612 151.552 249.104 155.677C249.582 158.838 251.141 161.776 252.012 165.278C251.205 166.882 251.367 172.081 251.344 174.113C251.954 175.213 251.418 175.261 250.701 176.36C251.212 176.382 251.824 176.39 252.324 176.441C253.824 176.775 255.983 177.278 257.471 177.371C265.28 175.083 263.281 181.325 268.835 178.695C271.556 179.529 272.241 179.969 275.262 180.321C274.371 182.623 273.175 185.273 272.85 187.667L271.363 187.689C273.595 191.592 275.073 195.879 275.723 200.328L278.062 244.741C278.495 252.301 279.526 264.022 279.408 271.318C279.571 276.197 280.108 280.409 280.202 285.503C280.556 287.7 280.668 289.36 280.883 291.555L280.596 292.254C280.793 294.054 280.787 297.399 281.137 298.776C281.323 304.018 281.316 308.538 282.027 313.745C281.875 316.583 281.926 321.261 282.367 324.057L282.786 323.335C285.222 324.153 287.18 324.879 287.596 322.039C288.398 323.721 290.471 325.394 289.881 326.874C285.482 337.91 283.74 327.513 282.857 326.957C281.929 327.419 282.087 332.833 282.027 334.095C285.429 344.771 280.519 350.934 281.288 356.432C283.293 370.765 290.622 389.83 294.249 404.32C294.872 406.811 297.015 413.651 297.146 415.711C298.503 420.62 297.323 417.954 299.531 420.508C299.475 420.98 299.064 421.523 299.062 421.493C299.134 423.572 301.727 431.915 302.298 433.844L311.309 468.129C302.014 477.03 291.465 482.414 278.309 482.381C276.326 482.102 274.697 482.033 272.702 481.911C270.252 480.616 265.52 484.486 263.094 486.11C261.417 486.648 260.148 487.054 258.438 487.482C254.749 488.464 251.042 488.379 247.228 488.472C245.183 505.564 240.904 521.995 239.223 538.868C237.426 556.9 257.823 579.37 240.126 594.826C234.801 599.476 222.145 587.921 220.241 581.886C219.922 574.08 220.153 567.824 220.109 560.138C220.013 557.731 220.019 557.666 220.555 555.241C220.897 551.747 220.795 547.635 220.59 544.12C223.125 531.244 226.661 535.424 225.538 517.227C224.271 507.662 225.401 494.288 223.729 484.235C222.527 483.086 221.092 483.377 219.046 483.203L218.255 483.178C217.276 483.596 216.545 483.619 216.439 484.517C214.782 498.655 214.534 514.415 213.98 528.706C213.928 530.048 216.514 536.345 216.816 537.101C217.779 539.078 219.07 542.867 219.598 544.991C219.165 549.338 219.787 556.306 219.193 559.687C218.878 563.418 218.088 578.794 219.15 581.727C214.672 590.841 207.672 592.817 198.604 596.937C181.406 577.529 198.526 564.207 199.913 543.617C200.575 533.787 196.768 514.214 195.044 503.586C194.953 500.125 193.943 496.125 193.704 492.099C193.131 488.621 193.747 488.194 190.135 488.196C185.781 487.213 181.886 515.319 187.906 511.564C187.93 512.805 188.84 514.013 189.223 515.529L188.456 514.009L187.441 514.644L183.401 510.493L182.461 509.813C181.695 509.449 177.218 507.224 177.225 506.671C177.966 506.578 178.509 507.007 178.906 506.631C178.736 501.912 169.175 497.144 178.691 486.61C173.38 485.045 167.321 480.908 164.424 480.662C161.804 481.838 161.129 482.007 158.229 481.885C157.161 481.336 154.041 480.789 152.835 480.582C150.768 479.929 147.817 478.73 145.888 477.78C144.421 476.868 143.231 476.349 141.718 475.577C140.747 474.967 139.78 474.35 138.818 473.725C137.646 472.551 136.843 471.586 135.479 470.595C133.511 468.807 132.454 467.44 131.331 465.01C131.759 464.002 131.828 464.063 131.853 463.075C133.526 454.914 139.862 435.978 142.468 426.427C143.577 424.853 143.118 424.16 141.994 422.778L142.26 422.166C140.74 419.109 140.227 419.427 138.554 416.746C142.428 413.662 141.576 413.455 146.712 411.97C148.307 404.722 152.301 392.342 154.464 384.824C147.161 379.981 129.717 373.068 129.924 363.985C130.269 348.833 139.156 339.269 153.506 338.206C162.862 327.426 156.632 329.436 158.141 314.752C157.692 314.733 157.242 314.71 156.793 314.682C148.826 314.174 151.662 304.916 147.622 304.71C147.332 304.361 147.041 304.012 146.751 303.663C149.513 300.874 154.572 299.974 157.372 295.504C157.852 294.806 158.432 293.91 158.975 293.272C159.808 291.75 159.757 289.651 159.889 287.842C156.483 285.281 156.424 279.103 160.598 277.569C161.586 266.687 161.98 256.379 162.518 245.484C162.869 242.356 163.146 241.99 163.075 238.797C163.329 233.139 163.81 227.678 163.875 222.063C164.928 214.462 165.563 203.289 166.271 195.385C167.988 190.058 169.994 186.002 174.229 182.176C176.04 180.54 178.23 180.321 177.673 178.078L177.904 177.842L178.012 177.222L178.772 176.546C183.718 175.436 182.185 171.748 185.072 171.203C188.017 170.648 189.416 173.056 189.036 176.173C205.725 175.233 210.459 168.277 211.228 152.73ZM182.336 288.101C184.895 285.356 185.508 284.578 187.458 281.379C190.45 276.909 193.937 271.41 197.352 267.378C196.044 262.501 189.792 236.079 187.667 234.301C186.397 239.32 185.24 252.422 184.78 258.061C184.031 267.262 182.553 278.96 182.336 288.101ZM243.654 267.083C247.838 272.568 254.381 282.638 258.402 286.912C258.512 269.757 254.303 250.033 254.077 234.378C253.964 233.701 253.921 232.37 253.436 231.843C252.69 231.763 252.599 233.481 252.527 233.905C249.648 244.985 246.69 256.045 243.654 267.083ZM207.719 585.681C213.537 582.763 212.961 583.015 208.579 580.761C206.698 581.227 201.457 582.421 200.385 583.887C199.489 585.112 198.336 584.606 197.413 583.831C197.202 583.008 197.067 582.294 196.729 581.519C196.545 580.18 196.347 578.895 196.247 577.543L194.855 576.815C194.928 578.864 195.059 580.63 195.241 582.677C195.088 585.008 197.071 590.78 200.654 588.855C202.434 587.407 204.751 587.596 207.719 585.681ZM215.096 577.818C214.977 578.146 214.652 578.89 214.678 579.194C214.9 579.103 215.37 578.487 215.548 578.276C215.759 577.872 215.893 577.733 215.848 577.521C215.597 577.62 215.347 577.719 215.096 577.818ZM150.672 342.807C151.786 340.333 152.36 340.645 149.888 339.134C147.458 341.103 148.436 340.979 150.672 342.807ZM222.639 562.045C222.6 561.473 222.609 559.048 222.221 558.712C221.454 559.581 221.45 561.336 221.301 562.453L222.639 562.045ZM215.796 574.726L217.021 574.069C217.243 572.072 218.298 559.186 217.137 558.204C216.396 559.017 215.976 572.336 215.796 574.726Z" fill="#14100F"/>
<path d="M209.701 270.923C217.898 271.683 223.089 271.494 231.266 270.631C254.91 341.371 264.161 405.036 269.877 479.497C256.825 492.017 241.056 486.404 225.651 482.374C222.931 482.644 221.789 482.57 219.046 483.203L218.255 483.178C217.902 482.868 217.511 482.492 217.131 482.244C198.158 485.105 184.432 492.317 165.42 478.282L164.936 477.922C167.957 452.227 172.325 420.227 179.265 395.126C182.326 393.132 184.976 391.701 187.015 388.586C193.142 379.224 191.076 366.86 183.269 359.248C191.536 327.247 198.672 302.185 209.701 270.923Z" fill="#E1D3CC"/>
<path d="M217.13 482.244C220.088 481.879 222.726 481.828 225.65 482.374C222.93 482.644 221.788 482.57 219.045 483.203L218.254 483.178C217.901 482.868 217.51 482.492 217.13 482.244Z" fill="#484A46"/>
<path d="M194.939 488.421C200.968 487.683 208.34 485.444 214.448 483.94C214.239 498.96 211.862 515.453 212.901 530.34C213.007 531.87 214.882 536.414 215.524 537.977L216.815 537.1C217.778 539.077 219.07 542.866 219.598 544.99C219.165 549.337 219.786 556.305 219.192 559.686C218.115 556.117 218.72 556.568 215.036 558.173C215.035 565.165 216.879 576.67 207.398 576.717C203.344 576.738 201.682 577.34 197.542 576.167C197.127 575.799 196.712 575.431 196.298 575.063C196.567 567.783 200.916 553.397 201.21 546.705C202.072 527.068 196.596 507.957 194.939 488.421Z" fill="#C09884"/>
<path d="M216.815 537.101C217.778 539.078 219.07 542.867 219.598 544.991C219.165 549.338 219.786 556.306 219.192 559.687C218.115 556.118 218.72 556.569 215.036 558.174C215.163 551.916 216.578 543.696 215.524 537.978L216.815 537.101Z" fill="#14100F"/>
<path d="M242.81 158.605C243.499 154.339 244.611 151.552 249.103 155.677C249.581 158.838 251.14 161.776 252.011 165.278C251.204 166.882 251.366 172.081 251.343 174.113C251.953 175.213 251.417 175.261 250.7 176.36C249.864 176.341 249.147 176.329 248.308 176.26C242.875 174.525 238.404 173.642 234.531 169.181C236.188 169.605 237.652 169.948 239.332 170.296C240.353 167.636 241.358 166.849 242.549 163.312C242.593 161.706 242.694 160.202 242.81 158.605Z" fill="#DAC3B9"/>
<path d="M242.549 163.312C244.413 169.546 245.597 169.768 249.593 174.54C249.953 174.969 249.933 175.249 249.726 175.665C249.39 175.847 248.732 176.058 248.308 176.26C242.875 174.525 238.404 173.642 234.531 169.181C236.188 169.605 237.652 169.948 239.332 170.296C240.353 167.636 241.358 166.849 242.549 163.312Z" fill="#FDFDFD"/>
<path d="M178.691 486.609C182.483 487.364 183.973 487.569 187.688 487.976L187.523 488.558C185.616 495.173 183.565 500.311 184.468 507.477C184.711 509.168 184.548 509.276 183.4 510.492L182.46 509.812C181.694 509.448 177.217 507.223 177.224 506.67C177.965 506.577 178.508 507.006 178.905 506.63C178.735 501.911 169.175 497.143 178.691 486.609Z" fill="#8D9087"/>
<path d="M182.46 509.813C182.46 509.813 179.382 507.055 180.484 506.832C181.121 506.703 183.615 507.33 184.468 507.478C184.711 509.169 184.548 509.277 183.4 510.493L182.46 509.813Z" fill="#FDFDFD"/>
<path d="M158.974 293.271C159.915 297.496 158.503 309.784 158.14 314.751C157.691 314.732 157.242 314.71 156.793 314.682C148.826 314.174 151.662 304.915 147.622 304.709C147.332 304.36 147.041 304.011 146.751 303.662C149.513 300.873 154.571 299.973 157.371 295.503C157.851 294.805 158.431 293.909 158.974 293.271Z" fill="#8D9087"/>
<path d="M257.472 177.371C265.281 175.083 263.281 181.325 268.835 178.695C271.556 179.529 272.242 179.969 275.263 180.321C274.372 182.623 273.176 185.273 272.851 187.667L271.363 187.689C265.354 181.71 268.281 181.119 258.056 177.577L257.472 177.371Z" fill="#FDFDFD"/>
<path d="M287.596 322.039C288.398 323.721 290.471 325.394 289.881 326.874C285.482 337.91 283.74 327.513 282.857 326.957C281.929 327.419 282.087 332.833 282.027 334.095C276.035 321.994 281.833 329.015 282.366 324.057L282.786 323.335C285.222 324.153 287.18 324.879 287.596 322.039Z" fill="#DCB9A6"/>
<path d="M178.772 176.546C183.718 175.436 182.184 171.748 185.071 171.203C188.016 170.648 189.416 173.056 189.036 176.173C186.598 176.712 179.516 179.002 177.903 177.842L178.011 177.222L178.772 176.546Z" fill="#9B9C93"/>
<path d="M138.554 416.746C142.428 413.662 141.576 413.455 146.712 411.97C145.965 414.541 144.845 422.9 142.259 422.166C140.74 419.109 140.226 419.427 138.554 416.746Z" fill="#8D9087"/>
<path d="M159.888 287.841C156.482 285.28 156.424 279.102 160.597 277.568C160.583 281.169 160.303 284.253 159.888 287.841Z" fill="#9B9C93"/>
<path d="M280.201 285.503C280.555 287.7 280.667 289.36 280.882 291.555L280.596 292.254C279.56 289.378 279.948 288.63 280.201 285.503Z" fill="#484A46"/>
<path d="M220.109 560.137C220.013 557.73 220.018 557.665 220.554 555.24L220.946 557.371C220.699 558.766 220.631 558.87 220.109 560.137Z" fill="#484A46"/>
<path d="M193.726 177.167C211.178 188.449 230.317 185.788 248.2 177.459C272.819 180.909 273.828 192.673 274.874 215.142C275.288 224.017 275.794 233.26 276.286 242.163L280.864 324.579C275.244 325.034 269.645 325.011 264.007 325.069L258.205 262.152C256.726 246.046 254.528 230.02 255.079 213.818C255.238 209.138 255.048 204.05 255.021 199.342C245.837 201.864 239.437 205.392 231.797 210.937C228.963 212.626 221.842 219.336 218.434 217.064C206.633 209.195 199.95 203.264 186.045 198.47C185.406 206.646 185.755 215.717 186.268 223.901L186.035 228.373C184.665 237.1 184.028 249.255 183.119 258.247C180.894 280.246 179.416 302.919 176.193 324.802C170.98 325.006 163.841 325.229 158.805 324.47C160.23 299.83 162.695 274.754 163.941 249.969C165.278 233.391 165.318 216.662 167.343 200.152C169.489 182.653 178.638 179.766 193.726 177.167Z" fill="#E1D3CC"/>
<path d="M240.987 269.082C243.807 268.319 246.588 273.202 247.99 275.404C252.055 281.95 259.695 290.543 260.147 298.481C260.659 307.482 261.095 316.487 262.603 325.44C262.925 327.353 265.3 325.681 267.025 327.652C266.984 335.017 260.84 348.805 266.036 355.335C270.238 356.552 271.363 348.197 272.3 344.84L272.825 344.547C274.891 355.07 271.781 355.762 268.971 364.956C268.498 366.506 268.576 368.859 269.547 370.402C273.786 371.317 278.359 362.585 279.654 359.252C288.866 393.393 298.982 426.698 307.93 461.242L309.885 467.699C307.626 469.823 305.196 471.758 302.621 473.484C293.526 479.773 282.271 482.108 271.425 479.957C270.856 465.786 268.298 446.049 266.834 431.855C261.157 376.8 250.815 322.907 232.793 270.475L240.987 269.082Z" fill="#BF8D81"/>
<path d="M187.411 200.226C195.706 203.948 204.938 208.404 211.635 214.691C220.948 223.435 227.968 215.443 236.794 209.493C242.034 205.966 247.706 203.126 253.67 201.043C253.781 212.499 255.635 223.697 247.429 232.216C245.703 233.981 243.809 235.572 241.774 236.968L241.979 237.518C245.688 237.305 249.076 232.465 251.777 229.497C249.173 242.126 245.186 254.55 242.27 267.207C225.304 270.124 215.767 271.132 198.615 267.331C195.516 254.371 192.186 241.468 188.625 228.627C192.656 234.006 193.029 234.281 198.583 237.909C198.11 235.875 192.411 231.516 190.305 228.851L187.871 223.67C187.306 215.887 187.411 208.033 187.411 200.226Z" fill="#BF8D81"/>
<path d="M155.617 385.922C162.213 388.713 167.858 395.527 176.97 397.362C171.551 420.031 167.399 442.984 164.534 466.116C164.153 469.11 163.579 478.368 162.004 480.031C159.815 480.595 158.357 480.095 156.117 479.667C145.316 476.479 139.364 473.965 132.607 465.104C141.428 438.617 147.65 412.208 155.617 385.922Z" fill="#BF8D81"/>
<path d="M215.41 93.9968C223.558 93.0428 233.8 94.4728 237.965 102.652C246.315 119.047 239.952 145.39 223.981 154.848C212.521 158.509 203.258 140.563 200.463 132.028C198.096 124.803 198.948 110.857 202.254 103.793C204.898 98.1407 209.759 95.7048 215.41 93.9968Z" fill="#C09884"/>
<path d="M225.632 483.766C231.769 485.428 239.592 487.788 245.736 488.609C243.486 507.757 237.591 526.526 237.925 545.681C238.091 555.178 241.555 564.139 242.277 573.492C242.687 578.972 227.53 576.369 224.618 575.91C223.205 566.194 224.785 553.545 223.295 544.816C223.006 538.516 224.629 536.078 227.162 530.3C226.686 526.29 226.726 524.026 227.04 519.969L227.055 518.287C226.389 506.788 225.914 495.28 225.632 483.766Z" fill="#C09884"/>
<path d="M227.04 519.969C227.774 523.793 227.88 526.463 227.162 530.3C226.686 526.29 226.726 524.026 227.04 519.969Z" fill="#512C24"/>
<path d="M143.579 341.264C146.112 341.408 146.442 341.447 148.711 342.564C151.067 344.945 149.811 352.202 150.094 356.866C153.671 359.739 162.697 370.112 166.382 369.412C168.508 366.071 165.904 360.418 164.808 356.824C170.669 358.873 174.328 360.393 179.436 363.89C183.936 371.951 184.197 380.749 181.591 389.442C180.103 391.812 178.567 394.478 175.877 395.397C172.233 395.005 136.952 373.304 132.839 368.566C131.176 366.65 131.1 362.687 131.595 359.972C132.978 352.404 137.282 345.685 143.579 341.264Z" fill="#BF8D81"/>
<path d="M198.055 268.823L208.118 270.485C197.454 301.31 189.788 326.093 181.924 358.144C180.611 357.575 177.288 355.352 175.898 354.466C175.764 343.341 171.881 337.22 172.044 327.372C173.38 325.991 174.116 326.461 176.577 326.411C179.437 324.249 179.07 302.838 181.547 296.418C185.597 285.918 191.288 277.584 198.055 268.823Z" fill="#BF8D81"/>
<path d="M212.384 154.479C216.991 156.102 220.19 158.305 224.863 156.098C225.87 155.612 226.86 155.092 227.831 154.539C229.524 168.876 231.934 171.929 245.545 176.927C232.603 182.828 216.432 185.102 202.881 180.063C200.475 179.181 198.151 178.09 195.936 176.801C203.151 174.12 210.795 170.969 212.171 162.258C211.885 158.974 211.58 157.668 212.384 154.479Z" fill="#C09884"/>
<path d="M212.383 154.479C212.639 157.956 212.712 158.816 212.17 162.258C211.884 158.974 211.579 157.668 212.383 154.479Z" fill="#512C24"/>
<path d="M161.508 326.417L170.038 326.54C170.485 335.973 173.666 343.774 174.624 353.616C172.183 351.821 170.034 349.695 167.144 349.908C164.676 351.809 164.467 354.097 163.436 357.323C164.199 360.067 165.111 362.892 165.951 365.624L166.303 366.872L165.716 367.837C163.274 367.803 154.592 358.286 151.21 355.417C152.229 336.166 158.408 339.988 161.508 326.417Z" fill="#BF8D81"/>
<path d="M268.835 326.489L277.509 326.488C282.634 337.552 282.483 347.298 278.66 358.822C277.676 361.788 273.756 369.08 269.964 367.605C269.695 365.645 270.033 365.809 270.966 363.655C271.598 362.63 272.202 361.588 272.777 360.529C275.034 356.317 277.861 344.466 272.158 342.014C269.492 344.949 269.645 351.765 267.272 353.501C262.725 347.303 268.789 333.674 268.835 326.489Z" fill="#BF8D81"/>
<path d="M244.498 575.032C245.037 574.834 245.046 574.926 245.688 575.125C246.123 580.006 244.664 592.471 237.288 594.716C234.88 595.449 227.326 588.911 225.152 587.021C221.518 583.86 221.375 579.773 221.324 574.997C222.124 575.191 222.338 575.35 223.081 575.726C226.876 579.862 240.38 579.993 244.498 575.032Z" fill="#E1D3CC"/>
<path d="M217.022 574.068C217.107 578.068 218.254 582.694 215.328 585.516C211.253 589.448 204.264 592.607 199.224 595.224C192.709 588.435 191.991 583.341 192.679 574.314C193.205 574.822 193.735 575.325 194.269 575.823L194.855 576.814C194.928 578.863 195.059 580.629 195.241 582.676C195.088 585.007 197.071 590.779 200.654 588.854C202.434 587.406 204.751 587.595 207.719 585.68C213.537 582.762 212.961 583.014 208.579 580.76C206.698 581.226 201.458 582.42 200.386 583.886C199.49 585.111 198.337 584.605 197.414 583.83C197.203 583.007 197.067 582.293 196.729 581.518C196.545 580.179 196.348 578.894 196.248 577.542C200.281 579.214 212.672 579.464 215.403 575.307L215.796 574.725L217.022 574.068ZM215.548 578.275C215.759 577.871 215.894 577.732 215.849 577.52C215.598 577.619 215.347 577.718 215.096 577.817C214.977 578.145 214.652 578.889 214.678 579.193C214.9 579.102 215.37 578.486 215.548 578.275Z" fill="#DAC3B9"/>
<path d="M215.095 577.818C215.346 577.719 215.597 577.62 215.848 577.521C215.893 577.733 215.758 577.872 215.547 578.276C215.369 578.487 214.899 579.102 214.677 579.193C214.651 578.889 214.976 578.146 215.095 577.818Z" fill="#E1D3CC" fill-opacity="0.603922"/>
<path d="M173.967 354.653C184.853 360.595 190.936 368.907 188.204 381.693C187.927 382.992 186.699 387.538 185.383 388.127L185.257 388.05C185.156 387.175 185.908 385.734 186.174 384.9C188.06 379.008 187.993 373.009 185.629 367.343C182.777 360.506 178.217 359.374 172.954 355.344L173.967 354.653Z" fill="#8D776C"/>
<path d="M197.413 583.831C198.336 584.606 199.489 585.112 200.385 583.887C201.457 582.421 206.697 581.227 208.578 580.761C207.324 582.999 206.832 583.222 207.718 585.681C204.75 587.596 202.433 587.407 200.653 588.855C200.025 582.31 196.833 588.855 197.413 583.831Z" fill="#E1D3CC" fill-opacity="0.909804"/>
<path d="M182.1 365.404C187.572 370.34 186.552 383.017 183.5 389.25C183.458 389.234 182.892 389.096 182.796 388.894C182.454 388.168 184.385 385.093 184.468 383.903C184.711 380.424 184.989 377.375 184.495 373.887C184.07 370.885 183.243 368.211 182.1 365.404Z" fill="#675855"/>
<path d="M165.367 354.484C171.109 354.943 176.522 358.706 180.479 362.708C179.182 362.277 166.677 355.72 165.367 354.484Z" fill="#8D776C"/>
<path d="M196.729 581.519C197.067 582.294 197.203 583.008 197.414 583.831C196.834 588.855 200.026 582.31 200.654 588.855C197.071 590.78 195.088 585.008 195.241 582.677C196.383 583.303 196.229 582.852 196.729 581.519Z" fill="#E1D3CC" fill-opacity="0.858824"/>
<path d="M215.795 574.726C215.975 572.336 216.395 559.017 217.136 558.204C218.297 559.186 217.243 572.072 217.021 574.069L215.795 574.726Z" fill="#5F625C" fill-opacity="0.988235"/>
<path d="M221.301 562.453L222.639 562.045C222.345 567.326 222.573 570.601 223.082 575.726C222.339 575.35 222.125 575.191 221.325 574.997C220.982 571.149 221.609 566.674 221.301 562.453Z" fill="#BAAFA6"/>
<path d="M208.578 580.761C212.96 583.015 213.536 582.763 207.718 585.681C206.832 583.222 207.324 582.999 208.578 580.761Z" fill="#E1D3CC" fill-opacity="0.505882"/>
<path d="M244.499 575.032C244.012 573.535 242.292 566.466 242.796 565.437L242.892 565.395C243.959 565.916 245.409 573.574 245.689 575.125C245.047 574.926 245.038 574.834 244.499 575.032Z" fill="#8D776C"/>
<path d="M196.002 565.035L196.029 564.887C196.217 566.588 194.531 573.259 194.269 575.824C193.735 575.326 193.205 574.823 192.679 574.315C193.607 571.164 194.693 568.047 196.002 565.035Z" fill="#8D776C"/>
<path d="M172.955 355.345C172.554 355.104 165.091 352.103 167.609 351.465C168.615 351.211 172.603 353.926 173.968 354.654L172.955 355.345Z" fill="#DCB9A6"/>
<path d="M194.854 576.814L196.247 577.542C196.347 578.894 196.544 580.179 196.728 581.518C196.228 582.851 196.382 583.302 195.24 582.676C195.058 580.629 194.927 578.863 194.854 576.814Z" fill="#E1D3CC" fill-opacity="0.329412"/>
<path d="M149.887 339.134C152.36 340.645 151.785 340.333 150.672 342.807C148.435 340.979 147.457 341.103 149.887 339.134Z" fill="#BF8D81" fill-opacity="0.968627"/>
<path d="M221.3 562.453C221.449 561.336 221.453 559.581 222.22 558.712C222.608 559.048 222.599 561.473 222.638 562.045L221.3 562.453Z" fill="#5F625C" fill-opacity="0.984314"/>
<path d="M252.527 233.905C252.599 233.481 252.689 231.763 253.435 231.843C253.92 232.37 253.964 233.701 254.077 234.378L252.527 233.905Z" fill="#E1D3CC" fill-opacity="0.152941"/>
<path d="M146.525 227.083C142.631 229.517 139.101 231.991 134.478 231.132C128.462 230.013 121.658 224.781 124.061 217.994C124.504 216.743 119.36 215.292 118.316 213.236C117.457 211.546 116.82 210.603 117.28 208.37C118.258 201.415 126.208 202.967 127.385 202.142C127.526 201.544 127.519 200.789 127.558 200.124C128.066 191.726 137.389 187.974 141.656 196.168C142.509 197.806 141.613 201.435 143.41 201.645C152.037 195.553 155.662 206.196 154.18 213.744L153.404 215.755C152.137 219.098 150.336 221.41 148.793 224.509L147.957 225.79C150.343 230.351 150.112 227.399 150.531 232.52C148.846 230.537 147.764 229.432 146.525 227.083ZM136.359 215.746C137.216 212.633 137.004 212.64 134.373 210.434C132.928 214.853 132.393 213.798 136.359 215.746Z" fill="#DAC3B9"/>
<path d="M146.525 227.082C146.18 226.289 137.305 215.427 141.313 216.694C142.084 216.938 146.521 224.036 147.957 225.789C150.342 230.35 150.112 227.398 150.531 232.519C148.846 230.536 147.763 229.431 146.525 227.082Z" fill="#DCB9A6"/>
<path d="M134.373 210.434C137.004 212.64 137.216 212.633 136.358 215.746C132.393 213.798 132.928 214.853 134.373 210.434Z" fill="#FDFDFD" fill-opacity="0.643137"/>
<path d="M301.184 139.928C301.96 139.091 304.856 135.422 305.848 135.405C305.974 135.402 306.09 135.47 306.149 135.58C306.551 136.341 302.549 140.022 301.956 140.626C302.484 141.5 302.318 141.641 303.262 141.328C305.741 143.725 309.921 146.745 306.639 150.409C303.623 153.776 299.523 149.278 297.258 147.666C297.412 151.563 298.438 153.766 299.794 157.369C299.014 160.105 298.53 161.544 297.249 164.053C297.83 165.238 298.434 166.412 299.061 167.572C302.298 173.481 294.534 174.854 290.042 176.177C286.112 177.336 287.605 178.365 286.108 178.848C283.976 177.662 280.445 179.331 276.631 179.889C275.723 182.367 274.533 185.096 273.5 187.54C273.298 187.894 273.389 187.804 273.24 187.909C273.065 187.886 273.184 187.926 272.85 187.666C273.175 185.272 274.371 182.622 275.262 180.32C272.241 179.968 271.555 179.528 268.834 178.694C262.83 172.357 263.599 170.998 262.873 162.888C269.988 153.753 276.319 158.476 282.038 165.684C283.195 163.834 284.28 162.164 285.555 160.397C282.284 156.561 279.212 152.737 283.002 148.054C286.881 143.26 290.533 145.22 294.293 148.087C294.865 147.356 295.426 146.617 295.976 145.87C297.501 143.915 299.213 142.198 300.676 140.298L301.184 139.928Z" fill="#5F625C"/>
<path d="M262.873 162.889C269.988 153.754 276.319 158.477 282.038 165.685C279.631 169.658 277.229 175.927 275.262 180.321C272.241 179.969 271.555 179.529 268.834 178.695C262.83 172.358 263.599 170.999 262.873 162.889Z" fill="#8D9087"/>
<path d="M285.798 161.673C289.051 163.961 293.368 165.647 297.249 164.054C297.83 165.239 298.434 166.413 299.061 167.573C302.298 173.482 294.534 174.855 290.042 176.178C286.112 177.337 287.605 178.366 286.108 178.849C283.976 177.663 280.445 179.332 276.631 179.89C277.784 177.681 281.261 170.108 282.258 167.603C283.52 165.506 284.421 163.732 285.798 161.673Z" fill="#9B9C93"/>
<path d="M285.798 161.673C289.051 163.961 293.368 165.647 297.249 164.054C297.83 165.239 298.434 166.413 299.061 167.573C299.902 167.189 283.218 167.557 282.258 167.603C283.52 165.506 284.421 163.732 285.798 161.673Z" fill="#FDFDFD"/>
<path d="M285.556 160.398C282.285 156.562 279.213 152.738 283.003 148.055C286.882 143.261 290.534 145.221 294.294 148.088C292.328 150.215 287.092 157.911 285.556 160.398Z" fill="#8D9087"/>
<path d="M285.798 161.673C286.44 160.667 292.858 151.667 293.071 151.68C295.137 156.214 295.45 155.009 299.794 157.37C299.014 160.106 298.53 161.545 297.249 164.054C293.368 165.647 289.051 163.961 285.798 161.673Z" fill="#8D9087"/>
<path d="M297.258 147.667C296.863 147.553 296.5 147.519 296.224 147.239C296.081 147.431 302.123 140.471 301.956 140.627C302.484 141.501 302.318 141.642 303.262 141.329C305.741 143.726 309.921 146.746 306.639 150.41C303.623 153.777 299.523 149.279 297.258 147.667Z" fill="#8D9087"/>
<path d="M282.577 292.013C286.917 289.266 292.337 279.775 294.699 277.797C296.537 284.393 301.385 284.105 300.526 290.2L300.975 290.407C304.913 292.178 306.992 293.05 308.659 297.385C310.542 302.281 308.013 305.947 303.41 307.211L302.719 307.398C301.206 307.457 299.692 307.501 298.178 307.529C296.473 307.309 294.712 306.539 293.484 307.789C292.312 308.327 292.26 308.33 291.258 309.182C290.91 311.803 289.447 311.776 288.909 315.614C295.371 312.313 296.031 312.259 303.374 311.098C304.543 313.713 307.69 315.974 306.035 319.291C302.676 326.024 291.662 320.765 287.596 322.039C287.18 324.879 285.223 324.153 282.787 323.335L282.367 324.057C281.926 321.261 281.875 316.583 282.027 313.745C281.316 308.538 281.324 304.018 281.138 298.776C280.788 297.399 280.794 294.054 280.597 292.254L280.883 291.555L282.577 292.013ZM284.317 307.901C286.844 304.156 288.407 302.98 283.229 300.991C282.944 302.554 281.967 308.645 283.74 309.41C284.321 309.07 284.238 308.518 284.317 307.901Z" fill="#E0C1B2"/>
<path d="M282.576 292.013C286.916 289.266 292.336 279.775 294.698 277.797C296.536 284.393 301.384 284.105 300.525 290.2C294.31 291.977 293.825 302.736 282.576 292.013Z" fill="#9B9C93"/>
<path d="M281.138 298.776C281.954 297.342 282.31 297.902 283.716 298.449C289.006 300.506 288.723 300.303 292.188 304.602C288.297 308.943 286.715 310.39 282.027 313.745C281.316 308.538 281.324 304.018 281.138 298.776ZM284.317 307.901C286.844 304.156 288.407 302.98 283.229 300.991C282.944 302.554 281.967 308.645 283.74 309.41C284.321 309.07 284.238 308.518 284.317 307.901Z" fill="#FDFDFD"/>
<path d="M283.229 300.99C288.407 302.979 286.844 304.155 284.317 307.9C284.238 308.517 284.321 309.069 283.74 309.409C281.967 308.644 282.944 302.553 283.229 300.99Z" fill="#FDFDFD" fill-opacity="0.603922"/>
<path d="M291.257 309.182C290.909 311.803 289.446 311.776 288.908 315.614C287.367 316.703 280.959 321.135 282.372 315.749C282.631 314.761 290.067 309.919 291.257 309.182Z" fill="#FDFDFD"/>
<path d="M282.786 323.335C282.906 319.55 284.511 320.44 287.595 322.039C287.179 324.879 285.222 324.153 282.786 323.335Z" fill="#F8F5F3"/>
<path d="M289.254 270.142C288.963 269.519 288.679 268.892 288.405 268.261C284.187 258.41 290.197 252.492 299.426 257.768C302.597 259.58 301.667 261.442 303.08 262.455L303.097 262.433C302.968 255.181 304.243 250.747 312.339 251.471C313.88 252.905 315.607 254.78 316.962 255.973L317.056 256.487L317.85 256.518C318.252 258.427 318.645 259.101 319.347 260.874C318.064 267.751 318.38 264.107 316.025 269.354C314.692 269.084 313.824 268.885 312.45 268.769C310.512 267.652 309.057 265.643 307.814 267.581L307.975 268.284C308.142 269.144 308.505 269.42 309.227 269.895C311.924 270.22 311.633 270.219 314.148 271.324C314.893 272.029 318.83 275.638 316.596 276.789C309.754 280.311 302.827 278.976 296.274 276.65L294.698 277.797C292.336 279.775 286.916 289.266 282.576 292.013L280.882 291.555C280.667 289.36 280.555 287.7 280.201 285.503C280.107 280.409 279.57 276.197 279.407 271.318C282.226 270.747 282.524 270.164 284.935 271.489C287.13 272.922 287.913 272.722 290.262 274.525C290.851 274.278 291.436 274.02 292.016 273.751C290.969 272.5 290.224 271.057 289.254 270.142Z" fill="#8D9087"/>
<path d="M279.407 271.317C282.226 270.746 282.524 270.163 284.935 271.488C287.13 272.921 287.913 272.721 290.262 274.524C290.851 274.277 291.436 274.019 292.016 273.75C293.487 274.631 293.855 274.935 295.138 276.032L292.568 278.629C290.421 281.525 283.63 289.444 282.576 292.012L280.882 291.554C280.667 289.359 280.555 287.699 280.201 285.502C280.107 280.408 279.57 276.196 279.407 271.317Z" fill="#8D9087"/>
<path d="M292.017 273.751C293.488 274.632 293.856 274.936 295.139 276.033L292.569 278.63C291.613 277.092 291.042 276.146 290.263 274.525C290.852 274.278 291.437 274.02 292.017 273.751Z" fill="#FDFDFD"/>
<path d="M307.43 265.064C307.547 265.905 307.675 266.743 307.814 267.58L307.975 268.283C308.142 269.143 308.505 269.419 309.227 269.894C311.924 270.219 311.633 270.218 314.148 271.323C314.893 272.028 318.83 275.637 316.596 276.788C309.754 280.31 302.827 278.975 296.274 276.649C297.415 274.854 305.518 266.799 307.43 265.064Z" fill="#9B9C93"/>
<path d="M317.057 256.486L317.851 256.517C318.253 258.426 318.646 259.1 319.348 260.873C318.065 267.75 318.381 264.106 316.026 269.353C314.693 269.083 313.825 268.884 312.451 268.768C310.513 267.651 309.058 265.642 307.815 267.58C307.676 266.743 307.548 265.905 307.431 265.064C309.191 264.417 315.142 258.521 316.251 256.497L317.057 256.486Z" fill="#8D9087"/>
<path d="M295.138 276.033C296.947 273.061 313.828 256.916 316.25 256.498C315.141 258.522 309.19 264.418 307.43 265.065C305.518 266.8 297.415 274.855 296.274 276.65L294.698 277.797C292.336 279.775 286.916 289.266 282.576 292.013C283.63 289.445 290.421 281.526 292.568 278.63L295.138 276.033Z" fill="#5F625C"/>
<path d="M312.832 399.469C311.717 395.448 310.5 393.979 312.511 389.79C314.618 385.402 320.745 384.386 324.572 386.842C330.34 390.543 332.852 398.403 326.435 402.646C324.383 402.327 324.104 402.206 322.076 402.58C320.629 402.814 319.609 403.005 318.128 403.06C317.619 403.314 316.758 403.628 316.52 404.105C316.753 404.202 316.987 404.3 317.22 404.398C316.333 405.031 315.522 405.562 314.604 406.146C315.932 408.111 318.798 411.113 318.132 413.57C315.324 423.93 310.317 421.191 303.721 416.88C300.639 419.6 299.23 420.975 303.962 422.193L303.923 423.193C301.669 426.326 303.237 428.428 302.297 433.844C301.726 431.915 299.133 423.572 299.062 421.493C299.063 421.523 299.474 420.98 299.53 420.508C297.322 417.954 298.503 420.62 297.146 415.711C300.835 418.716 299.779 419.389 303.053 415.533C300.082 411.806 296.31 407.558 299.506 402.63C303.317 396.755 306.999 401.516 312.832 399.469ZM314.327 405.056C315.054 404.173 315.771 403.281 316.477 402.38C314.749 400.854 314.939 400.564 312.762 400.03C310.445 402.495 312.164 402.437 314.327 405.056Z" fill="#8D9087"/>
<path d="M312.762 400.029C314.939 400.563 314.749 400.853 316.477 402.379C315.771 403.28 315.054 404.172 314.327 405.055C312.164 402.436 310.445 402.494 312.762 400.029Z" fill="#FDFDFD" fill-opacity="0.988235"/>
<path d="M312.832 399.469C311.717 395.448 310.5 393.979 312.511 389.79C314.618 385.402 320.745 384.386 324.572 386.842C330.34 390.543 332.852 398.403 326.435 402.646C324.383 402.327 324.104 402.206 322.076 402.58C320.629 402.814 319.609 403.005 318.128 403.06C322.599 396.721 320.206 397.307 316.477 402.38C314.749 400.854 314.939 400.564 312.762 400.03L312.832 399.469Z" fill="#9B9C93"/>
<path d="M303.722 416.88C307.882 413.436 310.934 409.558 314.605 406.146C315.933 408.111 318.799 411.113 318.133 413.57C315.325 423.93 310.318 421.191 303.722 416.88Z" fill="#8D9087"/>
<path d="M316.477 402.38C320.206 397.307 322.599 396.721 318.128 403.06C317.619 403.314 316.758 403.628 316.52 404.105C316.753 404.202 316.987 404.3 317.22 404.398C316.333 405.031 315.522 405.562 314.604 406.146C310.933 409.558 307.881 413.436 303.721 416.88C300.639 419.6 299.23 420.975 303.962 422.193L303.923 423.193C301.669 426.326 303.237 428.428 302.297 433.844C301.726 431.915 299.133 423.572 299.062 421.493C299.063 421.523 299.474 420.98 299.53 420.508C297.322 417.954 298.503 420.62 297.146 415.711C300.835 418.716 299.779 419.389 303.053 415.533C307.081 412.126 309.816 408.378 314.327 405.056C315.054 404.173 315.771 403.281 316.477 402.38Z" fill="#5F625C"/>
<path d="M128.553 312.07C129.111 311.778 131.363 310.71 131.708 310.355C132.069 308.732 124.289 301.549 128.053 298.711C130.96 296.344 134.742 298.569 137.582 300.209C140.923 302.282 140.914 304.665 144.49 301.492C145.137 300.615 146.058 298.54 145.046 297.656C131.509 285.834 148.818 283.231 156.557 295.261L157.371 295.503C154.571 299.973 149.513 300.873 146.751 303.662C147.041 304.011 147.332 304.36 147.622 304.709C146.771 304.764 145.935 304.787 145.083 304.816C145.073 306.005 147.641 324.866 136.076 319.969C135.2 319.598 134.607 313.663 133.07 310.902C131.366 312.342 130.78 312.953 130.861 315.45C130.959 318.484 132.343 321.94 129.72 324.394C128.865 325.238 126.971 326.436 126.08 325.069C124.649 322.875 125.086 318.086 125.03 315.416C127.111 314.188 127.863 314.818 128.785 312.647L128.553 312.07Z" fill="#8D9087"/>
<path d="M135.849 309.309C137.632 308.685 144.76 304.827 145.083 304.816C145.072 306.005 147.641 324.866 136.075 319.969C135.2 319.598 134.607 313.663 133.069 310.902C134.512 310.293 134.808 310.45 135.849 309.309Z" fill="#9B9C93"/>
<path d="M156.557 295.262L157.371 295.504C154.571 299.974 149.513 300.874 146.751 303.663C147.041 304.012 147.332 304.361 147.622 304.71C146.771 304.765 145.935 304.788 145.083 304.817C144.76 304.828 137.632 308.686 135.85 309.31C136.207 308.756 136.839 307.675 137.455 307.375C144.475 303.95 150.437 300.169 156.557 295.262Z" fill="#5F625C"/>
<path d="M121.432 480.217C106.861 478.532 108.287 464.329 121.371 466.311C123.392 466.617 124.728 452.998 131.852 463.074C131.827 464.062 131.759 464.001 131.331 465.009C130.235 467.618 128.799 473.047 128.825 475.992C128.827 476.208 131.367 478.365 132.087 478.204C132.461 477.69 133.725 473.158 135.479 470.594C136.843 471.585 137.646 472.55 138.817 473.724C137.702 475.684 134.586 479.49 135.108 481.331L135.854 481.548C136.684 484.092 141.101 486.371 143.643 488.104C140.959 491.025 137.934 494.624 133.528 494.378C129.111 494.133 127.564 492.455 128.296 488.188C126.108 484.465 125.206 485.244 122.527 480.935C124.989 479.854 126.717 480.438 127.866 479.37C128.998 475.706 121.71 480.079 121.432 480.217ZM133.846 483.521C132.274 482.81 130.671 482.468 130.864 484.758C132.267 484.873 132.708 484.256 133.846 483.521Z" fill="#9B9C93"/>
<path d="M130.863 484.758C130.671 482.468 132.274 482.81 133.846 483.521C132.708 484.256 132.267 484.873 130.863 484.758Z" fill="#FDFDFD" fill-opacity="0.309804"/>
<path d="M135.109 481.332L135.854 481.549C136.685 484.093 141.101 486.372 143.643 488.105C140.959 491.026 137.934 494.625 133.528 494.379C129.112 494.134 127.564 492.456 128.296 488.189C129.814 486.669 129.835 486.605 130.864 484.758C132.267 484.873 132.709 484.256 133.846 483.521C135.329 483.587 134.885 482.789 135.109 481.332Z" fill="#8D9087"/>
<path d="M152.835 480.582C154.041 480.789 157.16 481.336 158.228 481.885C158.225 483.993 158.8 485.573 158.814 487.479C158.873 495.317 154.824 493.59 161.632 497.743C162.085 495.715 162.764 489.429 164.707 488.73C173.155 485.692 170.833 499.207 169.962 502.764L170.138 503.071L169.415 503.472L169.577 503.798C167.456 509.431 164.352 516.614 157.333 515.476C146.112 513.657 151.993 505.667 152.514 502.047C154.063 502.375 155.754 502.241 155.038 500.2C157.739 499.735 159.074 498.637 157.362 495.963C155.83 495.375 155.463 495.459 154.246 494.338C153.54 491.291 151.575 491.332 148.96 489.746C150.613 485.288 150.631 484.999 152.835 480.582Z" fill="#8D9087"/>
<path d="M161.632 497.742C162.085 495.714 162.764 489.428 164.707 488.729C173.155 485.691 170.833 499.206 169.962 502.763L170.138 503.07L169.415 503.471C166.598 502.676 163.245 500.546 161.335 498.364L161.632 497.742Z" fill="#8D9087"/>
<path d="M161.335 498.364C164.604 499.261 166.899 501.166 169.962 502.763L170.138 503.07L169.415 503.471C166.598 502.676 163.245 500.546 161.335 498.364Z" fill="#5F625C"/>
<path d="M274.075 124.956C274.916 125.392 274.959 125.629 275.566 126.415L275.719 126.61L275.37 126.819C276.215 126.997 276.204 127.004 277.002 127.353C276.672 128.592 276.483 129.69 276.249 130.945C276.509 134.616 277.107 134.203 280.531 135.099C281.646 135.822 282.244 136.413 283.208 137.292C282.703 137.537 282.272 137.711 281.755 137.925L281.848 138.438C282.429 141.54 282.738 140.4 281.771 143.563C280.305 143.357 268.507 143.346 272.895 145.816C280.009 149.822 280.306 154.313 270.874 153.104C269.066 152.029 267.887 151.548 265.918 150.848C266.362 149.401 266.683 145.947 264.458 145.915C264.028 146.216 264.173 150.977 262.196 152.663C261.898 152.672 262.059 152.709 261.755 152.437C261.673 152.023 261.716 151.994 261.78 151.528C262.013 145.623 262.424 147.449 257.535 144.801C250.851 139.323 254.771 142.761 253.272 136.89C254.457 135.98 255.055 136.053 256.585 136.136L259.321 138.581C260.169 139.953 260.453 140.237 261.522 141.456C262.152 138.036 262.025 138.14 261.068 134.604L260.881 134.015C262.395 134.472 262.514 134.472 264.097 134.269L266.015 133.299C266.169 134.445 266.319 137.437 267.139 137.961C269.062 139.188 267.72 131.667 269.877 130.778C271.046 130.295 271.423 128.509 271.73 127.412C272.926 126.441 273.112 126.166 274.075 124.956Z" fill="#E0C1B2"/>
<path d="M274.075 124.956C274.916 125.392 274.959 125.629 275.566 126.415L275.719 126.61L275.37 126.819C276.215 126.997 276.204 127.004 277.002 127.353C276.672 128.592 276.483 129.69 276.249 130.945C276.509 134.616 277.107 134.203 280.531 135.099C281.646 135.822 282.244 136.413 283.208 137.292C282.703 137.537 282.272 137.711 281.755 137.925C276.61 134.458 276.117 139.758 269.345 141.522C265.788 143.714 268.68 139.327 266.434 145.211C263.738 145.874 261.985 144.103 261.522 141.456C262.152 138.036 262.025 138.14 261.068 134.604L260.881 134.015C262.395 134.472 262.514 134.472 264.097 134.269L266.015 133.299C266.169 134.445 266.319 137.437 267.139 137.961C269.062 139.188 267.72 131.667 269.877 130.778C271.046 130.295 271.423 128.509 271.73 127.412C272.926 126.441 273.112 126.166 274.075 124.956Z" fill="#DCB9A6"/>
<path d="M275.371 126.818C276.216 126.996 276.205 127.003 277.003 127.352C276.673 128.591 276.484 129.689 276.25 130.944C276.51 134.615 277.108 134.202 280.532 135.098C281.647 135.821 282.245 136.412 283.209 137.291C282.704 137.536 282.273 137.71 281.756 137.924C276.611 134.457 276.118 139.757 269.346 141.521C270.566 138.116 273.87 129.81 275.371 126.818Z" fill="#F8F5F3"/>
<path d="M260.881 134.015C262.395 134.472 262.514 134.472 264.097 134.269C264.585 136.571 265.913 143.56 266.434 145.211C263.738 145.874 261.985 144.103 261.522 141.456C262.152 138.036 262.025 138.14 261.068 134.604L260.881 134.015Z" fill="#E0C1B2"/>
<path d="M175.166 159.802C179.373 155.292 180.707 160.007 180.837 164.055C181.027 169.95 175.654 172.099 178.773 176.545L178.012 177.221L177.904 177.841L177.673 178.077C178.23 180.32 176.04 180.539 174.229 182.175C169.994 186.001 167.989 190.057 166.272 195.384C164.727 188.701 163.478 183.749 169.468 179.355C172.352 179.013 176.586 177.845 173.085 176.817C174.126 177.123 167.163 178.515 166.811 178.564C150.041 173.974 158.523 171.805 164.31 163.872C164.194 162.837 164.562 162.863 165.454 162.145C167.092 162.876 167.029 163.102 168.216 164.427C168.832 164.816 169.022 165.136 169.51 165.695C172.12 162.366 172.66 162.577 175.166 159.802Z" fill="#9B9C93"/>
<path d="M175.165 159.802C179.372 155.292 180.706 160.007 180.836 164.055C181.026 169.95 175.653 172.099 178.772 176.545L178.011 177.221C176.764 176.147 169.844 166.968 169.509 165.695C172.119 162.366 172.659 162.577 175.165 159.802Z" fill="#9B9C93"/>
<path d="M165.453 162.146C167.091 162.877 167.028 163.103 168.215 164.428C168.831 164.817 169.021 165.137 169.509 165.696C169.844 166.969 176.764 176.148 178.011 177.222L177.903 177.842L177.672 178.078C174.265 175.298 167.786 166.194 165.453 162.146Z" fill="#5F625C"/>
<path d="M157.628 143.831C161.638 143.306 166.129 138.297 166.469 145.81C162.807 148.253 162.493 148.846 159.617 151.986C163.147 150.823 164.648 150.364 167.828 148.226C172.648 151.962 171.731 153.85 168.41 158.735C167.822 160.332 168.181 162.552 168.216 164.428C167.029 163.103 167.092 162.877 165.454 162.146C164.562 162.864 164.194 162.838 164.31 163.873C162.901 162.042 162.671 163.654 161.025 163.779C154.894 164.247 148.177 163.59 150.67 156.242C151.225 151.686 148.873 153.032 147.932 148.311L147.907 146.647C148.26 145.362 148.213 144.777 149.689 144.571C151.197 144.375 152.702 144.153 154.202 143.905C155.002 145.208 155.115 145.618 155.665 147.029C156.008 145.026 155.92 144.892 157.628 143.831ZM154.505 154.867L155.3 154.725C157.14 154.414 157.529 154.089 159.136 153.197C158.544 152.442 157.947 151.691 157.344 150.945C155.31 152.517 155.357 152.453 154.505 154.867Z" fill="#8D9087"/>
<path d="M157.344 150.944C157.947 151.69 158.544 152.441 159.136 153.196C157.529 154.088 157.14 154.413 155.3 154.724L154.505 154.866C155.357 152.452 155.31 152.516 157.344 150.944Z" fill="#FDFDFD" fill-opacity="0.0117647"/>
<path d="M155.665 147.029C156.008 145.026 155.92 144.892 157.628 143.831C158.783 145.903 158.87 145.838 156.961 147.142C156.49 149.094 156.966 149.048 157.344 150.945C155.31 152.517 155.357 152.453 154.505 154.867C153.875 155.24 153.26 155.443 152.584 155.727L152.021 155.954C151.592 156.137 151.128 156.171 150.67 156.242C151.225 151.686 148.873 153.032 147.932 148.311L147.907 146.647C148.26 145.362 148.213 144.777 149.689 144.571C151.197 144.375 152.702 144.153 154.202 143.905C155.002 145.208 155.115 145.618 155.665 147.029Z" fill="#9B9C93"/>
<path d="M154.202 143.904C155.002 145.207 155.115 145.617 155.665 147.028C154.38 147.836 150.886 147.555 147.932 148.31L147.907 146.646C148.26 145.361 148.213 144.776 149.689 144.57C151.197 144.374 152.702 144.152 154.202 143.904Z" fill="#FDFDFD"/>
<path d="M157.343 150.945C156.966 149.048 156.489 149.094 156.96 147.142C159.067 149.705 158.623 149.88 159.135 153.197C158.543 152.442 157.946 151.691 157.343 150.945Z" fill="#5F625C"/>
<path d="M159.348 152.97C162.261 154.703 164.565 158.63 165.837 161.685C162.823 159.969 160.658 156.113 159.348 152.97Z" fill="#5F625C"/>
<path d="M283.969 184.261C286.59 186.032 293.242 189.544 292.986 192.996C292.114 204.755 283.378 206.148 275.723 200.328C275.073 195.879 273.594 191.592 271.362 187.689L272.85 187.667C273.184 187.927 273.065 187.887 273.24 187.91C273.389 187.805 273.298 187.895 273.5 187.541C274.452 186.975 274.713 186.854 275.554 186.127L279.127 185.032C280.636 184.986 283.178 185.546 283.969 184.261Z" fill="#8D9087"/>
<path d="M296.896 131.524C298.495 126.994 299.528 125.347 303.811 123.062C308.335 120.648 315.507 123.95 316.785 128.627C319.64 139.081 309.223 139.731 303.262 141.328C302.318 141.641 302.484 141.5 301.956 140.626C302.549 140.022 306.551 136.341 306.149 135.58C306.09 135.47 305.974 135.402 305.848 135.405C304.856 135.422 301.96 139.091 301.184 139.928C300.228 137.179 300.845 137.455 298.984 135.018C297.999 133.992 297.523 132.784 296.896 131.524Z" fill="#9B9C93"/>
<path d="M271.892 125.037C273.236 121.277 267.677 120.21 268.218 116.082C268.598 113.18 272.882 113.723 273.278 113.352C274.678 103.936 279.844 111.448 281.317 113.223C281.456 113.39 287.347 112.715 286.763 116.08C285.816 119.83 288.009 122.614 288.896 126.242C284.846 128.534 281.577 127.928 277.002 127.353C276.204 127.004 276.215 126.997 275.37 126.819L275.719 126.61L275.566 126.415C274.959 125.629 274.916 125.392 274.075 124.956C273.112 126.166 272.926 126.441 271.73 127.412L271.892 125.037Z" fill="#DAC3B9"/>
<path d="M276.23 117.445C280.147 121.838 284.066 124.365 275.719 126.609L275.566 126.414C274.959 125.628 274.916 125.391 274.075 124.955C274.49 121.876 275.325 120.336 276.23 117.445Z" fill="#BF8D81"/>
<path d="M270.874 153.104C280.306 154.313 280.009 149.822 272.895 145.816C268.507 143.346 280.305 143.357 281.771 143.563C283.074 145.007 290.279 143.812 292.207 143.34C293.994 144.249 294.369 144.655 295.976 145.871C295.426 146.618 294.865 147.357 294.293 148.088C290.533 145.221 286.881 143.261 283.002 148.055C279.212 152.738 282.284 156.562 285.555 160.398C284.28 162.165 283.195 163.835 282.038 165.685C276.319 158.477 269.988 153.754 262.873 162.889C262.738 163.677 262.484 166.681 262.293 167.013C261.235 165.792 261.319 165.85 259.956 164.966C260.557 162.772 264.637 153.12 265.713 151.186C267.336 155.131 265.516 157.167 270.874 153.104Z" fill="#FDFDFD" fill-opacity="0.988235"/>
<path d="M127.01 410.141C123.545 409.342 121.077 409.115 118.524 406.067C113.869 400.508 116.613 395.988 123.823 397.255C125.252 397.873 126.891 397.809 127.505 395.745C128.049 393.915 133.807 388.506 135.091 392.625C136.238 396.304 134.495 401.741 132.548 405.16L131.466 407.086C130.958 407.246 130.84 407.44 130.422 407.807L130.077 408.078C128.534 409.306 128.934 409.535 127.01 410.141Z" fill="#9B9C93"/>
<path d="M314.697 249.597C314.6 247.247 314.625 245.168 316.327 243.254C317.691 241.735 319.633 240.863 321.674 240.852C328.32 240.871 333.13 249.889 328.004 254.26C323.983 257.69 330.908 261.619 321.319 260.222C320.507 258.862 319.48 255.596 317.851 256.518L317.057 256.487L316.963 255.973C316.387 253.259 316.736 251.633 314.697 249.597Z" fill="#9B9C93"/>
<path d="M321.179 251.37C321.171 253.752 320.371 254.319 318.355 255.198C318.067 253.636 320.099 252.339 321.179 251.37Z" fill="#2E2520"/>
<path d="M243.616 140.249C253.628 128.147 244.999 140.438 253.272 136.89C254.771 142.761 250.851 139.323 257.535 144.801C255.411 146.615 254.31 146.799 252.429 148.698C251.672 151.889 252.066 153.969 249.103 155.677C244.611 151.552 243.499 154.339 242.81 158.605L242.439 157.418L242.579 153.582C242.261 152.155 242.117 151.981 240.822 151.175C243.074 149.762 242.671 148.258 241.128 146.475C242.563 145.615 242.799 144.932 243.575 143.462C243.709 143.802 243.835 144.145 243.96 144.487C244.133 144.803 244.457 145.006 244.816 145.024C246.428 145.103 246.82 142.14 244.67 140.864L243.616 140.249Z" fill="#FDFDFD" fill-opacity="0.8"/>
<path d="M155.07 214.836C162.245 218.304 161.621 215.439 161.275 225.93C160.755 227.108 160.723 227.748 160.406 228.983C158.256 233.968 157.995 235.179 158.82 240.331C158.717 240.854 158.785 240.801 158.531 241.17C158.299 241.125 158.445 241.174 158.067 240.965C155.664 237.952 153.492 235.587 150.468 233.168L150.531 232.52C150.112 227.399 150.343 230.351 147.957 225.79L148.793 224.509C151.18 226.223 151.302 226.288 152.961 228.68C152.931 230.305 153.144 229.756 152.379 230.957C151.62 232.146 155.512 231.727 153.93 229.055C153.773 225.19 154.406 218.715 155.07 214.836Z" fill="#DAC3B9"/>
<path d="M272.702 481.91C274.697 482.032 276.326 482.101 278.309 482.38C278.546 485.385 279.596 491.891 277.217 493.659C268.787 499.925 260.339 497.427 258.438 487.481C260.148 487.053 261.417 486.647 263.094 486.109C262.924 487.374 261.5 489.361 263.154 490.277C265.457 491.551 273.548 489.494 275.092 487.37C277.914 483.487 272.482 482.592 272.449 482.21L272.702 481.91Z" fill="#E1D3CC" fill-opacity="0.988235"/>
<path d="M187.906 511.564C181.886 515.319 185.781 487.213 190.135 488.196C189.166 490.814 191.486 491.172 193.704 492.099C193.943 496.125 194.953 500.125 195.044 503.586L194.613 503.833C193.347 504.549 188.213 506.904 187.085 507.963C186.928 508.11 187.476 509.876 187.546 510.053C187.559 510.085 187.899 511.533 187.906 511.564Z" fill="#8D9087" fill-opacity="0.988235"/>
<path d="M136.59 417.058C137.604 417.163 140.342 421.452 141.994 422.778C143.118 424.16 143.577 424.853 142.468 426.427C138.879 428.667 129.195 432.417 127.435 425.081C126.471 421.059 133.216 420.211 136.59 417.058Z" fill="#8D9087"/>
<path d="M261.78 151.528C261.716 151.994 261.673 152.023 261.755 152.437C262.059 152.709 261.898 152.672 262.196 152.663C264.173 150.977 264.028 146.216 264.458 145.915C266.683 145.947 266.362 149.401 265.918 150.848L265.713 151.186C264.637 153.12 260.557 162.772 259.956 164.966C258.932 166.799 257.875 168.777 256.489 170.348L256.25 171.254C254.354 173.259 253.835 174.119 252.323 176.441C251.823 176.39 251.211 176.382 250.7 176.36C251.417 175.261 251.953 175.213 251.343 174.113C251.366 172.081 251.204 166.882 252.011 165.278C255.025 166.811 255.242 163.986 256.917 161.565L257.403 161.053C258.879 158.471 258.687 158.961 258.925 155.879C257.01 150.93 259.206 154.953 261.78 151.528Z" fill="#DCB9A6"/>
<path d="M258.925 155.879C261.114 153.652 261.815 154.623 260.989 157.391C259.015 164.005 255.98 169.033 251.343 174.113C251.366 172.081 251.204 166.882 252.011 165.278C255.025 166.811 255.242 163.986 256.917 161.565L257.403 161.053C258.879 158.471 258.687 158.961 258.925 155.879Z" fill="#F8F5F3"/>
<path d="M148.277 236.309C150.008 238.573 155.323 240.246 158.067 240.964C158.445 241.173 158.299 241.124 158.531 241.169C158.785 240.8 158.717 240.853 158.82 240.33C161.712 240.596 160.481 240.887 162.377 238.909L163.074 238.796C163.145 241.989 162.868 242.355 162.517 245.483C156.967 244.537 151.438 244.425 146.026 243.263C144.241 242.88 139.981 240.416 139.534 238.565C138.214 233.105 145.578 237.977 148.277 236.309Z" fill="#E0C1B2"/>
<path d="M121.933 318.181C122.269 322.798 119.959 326.965 115.075 326.371C106.968 325.386 109.063 311.33 117.888 314.016C119.525 314.514 119.847 314.511 121.352 314.039C120.629 315.078 120.67 315.028 121.139 316.139C121.027 317.245 121.183 317.171 121.933 318.181Z" fill="#8D9087"/>
<path d="M147.907 146.647C147.84 146.464 147.565 145.745 147.562 145.616C146.957 142.234 142.047 141.97 141.379 137.348C140.504 131.287 146.974 130.182 150.906 133.744C150.837 137.474 152.446 140.617 154.201 143.905C152.701 144.153 151.196 144.375 149.688 144.571C148.212 144.777 148.259 145.362 147.907 146.647Z" fill="#9B9C93"/>
<path d="M131.466 407.087C132.52 408.493 133.418 409.57 134.298 411.104C135.294 412.787 135.703 413.037 136.943 414.501C137.529 415.253 138.014 415.965 138.553 416.746C140.226 419.427 140.74 419.109 142.259 422.166L141.993 422.778C140.342 421.452 137.603 417.163 136.59 417.058C136.259 416.611 135.738 415.979 135.532 415.487C129.843 418.286 125.998 420.945 124.493 413.328C124.853 410.349 124.038 410.543 127.01 410.142C128.934 409.536 128.533 409.307 130.077 408.079L130.422 407.808C130.84 407.441 130.957 407.247 131.466 407.087Z" fill="#9B9C93"/>
<path d="M131.466 407.087C132.52 408.493 133.419 409.57 134.299 411.104C135.294 412.787 135.703 413.037 136.943 414.501C137.529 415.253 138.014 415.965 138.554 416.746C140.226 419.427 140.74 419.109 142.259 422.166L141.993 422.778C140.342 421.452 137.604 417.163 136.59 417.058C136.259 416.611 135.738 415.979 135.532 415.487C135.327 414.045 134.069 412.483 133.16 411.315C132.224 410.164 131.311 408.995 130.422 407.808C130.84 407.441 130.957 407.247 131.466 407.087Z" fill="#5F625C"/>
<path d="M130.422 407.808C131.311 408.995 132.224 410.164 133.16 411.315C130.35 412.607 127.744 412.34 124.493 413.328C124.853 410.349 124.038 410.543 127.01 410.142C128.934 409.536 128.533 409.307 130.077 408.079L130.422 407.808Z" fill="#FDFDFD"/>
<path d="M150.906 133.744C152.63 131.981 158.78 120.75 159.391 131.701C159.642 136.208 154.082 141.093 157.627 143.831C155.919 144.892 156.007 145.026 155.665 147.029C155.114 145.618 155.002 145.208 154.202 143.905C152.446 140.617 150.837 137.474 150.906 133.744Z" fill="#8D9087"/>
<path d="M303.962 422.192C306.986 422.374 309.573 423.322 312.237 424.686C323.636 430.522 309.419 432.466 305.269 433.645C303.892 428.477 304.472 427.833 303.923 423.192L303.962 422.192Z" fill="#9B9C93"/>
<path d="M148.511 490.984C150.588 492.193 152.189 492.962 154.246 494.337C155.463 495.458 155.83 495.374 157.362 495.962C155.68 497.877 155.488 497.863 155.038 500.199C153.151 499.59 153.229 500.207 152.515 502.046C150.966 502.32 148.939 503.757 148.492 503.749C140.306 503.605 147.324 492.716 148.511 490.984Z" fill="#8D9087"/>
<path d="M259.956 164.966C261.319 165.85 261.235 165.792 262.293 167.013C262.484 166.681 262.738 163.677 262.873 162.889C263.599 170.999 262.83 172.358 268.834 178.695C263.28 181.325 265.28 175.083 257.471 177.371C255.983 177.278 253.823 176.775 252.323 176.441C253.835 174.119 254.354 173.259 256.25 171.254C255.643 181.498 261.323 171.86 260.038 170.121C259.408 170.022 257.654 170.41 256.489 170.348C257.875 168.777 258.932 166.799 259.956 164.966Z" fill="#FDFDFD" fill-opacity="0.866667"/>
<path d="M141.718 475.576C143.231 476.348 144.42 476.867 145.888 477.779C145.534 481.032 145.13 483.759 144.388 486.945C145.898 487.836 147.548 488.733 148.96 489.745C151.575 491.331 153.54 491.29 154.246 494.337C152.189 492.962 150.588 492.193 148.511 490.984C146.511 489.635 145.562 489.244 143.643 488.104C141.101 486.371 136.685 484.092 135.854 481.548L137.892 482.313C139.729 478.53 138.846 478.919 141.718 475.576Z" fill="#8D9087"/>
<path d="M143.643 488.105C141.101 486.372 136.685 484.093 135.854 481.549L137.892 482.314C139.62 483.745 142.455 486.031 144.388 486.946C145.898 487.837 147.548 488.734 148.96 489.746C151.575 491.332 153.54 491.291 154.246 494.338C152.189 492.963 150.588 492.194 148.511 490.985C146.511 489.636 145.562 489.245 143.643 488.105Z" fill="#5F625C"/>
<path d="M263.094 486.11C265.52 484.486 270.251 480.616 272.701 481.911L272.448 482.211C272.481 482.593 277.913 483.488 275.091 487.371C273.547 489.495 265.457 491.552 263.154 490.278C261.5 489.362 262.924 487.375 263.094 486.11Z" fill="#E1D3CC" fill-opacity="0.807843"/>
<path d="M283.208 137.292C288.426 138.72 287.054 129.595 290.375 130.239C290.8 130.322 291.16 130.603 291.343 130.996C291.459 131.256 291.575 131.516 291.691 131.777C291.949 133.42 291.968 133.524 292.684 135.053L291.949 135.277C290.192 135.773 290.735 137.04 291.629 138.141L291.293 138.595C287.621 138.49 287.432 141.206 291.378 142.698L292.207 143.34C290.279 143.812 283.074 145.007 281.771 143.563C282.738 140.4 282.429 141.54 281.848 138.438L281.755 137.925C282.272 137.711 282.703 137.537 283.208 137.292Z" fill="#FDFDFD" fill-opacity="0.92549"/>
<path d="M288.896 126.241C292.249 128.859 292.677 127.259 291.691 131.776C291.575 131.515 291.459 131.255 291.343 130.995C291.16 130.602 290.8 130.321 290.375 130.238C287.054 129.594 288.426 138.719 283.208 137.291C282.244 136.412 281.646 135.821 280.531 135.098C281.184 134.855 282.641 134.467 282.66 133.587C282.83 125.925 278.346 130.444 276.249 130.944C276.483 129.689 276.672 128.591 277.002 127.352C281.577 127.927 284.846 128.533 288.896 126.241Z" fill="#FDFDFD" fill-opacity="0.898039"/>
<path d="M296.896 131.524C297.523 132.784 297.999 133.992 298.984 135.018C298.72 136.174 298.406 137.31 298.1 138.456C299.189 139.562 299.274 139.593 300.676 140.298C299.213 142.198 297.501 143.915 295.976 145.87C294.369 144.654 293.994 144.248 292.207 143.339L291.378 142.697C291.322 141.3 291.251 139.999 291.293 138.594L291.629 138.14C290.735 137.039 290.192 135.772 291.949 135.276L292.684 135.052C295.479 134.698 295.303 133.814 296.896 131.524Z" fill="#8D9087"/>
<path d="M296.896 131.524C297.523 132.784 297.999 133.992 298.984 135.018C298.72 136.174 298.406 137.31 298.1 138.456C295.523 137.108 294.446 137.274 291.629 138.14C290.735 137.039 290.192 135.772 291.949 135.276L292.684 135.052C295.479 134.698 295.303 133.814 296.896 131.524Z" fill="#FDFDFD"/>
<path d="M257.536 144.801C262.425 147.449 262.014 145.623 261.781 151.528C259.207 154.953 257.011 150.93 258.926 155.879C255.058 156.297 254.729 158.756 257.404 161.053L256.918 161.565C253.238 159.115 256.858 157.962 254.615 154.897C253.076 152.793 253.453 151.752 252.43 148.698C254.311 146.799 255.412 146.615 257.536 144.801Z" fill="#FDFDFD" fill-opacity="0.501961"/>
<path d="M121.352 314.04C122.09 311.25 116.226 311.519 116.743 309.34C118.318 302.709 127.651 311.236 128.553 312.071L128.786 312.648C127.864 314.819 127.111 314.189 125.03 315.417C123.686 316.509 123.055 316.849 121.933 318.182C121.183 317.172 121.027 317.246 121.139 316.14C120.67 315.029 120.629 315.079 121.352 314.04Z" fill="#9B9C93"/>
<path d="M121.139 316.139C124.813 314.822 125.206 313.564 128.786 312.647C127.863 314.818 127.111 314.189 125.03 315.417C123.686 316.509 123.055 316.849 121.933 318.182C121.183 317.172 121.027 317.245 121.139 316.139Z" fill="#777873"/>
<path d="M249.104 155.676C252.067 153.968 251.673 151.888 252.43 148.697C253.453 151.751 253.076 152.792 254.615 154.896C256.858 157.961 253.238 159.114 256.918 161.564C255.243 163.985 255.026 166.81 252.012 165.277C251.141 161.775 249.582 158.837 249.104 155.676Z" fill="#FDFDFD" fill-opacity="0.603922"/>
<path d="M262.705 127.684C264.734 126.691 264.991 125.182 266.684 124.545C269.135 123.624 268.897 126.192 271.892 125.037L271.73 127.412C271.423 128.509 271.046 130.295 269.877 130.778C267.72 131.667 269.062 139.188 267.139 137.961C266.319 137.437 266.169 134.445 266.015 133.299C266.107 130.072 265.423 129.187 262.705 127.684Z" fill="#FDFDFD" fill-opacity="0.164706"/>
<path d="M276.631 179.89C280.445 179.332 283.976 177.663 286.108 178.849C284.522 181.368 284.506 181.433 283.969 184.261C283.178 185.546 280.636 184.986 279.127 185.032C276.83 181.865 276.922 182.094 275.554 186.127C274.713 186.854 274.452 186.975 273.5 187.541C274.533 185.097 275.723 182.368 276.631 179.89Z" fill="#FDFDFD" fill-opacity="0.929412"/>
<path d="M317.221 404.398C316.988 404.3 316.754 404.202 316.521 404.105C316.759 403.628 317.62 403.314 318.129 403.06C319.61 403.005 320.63 402.814 322.077 402.58C323.295 403.263 323.845 403.655 325.225 404.033C332.252 408.636 325.06 410.37 321.19 409.098C320.88 408.996 317.907 405.156 317.221 404.398Z" fill="#9B9C93"/>
<path d="M134.299 411.103C136.881 408.487 140.141 402.598 143.607 406.609C143.992 407.046 144.181 407.621 144.132 408.202C143.968 410.36 138.735 413.125 136.943 414.5C135.703 413.036 135.294 412.786 134.299 411.103Z" fill="#9B9C93"/>
<path d="M220.59 544.12C220.795 547.635 220.897 551.747 220.555 555.241C220.019 557.666 220.014 557.731 220.11 560.138C220.154 567.824 219.922 574.08 220.241 581.886L219.151 581.727C218.089 578.794 218.878 563.418 219.193 559.687C219.787 556.306 219.166 549.338 219.599 544.991L220.59 544.12Z" fill="#9B9C93" fill-opacity="0.988235"/>
<path d="M154.18 213.744C154.64 214.059 154.718 214.306 155.07 214.836C154.406 218.715 153.774 225.19 153.93 229.055C153.79 229.34 153.754 229.554 153.525 229.703C153.274 229.42 153.127 229.04 152.961 228.68C151.303 226.288 151.18 226.223 148.793 224.509C150.336 221.41 152.137 219.098 153.403 215.755L154.18 213.744Z" fill="#FDFDFD" fill-opacity="0.0156863"/>
<path d="M233.823 158.863C235.638 158.552 235.439 158.339 236.805 157.115C237.002 157.535 239.695 162.356 240.211 163.077C240.232 163.106 240.401 163.102 240.462 163.048C241.852 161.786 242.278 159.113 242.439 157.417L242.81 158.604C242.694 160.201 242.593 161.705 242.549 163.311C241.358 166.848 240.353 167.635 239.332 170.295C238.566 167.409 237.257 165.422 237.073 162.296C236.976 160.652 234.907 160.025 233.823 158.863Z" fill="#FDFDFD" fill-opacity="0.619608"/>
<path d="M293.483 307.789C294.15 308.676 293.956 308.715 294.232 309.755C295.451 310.493 299.198 310.195 300.668 309.602C301.644 309.659 302.621 309.707 303.597 309.744L303.373 311.098C296.03 312.259 295.37 312.313 288.908 315.614C289.446 311.776 290.909 311.803 291.257 309.182C292.259 308.33 292.311 308.327 293.483 307.789Z" fill="#FDFDFD" fill-opacity="0.917647"/>
<path d="M236.806 157.116C239.859 154.3 239.621 151.477 242.58 153.582L242.44 157.418C242.279 159.114 241.853 161.787 240.463 163.049C240.402 163.103 240.233 163.107 240.212 163.078C239.696 162.357 237.003 157.536 236.806 157.116Z" fill="#FDFDFD" fill-opacity="0.478431"/>
<path d="M259.328 132.551C260.133 129.459 259.038 128.184 262.705 127.684C265.423 129.187 266.107 130.072 266.015 133.299L264.097 134.269C262.514 134.472 262.395 134.472 260.881 134.015C260.411 133.549 259.833 132.941 259.328 132.551Z" fill="#DAC3B9"/>
<path d="M233.823 158.863C233.456 153.89 236.598 154.07 239.938 148.775L240.822 151.174C242.117 151.98 242.261 152.154 242.579 153.581C239.62 151.476 239.858 154.299 236.805 157.115C235.439 158.339 235.638 158.552 233.823 158.863Z" fill="#FDFDFD" fill-opacity="0.764706"/>
<path d="M160.406 228.982C161.147 230.705 161.161 233.829 162.061 234.235C162.41 235.367 162.322 237.573 162.377 238.909C160.481 240.887 161.712 240.596 158.82 240.33C157.995 235.178 158.256 233.967 160.406 228.982Z" fill="#FDFDFD" fill-opacity="0.129412"/>
<path d="M163.874 222.062C163.809 227.677 163.328 233.139 163.074 238.797L162.377 238.909C162.322 237.573 162.41 235.367 162.061 234.235C161.161 233.829 161.147 230.705 160.406 228.982C160.723 227.747 160.755 227.108 161.275 225.93C162.148 224.441 162.973 223.482 163.874 222.062Z" fill="#FDFDFD" fill-opacity="0.290196"/>
<path d="M276.249 130.945C278.346 130.445 282.83 125.926 282.66 133.588C282.641 134.468 281.184 134.856 280.531 135.099C277.107 134.203 276.509 134.616 276.249 130.945Z" fill="#FDFDFD" fill-opacity="0.690196"/>
<path d="M148.276 236.31C149.001 235.259 149.732 234.211 150.468 233.168C153.492 235.587 155.663 237.952 158.067 240.965C155.322 240.247 150.007 238.574 148.276 236.31Z" fill="#FDFDFD" fill-opacity="0.87451"/>
<path d="M168.41 158.734L168.566 159.191C168.702 159.685 168.815 160.524 169.23 160.84C171.738 159.184 172.24 159.25 175.166 159.802C172.66 162.577 172.12 162.366 169.51 165.695C169.022 165.136 168.832 164.816 168.216 164.427C168.181 162.551 167.822 160.331 168.41 158.734Z" fill="#FDFDFD" fill-opacity="0.176471"/>
<path d="M256.49 170.348C257.655 170.41 259.409 170.022 260.039 170.121C261.324 171.86 255.644 181.498 256.251 171.254L256.49 170.348Z" fill="#FDFDFD" fill-opacity="0.552941"/>
<path d="M303.923 423.192C304.472 427.833 303.892 428.477 305.269 433.645C304.156 433.79 303.421 433.814 302.297 433.843C303.237 428.427 301.669 426.325 303.923 423.192Z" fill="#9B9C93" fill-opacity="0.290196"/>
<path d="M293.483 307.788C294.711 306.538 296.472 307.308 298.177 307.528C299.054 308.302 299.745 308.888 300.668 309.601C299.198 310.194 295.451 310.492 294.232 309.754C293.956 308.714 294.15 308.675 293.483 307.788Z" fill="#FDFDFD" fill-opacity="0.584314"/>
<path d="M159.616 151.986C162.492 148.846 162.806 148.253 166.468 145.81L166.598 146.231C167.088 147.853 166.128 147.768 167.827 148.226C164.647 150.364 163.146 150.823 159.616 151.986Z" fill="#FDFDFD" fill-opacity="0.0352941"/>
<path d="M289.255 270.142C290.225 271.057 290.97 272.5 292.017 273.751C291.437 274.02 290.852 274.278 290.263 274.525C287.914 272.722 287.131 272.922 284.936 271.489C287.298 271.342 287.537 271.686 289.255 270.142Z" fill="#FDFDFD" fill-opacity="0.376471"/>
<path d="M314.696 249.597C316.735 251.633 316.386 253.259 316.962 255.973C315.607 254.78 313.88 252.905 312.339 251.471C313.626 250.691 313.68 250.625 314.696 249.597Z" fill="#FDFDFD" fill-opacity="0.427451"/>
<path d="M265.918 150.848C267.887 151.548 269.066 152.029 270.874 153.104C265.516 157.167 267.336 155.131 265.713 151.186L265.918 150.848Z" fill="#FDFDFD" fill-opacity="0.843137"/>
<path d="M259.328 132.551C259.833 132.941 260.411 133.549 260.881 134.015L261.068 134.604C259.599 136.4 259.93 136.29 259.321 138.581L256.585 136.136C257.585 134.894 258.401 133.861 259.328 132.551Z" fill="#FDFDFD" fill-opacity="0.878431"/>
<path d="M257.403 161.053C254.728 158.756 255.057 156.297 258.925 155.879C258.687 158.961 258.879 158.471 257.403 161.053Z" fill="#FDFDFD" fill-opacity="0.447059"/>
<path d="M259.321 138.581C259.93 136.29 259.599 136.4 261.068 134.604C262.025 138.14 262.152 138.036 261.522 141.456C260.453 140.237 260.169 139.953 259.321 138.581Z" fill="#FDFDFD" fill-opacity="0.4"/>
<path d="M190.135 488.195C193.747 488.193 193.131 488.62 193.704 492.098C191.486 491.171 189.166 490.813 190.135 488.195Z" fill="#E1D3CC" fill-opacity="0.984314"/>
<path d="M121.432 480.217C121.71 480.079 128.998 475.705 127.866 479.369C126.716 480.437 124.989 479.854 122.527 480.935C122.108 480.677 121.832 480.509 121.432 480.217Z" fill="#FDFDFD" fill-opacity="0.0235294"/>
<path d="M166.811 178.564C167.163 178.515 174.126 177.123 173.085 176.817C176.586 177.845 172.352 179.013 169.468 179.355C168.549 179.068 167.741 178.813 166.811 178.564Z" fill="#FDFDFD" fill-opacity="0.054902"/>
<path d="M312.451 268.769C313.825 268.885 314.693 269.084 316.026 269.354C315.239 270.531 315.293 270.447 314.149 271.324C311.634 270.219 311.925 270.22 309.228 269.895C310.293 269.551 311.437 269.225 312.451 268.769Z" fill="#FDFDFD" fill-opacity="0.203922"/>
<path d="M291.378 142.698C287.432 141.206 287.621 138.49 291.293 138.595C291.251 140 291.322 141.301 291.378 142.698Z" fill="#FDFDFD" fill-opacity="0.886275"/>
<path d="M157.362 495.963C159.075 498.637 157.74 499.735 155.038 500.2C155.488 497.864 155.68 497.878 157.362 495.963Z" fill="#FDFDFD" fill-opacity="0.054902"/>
<path d="M317.851 256.518C319.48 255.596 320.507 258.862 321.319 260.222C320.667 260.454 320.01 260.671 319.348 260.874C318.646 259.101 318.253 258.427 317.851 256.518Z" fill="#FDFDFD" fill-opacity="0.0509804"/>
<path d="M243.616 140.249L244.67 140.864C246.82 142.14 246.428 145.103 244.816 145.024C244.457 145.006 244.133 144.803 243.96 144.487C243.835 144.145 243.709 143.802 243.575 143.462L243.616 140.249Z" fill="#FDFDFD" fill-opacity="0.87451"/>
<path d="M298.985 135.019C300.846 137.456 300.229 137.18 301.185 139.929L300.677 140.299C299.275 139.594 299.19 139.563 298.101 138.457C298.407 137.311 298.721 136.175 298.985 135.019Z" fill="#FDFDFD" fill-opacity="0.572549"/>
<path d="M298.177 307.529C299.691 307.501 301.205 307.456 302.718 307.397C303.077 308.208 303.31 308.914 303.597 309.743C302.621 309.706 301.644 309.659 300.668 309.602C299.745 308.889 299.054 308.303 298.177 307.529Z" fill="#FDFDFD" fill-opacity="0.411765"/>
<path d="M241.128 146.475C242.671 148.258 243.074 149.762 240.822 151.175L239.938 148.776C240.332 147.998 240.712 147.242 241.128 146.475Z" fill="#FDFDFD" fill-opacity="0.937255"/>
<path d="M152.515 502.047C153.229 500.208 153.151 499.591 155.038 500.2C155.755 502.241 154.063 502.375 152.515 502.047Z" fill="#FDFDFD" fill-opacity="0.792157"/>
<path d="M322.076 402.579C324.104 402.205 324.383 402.326 326.435 402.645C325.904 403.139 325.661 403.473 325.224 404.032C323.844 403.654 323.294 403.262 322.076 402.579Z" fill="#FDFDFD" fill-opacity="0.105882"/>
<path d="M275.555 186.127C276.923 182.094 276.831 181.865 279.128 185.032L275.555 186.127Z" fill="#FDFDFD" fill-opacity="0.843137"/>
<path d="M153.93 229.055C155.512 231.727 151.62 232.146 152.378 230.957C153.144 229.756 152.931 230.305 152.961 228.68C153.127 229.04 153.274 229.42 153.525 229.703C153.754 229.554 153.79 229.34 153.93 229.055Z" fill="#FDFDFD" fill-opacity="0.501961"/>
<path d="M170.138 503.07C171.018 503.341 173.035 503.78 173.386 504.756C173.04 505.355 170.088 503.966 169.577 503.797L169.415 503.471L170.138 503.07Z" fill="#BAAFA6" fill-opacity="0.415686"/>
</svg>
