<svg width="439" height="688" viewBox="0 0 439 688" fill="none" xmlns="http://www.w3.org/2000/svg">
<path d="M189.143 176.255C196.944 174.825 203.744 173.18 208.359 165.972C217.341 152.955 197.561 140.281 196.897 128.204C196.082 113.367 197.834 94.0199 216.268 92.1789C247.866 89.0229 247.496 128.411 233.414 147.673C232.788 148.315 232.325 148.836 231.752 149.511C226.028 156.185 230.115 165.346 236.021 170.651C238.697 173.629 243.475 174.751 247.187 175.608C252.197 177.199 257.987 177.056 263.637 179.041C264.075 179.402 264.405 179.598 264.875 179.901L265.723 179.626C268.311 180.105 268.122 179.87 270.665 178.971C274.635 179.785 272.541 181.909 271.857 186.154C275.236 192.594 275.323 194.508 276.104 201.618L280.242 270.555C286.251 270.661 285.224 269.962 286.184 264.903C286.064 261.494 285.837 257.808 289.629 256.058C295.169 253.503 298.287 258.607 301.469 259.961C302.152 259.59 302.671 258.849 303.207 258.295C304.497 252.465 305.238 250.734 311.034 250.263C313.005 252.208 313.196 253.371 315.483 251.692C315.777 250.892 315.77 251.13 315.634 250.722C315.558 250.718 315.482 250.713 315.406 250.709C314.655 249.951 313.922 249.192 313.173 248.437C320.958 225.902 334.5 251.854 325.753 259.892C321.067 260.768 318.983 256.772 316.599 253.363C318.054 259.1 319.244 262.362 316.039 267.968C315.705 268.553 315.678 268.701 315.622 269.344L315.516 272.419C316.302 281.524 301.94 278.913 296.361 277.575C297.364 281.151 299.021 286.444 299.5 289.982C302.087 291.638 306.785 294.512 307.381 297.725C308.21 302.19 306.667 305.458 302.583 307.209L301.963 307.273C298.025 307.707 294.88 307.755 290.962 307.99C288.259 308.322 284.905 312.284 282.442 314.292C282.397 315.959 282.482 317.295 282.584 318.941C283.238 321.776 282.29 324.296 284.945 323.707L286.519 323.687L288.333 325.21C287.359 329.713 285.977 329.945 281.764 331.112C280.649 333.695 282.685 336.2 282.773 340.382C282.948 348.612 281.428 365.632 273.319 369.874C272.261 370.428 268.925 371.021 267.649 371.227C266.541 381.524 269.033 409.112 269.459 421.123C269.684 422.729 269.818 428.333 270.674 429.04C271.73 429.912 275.264 430.177 276.853 428.713L276.647 429.36C276.574 429.636 276.502 429.912 276.429 430.188C279.377 433.295 279.091 432.655 281.499 436.521C279.494 439.553 273.304 449.023 271.092 451.333L271.972 452.396C270.158 454.924 270.727 454.897 270.788 458.096L271.182 459.549C274.588 460.487 273.986 461.104 276.098 464.125C276.462 468.421 275.883 470.626 276.495 474.854C275.451 477.683 273.961 480.918 271.14 482.329C268.123 479.764 268.792 480.034 264.889 479.658C263.63 480.213 258.422 482.312 257.287 482.598C254.229 483.394 251.924 484.301 248.71 484.741C247.004 489.888 245.753 502.848 244.726 508.821C243.066 518.481 239.635 532.385 239.899 541.907C240.458 562.112 257.704 578.659 238.972 596.707C229.319 592.318 225.547 590.359 220.352 581.451L219.973 582.088C216.113 588.5 209.206 592.897 202.276 595.318C196.519 597.329 192.216 586.06 191.941 581.8C191.091 568.602 199.962 556.113 201.205 543.058C202.168 530.233 197.159 513.777 195.495 500.95C192.586 505.167 192.139 505.14 187.239 506.866L186.752 506.851C186.587 508.356 186.661 508.793 185.725 510.052L185.167 509.582C184.377 509.129 178.886 506.396 178.926 506.449L178.955 506.391C179.586 506.091 180.454 506.725 180.906 506.097C180.946 505.012 176.484 501.684 175.579 496.175C174.519 489.719 178.197 489.012 182.16 483.702L182.404 483.369C175.368 481.078 171.13 479.079 164.747 475.554C164.784 471.27 165.457 465.603 165.85 461.24C155.582 462.437 147.662 455.994 155.488 447.964C156.584 447.218 157.67 446.457 158.745 445.68C160.937 445.129 162.96 444.642 165.13 443.998C166.12 443.832 166.405 444.175 167.282 444.616C167.312 443.948 167.353 443.28 167.406 442.613C168.161 432.801 173.847 376.538 172.079 370.301C162.008 373.363 156.625 346.283 157.996 340.892C160.909 329.436 158.908 327.162 159.363 316.178C153.023 314.582 153.931 306.354 150.539 303.663L149.842 302.342C150.01 302.241 150.178 302.14 150.345 302.04C150.29 301.977 150.236 301.914 150.181 301.851L150.006 301.886L149.863 302.033C149.778 301.237 149.872 298.987 148.94 298.817L148.741 298.907L148.846 298.815L148.803 298.81C147.215 301.152 150.063 300.174 146.945 303.209C146.756 302.704 146.578 302.273 146.434 301.752C146.79 300.965 147.548 299.443 147.636 298.648C147.883 296.421 140.267 292.258 141.782 289.572C145.156 283.59 155.863 292.204 159.901 293.865C161.656 288.797 159.227 287.894 158.754 283.304C158.563 281.449 159.039 280.656 160.112 279.254C162.809 275.726 162.206 252.509 162.86 246.434C162.776 245.266 162.86 245.283 162.395 244.262C163.438 241.388 163.411 233.527 163.737 230.222C164.839 219.087 164.623 202.818 167.172 192.206C165.821 190.296 165.327 192.138 164.832 191.505C161.633 187.42 166.148 181.477 167.595 178.085L168.194 178.18C170.13 178.683 170.515 178.849 172.525 178.454L174.315 177.468C175.607 177.967 175.566 178.079 176.608 177.057L177.159 176.021L177.391 176.06C182.552 174.776 179.064 175.148 182.763 171.804C188.407 166.701 188.741 172.654 189.143 176.255ZM303.207 258.295C305.12 263.364 307.95 261.504 303.994 266.127L304.153 266.586C301.385 269.711 282.064 289.878 281.275 292.059C281.304 294.294 281.446 295.552 281.598 297.727C281.793 302.463 281.728 307.899 282.215 312.474L282.442 314.292C284.905 312.284 288.259 308.322 290.962 307.99C294.88 307.755 298.025 307.707 301.963 307.273L302.583 307.209C306.667 305.458 308.21 302.19 307.381 297.725C306.785 294.512 302.087 291.638 299.5 289.982C299.021 286.444 297.364 281.151 296.361 277.575C301.94 278.913 316.302 281.524 315.516 272.419L315.622 269.344C315.678 268.701 315.705 268.553 316.039 267.968C319.244 262.362 318.054 259.1 316.599 253.363C318.983 256.772 321.067 260.768 325.753 259.892C334.5 251.854 320.958 225.902 313.173 248.437C313.922 249.192 314.655 249.951 315.406 250.709C315.482 250.713 315.558 250.718 315.634 250.722C315.77 251.13 315.777 250.892 315.483 251.692C313.196 253.371 313.005 252.208 311.034 250.263C305.238 250.734 304.497 252.465 303.207 258.295ZM270.451 362.308C270.847 361.762 271.183 361.361 271.463 360.741C270.758 355.124 273.933 357.13 272.127 351.627C269.788 357.057 268.659 354.807 267.146 357.228C266.896 360.242 267.016 361.396 267.072 364.416C267.793 368.11 268.42 366.225 269.713 363.981C269.986 363.264 270.1 362.998 270.451 362.308ZM221.177 544.4C221.941 540.319 226.049 531.75 226.155 529.053C226.643 516.563 225.454 500.682 224.911 488.052L216.908 488.134C216.657 494.247 216.091 513.847 215.048 518.998C215.053 520.451 214.865 528.183 215.083 528.981C216.374 533.707 218.496 537.82 219.972 542.98C219.902 546.798 219.986 550.61 219.917 554.43C219.882 555.367 219.175 561.306 220.549 561.26C221.214 560.022 221.271 546.538 221.177 544.4ZM227.135 486.852C223.031 486.748 218.924 486.742 214.819 486.834C219.367 487.993 222.563 487.964 227.135 486.852ZM217.288 577.443C216.944 576.863 217.031 576.632 216.487 576.431C216.148 576.711 215.939 577.016 215.665 577.385C215.919 577.74 216.114 578.033 216.43 578.308C216.981 578.16 216.895 577.97 217.288 577.443ZM255.893 286.22C256.9 284.969 257.079 284.712 258.302 283.69C257.398 271.804 256.164 247.599 254.113 236.817L253.064 236.422C251.18 237.512 251.282 238.679 250.552 240.933C242.594 265.477 247.577 265.932 255.893 286.22ZM181.245 296.018C182.52 292.837 183.173 291.505 184.183 288.198C185.31 285.279 187.048 280.917 188.534 278.157C195.595 265.048 194.142 252.15 189.8 238.114L189.214 237.972L187.588 238.549C186.016 242.498 182.794 280.702 182.171 287.426C181.797 288.79 181.439 294.144 181.245 296.018ZM169.939 354.731C169.393 356.402 169.323 357.379 169.093 359.117C169.564 359.866 170.054 361.069 170.798 361.541C171.191 361.789 171.669 361.864 172.119 361.748C173.726 361.321 173.838 357.965 173.409 356.775C173.231 356.281 170.554 355.078 169.939 354.731ZM242.112 581.529C241.251 582.184 240.781 583.179 242.34 582.883C242.443 582.801 243.498 582.061 243.454 581.678C243.431 581.607 243.408 581.537 243.386 581.466C243.085 581.203 242.318 581.487 242.112 581.529Z" fill="#14100F"/>
<path d="M313.172 248.437C320.957 225.902 334.499 251.854 325.752 259.892C321.066 260.768 318.982 256.772 316.598 253.363C318.053 259.1 319.243 262.362 316.038 267.968C315.704 268.553 315.677 268.701 315.621 269.344L315.515 272.419C316.301 281.524 301.939 278.913 296.36 277.575C297.363 281.151 299.02 286.444 299.499 289.982C302.086 291.638 306.784 294.512 307.38 297.725C308.209 302.19 306.666 305.458 302.582 307.209L301.962 307.273C298.024 307.707 294.879 307.755 290.961 307.99C288.258 308.322 284.904 312.284 282.441 314.292L282.214 312.474C281.727 307.899 281.792 302.463 281.597 297.727C281.445 295.552 281.303 294.294 281.274 292.059C282.063 289.878 301.384 269.711 304.152 266.586L303.993 266.127C307.949 261.504 305.119 263.364 303.206 258.295C304.496 252.465 305.237 250.734 311.033 250.263C313.004 252.208 313.195 253.371 315.482 251.692C315.776 250.892 315.769 251.13 315.633 250.722C315.557 250.718 315.481 250.713 315.405 250.709C314.654 249.951 313.921 249.192 313.172 248.437ZM284.773 302.071C284.477 302.888 284.149 303.493 284.326 304.351C284.759 304.817 285.276 304.154 285.626 303.861C285.998 302.302 286.454 301.594 284.773 302.071ZM309.492 268.9C310.028 268.398 310.089 267.569 309.631 266.994C309.174 266.42 308.352 266.292 307.743 266.702C307.302 266.997 307.064 267.516 307.129 268.043C307.193 268.57 307.548 269.016 308.047 269.197C308.546 269.378 309.105 269.264 309.492 268.9Z" fill="#8D9087"/>
<path d="M299.5 289.982C302.087 291.638 306.785 294.512 307.381 297.725C308.21 302.19 306.667 305.458 302.583 307.209L301.963 307.273C298.025 307.707 294.88 307.755 290.962 307.99C288.259 308.322 284.905 312.284 282.442 314.292L282.215 312.474C281.728 307.899 281.793 302.463 281.598 297.727C284.431 298.078 284.673 297.907 287.399 298.954C291.786 298.7 291.582 299.424 293.271 295.38C295.062 293.726 297.578 291.658 299.5 289.982ZM285.627 303.861C285.999 302.302 286.455 301.594 284.774 302.071C284.478 302.888 284.15 303.493 284.327 304.351C284.76 304.817 285.277 304.154 285.627 303.861Z" fill="#DAC3B9"/>
<path d="M281.598 297.727C284.431 298.078 284.673 297.907 287.399 298.954C291.339 306.926 288.33 305.822 282.215 312.474C281.728 307.899 281.793 302.463 281.598 297.727ZM285.627 303.861C285.999 302.302 286.455 301.594 284.774 302.071C284.478 302.888 284.15 303.493 284.327 304.351C284.76 304.817 285.277 304.154 285.627 303.861Z" fill="#FDFDFD"/>
<path d="M284.773 302.071C286.454 301.594 285.998 302.302 285.626 303.861C285.276 304.154 284.759 304.817 284.326 304.351C284.149 303.493 284.477 302.888 284.773 302.071Z" fill="#FDFDFD" fill-opacity="0.478431"/>
<path d="M303.207 258.295C304.497 252.465 305.238 250.734 311.034 250.263C313.005 252.208 313.196 253.371 315.483 251.692C315.379 252.836 314.643 254.977 315.732 255.499C316.219 255.422 315.992 255.484 316.415 255.324L316.817 255.518C316.835 257.295 306.186 265.251 304.153 266.586L303.994 266.127C307.95 261.504 305.12 263.364 303.207 258.295Z" fill="url(#paint0_linear_117_11133)"/>
<path d="M281.274 292.059C285.284 292.268 283.7 298.375 293.27 295.38C291.581 299.424 291.785 298.7 287.398 298.954C284.672 297.907 284.43 298.078 281.597 297.727C281.445 295.552 281.303 294.294 281.274 292.059Z" fill="#DCB9A6"/>
<path d="M315.516 272.419C306.915 269.981 310.374 267.279 315.622 269.344L315.516 272.419Z" fill="#FDFDFD"/>
<path d="M307.744 266.702C308.353 266.292 309.175 266.42 309.632 266.994C310.09 267.569 310.029 268.398 309.493 268.9C309.106 269.264 308.547 269.378 308.048 269.197C307.549 269.016 307.194 268.57 307.13 268.043C307.065 267.516 307.303 266.997 307.744 266.702Z" fill="#FDFDFD" fill-opacity="0.219608"/>
<path d="M320.612 251.053C321.81 252.281 321.41 252.954 319.964 253.569C319.512 253.626 318.982 253.912 318.586 253.639C318.607 253.179 320.221 251.539 320.612 251.053Z" fill="#484A46"/>
<path d="M146.434 301.752C146.79 300.965 147.548 299.443 147.636 298.648C147.883 296.421 140.267 292.258 141.782 289.572C145.156 283.59 155.863 292.204 159.901 293.865C159.15 294.424 154.285 298.164 154.208 298.765L154.117 298.827C154.431 299.174 159.458 298.99 160.415 298.991C160.037 303.317 160.051 313.096 159.363 316.178C153.023 314.582 153.931 306.354 150.539 303.663L149.842 302.342C150.01 302.241 150.178 302.14 150.345 302.04C150.29 301.977 150.236 301.914 150.181 301.851L150.006 301.886L149.863 302.033C149.778 301.237 149.872 298.987 148.94 298.817L148.741 298.907L148.846 298.815L148.803 298.81C147.215 301.152 150.063 300.174 146.945 303.209C146.756 302.704 146.578 302.273 146.434 301.752Z" fill="#8D9087"/>
<path d="M286.184 264.903C286.064 261.494 285.837 257.808 289.629 256.058C295.169 253.503 298.287 258.607 301.469 259.961C302.152 259.59 302.671 258.849 303.207 258.295C305.12 263.364 307.95 261.504 303.994 266.127C301.603 267.369 295.397 274.008 294.167 275.992C288.626 271.72 289.272 270.506 286.184 264.903Z" fill="#8D9087"/>
<path d="M182.404 483.369C184.801 483.593 187.807 484.639 190.164 485.265C188.029 490.208 186.995 493.072 185.912 498.444C185.162 502.161 187.168 507.794 185.167 509.582C184.377 509.129 178.886 506.396 178.926 506.449L178.955 506.391C179.586 506.091 180.454 506.725 180.906 506.097C180.946 505.012 176.484 501.684 175.579 496.175C174.519 489.719 178.197 489.012 182.16 483.702L182.404 483.369Z" fill="#8D9087"/>
<path d="M165.13 443.998C166.12 443.832 166.405 444.175 167.282 444.616C166.643 449.964 166.517 455.884 165.85 461.24C155.582 462.437 147.662 455.994 155.488 447.964C156.584 447.218 157.67 446.457 158.745 445.68C160.937 445.129 162.96 444.642 165.13 443.998Z" fill="#8D9087"/>
<path d="M286.184 264.903C289.272 270.506 288.626 271.72 294.167 275.992C293.322 276.97 292.471 277.943 291.614 278.91C287.738 282.599 285.002 286.418 281.328 290.243C280.95 284.225 280.464 278.214 279.871 272.212L280.242 270.555C286.251 270.661 285.224 269.962 286.184 264.903Z" fill="#8D9087"/>
<path d="M286.184 264.903C289.272 270.506 288.626 271.72 294.167 275.992C293.322 276.97 292.471 277.943 291.614 278.91C288.533 272.646 287.228 272.456 279.871 272.212L280.242 270.555C286.251 270.661 285.224 269.962 286.184 264.903Z" fill="#FDFDFD"/>
<path d="M269.459 421.123C269.684 422.729 269.818 428.333 270.674 429.04C271.73 429.912 275.264 430.177 276.853 428.713L276.647 429.36C276.574 429.636 276.502 429.912 276.429 430.188C279.377 433.295 279.091 432.655 281.499 436.521C279.494 439.553 273.304 449.023 271.092 451.333C270.138 446.678 269.222 426.082 269.459 421.123Z" fill="#8D9087"/>
<path d="M186.752 506.851C186.266 502.417 186.749 494.587 188.985 490.379C189.568 489.537 191.16 490.394 191.794 490.139C194.228 489.163 191.351 486.318 191.362 485.725C194.351 482.018 195.435 500.018 195.495 500.95C192.586 505.167 192.139 505.14 187.239 506.866L186.752 506.851Z" fill="#8D9087"/>
<path d="M271.182 459.549C274.588 460.487 273.986 461.104 276.098 464.125C276.462 468.421 275.883 470.626 276.495 474.854C275.451 477.683 273.961 480.918 271.14 482.329C268.123 479.764 268.792 480.034 264.889 479.658C267.188 478.171 269.304 477.028 271.789 475.389C271.658 469.962 271.078 465.023 271.182 459.549Z" fill="#DCB9A6"/>
<path d="M177.158 176.021L177.39 176.06L178.794 178.434C171.527 182.752 170.633 184.769 167.171 192.206C165.82 190.296 165.326 192.138 164.831 191.505C161.632 187.42 166.147 181.477 167.594 178.085L168.193 178.18C170.129 178.683 170.514 178.848 172.524 178.453L174.314 177.467C175.606 177.966 175.565 178.079 176.607 177.057L177.158 176.021Z" fill="#9B9C93"/>
<path d="M177.391 176.06C182.552 174.776 179.064 175.148 182.763 171.804C188.407 166.701 188.741 172.654 189.143 176.255C186.184 177.188 182.046 177.562 178.795 178.434L177.391 176.06Z" fill="#9B9C93"/>
<path d="M282.584 318.941C283.238 321.776 282.29 324.296 284.945 323.707L286.519 323.687L288.333 325.21C287.359 329.713 285.977 329.945 281.764 331.112C283.099 327.345 282.544 323.096 282.584 318.941Z" fill="#DAC3B9"/>
<path d="M270.665 178.971C274.635 179.785 272.541 181.909 271.857 186.154C269.192 183.815 267.868 181.949 264.875 179.901L265.723 179.626C268.311 180.105 268.122 179.87 270.665 178.971Z" fill="#FDFDFD"/>
<path d="M194.826 176.862C206.305 190.164 233.692 188.134 246.666 177.069C261.994 179.883 272.33 180.349 274.184 199.769C276.055 219.373 276.32 239.222 277.756 258.871C278.538 280.689 281.497 306.397 281.113 327.81L265.109 328.552C261.823 304.957 260.199 280.436 257.858 256.727C257.044 248.481 255.891 229.85 254.245 222.193C252.163 229.447 243.77 255.988 244.887 261.81C248.029 278.187 260.861 296.915 262.071 314.629C265.68 367.461 268.419 421.814 270.1 474.648C259.356 481.523 239.886 486.401 227.134 486.852C223.03 486.748 218.923 486.742 214.818 486.834C198.8 486.2 180.297 483.03 166.283 474.798C169.625 436.595 172.324 398.477 175.109 360.291C177.778 334.946 176.367 309.271 187.046 285.52C189.639 279.753 195.88 267.088 195.543 261.232C194.898 250.043 190.861 231.449 187.35 220.763C184.678 255.809 179.187 293.518 175.897 328.77C170.562 328.27 165.973 328.088 160.613 327.937C161.422 290.875 164.416 252.989 166.148 215.938C166.817 201.637 166.474 181.813 184.099 178.532C187.64 177.873 191.254 177.37 194.826 176.862Z" fill="#E1D3CC"/>
<path d="M214.544 93.7876C217.548 93.5536 221.486 93.3396 224.446 93.8696C229.382 94.7086 233.771 97.5026 236.621 101.62C240.366 107.125 239.766 111.874 240.761 117.98C242.767 130.304 234.568 147.595 224.325 154.401C210.533 158.274 203.838 141.848 199.698 131.491C197.166 125.16 198.337 110.374 201.365 103.983C204.034 98.3486 208.794 95.6256 214.544 93.7876Z" fill="#C09884"/>
<path d="M194.246 486.095C201.906 487.58 207.713 488.04 215.44 488.2C214.748 499.725 214.122 511.255 213.565 522.787C213.901 521.303 214.148 520.317 215.048 518.998C215.053 520.451 214.865 528.183 215.083 528.981C216.374 533.707 218.496 537.82 219.972 542.98C219.902 546.798 219.986 550.61 219.917 554.43C219.607 555.298 219.445 556.23 218.858 556.96C217.12 557.632 217.26 557.846 216.531 555.647C215.943 561.242 216.794 569.015 214.339 573.775C212.173 577.975 200.246 577.701 196.953 575.13C196.797 572.388 198.637 564.418 199.261 561.509C201.436 551.366 202.976 543.963 202.302 533.561C201.783 532.883 201.864 532.778 202.056 531.936C201.816 527.373 199.991 518.115 199.21 513.328C197.744 504.344 196.569 494.823 194.246 486.095Z" fill="#BF8D81"/>
<path d="M213.565 522.787C213.901 521.303 214.148 520.317 215.048 518.998C215.053 520.451 214.865 528.183 215.083 528.981C216.374 533.707 218.496 537.82 219.972 542.98C219.902 546.798 219.986 550.61 219.917 554.43C219.607 555.298 219.445 556.23 218.858 556.96C217.12 557.632 217.26 557.846 216.531 555.647C216.656 553.056 217.488 540.004 216.858 538.365C214.098 531.189 213.25 531.238 213.565 522.787Z" fill="#14100F"/>
<path d="M202.056 531.936C202.425 532.659 202.339 532.647 202.302 533.561C201.783 532.883 201.864 532.778 202.056 531.936Z" fill="#512C24"/>
<path d="M245.096 485.725L245.795 485.733L246.343 486.456C244.037 505.265 239.234 523.013 238.554 541.894C238.315 548.525 243.263 572.97 242.139 575.098C238.719 577.292 234.733 576.776 230.712 576.667C228.636 576.344 227.927 576.122 225.938 575.426C225.654 575.091 225.294 574.666 224.857 574.149C224.119 563.457 224.421 550.512 224.707 539.926C225.276 535.748 228.121 531.085 227.997 526.838C227.622 513.973 226.921 501.091 226.558 488.216C232.356 488.152 239.402 486.787 245.096 485.725Z" fill="#C09884"/>
<path d="M196.17 176.6C203.885 173.646 210.547 170.265 211.202 160.899C211.379 158.375 211.021 156.786 212.414 154.802C213.639 155.367 214.88 155.897 216.137 156.389C220.085 157.897 223.734 156.212 227.342 154.64C227.418 155.627 227.504 156.614 227.602 157.599C228.372 165.251 230.25 168.079 236.113 172.848C236.628 173.041 236.529 172.995 236.922 173.408C239.829 175.063 241.557 175.666 244.713 176.828C230.488 187.543 210.515 186.541 196.17 176.6Z" fill="#C09884"/>
<path d="M162.421 330.088C165.529 330.078 168.475 329.984 171.573 329.884C174.098 337.237 175.648 341.283 174.259 349.006C174.191 349.386 174.317 355.903 172.748 354.913C169.77 353.725 171.326 344.312 169.592 343.404C163.927 340.434 165.718 354.891 166.003 356.505C166.735 358.333 171.697 367.251 171.562 367.666C169.552 373.87 163.937 363.328 163.356 361.294C160.27 350.482 157.366 340.872 162.421 330.088Z" fill="#BF8D81"/>
<path d="M272.601 330.257C279.397 330.172 277.067 328.943 279.324 333.685C282.694 340.765 281.076 345.972 279.958 353.261C278.991 359.57 277.248 365.449 271.939 369.444C271.438 369.836 269.963 369.868 269.925 369.018C269.795 366.077 272.624 362.427 274.021 359.808C275.559 355.109 275.873 352.22 275.121 347.377C274.945 341.606 270.13 340.679 270.944 346.161C271.729 351.446 266.814 357.896 266.366 353.374C265.636 346.015 266.014 337.434 269.687 331.103C270.133 330.334 271.815 330.314 272.601 330.257Z" fill="#C09884"/>
<path d="M192.973 577.862C193.752 577.453 194.527 577.039 195.3 576.62C200.884 579.42 209.339 579.032 214.99 576.643L215.665 577.385C215.919 577.74 216.114 578.033 216.43 578.308C216.981 578.16 216.895 577.97 217.288 577.443L218.2 577.587C218.744 584.898 217.765 584.986 211.585 588.922C207.693 591.4 204.147 592.956 199.995 594.843C194.65 588.438 193.537 585.814 192.973 577.862Z" fill="#E1D3CC"/>
<path d="M238.404 594.88C228.715 590.78 220.553 585.353 222.695 573.627L222.567 573.694C223.633 574.492 223.213 573.894 223.623 574.917C224.919 578.144 230.432 578.205 233.389 578.429C235.856 578.616 239.794 578.287 242.129 577.385C243.523 576.846 244.096 575.629 244.836 574.441C245.401 573.964 245.32 573.957 246.013 573.882C247.331 583.687 244.855 587.664 238.404 594.88ZM242.34 582.883C242.443 582.801 243.498 582.061 243.454 581.678C243.431 581.607 243.408 581.537 243.386 581.466C243.085 581.203 242.318 581.487 242.112 581.529C241.251 582.184 240.781 583.179 242.34 582.883Z" fill="#E1D3CC"/>
<path d="M242.112 581.529C242.318 581.487 243.085 581.203 243.386 581.466C243.408 581.537 243.431 581.607 243.454 581.678C243.498 582.061 242.443 582.801 242.34 582.883C240.781 583.179 241.251 582.184 242.112 581.529Z" fill="#E1D3CC" fill-opacity="0.890196"/>
<path d="M169.093 359.117C167.817 356.432 167.103 353.513 166.995 350.542C166.967 349.528 167.166 346.631 167.936 345.865C168.032 345.853 168.128 345.841 168.224 345.83C168.745 346.276 169.774 353.511 169.939 354.731C169.393 356.402 169.323 357.379 169.093 359.117Z" fill="#E1D3CC"/>
<path d="M258.302 283.69C258.856 285.706 259.349 291.559 259.544 293.847L258.191 294.269C257.481 291.68 256.385 288.729 255.893 286.22C256.9 284.969 257.079 284.712 258.302 283.69Z" fill="#F8F5F3"/>
<path d="M219.972 542.979C220.369 543.456 220.771 543.93 221.177 544.399C221.271 546.537 221.214 560.022 220.549 561.26C219.175 561.306 219.882 555.367 219.917 554.43C219.986 550.61 219.902 546.797 219.972 542.979Z" fill="#9B9C93" fill-opacity="0.380392"/>
<path d="M272.126 351.627C272.017 350.757 272.089 347.448 272.839 347.108C275.377 348.329 273.006 358.183 271.462 360.741C270.757 355.124 273.932 357.13 272.126 351.627Z" fill="#E1D3CC"/>
<path d="M272.127 351.627C273.933 357.13 270.758 355.124 271.463 360.741C271.183 361.361 270.847 361.762 270.451 362.308C270.39 361.375 270.523 357.366 270.481 356.609C270.47 356.412 269.333 356.595 269.023 356.763C268.557 357.015 267.834 357.109 267.146 357.228C268.659 354.807 269.788 357.057 272.127 351.627Z" fill="#FDFDFD" fill-opacity="0.215686"/>
<path d="M214.99 576.643C217.003 573.965 217.232 570.4 217.937 566.951C218.077 570.536 218.246 573.996 218.2 577.587L217.288 577.443C216.944 576.863 217.031 576.632 216.487 576.431C216.148 576.711 215.939 577.016 215.665 577.385L214.99 576.643Z" fill="#DAC3B9"/>
<path d="M182.171 287.426L184.183 288.198C183.173 291.505 182.52 292.837 181.245 296.018C181.439 294.144 181.797 288.79 182.171 287.426Z" fill="#E1D3CC" fill-opacity="0.984314"/>
<path d="M265.398 329.673C269.326 331.194 267.773 331.524 266.256 335.662C266.147 335.735 266.039 335.809 265.93 335.882C265.126 335.362 265.324 330.592 265.398 329.673Z" fill="#DAC3B9"/>
<path d="M244.836 574.441C244.259 572.09 243.252 566.868 243.385 564.601C243.43 565.366 245.629 572.032 246.013 573.882C245.32 573.957 245.401 573.964 244.836 574.441Z" fill="#8D776C"/>
<path d="M192.973 577.862C193.298 575.793 193.79 573.723 194.099 571.686L194.829 571.632L194.217 570.991L194.856 570.979C194.949 570.498 195.104 570.058 195.155 569.568C195.594 571.298 194.488 572.826 195.3 576.62C194.527 577.039 193.752 577.453 192.973 577.862Z" fill="#DAC3B9"/>
<path d="M189.214 237.972C185.437 236.775 188.03 232.268 187.928 232.315C188.749 232.379 189.606 237.257 189.8 238.114L189.214 237.972Z" fill="#E1D3CC"/>
<path d="M214.818 486.834C218.923 486.742 223.03 486.748 227.134 486.852C222.562 487.964 219.366 487.993 214.818 486.834Z" fill="#484A46" fill-opacity="0.984314"/>
<path d="M173.567 329.512C176.59 330.733 175.531 331.837 175.332 335.083C173.502 333.571 173.726 331.71 173.567 329.512Z" fill="#E1D3CC"/>
<path d="M259.543 293.847C260.025 295.078 260.098 296.535 259.888 297.827L259.585 298.015L259.641 298.084C258.713 297.194 258.535 295.47 258.19 294.269L259.543 293.847Z" fill="#9B9C93"/>
<path d="M267.072 364.416L269.713 363.981C268.42 366.225 267.793 368.11 267.072 364.416Z" fill="#FDFDFD" fill-opacity="0.0431373"/>
<path d="M215.665 577.385C215.939 577.016 216.148 576.711 216.487 576.431C217.031 576.632 216.944 576.863 217.288 577.443C216.895 577.97 216.981 578.16 216.43 578.308C216.114 578.033 215.919 577.74 215.665 577.385Z" fill="#DAC3B9" fill-opacity="0.835294"/>
<path d="M307.629 398.909C304.701 390.038 311.688 384.893 319.641 388.367C323.371 389.997 327.792 397.928 324.587 401.389C320.941 405.325 325.843 410.345 320.587 411.116C318.29 411.322 316.889 411.503 315.09 410.277C313.381 407.69 312.841 405.961 310.375 408.137C311.119 409.652 311.587 410.565 312.484 412.024C312.906 415.379 312.735 419.19 310.227 421.638C305.374 426.373 304.308 417.837 298.918 421.977C298.692 422.208 298.466 422.439 298.24 422.67C298.753 423.342 298.857 422.897 299.535 423.15C318.779 430.349 311.527 434.692 296.229 435.673C294.856 435.584 293.515 435.575 292.144 435.48C286.192 434.002 288.472 433.155 284.408 437.424C285.837 439.483 287.231 440.458 288.836 442.463C289.873 444.413 290.952 446.003 291.645 448.092C291.475 449.205 291.504 449.4 291.027 450.405L289.253 453.917C287.268 456.118 286.918 456.308 284.566 457.938L283.927 458.163C277.012 459.516 272.168 454.233 271.464 454.534C271.133 455.057 271.019 456.892 270.896 457.542L270.787 458.096C270.726 454.897 270.157 454.924 271.971 452.396L271.091 451.333C273.303 449.023 279.493 439.553 281.498 436.521C282.371 435.356 283.275 434.214 284.208 433.096C282.644 431.773 278.937 428.012 276.852 428.713C276.085 423.635 271.09 418.227 273.078 412.728C274.799 407.964 281.501 407.483 285.581 409.172C291.293 411.536 292.004 415.284 294.151 420.422C294.468 419.441 296.163 414.088 296.116 414.016C292.162 407.957 295.147 398.508 304.706 401.2C307.378 403.517 307.182 404.145 309.148 401.881C308.649 400.876 308.171 399.893 307.629 398.909ZM294.399 429.64C294.751 429.367 295.607 428.906 295.394 428.366C294.589 428.522 294.873 428.466 294.076 429.03C293.603 429.633 292.631 430.79 294.399 429.64Z" fill="#8D9087"/>
<path d="M307.63 398.909C304.702 390.038 311.689 384.893 319.642 388.367C323.372 389.997 327.793 397.928 324.588 401.389C320.942 405.325 325.844 410.345 320.588 411.116C318.291 411.322 316.89 411.503 315.091 410.277C313.382 407.69 312.842 405.961 310.376 408.137C309.963 408.035 309.656 407.98 309.259 407.807C310.522 406.486 316.496 402.009 316.049 400.777C314.151 400.122 311.966 404.231 310.713 405.369L309.604 406.357C309.133 404.444 308.873 403.859 309.149 401.881C308.65 400.876 308.172 399.893 307.63 398.909Z" fill="#9B9C93"/>
<path d="M271.971 452.396C275.3 447.773 278.768 441.702 282.346 437.209C283.398 437.158 283.395 437.176 284.408 437.424C285.837 439.483 287.231 440.458 288.836 442.463C289.873 444.413 290.952 446.003 291.645 448.092C291.475 449.205 291.504 449.4 291.027 450.405L289.253 453.917C287.268 456.118 286.918 456.308 284.566 457.938L283.927 458.163C277.012 459.516 272.168 454.233 271.464 454.534C271.133 455.057 271.019 456.892 270.896 457.542L270.787 458.096C270.726 454.897 270.157 454.924 271.971 452.396Z" fill="#8D9087"/>
<path d="M299.238 417.823C299.348 419.719 299.258 420.042 298.919 421.977C298.693 422.208 298.467 422.439 298.241 422.67C298.754 423.342 298.858 422.897 299.536 423.15C318.78 430.349 311.528 434.692 296.23 435.673C294.857 435.584 293.516 435.575 292.145 435.48C286.193 434.002 288.473 433.155 284.409 437.424C283.396 437.176 283.399 437.158 282.347 437.209C283.817 434.778 296.821 419.975 299.238 417.823ZM294.4 429.64C294.752 429.367 295.608 428.906 295.395 428.366C294.59 428.522 294.874 428.466 294.077 429.03C293.604 429.633 292.632 430.79 294.4 429.64Z" fill="#9B9C93"/>
<path d="M294.076 429.03C294.873 428.466 294.589 428.522 295.394 428.366C295.607 428.906 294.751 429.367 294.399 429.64C292.631 430.79 293.603 429.633 294.076 429.03Z" fill="#9B9C93" fill-opacity="0.72549"/>
<path d="M299.238 417.823C300.213 416.085 303.101 413.347 305.266 413.32C306.399 413.306 306.483 414.423 307.205 414.548C308.653 413.656 307.513 412.816 307.251 412.072C306.603 410.224 308.394 409.15 309.259 407.807C309.656 407.98 309.963 408.035 310.376 408.137C311.12 409.652 311.588 410.565 312.485 412.024C312.907 415.379 312.736 419.19 310.228 421.638C305.375 426.373 304.309 417.837 298.919 421.977C299.258 420.042 299.348 419.719 299.238 417.823Z" fill="#8D9087"/>
<path d="M309.604 406.357L310.713 405.369C311.966 404.231 314.151 400.122 316.049 400.777C316.496 402.009 310.522 406.486 309.259 407.807C308.394 409.15 306.603 410.224 307.251 412.072C307.513 412.816 308.653 413.656 307.205 414.548C306.483 414.423 306.399 413.306 305.266 413.32C303.101 413.347 300.213 416.085 299.238 417.823C296.821 419.975 283.817 434.778 282.347 437.209C278.769 441.702 275.301 447.773 271.972 452.396L271.092 451.333C273.304 449.023 279.494 439.553 281.499 436.521C282.372 435.356 283.276 434.214 284.209 433.096C286.601 429.188 305.737 409.052 309.604 406.357Z" fill="#484A46"/>
<path d="M299.994 139.486C300.382 138.979 303.134 135.133 303.846 135.756C304.137 136.554 301.15 139.725 300.609 140.389C301.983 141.406 301.805 141.611 303.317 140.927C303.487 142.571 310.454 148.321 303.454 151.508C300.369 152.913 298.242 148.175 296.841 147.947C296.151 148.207 295.898 148.93 295.523 149.521C300.273 160.184 298.081 156.569 295.141 167.107C296.884 168.094 299.744 168.642 298.674 171.402C297.225 175.14 284.357 175.219 284.536 179.141C284.568 179.217 284.207 180.183 284.154 180.332C284.176 180.542 284.482 183.389 284.482 183.389C287.575 187.541 295.171 192.994 290.604 198.748C286.378 204.073 281.863 203.891 276.104 201.618C275.323 194.508 275.236 192.594 271.857 186.154C272.541 181.909 274.635 179.785 270.665 178.971C268.693 177.957 268.031 177.568 266.216 176.326C265.129 174.234 263.604 172.003 262.329 169.561C261.72 163.912 261.555 162.9 265.955 159.079L266.122 158.628C269.073 157.767 270.143 157.851 273.171 158.21C278.889 158.161 276.273 160.508 283.309 160.037C277.103 153.109 278.35 144.83 288.338 145.367C290.337 146.233 291.489 146.843 293.346 148.006L294.938 145.952C294.005 145.325 293.546 144.998 292.553 144.493C291.767 143.747 291.041 143.065 290.291 142.277C289.882 141.199 289.489 140.117 289.11 139.028C291.894 137.083 292.771 136.378 296.146 137.509C296.196 138.002 296.498 138.433 296.945 138.647C297.391 138.862 297.917 138.828 298.333 138.559L299.994 139.486ZM294.243 166.199C293.546 165.182 286.693 162.957 284.64 161.934C283.129 164.017 282.565 165.161 281.261 167.254C282.568 167.241 293.638 166.446 294.243 166.199ZM274.353 180.59L275.001 181.211C273.901 181.315 273.047 182.217 273.004 183.322C272.961 184.426 273.742 185.392 274.831 185.581C275.92 185.77 276.981 185.124 277.314 184.07C277.646 183.016 277.147 181.879 276.146 181.41C277.34 181.93 278.909 182.631 278.417 184.123C283.142 185.518 283.623 183.898 283.796 180.392C283.299 173.827 281.618 181.301 275.188 179.168L274.353 180.59Z" fill="#484A46"/>
<path d="M284.64 161.934C286.693 162.957 293.546 165.182 294.243 166.199C293.638 166.446 282.568 167.241 281.261 167.254C282.565 165.161 283.129 164.017 284.64 161.934Z" fill="#FDFDFD" fill-opacity="0.976471"/>
<path d="M275.188 179.168C281.618 181.301 283.299 173.827 283.796 180.392C283.623 183.898 283.142 185.518 278.417 184.123C278.909 182.631 277.34 181.93 276.146 181.41C275.789 181.243 275.394 181.174 275.001 181.211L274.353 180.59L275.188 179.168Z" fill="#FDFDFD" fill-opacity="0.843137"/>
<path d="M275.001 181.211C275.394 181.174 275.789 181.243 276.146 181.41C277.147 181.879 277.646 183.016 277.314 184.07C276.981 185.124 275.92 185.77 274.831 185.581C273.742 185.392 272.961 184.426 273.004 183.322C273.047 182.217 273.901 181.315 275.001 181.211Z" fill="#FDFDFD" fill-opacity="0.364706"/>
<path d="M266.122 158.628C269.073 157.767 270.143 157.851 273.171 158.21C278.889 158.161 276.273 160.508 283.309 160.037L283.916 160.808L280.917 164.762C279.023 168.772 273.665 177.114 274.353 180.59L275.001 181.211C273.901 181.315 273.047 182.217 273.004 183.322C272.961 184.426 273.742 185.392 274.831 185.581C275.92 185.77 276.981 185.124 277.314 184.07C277.646 183.016 277.147 181.879 276.146 181.41C277.34 181.93 278.909 182.631 278.417 184.123C283.142 185.518 283.623 183.898 283.796 180.392L284.154 180.332C284.176 180.542 284.482 183.389 284.482 183.389C287.575 187.541 295.171 192.994 290.604 198.748C286.378 204.073 281.863 203.891 276.104 201.618C275.323 194.508 275.236 192.594 271.857 186.154C272.541 181.909 274.635 179.785 270.665 178.971C268.693 177.957 268.031 177.568 266.216 176.326C265.129 174.234 263.604 172.003 262.329 169.561C261.72 163.912 261.555 162.9 265.955 159.079L266.122 158.628Z" fill="#8D9087"/>
<path d="M273.171 158.21C278.889 158.161 276.273 160.508 283.309 160.037L283.916 160.808L280.917 164.762C277.408 161.938 277.338 161.113 273.171 158.21Z" fill="#FDFDFD"/>
<path d="M294.242 166.199L295.141 167.107C296.884 168.094 299.744 168.642 298.674 171.402C297.225 175.14 284.357 175.219 284.536 179.141C284.568 179.217 284.207 180.183 284.154 180.332L283.796 180.392C283.299 173.827 281.617 181.301 275.188 179.168C275.775 177.445 280.15 168.378 281.26 167.254C282.567 167.241 293.637 166.446 294.242 166.199Z" fill="#8D9087"/>
<path d="M284.64 161.934C286.312 159.028 291.823 151.744 294.024 149.19C294.724 149.811 294.71 150.044 295.523 149.521C300.273 160.184 298.081 156.569 295.141 167.107L294.243 166.199C293.546 165.182 286.693 162.957 284.64 161.934Z" fill="#8D9087"/>
<path d="M283.309 160.037C277.103 153.109 278.35 144.83 288.338 145.367C290.337 146.233 291.489 146.843 293.346 148.006C290.602 152.043 286.931 156.969 283.916 160.808L283.309 160.037Z" fill="#8D9087"/>
<path d="M294.023 149.19C295.074 147.231 299.094 142.204 300.608 140.389C301.982 141.406 301.804 141.611 303.316 140.927C303.486 142.571 310.453 148.321 303.453 151.508C300.368 152.913 298.241 148.175 296.84 147.947C296.15 148.207 295.897 148.93 295.522 149.521C294.709 150.044 294.723 149.811 294.023 149.19Z" fill="#8D9087"/>
<path d="M289.109 139.028C291.893 137.083 292.77 136.378 296.145 137.509C296.195 138.002 296.497 138.433 296.944 138.647C297.39 138.862 297.916 138.828 298.332 138.559L299.993 139.486C298.365 141.422 296.307 143.874 294.937 145.952C294.004 145.325 293.545 144.998 292.552 144.493C291.766 143.747 291.04 143.065 290.29 142.277C289.881 141.199 289.488 140.117 289.109 139.028Z" fill="#8D9087"/>
<path d="M145.492 226.389C133.426 234.933 118.729 226.684 123.415 217.754C123.383 217.458 122.323 217.017 122.114 216.914C120.346 216.04 118.615 214.669 117.446 213.074C116.257 211.452 115.808 209.732 116.141 207.734C117.388 200.25 125.227 203.468 126.894 202.019C127.144 201.802 127.117 200.884 127.099 200.588C126.971 198.759 127.271 196.925 127.975 195.232C129.643 191.169 134.044 191.193 137.666 192.687C141.811 193.768 139.654 202.081 142.693 200.618C154.785 194.8 152.483 213.342 154.204 215.871C166.83 215.759 159.398 230.191 156.974 236.738C153.578 232.673 150.501 229.955 147.174 225.508C146.878 225.241 146.846 225.094 146.549 225.098C146.236 225.341 145.765 226.062 145.492 226.389ZM153.07 219.218C150.371 218.626 149.758 220.986 148.992 223.393C149.572 224.263 152.35 229.086 152.625 229.171C153.77 228.58 153.146 220.787 153.07 219.218ZM135.288 209.876C127.661 210.744 137.491 219.605 137.163 214.851C136.465 213.159 135.934 211.575 135.288 209.876Z" fill="#DAC3B9"/>
<path d="M154.204 215.871C166.83 215.759 159.398 230.191 156.974 236.738C153.578 232.673 150.501 229.955 147.174 225.508C147.984 224.194 147.534 224.088 148.992 223.393C149.572 224.263 152.35 229.086 152.625 229.171C153.77 228.58 153.146 220.787 153.07 219.218C152.879 217.203 152.525 217.02 154.204 215.871Z" fill="#DAC3B9"/>
<path d="M137.163 214.851C137.491 219.605 127.661 210.744 135.288 209.876C135.934 211.575 136.465 213.159 137.163 214.851Z" fill="#F8F5F3" fill-opacity="0.945098"/>
<path d="M135.288 209.876L135.697 209.71C139.392 208.172 138.638 210.683 137.499 213.893L137.163 214.851C136.465 213.159 135.934 211.575 135.288 209.876Z" fill="#DCB9A6"/>
<path d="M297.235 447.837C301.694 448.408 302.51 450.163 301.507 454.577C303.469 455.207 308.902 454.647 307.118 460.043C306.407 462.191 304.537 464.286 304.321 466.792C303.699 469.748 301.558 469.814 299.844 471.293C298.639 469.114 294.344 467.786 291.486 466.02L291.085 465.768C289.833 465.851 289.653 466.049 288.445 466.542C290.564 475.844 297.201 466.829 296.285 475.529L296.581 475.424C296.047 479.429 295.962 479.392 292.666 481.667C291.789 482.632 291.046 483.461 290.222 484.476C286.794 489.397 284.893 487.978 279.351 488.145C276.376 487.003 275.491 486.327 272.252 485.734C271.197 486.582 268.137 490.32 267.16 491.551C264.825 495.844 269.184 491.955 263.504 498.516C263.313 499.881 261.853 500.586 260.702 500.777C257.231 501.354 258.482 499.269 255.54 503.709C253.751 505.824 251.088 507.696 248.853 509.408L247.134 508.662C249.485 507.19 251.169 505.702 252.907 503.569L252.711 502.498C254.148 502.034 254.952 502.233 255.085 500.676C256.911 499.117 257.401 498.694 258.886 496.733C262.676 491.925 266.263 486.17 271.14 482.329C273.961 480.918 275.451 477.683 276.495 474.854C279.792 474.275 279.586 471.531 280.753 468.933C283.537 462.735 284.614 468.921 286.703 461.226L287.979 460.234C290.211 458.654 289.281 456.621 289.254 453.917L291.028 450.405C291.505 449.4 291.476 449.205 291.646 448.092C292.127 449.171 292.443 449.693 293.06 450.698L293.198 449.98C294.955 449.213 295.613 448.837 297.235 447.837ZM288.336 473.515C285.679 470.483 284.877 471.933 283.462 474.918C285.091 474.467 286.716 473.999 288.336 473.515Z" fill="#E0C1B2"/>
<path d="M283.462 474.918C284.877 471.933 285.679 470.483 288.336 473.515C286.716 473.999 285.091 474.467 283.462 474.918Z" fill="#FDFDFD" fill-opacity="0.929412"/>
<path d="M297.235 447.837C301.694 448.408 302.51 450.163 301.507 454.577C303.469 455.207 308.902 454.647 307.118 460.043C306.407 462.191 304.537 464.286 304.321 466.792C303.699 469.748 301.558 469.814 299.844 471.293C298.639 469.114 294.344 467.786 291.486 466.02L291.085 465.768C293.031 465.309 298.148 462.659 299.436 461.497C299.072 460.169 297.061 459.712 296.175 458.694C295.183 457.555 296.76 455.543 295.237 454.751C294.215 455.292 294.374 456.575 293.5 456.489C292.608 455.242 292.704 452.196 293.06 450.698L293.198 449.98C294.955 449.213 295.613 448.837 297.235 447.837Z" fill="#DAC3B9"/>
<path d="M283.151 478.394L283.64 478.483C288.592 479.358 287.604 478.907 292.666 481.667C291.789 482.632 291.046 483.461 290.222 484.476C286.794 489.397 284.893 487.978 279.351 488.145C276.376 487.003 275.491 486.327 272.252 485.734C274.444 479.449 274.45 483.64 279.78 481.473C276.497 479.645 281.664 478.855 283.151 478.394Z" fill="#DAC3B9"/>
<path d="M283.151 478.394L283.64 478.483C288.592 479.358 287.604 478.907 292.666 481.667C291.789 482.632 291.046 483.461 290.222 484.476L289.627 483.993C285.813 480.844 284.66 481.075 279.78 481.473C276.497 479.645 281.664 478.855 283.151 478.394Z" fill="#FDFDFD"/>
<path d="M288.336 473.515C292.35 473.324 292.939 473.276 296.285 475.529L296.581 475.424C296.047 479.429 295.962 479.392 292.666 481.667C287.604 478.907 288.592 479.358 283.64 478.483L283.151 478.394C282.923 477.776 282.728 477.248 282.47 476.639C283.14 475.891 283.075 475.881 283.462 474.918C285.091 474.467 286.716 473.999 288.336 473.515Z" fill="#DAC3B9"/>
<path d="M288.445 466.542C290.564 475.844 297.201 466.829 296.285 475.529C292.939 473.276 292.35 473.324 288.336 473.515C285.679 470.483 284.877 471.933 283.462 474.918C283.075 475.881 283.14 475.891 282.47 476.639C275.039 477.317 287.341 470.033 288.445 466.542Z" fill="#FDFDFD"/>
<path d="M291.028 450.405C291.309 454.04 292.957 461.341 290.185 464.347L290.008 464.323C288.218 461.757 292.916 461.61 287.979 460.234C290.211 458.654 289.28 456.621 289.253 453.917L291.028 450.405Z" fill="#DCB9A6"/>
<path d="M271.411 123.438C269.551 121.045 266.189 119.906 266.767 116.448C267.279 113.392 270.654 113.537 272.525 111.056C274.642 108.249 277.557 108.652 278.748 112.125C279.674 114.827 281.464 112.96 283.697 113.723C285.156 114.232 285.847 115.313 285.594 116.793C285.063 119.894 286.885 121.905 287.793 124.639C286.695 125.41 285.887 126.087 284.853 126.943C282.721 126.901 280.588 126.927 278.458 127.022C277.234 127.846 276.14 128.289 274.767 128.806C273.948 135.56 273.911 133.392 279.495 135.112C281.392 136.867 280.527 139.217 280.231 141.638C279.57 141.969 279.033 142.261 278.391 142.637C277.987 144.578 277.688 146.688 276.419 148.22C276.975 152.872 274.358 153.762 270.36 153.873C268.609 151.898 267.906 151.721 265.608 150.429C261.341 146.865 266.833 147.12 258.432 146.093C257.877 145.896 257.319 145.706 256.76 145.522C249.078 139.68 253.694 140.941 251.682 136.354C253.296 135.977 254.378 135.773 255.948 135.19C256.378 134.546 256.772 133.941 257.234 133.319C257.903 131.631 261.258 123.29 263.993 129.541C264.253 130.135 264.205 131.569 264.17 132.253C264.497 134.216 264.77 135.464 265.265 137.383L265.061 138.571C265.171 139.239 265.267 139.909 265.347 140.581C265.408 141.125 265.364 142.193 265.906 142.534C266.921 141.566 266.613 138.562 266.396 137.298C266.554 135.582 270.476 125.288 271.411 123.438Z" fill="#E0C1B2"/>
<path d="M271.411 123.438C269.551 121.045 266.189 119.906 266.767 116.448C267.279 113.392 270.654 113.537 272.525 111.056C274.642 108.249 277.557 108.652 278.748 112.125C279.674 114.827 281.464 112.96 283.697 113.723C285.156 114.232 285.847 115.313 285.594 116.793C285.063 119.894 286.885 121.905 287.793 124.639C286.695 125.41 285.887 126.087 284.853 126.943C282.721 126.901 280.588 126.927 278.458 127.022C277.234 127.846 276.14 128.289 274.767 128.806C275.434 128.155 277.3 126.817 277.579 126.428C277.236 125.645 276.778 126.192 276.384 125.828C277.728 124.332 278.448 124.86 279.079 121.756C279.352 120.416 277.537 118.621 276.804 118.665C275.867 118.72 275.2 121.055 273.813 118.878C273.618 118.573 273.026 117.323 272.588 117.681C272.211 119.111 274.159 123.962 272.483 124.525C271.902 124.407 271.715 123.917 271.411 123.438Z" fill="#DAC3B9"/>
<path d="M257.233 133.319C257.902 131.631 261.257 123.29 263.992 129.541C264.252 130.135 264.204 131.569 264.169 132.253C262.832 133.207 262.544 133.461 261.408 134.645C259.131 134.27 259.321 134.293 257.233 133.319Z" fill="#E0C1B2"/>
<path d="M257.233 133.319C259.321 134.293 259.131 134.27 261.408 134.645C261.533 135.493 261.605 145.961 259.267 140.198C258.046 137.19 261.031 136.607 255.947 135.19C256.377 134.546 256.771 133.941 257.233 133.319Z" fill="#F8F5F3"/>
<path d="M270.457 145.368C272.417 144.256 275.918 143.492 278.391 142.637C277.987 144.578 277.688 146.688 276.419 148.22C273.73 146.299 273.574 146.348 270.457 145.368Z" fill="#FDFDFD"/>
<path d="M131.621 308.165C130.722 306.221 127.979 302.099 127.982 300.866C127.994 294.317 141.089 301.296 143.372 302.507C143.517 302.584 145.318 301.697 146.434 301.752C146.578 302.273 146.756 302.704 146.945 303.209C150.063 300.174 147.215 301.152 148.803 298.81L148.846 298.815L148.741 298.907L148.94 298.817C149.872 298.987 149.778 301.237 149.863 302.033L150.006 301.886L150.181 301.851C150.236 301.914 150.29 301.977 150.345 302.04C150.178 302.14 150.01 302.241 149.842 302.342L150.539 303.663C142.445 308.92 151.184 313.306 143.304 319.836C140.222 322.39 138.06 320.446 136.538 317.402C136.515 316.539 136.484 312.917 135.881 312.701C132.103 311.351 133.367 314.716 133.381 315.287C133.434 317.52 133.094 318.629 133.101 320.454C132.746 322.234 130.801 327.72 127.697 325.71C125.996 324.713 127.048 319.232 126.736 318.618C124.474 314.16 125.162 323.594 121.216 325.498C111.778 330.053 108.512 316.092 116.554 313.931C119.54 313.129 119.981 315.89 124.125 313.777C123.005 312.575 122.135 311.674 120.536 311.046C118.431 310.219 118.438 306.919 120.842 306.707C124.493 306.385 127.41 309.077 130.115 311.172C131.026 309.793 131.123 309.709 131.621 308.165Z" fill="#9B9C93"/>
<path d="M131.62 308.165C130.721 306.221 127.978 302.099 127.981 300.866C127.993 294.317 141.088 301.296 143.371 302.507C143.516 302.584 145.317 301.697 146.433 301.752C146.577 302.273 146.755 302.704 146.944 303.209C143.733 304.586 142.081 305.103 139.898 307.781C137.857 309.084 137.68 309.109 135.543 309.844C133.434 309.814 131.158 311.335 131.62 308.165Z" fill="#8D9087"/>
<path d="M124.125 313.777C123.005 312.575 122.135 311.674 120.536 311.046C118.431 310.219 118.438 306.919 120.842 306.707C124.493 306.385 127.41 309.077 130.115 311.172C130.321 311.951 128.101 312.883 127.316 313.407C125.791 314.461 124.837 315.718 124.125 313.777Z" fill="#9B9C93"/>
<path d="M146.944 303.209C150.062 300.174 147.214 301.152 148.802 298.81L148.845 298.815L148.74 298.907L148.939 298.817C149.871 298.987 149.777 301.237 149.862 302.033L150.005 301.886L150.18 301.851C150.235 301.914 150.289 301.977 150.344 302.04C150.177 302.14 150.009 302.241 149.841 302.342C145.602 304.385 144.788 305.916 139.898 307.781C142.081 305.103 143.733 304.586 146.944 303.209Z" fill="#5F625C"/>
<path d="M131.62 308.165C131.158 311.335 133.434 309.814 135.543 309.844C132.955 311.558 130.338 313.405 127.315 313.407C128.1 312.883 130.32 311.951 130.114 311.172C131.025 309.793 131.122 309.709 131.62 308.165Z" fill="#777873"/>
<path d="M137.816 411.351C133.298 411.953 130.96 412.884 126.804 409.839C124.365 408.052 122.541 403.908 125.027 401.526C128.116 398.567 131.299 401.526 133.657 402.349C134.39 402.093 134.426 401.149 134.776 400.508C135.741 398.74 136.862 396.073 138.727 395.101C139.826 394.528 141.483 395.283 141.684 396.561C142.394 401.062 140.808 405.649 138.789 409.616C138.561 409.775 138.712 410.634 138.986 410.685C139.801 410.837 141.158 411.292 141.821 411.462C143.701 411.947 145.327 408.202 148.098 408.751C148.684 408.872 149.19 409.24 149.486 409.761C150.293 411.167 149.806 413.754 149.699 415.401C158.833 415.637 155.716 421.943 151.541 426.761L151.13 426.627L150.194 427.713L150.654 428.23C146.615 431.567 144.49 433.146 139.004 431.718C136.108 431.03 133.096 429.832 134.523 426.296C135.357 424.231 137.666 423.974 137.807 421.959L136.616 421.026C128.312 418.457 131.376 415.645 136.946 415.083C137.523 415.024 137.704 412.094 137.816 411.351ZM143.293 417.695C143.584 418.122 143.845 418.75 144.068 419.238L145.193 419.447C146.838 417.789 147.407 417.412 148.643 415.467C146.192 415.919 145.58 415.978 143.406 417.174L143.293 417.695Z" fill="#9B9C93"/>
<path d="M143.406 417.174C145.58 415.978 146.192 415.919 148.643 415.467C147.407 417.412 146.838 417.789 145.193 419.447L144.068 419.238C143.845 418.75 143.584 418.122 143.293 417.695L143.406 417.174Z" fill="#FDFDFD" fill-opacity="0.0117647"/>
<path d="M148.643 415.467C148.995 415.445 149.347 415.423 149.699 415.401C158.833 415.637 155.716 421.943 151.541 426.761L151.13 426.627L150.194 427.713L150.654 428.23C146.615 431.567 144.49 433.146 139.004 431.718C136.108 431.03 133.096 429.832 134.523 426.296C135.357 424.231 137.666 423.974 137.807 421.959L136.616 421.026C138.121 419.542 140.54 418.625 142.537 417.832L143.293 417.695C143.584 418.122 143.845 418.75 144.068 419.238L145.193 419.447C146.838 417.789 147.407 417.412 148.643 415.467Z" fill="#8D9087"/>
<path d="M148.642 415.467C148.994 415.445 149.346 415.423 149.698 415.401C158.832 415.637 155.715 421.943 151.54 426.761L151.129 426.627C149.483 424.669 146.791 421.14 145.192 419.447C146.837 417.789 147.406 417.412 148.642 415.467Z" fill="#8D9087"/>
<path d="M142.536 417.832C145.21 422.172 139.306 423.027 137.806 421.959L136.615 421.026C138.12 419.542 140.539 418.625 142.536 417.832Z" fill="#FDFDFD"/>
<path d="M144.067 419.238L145.192 419.447C146.791 421.14 149.483 424.669 151.129 426.627L150.193 427.713C147.46 424.031 145.854 423.412 144.067 419.238Z" fill="#5F625C"/>
<path d="M137.816 411.351C137.781 412.323 137.49 414.171 138.121 414.869C138.831 415.044 139.222 414.102 139.574 413.639L139.798 414.081C140.963 416.408 140.297 416.161 142.537 417.832C140.54 418.625 138.121 419.542 136.616 421.026C128.312 418.457 131.376 415.645 136.946 415.083C137.523 415.024 137.704 412.094 137.816 411.351Z" fill="#9B9C93"/>
<path d="M139.574 413.639C139.286 413.152 138.929 412.724 138.928 412.191L139.024 412.113C139.41 412.199 142.887 416.563 143.406 417.174L143.293 417.695L142.537 417.832C140.297 416.161 140.963 416.408 139.798 414.081L139.574 413.639Z" fill="#5F625C"/>
<path d="M137.396 481.441C142.037 482.688 142.636 471.142 148.471 477.577C149.249 478.435 148.123 486.126 148.106 488.073L150.395 489.628C151.957 487.204 155.479 478.917 158.972 481.511C162.36 484.028 160.631 491.78 159.721 495.028L160.671 496.168L160.314 496.581C159.724 496.437 159.137 496.282 158.553 496.115C157.555 497.394 156.528 498.649 155.473 499.881C154.718 500.494 154.361 500.783 153.681 501.504C143.758 505.856 146.266 496.106 148.666 490.309C147.411 489.595 147.174 489.393 146.066 488.427C140.365 493.865 130.237 498.87 130.77 486.527C132.482 486.449 133.212 486.025 134.38 484.896C136.305 484.176 138.688 483.894 137.109 481.727L137.396 481.441Z" fill="#8D9087"/>
<path d="M148.666 490.309C150.723 490.775 156.758 494.768 158.553 496.115C157.555 497.394 156.528 498.649 155.473 499.881C154.718 500.494 154.361 500.783 153.681 501.504C143.758 505.856 146.266 496.106 148.666 490.309Z" fill="#8D9087"/>
<path d="M150.395 489.628C151.957 487.204 155.478 478.917 158.971 481.511C162.359 484.028 160.631 491.78 159.721 495.028C157.314 493.949 152.627 491.187 150.395 489.628Z" fill="#8D9087"/>
<path d="M146.065 488.427C145.12 487.768 138.699 483.549 139.173 482.696C140.553 481.866 145.012 487.416 148.105 488.073L150.394 489.628C152.626 491.187 157.313 493.949 159.72 495.028L160.67 496.168L160.313 496.581C159.723 496.437 159.136 496.282 158.552 496.115C156.757 494.768 150.722 490.775 148.665 490.309C147.41 489.595 147.173 489.393 146.065 488.427Z" fill="#5F625C"/>
<path d="M258.432 146.093C266.833 147.12 261.34 146.865 265.607 150.429C263.693 155.034 262.956 155.117 265.955 159.079C261.555 162.9 261.719 163.912 262.328 169.561C257.674 166.76 259.264 167.379 255.927 170.619C254.952 171.566 253.854 174.117 254.948 175.526C256.337 176.404 258.165 175.447 260.262 176.311C262.016 177.034 263.07 175.966 263.637 179.041C257.987 177.056 252.197 177.199 247.187 175.608C243.475 174.751 238.697 173.629 236.021 170.651C238.151 168.871 237.998 168.551 239.21 166.08C239.885 164.248 240.095 162.898 240.679 161.106L240.693 160.762C240.912 160.337 241.059 160.077 241.234 159.628C242.86 152.989 243.984 151.554 247.576 157.306L247.823 157.693C248.964 161.444 249.79 164.416 251.052 168.184C252.172 167.05 256.412 163.245 256.477 162.148C256.763 157.345 257.811 156.351 260.13 152.354C262.483 148.297 265.31 148.55 258.432 146.093Z" fill="#DAC3B9"/>
<path d="M240.679 161.106C241.419 161.998 241.826 162.781 241.852 163.964C241.947 168.198 247.08 173.233 247.187 175.608C243.475 174.751 238.697 173.629 236.021 170.651C238.151 168.871 237.998 168.551 239.21 166.08C239.885 164.248 240.095 162.898 240.679 161.106Z" fill="#FDFDFD"/>
<path d="M169.281 164.87C173.463 165.545 172.89 157.539 176.184 158.032C185.469 159.421 178.725 170.441 175.901 174.754C176.329 175.167 176.748 175.59 177.159 176.021L176.608 177.057C175.566 178.079 175.607 177.967 174.315 177.468C172.833 176.659 172.925 176.599 171.291 176.979C170.118 177.364 169.342 177.693 168.194 178.18L167.595 178.085C165.187 177.571 157.157 176.114 156.7 172.987C156.121 169.026 161.224 167.011 163.836 163.804C163.488 162.665 163.787 162.842 164.994 162.179L165.571 161.291C166.771 162.534 168.011 163.699 169.281 164.87Z" fill="#9B9C93"/>
<path d="M169.281 164.87C173.463 165.545 172.89 157.539 176.184 158.032C185.469 159.421 178.725 170.441 175.901 174.754C173.522 171.343 171.004 168.367 168.392 165.219C168.689 165.102 168.985 164.986 169.281 164.87Z" fill="#9B9C93"/>
<path d="M165.571 161.291C166.771 162.534 168.011 163.699 169.281 164.87C168.985 164.986 168.689 165.102 168.392 165.219C171.004 168.367 173.522 171.343 175.901 174.754C176.329 175.167 176.748 175.59 177.159 176.021L176.608 177.057C172.065 171.724 169.116 167.738 164.994 162.179L165.571 161.291Z" fill="#5F625C"/>
<path d="M164.035 497.286L164.476 495.427C164.926 493.451 164.709 488.486 166.422 488.318C175.648 487.413 171.536 499.116 170.71 501.359C171.337 501.761 171.968 502.157 172.603 502.546L172.139 503.022C171.282 502.625 171.035 502.223 170.471 503.096L170.257 503.885C165.67 521.324 146.815 514.455 154.503 502.637C155.207 502.005 155.82 501.436 156.489 500.766C158.518 499.605 162.491 498.754 160.314 496.581L160.671 496.168C161.548 496.501 162.012 496.819 162.827 497.297L164.035 497.286Z" fill="#9B9C93"/>
<path d="M170.471 503.096C169.591 502.02 167.499 501.103 167.447 500.076L167.655 499.899C168.958 499.961 169.699 500.593 170.71 501.359C171.337 501.761 171.968 502.157 172.603 502.546L172.139 503.022C171.282 502.625 171.035 502.223 170.471 503.096Z" fill="#777873"/>
<path d="M164.035 497.286L165.561 498.359C165.99 498.658 166.548 498.921 166.702 499.429C166.314 500.216 162.643 498.668 162.827 497.297L164.035 497.286Z" fill="#5F625C"/>
<path d="M295.596 133.385C295.611 119.145 315.91 118.638 315.864 131.799C315.844 137.484 308.428 140.528 303.317 140.927C301.805 141.611 301.983 141.406 300.609 140.389C301.15 139.725 304.137 136.554 303.846 135.756C303.134 135.133 300.382 138.979 299.994 139.486L298.333 138.559C298.931 138.171 299.15 137.401 298.844 136.757C298.538 136.113 297.803 135.795 297.124 136.013C296.825 135.083 296.155 134.236 295.596 133.385Z" fill="#9B9C93"/>
<path d="M282.442 314.292C284.905 312.284 288.259 308.322 290.962 307.99C296.186 312.112 298.771 307.714 301.828 311.142L301.916 311.973L302.056 312.346C303.005 314.829 305.911 316.456 304.314 319.621C302.486 323.241 293.14 322.669 290.11 322.09C288.508 321.227 287.615 320.965 285.97 320.26C285.344 319.633 284.781 319.066 284.18 318.412C284.699 320.713 284.799 321.303 284.945 323.707C282.29 324.296 283.238 321.776 282.584 318.941C282.482 317.295 282.397 315.959 282.442 314.292Z" fill="#E0C1B2"/>
<path d="M282.442 314.292C284.905 312.284 288.259 308.322 290.962 307.99C296.186 312.112 298.771 307.714 301.828 311.142L301.916 311.973C300.692 312.987 290.5 310.811 287.688 314.639C286.953 315.638 282.74 316.7 284.18 318.412C284.699 320.713 284.799 321.303 284.945 323.707C282.29 324.296 283.238 321.776 282.584 318.941C282.482 317.295 282.397 315.959 282.442 314.292Z" fill="#FDFDFD"/>
<path d="M130.019 476.014C129.303 476.595 128.615 477.174 127.812 477.635C125.18 479.147 122.002 480.25 118.992 479.328C117.109 478.75 115.492 477.227 114.634 475.474C113.853 473.882 113.752 472.211 114.421 470.548C117.046 464.028 122.246 468.172 123.938 466.979C125.808 465.661 125.615 461.64 128.589 460.443C129.258 460.174 129.752 459.963 130.437 460.348C131.296 460.83 131.995 462.163 132.268 463.053C133.582 467.33 132.334 471.885 130.182 475.67L130.019 476.014Z" fill="#9B9C93"/>
<path d="M150.117 133.319C161.169 119.46 159.967 132.39 155.539 140.363L154.654 141.943C154.024 143.435 155.999 145.18 156.906 146.649C156.48 147.035 156.116 147.307 155.664 147.658C153.54 147.71 149.76 148.661 148.248 147.289L147.863 145.107C147.627 142.596 142.724 142.972 141.398 139.154C138.234 130.045 144.336 131.402 150.117 133.319Z" fill="#9B9C93"/>
<path d="M153.351 143.197C154.161 144.663 154.931 146.151 155.663 147.658C153.539 147.71 149.759 148.661 148.247 147.289L147.862 145.107C151.199 144.836 150.716 145.174 153.351 143.197Z" fill="#FDFDFD"/>
<path d="M153.352 143.197C152.537 141.766 150.036 137.085 149.934 135.725L150.052 135.64C151.412 135.862 153.201 140.165 154.654 141.943C154.024 143.435 155.999 145.18 156.906 146.649C156.48 147.035 156.116 147.307 155.664 147.658C154.932 146.151 154.162 144.663 153.352 143.197Z" fill="#8D9087"/>
<path d="M160.397 153.179C164.243 150.29 170.652 144.167 169.933 154.624C169.827 156.157 167.404 158.112 166.464 159.562L165.571 161.291L164.994 162.179C163.787 162.842 163.488 162.665 163.836 163.804C162.786 162.24 162.808 161.781 160.862 163.013C157.975 164.841 150.578 162.933 149.188 159.907C147.297 155.789 154.817 154.665 157.752 153.415C158.14 154.015 157.978 154.386 158.616 154.295C159.157 153.608 159.308 151.922 159.511 151L159.778 152.987L160.397 153.179Z" fill="#8D9087"/>
<path d="M160.396 153.179C164.242 150.29 170.651 144.167 169.932 154.624C169.826 156.157 167.404 158.112 166.464 159.562L163.934 160.046C163.811 157.7 161.749 156.262 160.396 153.179Z" fill="#9B9C93"/>
<path d="M163.934 160.046C162.227 159.278 159.739 154.936 159.778 152.987L160.397 153.179C161.75 156.262 163.811 157.7 163.934 160.046Z" fill="#5F625C"/>
<path d="M256.759 145.522C257.318 145.706 257.876 145.896 258.431 146.093C265.309 148.55 262.482 148.297 260.129 152.354C257.81 156.351 256.763 157.345 256.477 162.148C256.412 163.245 252.172 167.05 251.052 168.184C249.79 164.416 248.963 161.444 247.822 157.693C255.461 149.96 244.656 148.313 256.759 145.522Z" fill="url(#paint1_linear_117_11133)"/>
<path d="M240.981 144.497C242.629 141.665 243.515 141.487 245.086 139.014C245.687 138.068 245.391 136.325 245.981 135.434C247.452 134.722 247.345 140.19 248.418 139.947C249.561 139.688 250.172 137.697 251.681 136.354C253.693 140.941 249.077 139.68 256.759 145.522C244.656 148.313 255.461 149.96 247.822 157.693L247.575 157.306C243.983 151.554 242.86 152.989 241.234 159.628C241.331 156.195 240.919 155.153 242.26 152.063C247.597 149.444 243.289 146.609 240.981 144.497Z" fill="#FDFDFD" fill-opacity="0.898039"/>
<path d="M267.909 497.2C273.517 494.223 272.762 494.747 278.852 495.103C283.97 507.248 261.575 504.881 255.54 503.709C258.482 499.269 257.231 501.354 260.702 500.777C261.853 500.586 263.313 499.881 263.504 498.516C265.735 498.374 265.987 498.504 267.909 497.2Z" fill="#E0C1B2"/>
<path d="M154.444 432.213L155.339 433.198L156.355 432.748C158.289 434.328 161.303 437.465 162.815 439.447L161.809 440.081L162.016 440.532C160.524 442.213 159.349 443.326 157.81 444.915C156.71 445.678 155.862 446.147 154.708 446.797C143.188 446.651 147.619 436.891 154.444 432.213Z" fill="#9B9C93"/>
<path d="M156.355 432.748C158.289 434.328 161.303 437.465 162.815 439.447L161.809 440.081C159.92 438.14 156.939 435.166 155.339 433.198L156.355 432.748Z" fill="#5F625C"/>
<path d="M280.231 141.638C280.471 143.49 280.11 143.765 281.723 144.587C286.645 144.149 286.028 144.304 290.291 142.277C291.041 143.065 291.767 143.747 292.553 144.493C290.594 145.132 290.406 145.224 288.338 145.367C278.35 144.83 277.103 153.109 283.309 160.037C276.273 160.508 278.889 158.161 273.171 158.21C270.143 157.851 269.073 157.767 266.122 158.628C266.949 156.496 268.501 155.2 270.36 153.873C274.358 153.762 276.975 152.872 276.419 148.22C277.688 146.688 277.987 144.578 278.391 142.637C279.033 142.261 279.57 141.969 280.231 141.638Z" fill="url(#paint2_linear_117_11133)"/>
<path d="M155.816 431.676C157.01 429.794 159.858 423.107 161.883 423.263C170.66 423.942 165.002 436.411 163.288 439.594L162.814 439.447C161.302 437.465 158.288 434.328 156.354 432.748L155.816 431.676Z" fill="#8D9087"/>
<path d="M248.71 484.741C251.924 484.301 254.229 483.394 257.287 482.598C254.216 488.097 257.365 488.296 257.266 494.757C255.858 496.759 255.652 498.334 255.085 500.676C254.952 502.233 254.148 502.034 252.711 502.498C250.67 496.864 251.332 487.603 248.71 484.741Z" fill="#DAC3B9"/>
<path d="M156.906 146.649C157.777 145.266 164.314 137.25 166.171 142.994C167.03 145.655 160.175 148.877 159.078 150.307C159.063 150.607 159.265 150.702 159.511 151C159.308 151.922 159.157 153.608 158.616 154.295C157.978 154.386 158.14 154.015 157.752 153.415C153.715 149.754 145.483 155.228 148.248 147.289C149.76 148.661 153.54 147.71 155.664 147.658C156.116 147.307 156.48 147.035 156.906 146.649Z" fill="#9B9C93"/>
<path d="M272.252 485.734C275.491 486.327 276.376 487.003 279.351 488.145C278.371 491.527 277.695 491.974 278.852 495.103C272.762 494.747 273.517 494.223 267.909 497.2C268.007 496.178 267.714 492.345 267.16 491.551C268.137 490.32 271.197 486.582 272.252 485.734Z" fill="#FDFDFD" fill-opacity="0.596078"/>
<path d="M154.425 243.771C150.367 243.602 141.033 243.362 139.02 239.957C135.196 233.49 144.978 236.625 146.58 237.187C147.901 237.874 152.878 240.888 153.882 240.316L153.865 240.315C154.186 239.507 153.94 238.246 154.109 237.036C156.97 239.601 155.144 238.805 154.425 243.771Z" fill="#E0C1B2"/>
<path d="M283.928 458.163L284.567 457.938C284.705 460.051 282.625 463.846 286.703 461.227C284.614 468.922 283.537 462.735 280.753 468.933C279.586 471.531 279.792 474.275 276.495 474.854C275.883 470.626 276.462 468.421 276.098 464.125C280.107 457.54 281.964 464.822 283.928 458.163Z" fill="#FDFDFD" fill-opacity="0.760784"/>
<path d="M263.637 179.041C263.07 175.966 262.016 177.034 260.262 176.311C258.165 175.447 256.338 176.404 254.949 175.526C253.855 174.117 254.953 171.566 255.928 170.619C259.265 167.379 257.675 166.76 262.329 169.561C263.604 172.003 265.129 174.234 266.216 176.326C265.535 177.902 265.612 177.853 265.723 179.626L264.875 179.901C264.405 179.598 264.075 179.402 263.637 179.041Z" fill="#FDFDFD" fill-opacity="0.784314"/>
<path d="M145.492 226.389C145.765 226.062 146.236 225.341 146.549 225.098C146.846 225.094 146.878 225.241 147.174 225.508C150.501 229.955 153.578 232.673 156.974 236.738C158.907 239.564 160.289 241.508 162.395 244.262C162.86 245.283 162.776 245.266 162.86 246.434C158.763 244.685 158.849 244.702 154.426 243.771C155.145 238.805 156.97 239.601 154.109 237.036C153.212 236.208 150.661 233.393 149.765 232.392C148.121 230.249 146.997 228.666 145.492 226.389Z" fill="#DCB9A6"/>
<path d="M287.793 124.639C288.726 125.491 291.706 127.364 291.433 128.319C290.301 132.283 287.95 136.568 295.596 133.385C296.155 134.236 296.825 135.083 297.124 136.013C296.486 136.219 296.078 136.842 296.146 137.509C292.771 136.378 291.894 137.083 289.11 139.028C287.056 135.469 286.555 129.286 285.282 127.546L284.853 126.943C285.887 126.087 286.695 125.41 287.793 124.639Z" fill="#FDFDFD" fill-opacity="0.968627"/>
<path d="M278.458 127.022C280.588 126.927 282.721 126.901 284.853 126.943L285.282 127.546C286.555 129.286 287.056 135.469 289.11 139.028C289.489 140.117 289.882 141.199 290.291 142.277C286.028 144.304 286.645 144.149 281.723 144.587C282.69 143.874 283.591 143.195 284.666 142.655C284.485 142.543 284.305 142.432 284.125 142.32C283.996 142.167 284.051 140.522 283.55 139.256C282.309 136.119 286.581 133.906 283.973 130.34C282.498 128.322 283.43 127.76 281.103 127.522C280.209 127.362 279.348 127.21 278.458 127.022Z" fill="#FDFDFD" fill-opacity="0.815686"/>
<path d="M234.613 153.744C235.257 151.614 238.079 146.789 240.173 145.389C238.976 147.878 233.575 155.932 236.283 158.076C238.768 157.246 235.713 154.105 240.805 153.898C240.844 156.431 240.809 158.245 240.693 160.762L240.678 161.106C240.094 162.898 239.884 164.248 239.209 166.08C238.47 164.879 238.349 164.768 237.129 163.975C234.589 162.325 235.072 157.17 234.613 153.744Z" fill="#FDFDFD" fill-opacity="0.45098"/>
<path d="M281.103 127.522C283.43 127.76 282.498 128.322 283.973 130.34C286.581 133.906 282.309 136.119 283.55 139.256C284.051 140.522 283.996 142.167 284.125 142.32C284.305 142.432 284.485 142.543 284.666 142.655C283.591 143.195 282.69 143.874 281.723 144.587C280.11 143.765 280.471 143.49 280.231 141.638C280.527 139.217 281.392 136.867 279.495 135.112C282.567 133.129 279.938 130.142 281.103 127.522Z" fill="#FDFDFD" fill-opacity="0.752941"/>
<path d="M270.788 458.096L270.897 457.542C271.02 456.892 271.134 455.057 271.465 454.534C272.169 454.233 277.013 459.516 283.928 458.163C281.964 464.822 280.107 457.54 276.098 464.125C273.986 461.104 274.588 460.487 271.182 459.549L270.788 458.096Z" fill="#FDFDFD" fill-opacity="0.862745"/>
<path d="M292.145 435.479C293.516 435.574 294.857 435.583 296.23 435.672L295.63 436.26C293.358 437.73 293.631 439.715 294.503 442.085C296.246 446.827 293.165 446.042 293.198 449.979L293.06 450.698C292.443 449.693 292.127 449.17 291.646 448.091C290.953 446.002 289.874 444.413 288.837 442.463C290.274 440.915 293.466 437.874 292.145 435.479Z" fill="url(#paint3_linear_117_11133)"/>
<path d="M240.982 144.497C243.29 146.609 247.598 149.444 242.261 152.063C242.289 151.892 242.488 151.188 242.267 150.936C242.218 150.88 242.143 150.85 242.094 150.795C241.558 150.192 241.25 149.362 241.189 148.571C241.152 148.105 241.074 147.699 240.753 147.347C237.194 146.978 240.788 152.635 240.806 153.898C235.714 154.105 238.769 157.246 236.284 158.076C233.576 155.932 238.977 147.878 240.174 145.389L240.305 144.94L240.982 144.497Z" fill="#FDFDFD" fill-opacity="0.654902"/>
<path d="M288.444 466.542C289.652 466.049 289.832 465.851 291.084 465.768L291.485 466.02C294.343 467.786 298.638 469.114 299.843 471.293C298.243 473.052 297.813 473.327 296.58 475.424L296.284 475.529C297.2 466.829 290.563 475.844 288.444 466.542Z" fill="#FDFDFD" fill-opacity="0.901961"/>
<path d="M278.458 127.022C279.348 127.21 280.209 127.362 281.103 127.522C279.938 130.142 282.567 133.129 279.495 135.112C273.911 133.392 273.948 135.56 274.767 128.806C276.14 128.289 277.234 127.846 278.458 127.022Z" fill="#FDFDFD" fill-opacity="0.517647"/>
<path d="M284.409 437.424C288.473 433.155 286.193 434.002 292.145 435.48C293.466 437.875 290.274 440.915 288.837 442.463C287.232 440.458 285.838 439.483 284.409 437.424Z" fill="url(#paint4_linear_117_11133)"/>
<path d="M134.287 478.21L134.432 477.674C134.851 476.078 136.435 466.146 140.468 473.049C141.484 474.789 138.332 478.472 137.163 480.173C135.842 479.419 135.397 479.23 134.287 478.21Z" fill="#9B9C93"/>
<path d="M293.198 449.98C293.165 446.043 296.246 446.827 294.503 442.085C293.631 439.715 293.358 437.731 295.63 436.261C298.221 438.266 297.299 444.515 297.235 447.837C295.613 448.837 294.955 449.213 293.198 449.98Z" fill="#FDFDFD" fill-opacity="0.247059"/>
<path d="M132.774 479.315C133.862 480.269 134.106 480.451 135.332 481.153C134.563 482.821 134.517 483.075 134.379 484.896C132.771 482.741 132.068 484.428 129.709 485.629C124.774 480.74 127.335 480.907 132.774 479.315Z" fill="#9B9C93"/>
<path d="M149.765 232.392C150.661 233.393 153.212 236.208 154.109 237.036C153.94 238.246 154.187 239.507 153.866 240.315L153.882 240.316C152.878 240.888 147.902 237.874 146.581 237.187C148.299 235.147 148.997 234.964 149.765 232.392Z" fill="#FDFDFD" fill-opacity="0.466667"/>
<path d="M265.954 159.079C262.955 155.117 263.693 155.034 265.607 150.429C267.905 151.721 268.608 151.898 270.359 153.873C268.5 155.2 266.948 156.496 266.121 158.628L265.954 159.079Z" fill="#FDFDFD" fill-opacity="0.788235"/>
<path d="M276.853 428.713C278.938 428.012 282.645 431.773 284.209 433.096C283.276 434.214 282.372 435.356 281.499 436.521C279.091 432.655 279.377 433.295 276.429 430.188C276.502 429.912 276.574 429.636 276.647 429.36L276.853 428.713Z" fill="#FDFDFD" fill-opacity="0.980392"/>
<path d="M289.254 453.917C289.281 456.621 290.211 458.654 287.979 460.234L286.703 461.226C282.625 463.845 284.705 460.051 284.567 457.938C286.919 456.308 287.269 456.118 289.254 453.917Z" fill="#FDFDFD" fill-opacity="0.643137"/>
<path d="M290.962 307.99C294.88 307.755 298.025 307.707 301.963 307.273L302.583 307.209C302.233 308.679 302.053 309.644 301.828 311.142C298.771 307.714 296.186 312.112 290.962 307.99Z" fill="#FDFDFD" fill-opacity="0.858824"/>
<path d="M233.414 147.673C239.635 148.745 234.379 145.799 240.305 144.94L240.174 145.389C238.08 146.789 235.258 151.614 234.614 153.744C233.498 150.77 234.834 151.144 231.752 149.511C232.325 148.836 232.788 148.315 233.414 147.673Z" fill="#FDFDFD" fill-opacity="0.145098"/>
<path d="M133.101 320.454C133.094 318.629 133.434 317.52 133.381 315.287C133.367 314.716 132.103 311.351 135.881 312.701C136.484 312.917 136.515 316.539 136.538 317.402C134.479 319.118 134.252 317.83 133.101 320.454Z" fill="#FDFDFD" fill-opacity="0.262745"/>
<path d="M162.016 440.532C163.437 441.876 163.949 442.467 165.13 443.998C162.96 444.642 160.937 445.129 158.745 445.68L157.81 444.915C159.349 443.326 160.524 442.213 162.016 440.532Z" fill="#FDFDFD" fill-opacity="0.0196078"/>
<path d="M240.806 153.898C240.788 152.635 237.194 146.978 240.753 147.347C241.074 147.699 241.152 148.105 241.189 148.571C241.25 149.362 241.558 150.192 242.094 150.795C242.143 150.85 242.218 150.88 242.267 150.936C242.488 151.188 242.289 151.892 242.261 152.063C240.92 155.153 241.332 156.195 241.235 159.628C241.06 160.077 240.913 160.337 240.694 160.762C240.81 158.245 240.845 156.431 240.806 153.898Z" fill="#FDFDFD" fill-opacity="0.752941"/>
<path d="M263.504 498.516C269.184 491.955 264.825 495.844 267.16 491.551C267.714 492.345 268.007 496.178 267.909 497.2C265.987 498.504 265.735 498.374 263.504 498.516Z" fill="#FDFDFD" fill-opacity="0.811765"/>
<path d="M158.553 496.115C159.137 496.282 159.724 496.437 160.314 496.581C162.491 498.754 158.518 499.605 156.489 500.766L155.473 499.881C156.528 498.649 157.555 497.394 158.553 496.115Z" fill="#FDFDFD" fill-opacity="0.0588235"/>
<path d="M130.019 476.014L130.182 475.67C132.012 476.473 132.665 477.062 134.287 478.21C135.397 479.23 135.842 479.419 137.163 480.173L137.396 481.441L137.109 481.727L135.333 481.153C134.107 480.451 133.863 480.269 132.775 479.315C131.816 477.716 131.37 477.298 130.019 476.014Z" fill="#5F625C"/>
<path d="M310.376 408.137C312.842 405.961 313.382 407.69 315.091 410.277C313.897 410.895 313.531 411.2 312.485 412.024C311.588 410.565 311.12 409.652 310.376 408.137Z" fill="#FDFDFD" fill-opacity="0.282353"/>
<path d="M162.815 439.447L163.289 439.594C164.89 441.469 165.158 442.097 167.406 442.613C167.353 443.28 167.312 443.948 167.282 444.616C166.405 444.175 166.12 443.832 165.13 443.998C163.949 442.467 163.437 441.876 162.016 440.532L161.809 440.081L162.815 439.447Z" fill="#484A46" fill-opacity="0.913725"/>
<path d="M292.553 144.493C293.546 144.998 294.005 145.325 294.938 145.952L293.346 148.006C291.489 146.843 290.337 146.233 288.338 145.367C290.406 145.224 290.594 145.132 292.553 144.493Z" fill="#FDFDFD" fill-opacity="0.988235"/>
<path d="M313.173 248.437C313.922 249.192 314.655 249.95 315.406 250.708C315.482 250.712 315.558 250.717 315.634 250.721C315.77 251.129 315.777 250.892 315.483 251.692C313.196 253.371 313.005 252.208 311.034 250.263C311.833 249.63 312.425 249.135 313.173 248.437Z" fill="#FDFDFD" fill-opacity="0.501961"/>
<path d="M151.129 426.627L151.54 426.761C152.977 429.047 153.906 429.775 155.816 431.676L156.354 432.748L155.338 433.198L154.443 432.213C152.966 430.323 152.553 429.783 150.653 428.23L150.193 427.713L151.129 426.627Z" fill="#5F625C" fill-opacity="0.886275"/>
<path d="M307.63 398.909C308.172 399.893 308.65 400.876 309.149 401.881C307.183 404.145 307.379 403.517 304.707 401.2C305.973 400.341 306.488 399.921 307.63 398.909Z" fill="#FDFDFD" fill-opacity="0.0784314"/>
<path d="M255.085 500.676C255.652 498.334 255.858 496.759 257.266 494.757C257.921 495.724 258.055 495.918 258.886 496.733C257.401 498.694 256.911 499.117 255.085 500.676Z" fill="#FDFDFD" fill-opacity="0.223529"/>
<path d="M186.752 506.851L187.239 506.866C187.637 511.186 188.238 510.009 189.615 513.391C190.651 515.936 185.947 510.36 185.725 510.052C186.661 508.793 186.587 508.356 186.752 506.851Z" fill="#5F625C" fill-opacity="0.85098"/>
<path d="M285.97 320.26C287.615 320.965 288.508 321.227 290.11 322.09C289.334 323.27 288.962 323.956 288.333 325.21L286.519 323.687C286.363 322.487 286.192 321.454 285.97 320.26Z" fill="#FDFDFD" fill-opacity="0.952941"/>
<path d="M266.215 176.326C268.03 177.568 268.692 177.957 270.664 178.971C268.121 179.87 268.31 180.105 265.722 179.626C265.611 177.853 265.534 177.902 266.215 176.326Z" fill="#FDFDFD" fill-opacity="0.6"/>
<path d="M135.333 481.153L137.109 481.727C138.688 483.894 136.305 484.176 134.38 484.896C134.518 483.075 134.564 482.821 135.333 481.153Z" fill="#FDFDFD" fill-opacity="0.0196078"/>
<path d="M129.71 485.629C132.069 484.428 132.772 482.741 134.38 484.896C133.212 486.025 132.482 486.449 130.77 486.527L129.71 485.629Z" fill="#FDFDFD" fill-opacity="0.937255"/>
<path d="M284.18 318.412C284.781 319.066 285.344 319.633 285.97 320.26C286.192 321.454 286.363 322.487 286.519 323.687L284.945 323.707C284.799 321.303 284.699 320.713 284.18 318.412Z" fill="#FDFDFD" fill-opacity="0.592157"/>
<path d="M172.603 502.546C173.383 502.811 176.537 503.932 177.015 505.163C177.011 505.21 177.006 505.256 177.001 505.302C175.871 506.191 172.571 503.42 172.139 503.022L172.603 502.546Z" fill="#BAAFA6" fill-opacity="0.380392"/>
<path d="M297.124 136.013C297.803 135.795 298.538 136.113 298.844 136.757C299.15 137.401 298.931 138.171 298.333 138.559C297.917 138.828 297.391 138.862 296.945 138.647C296.498 138.433 296.196 138.002 296.146 137.509C296.078 136.842 296.486 136.219 297.124 136.013Z" fill="#FDFDFD" fill-opacity="0.360784"/>
<path d="M265.265 137.383L266.396 137.298C266.613 138.562 266.921 141.566 265.906 142.534C265.364 142.193 265.408 141.125 265.347 140.581C265.267 139.909 265.171 139.239 265.061 138.571L265.265 137.383Z" fill="#F8F5F3" fill-opacity="0.435294"/>
<path d="M157.81 444.915L158.745 445.68C157.67 446.457 156.584 447.218 155.488 447.964L154.708 446.797C155.862 446.147 156.71 445.678 157.81 444.915Z" fill="#FDFDFD" fill-opacity="0.156863"/>
<path d="M155.473 499.881L156.489 500.766C155.82 501.436 155.207 502.005 154.503 502.637L153.681 501.504C154.361 500.783 154.718 500.494 155.473 499.881Z" fill="#FDFDFD" fill-opacity="0.360784"/>
<path d="M171.29 176.979C171.694 177.477 172.105 177.969 172.524 178.454C170.514 178.849 170.129 178.683 168.193 178.18C169.341 177.693 170.117 177.364 171.29 176.979Z" fill="#FDFDFD" fill-opacity="0.301961"/>
<path d="M247.133 508.662L248.852 509.408C246.117 511.498 244.004 511.976 247.133 508.662Z" fill="#DCB9A6" fill-opacity="0.639216"/>
<path d="M171.291 176.979C172.925 176.599 172.833 176.659 174.315 177.468L172.525 178.454C172.106 177.969 171.695 177.477 171.291 176.979Z" fill="#FDFDFD" fill-opacity="0.203922"/>
<defs>
<linearGradient id="paint0_linear_117_11133" x1="311.546" y1="260.75" x2="306.176" y2="252.641" gradientUnits="userSpaceOnUse">
<stop stop-color="#767A73"/>
<stop offset="1" stop-color="#90928A"/>
</linearGradient>
<linearGradient id="paint1_linear_117_11133" x1="249.459" y1="154.305" x2="257.478" y2="155.934" gradientUnits="userSpaceOnUse">
<stop stop-color="#FCFCFB" stop-opacity="0.807843"/>
<stop offset="1" stop-color="#FDFDFD" stop-opacity="0.847059"/>
</linearGradient>
<linearGradient id="paint2_linear_117_11133" x1="282.159" y1="155.027" x2="274.551" y2="150.421" gradientUnits="userSpaceOnUse">
<stop stop-color="white" stop-opacity="0.92549"/>
<stop offset="1" stop-color="#FEFEFE" stop-opacity="0.968627"/>
</linearGradient>
<linearGradient id="paint3_linear_117_11133" x1="290.583" y1="442.407" x2="294.093" y2="442.924" gradientUnits="userSpaceOnUse">
<stop stop-color="#FFFFFE" stop-opacity="0.258824"/>
<stop offset="1" stop-color="white" stop-opacity="0.301961"/>
</linearGradient>
<linearGradient id="paint4_linear_117_11133" x1="286.385" y1="438.548" x2="290.864" y2="436.968" gradientUnits="userSpaceOnUse">
<stop stop-color="white" stop-opacity="0.321569"/>
<stop offset="1" stop-color="white" stop-opacity="0.364706"/>
</linearGradient>
</defs>
</svg>
