<svg width="439" height="688" viewBox="0 0 439 688" fill="none" xmlns="http://www.w3.org/2000/svg">
<path d="M188.489 173.121C192.511 171.236 205.524 159.899 207.34 155.874C207.881 154.676 197.45 137.296 196.253 134.358C193.174 126.795 194.95 113.558 197.19 106.396C202.887 89.5579 230.662 87.975 237.331 105.178C239.353 110.396 238.573 112.72 239.508 116.779C242.892 131.457 239.165 132.636 233.792 145.599C232.704 146.68 227.529 153.516 227.245 155.097C230.416 160.487 230.2 157.079 234.362 160.8L234.898 160.444C235.215 160.875 235.719 161.127 236.254 161.124C236.789 161.121 237.29 160.863 237.602 160.429C238.132 157.108 238.752 152.726 243.337 153.586L243.98 153.647C244.424 154.357 244.848 155.032 245.271 155.757L245.994 155.86C246.545 158.671 247.249 160.794 247.981 163.516C248.059 164.519 248.127 165.523 248.186 166.528C247.567 169.717 247.714 170.85 251.04 171.043L251.598 171.513C252.849 172.52 251.124 173.128 250.335 173.632C253.254 175.7 260.299 179.031 263.938 181.057L264.542 181.222L265.529 179.564C268.457 180.751 270.632 180.901 273.246 182.178C272.683 183.226 272.148 184.288 271.64 185.363C271.979 185.464 272.318 185.565 272.657 185.666C281.038 191.22 281.702 193.618 284.561 203.46C286.91 218.613 286.109 240.008 286.334 256.019C286.214 261.103 286.224 265.924 286.141 270.963L286.765 271.333C287.17 274.256 288.968 272.994 290.958 275.293C291.329 275.722 293.844 278.912 294.141 278.849C295.969 278.465 296.794 276.318 294.874 275.257C292.009 273.436 290.154 270.116 288.807 267.196C288.496 264.066 288.602 262.36 288.527 259.264C292.297 254.606 298.461 257.182 302.777 259.641L303.129 260.345C304.377 262.758 304.504 264.821 305.939 267.125L306.658 266.618C306.796 261.604 307.234 262.677 305.699 258.048C308.173 250.704 310.232 250.46 316.409 253.843C316.388 254.77 317.286 255.95 317.703 257.078L319.22 257.259L319.188 257.792C322.025 264.984 320.476 265.319 316.312 270.871C316.617 272.268 318.547 276.835 317.552 277.66C313.092 281.358 305.695 280.968 300.415 279.523C298.47 278.991 299.664 281.079 300.06 281.766C301.35 283.369 302.546 289.569 301.864 291.823C306.461 294.696 313.558 296.772 309.782 304.61C308.4 307.479 304.495 307.421 304.507 309.958C300.88 309.206 297.766 309.248 294.026 309.492C291.367 311.482 288.505 313.205 285.964 315.091C285.961 316.35 285.876 317.564 285.801 318.819C286.281 320.77 286.977 320.917 288.118 322.547C288.234 323.239 288.166 323.3 288.623 323.728C289.176 323.66 289.114 322.698 289.173 322.308C290.895 330.171 292.176 329.15 285.622 334.185C283.279 337.383 281.688 336.308 277.911 335.672C280.818 351.27 280.962 376.277 261.228 380.463C260.941 397.429 260.496 414.392 259.896 431.35C259.751 435.798 259.849 447.097 259.196 450.603C261.821 452.583 262.651 453.015 265.76 454.273C267.532 451.521 275.619 440.568 277.938 438.947L278.445 438.991C281.408 443.282 283.495 442.192 287.022 449.193C286.792 450.439 286.366 451.681 286.436 452.955C281.094 463.42 274.447 461.822 266.541 454.699C265.893 455.409 265.885 455.428 265.292 456.203C264.066 457.811 262.792 459.381 261.472 460.913C260.01 462.62 260.42 462.556 258.693 464.007C258.557 467.065 258.319 475.649 258.473 478.408C257.685 483.753 257.877 494.25 257.831 499.894C257.749 502.205 257.691 503.787 257.788 506.084C257.429 513.498 257.17 540.595 255.957 545.726C254.278 546.514 253.595 546.395 251.689 546.468C250.527 548.417 250.971 553.34 251.447 555.642L251.784 555.751C261.021 558.822 263.768 569.661 271.712 574.911C274.731 576.906 277.968 579.36 280.836 581.562C281.503 584.692 282.269 588.001 282.772 591.142C276.699 594.855 265.962 594.111 259.154 592.964C242.777 589.254 249.858 587.389 239.882 580.421L238.441 581.874C235.212 582.223 227.971 577.518 224.837 575.742C224.12 565.836 224.167 562.269 229.591 553.712C230.766 551.858 231.754 550.301 232.046 548.108L231.734 547.696C227.815 542.527 228.877 537.682 228.572 531.21L227.293 506.998L223.971 441.702C223.2 424.643 222.766 406.905 220.832 389.959L218.833 392.574C217.172 410.955 216.424 429.089 215.593 447.518C214.886 463.161 213.575 478.791 212.927 494.455C212.509 505.715 212.015 516.972 211.445 528.225C211.2 533.664 211.949 543.317 208.834 547.259C209.038 549.668 210.228 551.518 211.365 553.635C216.59 563.357 216.627 565.22 215.792 575.386C213.076 576.798 204.666 581.453 202.313 581.795C201.338 581.276 200.475 580.797 199.449 580.371C193.71 584.528 195.109 588.997 186.097 591.568C178.711 594.268 163.248 595.946 156.763 590.753C157.671 588.63 158.526 584.13 159.066 581.685C163.142 577.923 168.227 575.412 172.242 571.48C176.4 567.409 178.982 561.628 183.431 557.902C184.049 557.385 187.729 556.194 188.74 555.848C189.631 553.362 189.721 549.492 189.921 546.73L182.699 546.178C182.617 537.395 181.737 517.977 182.153 510.415C180.702 510.014 179.465 509.572 178.042 509.117C176.994 508.51 176.157 507.979 175.145 507.31C169.345 501.32 166.402 494.278 174.424 489.159C176.412 487.891 179.318 489.361 179.634 488.931C179.778 485.47 168.28 477.996 181.057 470.08C181.185 466.902 181.796 461.312 180.015 458.824L180.172 457.971C181.282 456 179.33 382.361 177.698 379.806C173.896 380.162 170.762 378.607 167.969 376.076C161.489 370.203 159.396 357.554 159.106 349.246C158.971 345.358 160.494 340.995 160.128 336.741C152.643 335.315 152.325 327.708 152.391 321.335C155.753 320.728 154.612 319.182 154.768 315.777C154.411 314.655 154.505 314.712 153.807 313.878C152.701 312.399 152.462 312.41 152.293 310.59C148.541 303.442 147.406 309.043 148.631 311.918L149.043 312.908C148.456 315.225 147.702 315.544 147.118 317.473C144.154 322.204 142.002 323.82 137.441 319.086C137.608 314.053 134.837 312.34 135.105 316.732C132.89 319.825 132.607 316.015 132.42 314.045C132.234 313.35 132.452 313.586 131.976 313.278L131.736 312.59C132.881 312.163 133.848 311.779 134.967 311.284C133.638 308.237 132.22 307.025 130.443 304.319C129.342 302.641 129.647 300.381 131.822 299.679C136.176 298.273 139.769 301.703 143.322 303.595C143.745 303.819 145.354 302.382 146.286 302.015C152.423 297.464 140.439 296.492 143.162 290.667C145.068 286.588 151.839 290.153 154.677 292.036C154.95 286.546 155.706 247.464 154.2 245.443L151.266 245.344L151.661 245.187C155.92 245.35 155.014 244.611 155.021 240.467L155.149 239.306C152.454 237.188 151.494 237.127 149.997 233.945C147.784 231.261 146.106 228.984 144.142 226.162L145.699 225.636C147.489 223.375 147.034 222.078 148.988 220.171C152.101 226.29 153.487 217.556 153.712 215.253C154.039 213.296 154.619 210.597 154.522 208.734C155.328 206.92 155.478 206.561 156.629 204.983C157.855 199.142 158.643 196.661 160.822 191.287C162.17 189.89 163.208 188.342 164.563 186.909C166.963 184.37 174.012 182.247 175.522 179.62L176.119 179.406C175.774 178.756 175.419 178.111 175.054 177.471C182.93 176.644 176.756 169.281 188.489 173.121ZM220.434 378.72C220.425 377.862 220.455 373.762 220.022 373.241C219.971 373.258 219.919 373.274 219.868 373.291C220.113 373.644 220.025 373.444 220.113 373.899L219.543 374.311C219.349 376.068 219.188 377.254 219.107 379.061L220.434 378.72ZM313.779 270.134C311.951 268.39 311.873 268.286 309.578 266.956C307.843 270.914 309.808 270.766 313.779 270.134ZM206.353 183.687C208.075 181.959 209.814 180.248 211.57 178.553C213.243 177.244 214.569 176.144 216.172 174.748C210.657 170.693 206.99 164.648 203.796 163.241C203.485 169.006 205.408 177.696 206.353 183.687ZM179.286 339.774C179.289 339.474 179.292 339.175 179.295 338.876C179.044 338.741 178.931 338.82 178.471 338.913C178.472 339.211 178.472 339.509 178.472 339.807C178.722 339.942 178.829 339.865 179.286 339.774ZM178.848 347.668C178.966 349.232 179.056 350.799 179.119 352.366C184.126 349.928 185.876 347.036 178.848 347.668ZM266.752 366.089L267.228 365.932C267.233 365.624 268.457 358.217 266.391 360.778C265.67 361.672 263.168 365.46 263.717 366.458C264.628 366.431 265.766 366.175 266.752 366.089ZM176.796 366.978C176.316 364.974 176.417 365.745 175.257 364.316C172.653 361.107 174.106 357.607 169.715 355.798C169.578 363.184 168.487 366.663 176.796 366.978ZM226.854 179.518C227.326 179.868 230.767 182.514 231.433 181.072C232.646 178.448 233.302 166.307 231.508 164.425C224.446 170.708 218.461 172.247 226.854 179.518ZM221.553 323.07C221.067 324.231 216.536 334.669 217.952 335.135C219.677 335.703 222.275 330.368 222.964 329.108C222.301 326.945 221.722 325.345 221.553 323.07Z" fill="#14100F"/>
<path d="M219.107 379.061C219.188 377.254 219.349 376.068 219.543 374.311L220.113 373.899C220.025 373.444 220.113 373.644 219.868 373.291C219.919 373.274 219.971 373.258 220.022 373.241C220.455 373.762 220.425 377.862 220.434 378.72L219.107 379.061Z" fill="#777873" fill-opacity="0.984314"/>
<path d="M305.699 258.048C308.173 250.704 310.232 250.46 316.409 253.843C316.388 254.77 317.286 255.95 317.703 257.078L319.22 257.259L319.188 257.792C322.025 264.984 320.476 265.319 316.312 270.871C316.617 272.268 318.547 276.835 317.552 277.66C313.092 281.358 305.695 280.968 300.415 279.523C298.47 278.991 299.664 281.079 300.06 281.766C301.35 283.369 302.546 289.569 301.864 291.823C299.402 292.818 299.635 295.296 292.995 297.851C289.52 296.879 289.411 296.484 286.601 294.321C286.837 286.211 293.806 283.985 294.525 279.78L294.488 279.757C293.528 280.216 287.73 287.806 286.699 289.173C286.214 282.716 286.056 277.528 286.141 270.963L286.765 271.333C287.17 274.256 288.968 272.994 290.958 275.293C291.329 275.722 293.844 278.912 294.141 278.849C295.969 278.465 296.794 276.318 294.874 275.257C292.009 273.436 290.154 270.116 288.807 267.196C288.496 264.066 288.602 262.36 288.527 259.264C292.297 254.606 298.461 257.182 302.777 259.641L303.129 260.345C304.377 262.758 304.504 264.821 305.939 267.125L306.658 266.618C306.796 261.604 307.234 262.677 305.699 258.048ZM313.779 270.134C311.951 268.39 311.873 268.286 309.578 266.956C307.843 270.914 309.808 270.766 313.779 270.134Z" fill="#8D9087"/>
<path d="M305.699 258.048C308.173 250.704 310.232 250.46 316.409 253.843C316.388 254.77 317.286 255.95 317.703 257.078L319.22 257.259L319.188 257.792C322.025 264.984 320.476 265.319 316.312 270.871C316.617 272.268 318.547 276.835 317.552 277.66C313.092 281.358 305.695 280.968 300.415 279.523C298.47 278.991 299.664 281.079 300.06 281.766C299.932 282.303 299.748 283.359 299.442 283.803C298.719 283.339 295.471 280.783 295.137 279.989C295.427 279.109 296.277 278.649 296.671 277.726C297.467 274.188 303.531 269.978 305.939 267.125L306.658 266.618C306.796 261.604 307.234 262.677 305.699 258.048ZM313.779 270.134C311.951 268.39 311.873 268.286 309.578 266.956C307.843 270.914 309.808 270.766 313.779 270.134Z" fill="#9B9C93"/>
<path d="M309.578 266.956C311.873 268.286 311.951 268.39 313.779 270.134C309.808 270.766 307.843 270.914 309.578 266.956Z" fill="#FDFDFD" fill-opacity="0.215686"/>
<path d="M305.699 258.048C308.173 250.704 310.232 250.46 316.409 253.843C316.388 254.77 317.286 255.95 317.703 257.078C315.494 259.473 309.381 264.31 306.658 266.618C306.796 261.604 307.234 262.677 305.699 258.048Z" fill="#8D9087"/>
<path d="M309.011 266.124C312.059 263.576 315.864 259.692 319.188 257.792C322.025 264.984 320.476 265.319 316.312 270.871C315.235 269.697 315.231 269.589 313.779 270.134C311.951 268.39 311.873 268.286 309.578 266.956L309.011 266.124Z" fill="#8D9087"/>
<path d="M317.703 257.078L319.22 257.259L319.188 257.792C315.864 259.692 312.059 263.576 309.011 266.124C304.829 269.884 301.013 273.939 296.671 277.726C297.467 274.188 303.531 269.978 305.939 267.125L306.658 266.618C309.381 264.31 315.494 259.473 317.703 257.078Z" fill="#5F625C"/>
<path d="M134.967 311.284C133.638 308.237 132.22 307.025 130.443 304.319C129.342 302.641 129.647 300.381 131.822 299.679C136.176 298.273 139.769 301.703 143.322 303.595C143.745 303.819 145.354 302.382 146.286 302.015L145.801 302.672C144.964 303.73 145.349 304.409 145.626 305.618C144.391 306.474 143.891 306.241 143.576 307.708C146.242 307.352 150.627 302.792 152.231 303.076C153.16 303.906 152.273 306.378 152.606 306.829C154.89 309.911 155.009 309.744 153.807 313.878C152.701 312.399 152.462 312.41 152.293 310.59C148.541 303.442 147.406 309.043 148.631 311.918L149.043 312.908C148.456 315.225 147.702 315.544 147.118 317.473C144.154 322.204 142.002 323.82 137.441 319.086C137.608 314.053 134.837 312.34 135.105 316.732C132.89 319.825 132.607 316.015 132.42 314.045C132.234 313.35 132.452 313.586 131.976 313.278L131.736 312.59C132.881 312.163 133.848 311.779 134.967 311.284Z" fill="#9B9C93"/>
<path d="M134.967 311.284C133.638 308.237 132.22 307.025 130.443 304.319C129.342 302.641 129.647 300.381 131.822 299.679C136.176 298.273 139.769 301.703 143.322 303.595C143.745 303.819 145.354 302.382 146.286 302.015L145.801 302.672C144.964 303.73 145.349 304.409 145.626 305.618C144.391 306.474 143.891 306.241 143.576 307.708L141.964 309.063C141.158 309.744 136.432 312.647 135.513 311.33C135.561 310.87 135.427 310.5 135.258 310.068L135.182 310.046C134.9 310.424 135.048 310.408 134.967 311.284Z" fill="#8D9087"/>
<path d="M181.057 470.08C181.442 481.579 181.232 499.721 182.153 510.415C180.702 510.014 179.465 509.572 178.042 509.117C176.994 508.51 176.157 507.979 175.145 507.31C169.345 501.32 166.402 494.278 174.424 489.159C176.412 487.891 179.318 489.361 179.634 488.931C179.778 485.47 168.28 477.996 181.057 470.08Z" fill="#8D9087"/>
<path d="M278.445 438.991C281.408 443.282 283.495 442.192 287.022 449.193C286.792 450.439 286.366 451.681 286.436 452.955C281.094 463.42 274.447 461.822 266.541 454.699L267.835 452.795C268.56 452.192 268.619 452.23 269.059 451.489C270.601 449.749 277.026 440.791 277.938 438.947L278.445 438.991Z" fill="#8D9087"/>
<path d="M292.995 297.851C299.635 295.296 299.402 292.818 301.864 291.823C306.461 294.696 313.558 296.772 309.782 304.61C308.4 307.479 304.495 307.421 304.507 309.958C300.88 309.206 297.766 309.248 294.026 309.492C291.367 311.482 288.505 313.205 285.964 315.091L286.101 313.135C288.322 312.528 292.427 308.526 292.918 306.199C293.445 303.706 292.678 302.181 291.496 300.188C291.836 298.731 291.622 298.475 292.995 297.851Z" fill="#DAC3B9"/>
<path d="M156.63 204.983C156.621 212.848 155.658 231.113 155.15 239.306C152.455 237.188 151.495 237.127 149.998 233.945C147.785 231.261 146.107 228.984 144.143 226.162L145.7 225.636C147.49 223.375 147.035 222.078 148.989 220.171C152.102 226.29 153.488 217.556 153.713 215.253C154.04 213.296 154.62 210.597 154.523 208.734C155.329 206.92 155.479 206.561 156.63 204.983Z" fill="#E0C1B2"/>
<path d="M145.7 225.636C150.618 228.226 146.758 218.813 150.996 223.419C151.128 223.563 150.136 233.044 149.998 233.945C147.785 231.261 146.107 228.984 144.143 226.162L145.7 225.636Z" fill="#FDFDFD"/>
<path d="M237.602 160.429C238.132 157.108 238.752 152.726 243.337 153.586L243.98 153.647C244.424 154.357 244.848 155.032 245.271 155.757L245.994 155.86C246.545 158.671 247.249 160.794 247.981 163.516C248.059 164.519 248.127 165.523 248.186 166.528C247.567 169.717 247.714 170.85 251.04 171.043L251.598 171.513C252.849 172.52 251.124 173.128 250.335 173.632C246.507 171.623 243.858 169.917 240.395 167.326C238.47 165.675 235.808 162.855 234.362 160.8L234.898 160.444C235.215 160.875 235.719 161.127 236.254 161.124C236.789 161.121 237.29 160.863 237.602 160.429Z" fill="#DAC3B9"/>
<path d="M237.602 160.429C238.132 157.108 238.752 152.726 243.337 153.586C235.711 157.995 244.228 164.552 240.395 167.326C238.47 165.675 235.808 162.855 234.362 160.8L234.898 160.444C235.215 160.875 235.719 161.127 236.254 161.124C236.789 161.121 237.29 160.863 237.602 160.429Z" fill="#F8F5F3"/>
<path d="M146.286 302.015C152.423 297.464 140.439 296.492 143.162 290.667C145.068 286.588 151.839 290.153 154.677 292.036C154.675 292.736 154.681 293.436 154.694 294.136C153.517 302.302 153.762 300.991 145.626 305.618C145.349 304.409 144.964 303.731 145.801 302.673L146.286 302.015Z" fill="#8D9087"/>
<path d="M156.763 590.753C161.559 589.33 171.11 592.395 176.67 591.182C180.382 590.371 182.897 588.972 186.097 591.568C178.711 594.268 163.248 595.946 156.763 590.753Z" fill="#2E2520"/>
<path d="M291.496 300.188C292.678 302.181 293.445 303.706 292.918 306.199C292.427 308.526 288.322 312.528 286.101 313.135C286.096 311.33 286.085 309.589 286.159 307.783C287.405 299.473 284.587 301.81 291.496 300.188Z" fill="#FDFDFD"/>
<path d="M259.154 592.964C259.549 591.094 259.196 590.158 261.906 590.993C268.75 593.1 277.017 587.636 282.772 591.142C276.699 594.855 265.962 594.111 259.154 592.964Z" fill="#2E2520"/>
<path d="M175.054 177.471C182.93 176.644 176.756 169.281 188.489 173.121C186.723 174.422 177.698 179.837 176.119 179.406C175.774 178.756 175.419 178.111 175.054 177.471Z" fill="#BAAFA6"/>
<path d="M259.197 450.604C261.822 452.584 262.652 453.015 265.761 454.273L258.854 463.155C259.04 458.879 259.337 454.877 259.197 450.604Z" fill="#FDFDFD"/>
<path d="M154.694 294.136C154.936 299.601 155.029 310.43 154.768 315.777C154.411 314.655 154.505 314.712 153.807 313.878C155.009 309.744 154.89 309.911 152.606 306.829C152.273 306.378 153.16 303.906 152.231 303.076C150.627 302.792 146.242 307.352 143.576 307.708C143.891 306.241 144.391 306.474 145.626 305.618C153.762 300.991 153.517 302.302 154.694 294.136Z" fill="#484A46"/>
<path d="M288.118 322.547C288.234 323.239 288.166 323.3 288.623 323.728C289.176 323.66 289.114 322.698 289.173 322.308C290.895 330.171 292.176 329.15 285.622 334.185C286.323 330.279 287.155 326.397 288.118 322.547Z" fill="#DCB9A6"/>
<path d="M286.601 294.321C289.411 296.484 289.52 296.879 292.995 297.851C291.622 298.475 291.836 298.731 291.496 300.188C284.587 301.81 287.405 299.473 286.159 307.783C285.966 302.47 286.344 299.516 286.601 294.321Z" fill="#E0C1B2"/>
<path d="M220.434 378.72C220.46 382.351 221.116 386.726 220.832 389.959L218.833 392.574C218.378 388.148 219.448 383.932 219.107 379.061L220.434 378.72Z" fill="#E1D3CC"/>
<path d="M265.529 179.564C268.457 180.751 270.632 180.901 273.246 182.178C272.683 183.226 272.148 184.288 271.64 185.363C269.531 184.246 266.533 182.506 264.542 181.222L265.529 179.564Z" fill="#FDFDFD"/>
<path d="M267.835 452.795C268.203 452.076 268.185 451.528 269.059 451.489C268.619 452.23 268.56 452.192 267.835 452.795Z" fill="#5F625C"/>
<path d="M178.848 347.668L178.986 345.7C179.306 345.553 179.625 345.407 179.944 345.261C198.343 357.367 210.422 347.482 217.438 329.296C217.946 327.981 218.585 322.161 220.423 320.743L221.553 323.07C221.067 324.231 216.536 334.669 217.952 335.135C219.677 335.703 222.275 330.368 222.964 329.108C229.506 349.238 242.797 356.707 261.514 344.513C257.48 411.307 257.985 478.185 254.691 544.953C246.827 544.985 238.727 545.123 230.884 545.018C230.774 543.638 230.432 538.082 230.308 537.249C228.34 523.975 223.92 373.68 220.244 369.314C217.268 371.635 217.755 384.319 217.511 388.406L215.434 421.156C213.041 462.42 210.908 503.699 209.036 544.99C200.791 545.159 192.543 545.135 184.299 544.917C183.686 502.717 182.652 460.524 181.199 418.344C180.511 396.857 179.275 373.721 179.119 352.366C184.126 349.928 185.876 347.036 178.848 347.668Z" fill="#E1D3CC"/>
<path d="M241.085 170.266C242.615 170.947 248.522 174.508 250.456 175.566C258.688 180.094 266.955 184.56 275.254 188.963C272.388 197.768 269.219 214.99 267.074 224.597C265.293 232.574 260.695 251.679 260.172 258.724C259.708 264.973 260.772 285.198 261.244 292.099C262.236 306.592 261.926 326.215 263.758 340.054C256.996 346.861 251.358 349.05 241.924 348.64C235.833 347.161 229.677 341.971 227.456 336.085C221.346 320.058 216.706 299.362 215.578 282.379C215.4 279.694 225.759 255.015 227.368 250.764C233.749 233.572 240.031 216.343 246.213 199.078C243.746 197.049 241.267 195.036 238.775 193.038L246.398 189.972C244.764 183.367 242.993 176.797 241.085 170.266Z" fill="#DAC3B9"/>
<path d="M253.673 207.348C257.667 210.694 262.73 217.062 264.8 221.831C267.008 226.922 254.58 225.678 251.21 225.948C245.219 226.62 238.431 228.363 240.573 221.521C242.512 215.33 248.846 211.025 253.673 207.348Z" fill="#14100F"/>
<path d="M249.907 212.291C250.667 211.669 253.169 209.352 253.814 209.72C256.984 211.534 261.471 218.546 263.094 221.287C260.554 221.587 245.252 223.374 242.643 221.857C240.324 220.508 247.434 214.449 248.956 213.12C249.258 212.473 249.234 212.539 249.907 212.291Z" fill="#BF8D81"/>
<path d="M248.956 213.12C249.258 212.473 249.234 212.539 249.907 212.291C249.498 212.8 249.54 212.716 248.956 213.12Z" fill="#512C24"/>
<path d="M219.013 280.455C220.303 279.721 221.892 279.76 223.144 280.554C224.397 281.348 225.109 282.769 224.995 284.248C224.882 285.726 223.961 287.022 222.602 287.616C220.647 288.469 218.366 287.644 217.41 285.737C216.455 283.83 217.159 281.509 219.013 280.455Z" fill="#14100F"/>
<path d="M219.507 281.694C220.605 280.988 222.067 281.31 222.767 282.412C223.466 283.513 223.135 284.974 222.029 285.666C220.933 286.353 219.488 286.026 218.794 284.933C218.101 283.841 218.419 282.394 219.507 281.694Z" fill="#BF8D81"/>
<path d="M194.719 171.218C194.917 172.9 191.132 186.978 190.474 190.512L197.873 193.067L190.292 199.193C192.793 208.764 200.128 226.616 203.696 236.604C207.004 245.867 212.229 261.693 215.973 269.858C211.639 288.138 215.747 297.683 219.634 316.326C214.452 329.072 214.67 342.687 199.059 348.571C192.728 349.404 179.516 346.387 176.858 339.922C175.811 337.375 177.068 323.202 177.235 319.352C177.752 306.739 178.377 294.13 179.109 281.527C179.438 275.512 180.305 264.124 179.925 258.485C179.468 251.697 176.54 239.587 175.003 232.61C171.672 217.92 168.453 203.205 165.345 188.466C174.5 182.373 185.165 177.602 194.719 171.218ZM179.286 339.774C179.289 339.474 179.292 339.175 179.295 338.876C179.044 338.741 178.931 338.82 178.471 338.913C178.472 339.211 178.472 339.509 178.472 339.807C178.722 339.942 178.829 339.865 179.286 339.774Z" fill="#DAC3B9"/>
<path d="M178.471 338.913C178.931 338.82 179.044 338.741 179.295 338.876C179.292 339.175 179.289 339.474 179.286 339.774C178.829 339.865 178.722 339.942 178.472 339.807C178.472 339.509 178.472 339.211 178.471 338.913Z" fill="#DAC3B9" fill-opacity="0.94902"/>
<path d="M276.552 190.257C280.109 194.199 283.383 203.029 283.559 208.173C284.806 244.585 286.092 283.859 284.22 320.135C280.786 319.328 276.897 318.623 273.405 317.908C270.335 317.389 266.952 316.606 263.878 315.964C263.323 297.768 261.66 277.739 261.761 259.856C261.799 253.066 267.18 231.325 268.924 223.512C270.836 214.946 274 198.042 276.552 190.257Z" fill="#DAC3B9"/>
<path d="M163.322 191.002C165.884 193.457 176.942 250.312 178.289 257.848C178.676 260.012 177.826 275.639 177.629 279.351C176.882 291.527 176.309 303.714 175.911 315.907L168.522 317.412L156.253 320.517C155.675 298.614 156.294 275.217 156.511 253.26C156.666 237.551 155.143 203.33 163.322 191.002Z" fill="#DAC3B9"/>
<path d="M211.868 95.1072C232.159 93.0092 238.877 102.817 237.942 120.514C238.273 123.384 240.151 126.019 239.067 129.012C235.325 139.344 231.488 149.389 221.864 155.428C210.516 161.266 201.304 142.802 198.206 134.548C194.945 125.861 196.065 114.661 198.942 106.008C200.867 100.219 206.639 97.0542 211.868 95.1072Z" fill="#C09884"/>
<path d="M218.08 175.446C220.788 176.185 228.494 183.3 230.832 185.416C227.016 208.855 222.84 232.234 218.305 255.545L218.097 256.044L217.524 256.28C213.151 235.618 209.434 206.642 206.509 185.625C210.165 181.551 213.708 178.634 218.08 175.446Z" fill="#E1D3CC"/>
<path d="M218.705 229.059C219.226 228.631 219.944 228.534 220.559 228.809C221.174 229.084 221.581 229.684 221.608 230.358C221.635 231.031 221.278 231.662 220.687 231.985C219.884 232.425 218.878 232.182 218.365 231.424C217.851 230.666 217.999 229.642 218.705 229.059Z" fill="#14100F"/>
<path d="M219.817 186.593C220.245 186.2 220.853 186.07 221.404 186.252C221.956 186.435 222.366 186.901 222.475 187.472C222.585 188.042 222.377 188.627 221.932 189.001C221.265 189.562 220.272 189.486 219.697 188.831C219.122 188.177 219.175 187.182 219.817 186.593Z" fill="#14100F"/>
<path d="M201.612 164.92L201.997 165.386C205.097 183.502 207.194 202.831 210.075 221.27C211.363 229.706 212.737 238.128 214.199 246.535C214.866 250.268 217.883 261.43 215.956 264.454C214.361 262.482 212.912 257.42 212.025 254.803C205.903 236.441 198.5 218.413 192.254 199.839C195.966 196.999 197.857 195.602 201.057 192.068C198.236 191.327 195.422 190.56 192.615 189.765C193.301 184.41 195.846 174.95 197.18 169.39L201.612 164.92Z" fill="#DAC3B9"/>
<path d="M235.097 164.104C241.673 171.441 242.439 179.536 244.571 189.105L235.634 192.488C238.573 194.951 241.286 197.231 244.379 199.52C236.25 221.893 228.058 245.261 219.175 267.34L217.519 266.819C222.483 247.326 225.883 224.691 229.154 204.746C231.089 192.95 234.407 175.615 235.097 164.104Z" fill="#DAC3B9"/>
<path d="M210.211 557.943L211.696 558.412C214.429 561.752 214.401 564.852 214.8 569.066C206.363 575.034 198.47 577.385 190.646 585.29C184.773 591.223 171.039 590.104 162.89 589.79C161.737 589.427 161.049 588.95 160.022 588.341C159.049 586.091 158.88 586.6 159.141 584.499C162.859 582.153 168.967 585.17 173.66 584.748C177.152 585.038 193.139 578.879 193.656 575.381C195.251 564.595 202.042 565.748 210.211 557.943Z" fill="#512C24"/>
<path d="M228.694 557.905C230.872 561.273 240.414 565.825 243.703 568.981C245.915 571.102 245.322 570.358 245.484 574.03C250.316 582.24 267.604 587.585 276.38 584.109C277.284 583.751 278.255 583.472 279.184 583.166L280.083 583.71C281.022 585.45 281.155 585.685 280.885 587.627L279.676 588.317C263.527 592.958 251.147 589.192 239.235 578.46C235.994 575.54 230.089 572.002 226.252 568.905C225.613 563.299 225.728 562.703 228.694 557.905Z" fill="#512C24"/>
<path d="M170.256 333.855C171.557 333.817 175.381 341.406 176.901 343.236C177.02 346.014 177.842 359.08 176.918 361.049L175.858 360.991C173.533 358.105 173.817 353.379 171.535 349.853L170.651 349.765C166.697 354.457 167.405 366.307 170.819 371.411C173.206 373.085 176.277 374.371 175.731 377.483L174.362 377.713C158.397 372.078 160.158 348.525 162.687 335.404L170.256 333.855Z" fill="#BF8D81"/>
<path d="M268.788 334.206L276.285 335.759C277.731 346.195 278.871 349.949 276.514 360.836C275.109 367.329 270.314 379.053 262.14 378.32L261.717 377.464C263.046 374.221 267.885 372.18 269.022 370.33C270.862 367.335 271.921 351.505 268.144 349.93C264.17 353.432 266.08 359.731 262.358 360.535C261.703 359.363 261.256 359.305 262.174 358.268C262.533 353.38 263.067 347.901 263.062 343.047C264.987 340.227 267.178 337.185 268.788 334.206Z" fill="#BF8D81"/>
<path d="M262.358 360.535C261.703 359.363 261.256 359.305 262.174 358.268L262.358 360.535Z" fill="#512C24"/>
<path d="M264.066 317.85C270.923 318.944 279.587 320.729 286.396 322.178C285.762 325.998 285.023 329.8 284.179 333.58C282.56 335.731 267.723 332.453 264.533 331.929C264.401 327.222 264.173 322.579 264.066 317.85Z" fill="#9B9C93"/>
<path d="M174.522 317.628C176.774 317.867 174.964 329.572 174.804 331.727C168.55 332.801 162.917 333.894 156.613 334.699C155.291 329.733 154.602 328.013 153.773 322.84C160.618 320.809 167.536 319.106 174.522 317.628Z" fill="#9B9C93"/>
<path d="M191.106 546.726C196.418 546.81 201.731 546.827 207.044 546.775C207.794 551.994 206.864 550.385 209.664 555.062L209.89 555.448C207.627 557.807 206.425 558.856 203.918 561.025C202.037 562.521 198.956 564.888 196.766 565.792C195.814 566.186 196.191 563.124 196.155 562.751C195.919 560.279 192.608 558.001 190.829 556.363C190.939 553.088 191.061 550.011 191.106 546.726Z" fill="#BF8D81"/>
<path d="M234.495 546.863C239.561 546.906 244.627 546.889 249.693 546.813L249.875 556.291C245.364 559.625 243.969 559.62 243.416 565.356C246.697 570.278 230.716 556.341 230.533 556.177C232.132 552.796 233.069 550.173 234.495 546.863Z" fill="#C09884"/>
<path d="M177.425 568.387C182.666 570.393 186.246 572.555 192.856 574.958C186.868 579.035 182.82 581.239 175.566 582.909C168.971 583.655 168.154 583.384 161.856 581.447L161.371 581.301C167.072 577.842 173.039 573.462 177.425 568.387Z" fill="#512C24"/>
<path d="M209.892 155.187C217.671 160.416 218.382 159.213 225.894 154.871C226.58 164.202 228.916 162.838 223.122 169.612C216.354 178.708 212.392 169.359 207.406 163.056L207.674 162.679C210.395 158.776 209.697 160.911 209.892 155.187Z" fill="#C09884"/>
<path d="M262.569 569.343C265.489 569.78 268.261 574.947 270.464 576.184C273.594 577.94 275.856 579.454 278.74 581.617C271.473 583.619 271.588 583.846 264.142 582.915C258.594 582.293 251.806 578.215 247.583 574.607C252.465 573.086 257.942 571.53 262.569 569.343Z" fill="#512C24"/>
<path d="M253.395 557.368C258.182 561.815 259.118 562.272 262.99 567.644C259.72 568.958 254.679 570.649 251.233 571.772C250.192 572.068 247.673 573.635 247.144 573.234C247.093 572.991 247.103 572.669 247.222 572.463C248.746 569.825 244.201 566.044 245.779 562.458C246.885 559.942 251.013 558.196 253.395 557.368Z" fill="#512C24"/>
<path d="M186.407 557.346C198.422 558.465 193.809 573.101 188.471 571.94C185.251 570.334 182.378 568.269 178.9 566.834C176.982 566.043 185.433 558.117 186.407 557.346Z" fill="#512C24"/>
<path d="M203.796 163.241C206.99 164.648 210.657 170.693 216.172 174.748C214.569 176.144 213.243 177.244 211.57 178.553C209.814 180.248 208.075 181.959 206.353 183.687C205.408 177.696 203.485 169.006 203.796 163.241ZM209.145 173.798C208.938 174.471 209.171 175.201 209.729 175.63C210.288 176.058 211.054 176.094 211.65 175.72C212.246 175.346 212.547 174.64 212.403 173.951C212.26 173.262 211.704 172.735 211.008 172.629C209.101 171.112 208.133 169.242 206.485 169.354C206.539 171.899 208.206 171.315 209.145 173.798Z" fill="#F8F5F3"/>
<path d="M209.145 173.798C208.206 171.315 206.539 171.899 206.485 169.354C208.133 169.242 209.101 171.112 211.008 172.629C210.183 172.503 209.39 173.001 209.145 173.798Z" fill="#F8F5F3" fill-opacity="0.713726"/>
<path d="M211.008 172.629C211.704 172.735 212.26 173.262 212.403 173.951C212.547 174.64 212.246 175.346 211.65 175.72C211.054 176.094 210.288 176.058 209.729 175.63C209.171 175.201 208.938 174.471 209.145 173.798C209.39 173.001 210.183 172.503 211.008 172.629Z" fill="#F8F5F3" fill-opacity="0.454902"/>
<path d="M268.385 350.36C268.603 354.221 270.006 363.461 267.228 365.932C267.233 365.624 268.457 358.217 266.391 360.778C265.67 361.672 263.168 365.46 263.717 366.458C264.628 366.431 265.766 366.175 266.752 366.089C262.235 371.489 260.828 369.679 261.839 363.428C261.987 362.517 266.948 361.358 266.376 357.336C266.272 356.6 267.987 351.545 268.385 350.36Z" fill="#E1D3CC"/>
<path d="M221.553 323.07C221.722 325.345 222.301 326.945 222.964 329.108C222.275 330.368 219.677 335.703 217.952 335.135C216.536 334.669 221.067 324.231 221.553 323.07Z" fill="#E1D3CC" fill-opacity="0.843137"/>
<path d="M266.752 366.089C265.766 366.175 264.628 366.431 263.717 366.458C263.168 365.46 265.67 361.672 266.391 360.778C268.457 358.217 267.233 365.624 267.228 365.932L266.752 366.089Z" fill="#F8F5F3" fill-opacity="0.027451"/>
<path d="M267.802 367.521C269.716 369.194 263.554 372.888 262.386 373.787C260.129 371.669 266.019 368.703 267.802 367.521Z" fill="#DCB9A6"/>
<path d="M178.848 347.668C185.876 347.036 184.126 349.928 179.119 352.366C179.056 350.799 178.966 349.232 178.848 347.668Z" fill="#E1D3CC" fill-opacity="0.215686"/>
<path d="M171.696 369.7C171.405 369.231 170.77 368.437 171.412 367.984C172.622 368.09 177.755 372.357 177.968 374.31L177.77 374.606C177.184 374.515 174.893 372.518 174.212 371.984C172.814 371.332 172.672 370.86 171.696 369.7Z" fill="#E0C1B2"/>
<path d="M171.696 369.7C172.76 370.526 173.386 370.923 174.212 371.984C172.814 371.332 172.672 370.86 171.696 369.7Z" fill="#675855"/>
<path d="M227.837 158.775C230.492 160.402 231.3 159.826 230.472 162.855C227.563 162.919 227.37 161.605 227.837 158.775Z" fill="#C09884"/>
<path d="M206.284 160.426C206.634 160.19 207.229 159.493 207.702 159.751C207.884 160.298 206.843 161.809 206.581 162.29C204.956 161.696 203.823 160.985 206.284 160.426Z" fill="#BF8D81"/>
<path d="M217.518 266.818L219.174 267.339C218.846 268.266 218.281 270.247 217.57 270.779C216.832 270.608 217.442 267.399 217.518 266.818Z" fill="#BAAFA6"/>
<path d="M265.302 333.954C265.454 333.876 265.996 333.511 266.276 333.611C266.336 333.632 266.375 333.675 266.386 333.74C266.439 334.062 265.891 334.543 265.775 334.674C265.58 335.053 265.37 335.617 265.039 335.823L264.98 335.802C264.824 335.346 265.171 334.406 265.302 333.954Z" fill="#BAAFA6"/>
<path d="M173.858 333.925C174.398 333.809 174.403 333.707 174.687 333.92C174.691 334.42 174.613 334.885 174.531 335.396C173.552 335.307 173.619 335.909 173.858 333.925Z" fill="#BAAFA6"/>
<path d="M259.896 431.35C260.499 431.985 260.422 431.795 261.367 432.132C264.685 431.697 265.36 430.531 267.768 429.043C268.268 428.733 270.521 430.195 272.845 429.009C273.996 424.515 265.519 417.401 272.054 411.477C280.161 404.129 286.817 416.987 290.781 417.255C293.333 412.037 286.109 401.885 300.846 402.167C303.111 404.351 303.137 405.372 305.875 407.236L306.905 405.941C307.669 405.448 311.218 401.999 311.803 402.954L311.604 403.397L311.485 403.207L311.433 403.72C309.913 405.413 307.314 407.161 305.392 409.096C306.289 410.174 306.209 410.201 307.505 410.746C311.478 416.653 309.708 420.726 304.298 424.796C303.24 424.482 302.175 424.197 301.102 423.941C299.079 422.772 297.99 422.224 295.828 421.285C294.165 424.576 294.767 424.921 298.452 425.79C300.134 426.142 301.269 426.384 302.923 426.903L303.274 427.177C314.556 435.865 300.149 434.564 297.29 438.903C295.46 435.985 293.392 438.089 289.823 437.358C286.472 436.671 284.589 436.144 281.46 434.778C280.497 436.644 279.76 437.386 278.445 438.991L277.938 438.947C275.619 440.568 267.532 451.521 265.76 454.273C262.651 453.015 261.821 452.583 259.196 450.603C259.849 447.097 259.751 435.798 259.896 431.35Z" fill="#8D9087"/>
<path d="M295.212 419.751C295.214 419.752 296.322 420.323 296.33 420.573C296.339 420.868 295.962 421.095 295.828 421.285C294.165 424.576 294.767 424.921 298.452 425.79C300.134 426.142 301.269 426.384 302.923 426.903L303.274 427.177C314.556 435.865 300.149 434.564 297.29 438.903C295.46 435.985 293.392 438.089 289.823 437.358C286.472 436.671 284.589 436.144 281.46 434.778C283.445 433.312 291.556 423.081 295.212 419.751Z" fill="#9B9C93"/>
<path d="M295.212 419.751C297.049 418.138 304.36 410.881 305.392 409.096C306.289 410.174 306.209 410.201 307.505 410.746C311.478 416.653 309.708 420.726 304.298 424.796C303.24 424.482 302.175 424.197 301.102 423.941C299.079 422.772 297.99 422.224 295.828 421.285C295.962 421.095 296.339 420.868 296.33 420.573C296.322 420.323 295.214 419.752 295.212 419.751Z" fill="#8D9087"/>
<path d="M306.905 405.941C307.669 405.448 311.218 401.999 311.803 402.954L311.604 403.397L311.485 403.207L311.433 403.72C309.913 405.413 307.314 407.161 305.392 409.096C304.36 410.881 297.049 418.138 295.212 419.751C291.556 423.081 283.445 433.312 281.46 434.778C281.276 430.164 302.325 412.376 305.875 407.236L306.905 405.941Z" fill="#484A46"/>
<path d="M274.615 429.167C279.219 435.106 282.728 432.558 277.351 438.418C274.623 431.72 272.309 433.174 270.959 431.022C271.875 430.15 272.06 431.98 274.615 429.167Z" fill="#FDFDFD"/>
<path d="M119.411 218.039C115.742 215.254 112.033 212.195 114.889 206.555C116.648 203.081 121.512 204.375 124.4 204.66C124.598 204.68 124.72 203.902 124.709 203.788C124.967 200.931 124.383 197.151 126.737 195.021C130.267 191.358 135.838 192.702 137.973 197.126C138.706 198.644 138.908 200.588 139.807 201.911C140.109 202.357 142.008 201.241 142.306 201.229C148.109 200.039 150.84 204.512 152.259 209.382C152.348 210.088 152.459 210.757 152.571 211.46C152.508 212.061 152.504 214.204 151.984 214.49C151.836 214.41 151.905 214.472 151.793 214.281L151.812 214.241C151.557 213.886 151.357 213.55 151.008 213.323C150.232 213.569 150.323 218.113 148.988 220.171C147.034 222.078 147.489 223.375 145.699 225.636L144.142 226.162C146.106 228.984 147.784 231.261 149.997 233.945C151.494 237.127 152.454 237.188 155.149 239.306L155.021 240.467C153.348 239.251 152.846 239.022 151.419 237.444L150.67 236.794C149.474 235.737 148.965 235.562 147.504 235.081C147.703 233.75 144.607 230.52 143.688 229.378C143.316 228.723 143.252 228.565 142.957 227.847C140.056 229.568 138.371 230.387 135.278 231.654C124.441 232.361 121.293 227.606 119.411 218.039ZM134.266 216.453L133.721 215.003C132.931 212.908 131.969 212.33 130.123 211.389C130.543 216.485 129.2 216.267 134.266 216.453Z" fill="#DAC3B9"/>
<path d="M142.957 227.847C141.995 225.534 136.212 218.857 135.013 215.598C134.17 213.306 134.603 210.185 136.069 209.915C137.022 210.267 136.574 214.577 137.191 216.228C138.458 219.619 141.718 223.509 144.142 226.162C146.106 228.984 147.784 231.261 149.997 233.945C151.494 237.127 152.454 237.188 155.149 239.306L155.021 240.467C153.348 239.251 152.846 239.022 151.419 237.444L150.67 236.794C149.474 235.737 148.965 235.562 147.504 235.081C147.703 233.75 144.607 230.52 143.688 229.378C143.316 228.723 143.252 228.565 142.957 227.847Z" fill="#DCB9A6"/>
<path d="M130.123 211.389C131.969 212.33 132.931 212.908 133.721 215.003L134.266 216.453C129.2 216.267 130.543 216.485 130.123 211.389Z" fill="#FDFDFD" fill-opacity="0.764706"/>
<path d="M142.854 419.691C140.761 417.475 139.24 414.784 137.835 412.086C140.045 414.55 141.788 416.063 143.396 418.932C144.472 420.016 144.986 420.606 145.911 421.796C147.685 419.763 147.99 419.993 148.556 417.509C148.997 417.921 149.618 418.079 150.203 417.928C150.788 417.777 151.254 417.337 151.439 416.762C153.861 417.064 156.867 418.942 155.963 421.049C154.58 424.273 154.3 427.405 153.404 430.581L156.615 434.257L156.798 433.874C157.933 431.458 159.804 422.739 163.856 424.94C170.859 428.745 165.218 437.404 163.184 441.914C164.766 443.269 167.234 445.268 168.644 446.67C169.27 447.852 174.126 452.655 175.47 454.181L175.303 454.831C170.879 461.767 167.741 465.992 158.295 464.111C156.484 463.751 153.965 461.517 153.29 459.732C150.894 453.396 154.236 452.137 155.733 448.407C153.951 447.559 147.797 449.688 147.98 444.62C148.269 436.632 151.822 439.948 151.654 430.69C147.039 433.812 146.806 434.81 141.364 433.598C126.093 430.196 139.384 424.688 137.639 423.363L137.282 423.096C137.278 423.082 137.028 422.53 137.137 422.339C137.287 422.075 137.982 421.933 138.177 421.88C139.904 421.413 141.325 420.595 142.854 419.691ZM164.045 444.928L162.622 442.781C161.658 443.553 159.013 445.187 159.03 446.456C160.597 447.948 162.955 446.099 164.045 444.928Z" fill="#8D9087"/>
<path d="M162.622 442.781L164.045 444.928C162.955 446.099 160.597 447.948 159.03 446.456C159.013 445.187 161.658 443.553 162.622 442.781Z" fill="#FDFDFD" fill-opacity="0.152941"/>
<path d="M142.854 419.691C143.534 420.549 144.202 421.416 144.86 422.291C146.684 425.03 149.162 428.574 151.654 430.69C147.039 433.812 146.806 434.81 141.364 433.598C126.093 430.196 139.384 424.688 137.639 423.363L137.282 423.096C137.278 423.082 137.028 422.53 137.137 422.339C137.287 422.075 137.982 421.933 138.177 421.88C139.904 421.413 141.325 420.595 142.854 419.691Z" fill="#8D9087"/>
<path d="M142.854 419.691C143.534 420.549 144.202 421.416 144.86 422.291C139.678 424.728 141.888 423.678 137.282 423.096C137.278 423.082 137.028 422.53 137.137 422.339C137.287 422.075 137.982 421.933 138.177 421.88C139.904 421.413 141.325 420.595 142.854 419.691Z" fill="#FDFDFD"/>
<path d="M156.615 434.257L156.798 433.874C157.933 431.458 159.804 422.739 163.856 424.94C170.859 428.745 165.218 437.404 163.184 441.914L162.845 441.443C161.116 439.022 158.205 436.731 156.615 434.257Z" fill="#8D9087"/>
<path d="M151.439 416.762C153.861 417.064 156.867 418.942 155.963 421.049C154.58 424.273 154.3 427.405 153.404 430.581C152.138 429.629 147.035 423.347 145.911 421.796C147.685 419.763 147.99 419.993 148.556 417.509C148.997 417.921 149.618 418.079 150.203 417.928C150.788 417.777 151.254 417.337 151.439 416.762Z" fill="#8D9087"/>
<path d="M142.854 419.691C140.761 417.475 139.24 414.784 137.835 412.086C140.045 414.55 141.788 416.063 143.396 418.932C144.472 420.016 144.986 420.606 145.911 421.796C147.035 423.347 152.138 429.629 153.404 430.581L156.615 434.257C158.205 436.731 161.116 439.022 162.845 441.443L163.184 441.914C164.766 443.269 167.234 445.268 168.644 446.67C169.27 447.852 174.126 452.655 175.47 454.181L175.303 454.831C171.655 452.321 169.286 448.961 166.103 446.419C165.708 446.103 164.486 448.455 164.045 444.928L162.622 442.781C158.554 439.221 155.645 434.623 151.654 430.69C149.162 428.574 146.684 425.03 144.86 422.291C144.202 421.416 143.534 420.549 142.854 419.691Z" fill="#5F625C"/>
<path d="M273.207 159.653C278.753 156.01 277.122 165.573 281.658 159.382C283.41 162.373 283.016 161.727 281.389 164.735L281.962 165.821L281.462 167.101C282.423 168 282.435 168.28 283.86 167.898C288.108 166.761 293.98 169.715 297.805 168.174C299.081 174.669 297.502 174.026 290.692 176.594C288.107 177.569 285.44 178.311 282.81 179.243C282.837 180.219 282.826 185.288 283.684 185.75C292.907 190.719 293.893 198.276 284.561 203.46C281.702 193.618 281.038 191.22 272.657 185.666C272.318 185.565 271.979 185.464 271.64 185.363C272.148 184.288 272.683 183.226 273.246 182.178C270.632 180.901 268.457 180.751 265.529 179.564C264.983 178.795 264.548 178.496 263.898 177.82L263.637 177.544C261.235 170.254 258.97 167.374 264.218 160.742C267.723 159.302 268.981 158.653 273.207 159.653ZM277.271 180.841C275.852 181.372 274.971 181.755 273.601 182.409C273.438 183.33 273.323 184.197 273.197 185.12C275.37 185.672 275.955 185.643 278.166 185.749C283.406 185.492 282.721 186.069 282.18 180.814C281.931 178.395 278.602 180.452 277.271 180.841Z" fill="#8D9087"/>
<path d="M277.271 180.841C278.602 180.452 281.931 178.395 282.18 180.814C282.721 186.069 283.407 185.492 278.167 185.749C277.89 183.651 277.906 182.915 277.271 180.841Z" fill="#FDFDFD" fill-opacity="0.956863"/>
<path d="M273.601 182.409C274.971 181.755 275.852 181.372 277.271 180.841C277.906 182.915 277.889 183.651 278.166 185.749C275.955 185.643 275.37 185.672 273.197 185.12C273.323 184.197 273.438 183.33 273.601 182.409Z" fill="#FDFDFD" fill-opacity="0.619608"/>
<path d="M273.601 182.409C276.265 178.577 278.38 170.91 281.462 167.101C282.423 168 282.435 168.28 283.86 167.898C288.108 166.761 293.98 169.715 297.805 168.174C299.081 174.669 297.502 174.026 290.692 176.594C288.107 177.569 285.44 178.311 282.81 179.243C282.837 180.219 282.826 185.288 283.684 185.75C292.907 190.719 293.893 198.276 284.561 203.46C281.702 193.618 281.038 191.22 272.657 185.666L273.197 185.12C275.37 185.672 275.955 185.643 278.166 185.749C283.406 185.492 282.721 186.069 282.18 180.814C281.931 178.395 278.602 180.452 277.271 180.841C275.852 181.372 274.971 181.755 273.601 182.409Z" fill="#8D9087"/>
<path d="M281.389 164.735L281.962 165.821L281.462 167.101C278.38 170.91 276.265 178.577 273.601 182.409C273.438 183.33 273.323 184.197 273.197 185.12L272.657 185.666C272.318 185.565 271.979 185.464 271.64 185.363C272.148 184.288 272.683 183.226 273.246 182.178C273.2 179.364 278.558 169.665 280.152 166.485L280.405 165.972L281.389 164.735Z" fill="#484A46"/>
<path d="M273.207 159.653C278.753 156.01 277.122 165.573 281.658 159.382C283.41 162.373 283.016 161.727 281.389 164.735L280.405 165.972C277.548 162.593 277.074 162.021 273.207 159.653Z" fill="#FDFDFD"/>
<path d="M266.358 477.564C269.38 472.498 263.619 464.783 269.82 460.941C272.224 459.452 272.917 463.111 273.345 464.604C272.845 466.63 272.761 467.037 272.98 469.125C272.566 472.109 271.892 482.917 274.772 473.011C274.856 473.452 274.986 474.398 275.178 474.751C275.056 474.763 285.819 464.04 286.598 463.188C286.794 463.966 286.984 464.588 287.221 465.349L287.992 466.316C288.476 466.857 288.96 467.348 289.466 467.871C287.096 467.685 286.723 467.484 285.061 469.395C285.516 474.291 290.232 466.543 293.483 474.058C293.646 475.701 293.727 477.189 293.804 478.83L293.595 479.159C292.024 481.671 292.148 481.56 289.496 483.203C288.547 484.162 287.914 484.859 287.042 485.89C285.672 487.858 285.633 487.622 283.733 488.975C279.024 488.878 273.906 489.27 269.433 487.609C267.812 487.007 267.769 488.039 266.382 488.793C265.633 490.492 265.135 491.076 265.079 492.948L264.655 494.378L264.424 494.276C262.136 492.424 259.552 497.869 257.831 499.894C257.877 494.25 257.685 483.753 258.473 478.408C258.319 475.649 258.557 467.065 258.693 464.007C259.851 469.396 259.482 467.272 264.393 470.686C265.288 473.385 265.726 474.665 266.358 477.564ZM259.544 487.44C259.409 488.434 259.391 490.632 260.292 491.278C261.102 490.804 260.918 489.566 261.498 488.341L261.68 487.23C264.635 483.567 265.767 485.113 263.121 480.628C261.472 480.095 261.051 479.051 259.852 477.803C259.823 481.624 259.944 483.648 259.544 487.44Z" fill="#E0C1B2"/>
<path d="M259.852 477.803C261.051 479.051 261.472 480.095 263.121 480.628C265.767 485.113 264.635 483.567 261.68 487.23L259.544 487.44C259.944 483.648 259.823 481.624 259.852 477.803Z" fill="#F8F5F3" fill-opacity="0.305882"/>
<path d="M259.544 487.44L261.68 487.23L261.498 488.341C260.918 489.566 261.102 490.804 260.292 491.278C259.391 490.632 259.409 488.434 259.544 487.44Z" fill="#F8F5F3" fill-opacity="0.415686"/>
<path d="M269.038 484.245C270.403 483.945 271.843 482.572 272.838 481.594C278.922 482.659 282.397 480.196 287.042 485.89C285.672 487.858 285.633 487.622 283.733 488.975C279.024 488.878 273.906 489.27 269.433 487.609C267.812 487.007 267.769 488.039 266.382 488.793C265.132 487.338 267.851 485.192 269.038 484.245Z" fill="#DAC3B9"/>
<path d="M258.473 478.408C258.319 475.649 258.557 467.065 258.693 464.007C259.851 469.396 259.482 467.272 264.393 470.686C265.288 473.385 265.726 474.665 266.358 477.564L266.36 477.973C266.382 479.694 267.636 479.397 265.775 481.959C265.569 482.01 264.294 480.919 263.121 480.628C261.472 480.095 261.051 479.051 259.852 477.803C259.823 481.624 259.944 483.648 259.544 487.44C258.023 485.002 258.811 482.085 258.473 478.408Z" fill="#DAC3B9"/>
<path d="M287.221 465.349L287.992 466.316C288.476 466.857 288.96 467.348 289.466 467.871C287.096 467.685 286.723 467.484 285.061 469.395C285.516 474.291 290.232 466.543 293.483 474.058C293.646 475.701 293.727 477.189 293.804 478.83C287.719 471.101 283.942 474.962 275.614 478.552C279.313 474.356 283.48 469.312 287.221 465.349Z" fill="#FDFDFD"/>
<path d="M272.838 481.594C278.875 478.965 284.195 479.281 289.496 483.203C288.547 484.162 287.914 484.859 287.042 485.89C282.397 480.196 278.922 482.659 272.838 481.594Z" fill="#F8F5F3"/>
<path d="M270.574 124.368C268.407 122.335 264.436 119.301 266.121 116.271C267.939 115.737 269.051 115.519 270.923 115.205L274.351 110.226C275.599 111.311 276.68 112.688 277.881 113.856C279.921 115.842 281.005 114.982 283.489 115.578C284.87 117.476 285.703 123.566 286.334 126.318C279.666 131.292 281.436 127.203 284.637 134.084C278.193 127.964 279.483 125.918 271.982 132.065C273.012 139.002 273.072 133.065 279.747 137.003C280.012 138.388 280.008 138.591 279.938 139.97C279.768 140.967 279.449 141.829 279.14 142.79C278.441 142.983 278.536 142.937 277.923 143.309C277.271 146.915 277.467 146.841 275.884 150.054C278.714 157.71 266.777 153.617 263.679 152.064C262.057 149.952 262.964 149.216 263.883 146.608C263.888 146.279 263.928 145.868 263.825 145.561C265.158 143.374 264.58 138.06 265.286 133.956L265.613 132.889C265.877 132.533 266.141 132.177 266.405 131.821C267.941 129.38 269.22 126.911 270.574 124.368Z" fill="#E0C1B2"/>
<path d="M279.938 139.97C276.866 138.154 276.035 136.525 272.546 139.078C271.513 139.833 269.033 142.415 267.736 142.173L267.683 142.118C262.083 142.856 270.255 128.515 270.665 126.883C271.51 127.94 271.516 127.826 272.815 128.287C272.565 129.692 272.175 130.493 271.982 132.065C273.012 139.002 273.072 133.065 279.747 137.003C280.012 138.388 280.008 138.591 279.938 139.97Z" fill="#E1D3CC"/>
<path d="M270.665 126.883C271.119 123.211 270.727 122.348 273.674 119.861C275.718 124.1 274.494 122.984 277.83 126.177C276.022 126.88 274.581 127.457 272.815 128.287C271.516 127.826 271.51 127.94 270.665 126.883Z" fill="#BF8D81"/>
<path d="M269.591 145.705C272.421 144.874 275.097 144.225 277.923 143.309C277.271 146.915 277.467 146.841 275.884 150.054C274.517 148.928 274.075 148.3 272.403 147.689C271.358 147.001 270.564 146.498 269.591 145.705Z" fill="#FDFDFD"/>
<path d="M273.674 119.861C277.811 120.213 279.203 122.388 277.83 126.177C274.494 122.984 275.718 124.1 273.674 119.861Z" fill="#C09884"/>
<path d="M269.591 145.705C270.564 146.498 271.358 147.001 272.403 147.689C271.124 147.638 267.766 147.813 266.882 147.081C266.164 146.486 269.591 145.705 269.591 145.705Z" fill="#F8F5F3"/>
<path d="M293.56 148.045C296.755 146.593 297.386 144.079 299.629 141.618C300.158 141.962 300.625 142.303 301.116 142.689C301.308 142.84 301.792 143.162 302.053 143.124C302.306 143.088 302.561 142.444 302.574 142.422C304.54 145.261 309.438 152.816 300.132 152.44C299.36 152.409 295.567 149.496 294.112 148.75C296.266 155.97 298.442 157.683 296.375 164.527C296.871 165.735 297.348 166.951 297.805 168.174C293.98 169.715 288.108 166.761 283.86 167.898C282.435 168.28 282.423 168 281.462 167.101L281.962 165.821L281.389 164.735C283.016 161.727 283.41 162.373 281.658 159.382C276.151 155.386 279.872 145.613 287.007 146.918C291.062 147.66 290.439 150.761 293.56 148.045Z" fill="#8D9087"/>
<path d="M281.962 165.821C287.379 158.183 285.632 170.548 296.375 164.527C296.871 165.735 297.348 166.951 297.805 168.174C293.98 169.715 288.108 166.761 283.86 167.898C282.435 168.28 282.423 168 281.462 167.101L281.962 165.821Z" fill="#FDFDFD"/>
<path d="M291.896 149.843C292.485 152.337 285.684 160.058 283.987 162.588C283.202 160.119 290.083 151.987 291.896 149.843Z" fill="#5F625C"/>
<path d="M145.117 146.213C144.997 146.03 144.877 145.848 144.758 145.665C140.66 143.593 135.245 137.935 139.695 133.566C140.742 132.539 142.942 132.707 144.179 133.014C144.975 132.769 147.619 135.211 148.007 134.61C148.898 133.225 152.194 127.935 154.235 128.186C160.49 128.955 151.701 144.858 155.733 146.064C156.732 145.747 160.139 140.799 162.286 142.764C166.207 146.352 160.285 149.795 158.699 151.076C158.034 151.701 158.256 152.269 157.862 153.053C157.251 153.419 156.668 152.665 156.222 152.323L155.811 152.449C156.292 153.754 157.021 154.615 155.494 154.615C153.03 151.91 153.196 152.376 150.114 154.484L149.655 154.477C147.375 153.005 145.394 152.344 144.913 149.56C145.036 148.341 145.158 147.453 145.117 146.213Z" fill="#9B9C93"/>
<path d="M153.308 148.151C153.55 149.941 154.705 151.085 155.811 152.449C156.292 153.754 157.021 154.615 155.494 154.615C153.03 151.91 153.196 152.376 150.114 154.484L149.655 154.477C147.375 153.005 145.394 152.344 144.913 149.56C148.207 148.711 151.567 148.723 153.308 148.151Z" fill="#9B9C93"/>
<path d="M145.117 146.213C146.772 146.319 147.987 145.751 149.6 145.164C150.214 144.935 150.831 144.71 151.449 144.491L153.308 148.151C151.567 148.723 148.207 148.711 144.913 149.56C145.036 148.341 145.158 147.453 145.117 146.213Z" fill="#FDFDFD"/>
<path d="M151.449 144.491C151.291 144.163 148.649 139.523 149.161 139.279C151.747 138.049 151.06 141.561 150.932 141.193C152.303 145.132 155.284 148.305 156.222 152.323L155.811 152.449C154.705 151.085 153.55 149.941 153.308 148.151L151.449 144.491Z" fill="#777873"/>
<path d="M294.993 129.861C303.943 116.705 320.484 126.634 312.589 137.764C310.134 141.225 306.462 141.381 302.574 142.422C302.561 142.444 302.306 143.088 302.053 143.124C301.792 143.162 301.308 142.84 301.116 142.689C300.625 142.303 300.158 141.962 299.629 141.618C297.386 144.079 296.755 146.593 293.56 148.045L293.717 147.418C289.857 143.339 291.312 146.542 288.513 141.663C290.693 138.596 290.801 138.639 294.38 138.655L294.66 139.063C295.642 139.57 296.662 140.028 297.666 140.494C297.628 138.315 298.342 137.535 296.647 136.29C294.892 133.705 295.279 133.122 294.993 129.861Z" fill="#9B9C93"/>
<path d="M288.513 141.663C290.693 138.596 290.801 138.639 294.38 138.655L294.66 139.063C295.642 139.57 296.662 140.028 297.666 140.494L299.185 140.979C296.886 143.225 295.711 145.022 293.717 147.418C289.857 143.339 291.312 146.542 288.513 141.663Z" fill="#8D9087"/>
<path d="M302.229 136.587L303.257 137.073C302.047 139.427 301.211 139.589 299.63 141.618C297.387 144.079 296.756 146.593 293.561 148.045L293.718 147.418C295.712 145.022 296.887 143.225 299.186 140.979C300.219 139.523 301.23 138.067 302.229 136.587Z" fill="#5F625C"/>
<path d="M302.229 136.587L302.631 136.048C303.006 135.525 303.92 134.39 304.625 135.047C304.901 135.888 303.747 136.604 303.257 137.073L302.229 136.587Z" fill="#8D9087"/>
<path d="M302.766 400.158C303.015 396.807 302.384 393.464 305.371 391.101C313.784 384.485 326.596 395.211 320.344 404.334C319.923 404.948 318.941 408.637 319.058 409.028C320.752 414.675 313.653 414.254 311.017 411.279C310.642 410.855 309.11 408.722 308.362 408.557C307.674 408.785 307.634 410.179 307.505 410.746C306.209 410.201 306.289 410.174 305.392 409.096C307.314 407.161 309.913 405.413 311.433 403.72L311.485 403.207L311.604 403.397L311.803 402.954C311.218 401.999 307.669 405.448 306.905 405.941C305.497 403.093 304.633 402.623 302.766 400.158Z" fill="#9B9C93"/>
<path d="M128.174 478.089C128.659 477.203 132.046 466.843 135.364 474.327C135.782 475.269 132.848 480.096 132.05 481.91L133.095 482.824L133.903 482.129C135.498 480.737 137.018 476.792 140.046 477.234C144.548 477.891 142.544 483.604 142.353 485.648C142.367 487.195 142.335 488.525 142.273 490.071C142.577 490.484 142.823 490.766 143.154 491.154L141.432 492.254C138.446 489.033 136.02 496.312 131.056 496.034C125.565 495.727 124.774 494.469 124.718 489.411C124.338 488.596 123.972 487.8 123.569 486.994C122.543 485.196 118.183 483.439 122.264 481.676C124.079 480.892 123.894 480.488 123.963 478.745L124.894 477.361C124.544 476.865 122.939 475.532 123.361 474.853L123.667 474.843C124.622 475.38 125.189 476.182 125.84 477.038C126.673 477.371 127.367 477.704 128.174 478.089Z" fill="#8D9087"/>
<path d="M128.174 478.089C128.659 477.203 132.046 466.843 135.364 474.327C135.782 475.269 132.848 480.096 132.05 481.91L133.095 482.824L133.903 482.129C135.498 480.737 137.018 476.792 140.046 477.234C144.548 477.891 142.544 483.604 142.353 485.648C142.117 487.011 141.852 488.176 141.531 489.519C138.639 489.246 135.149 486.114 133.036 484.104L130.744 482.722C129.136 481.774 126.656 478.934 124.894 477.361C124.544 476.865 122.939 475.532 123.361 474.853L123.667 474.843C124.622 475.38 125.189 476.182 125.84 477.038C126.673 477.371 127.367 477.704 128.174 478.089Z" fill="#8D9087"/>
<path d="M128.174 478.089C128.659 477.203 132.046 466.843 135.364 474.327C135.782 475.269 132.848 480.096 132.05 481.91C131.261 481.333 127.251 479.171 127.55 478.339C127.709 478.214 127.846 478.196 128.174 478.089Z" fill="#9B9C93"/>
<path d="M124.894 477.361C124.544 476.865 122.939 475.532 123.361 474.853L123.667 474.843C124.622 475.38 125.189 476.182 125.84 477.038C126.673 477.371 127.367 477.704 128.174 478.089C127.846 478.196 127.709 478.214 127.55 478.339C127.251 479.171 131.261 481.333 132.05 481.91L133.095 482.824C136.253 485.158 138.542 487.181 141.531 489.519C138.639 489.246 135.149 486.114 133.036 484.104L130.744 482.722C129.136 481.774 126.656 478.934 124.894 477.361Z" fill="#5F625C"/>
<path d="M123.963 478.745L124.894 477.361C126.656 478.934 129.136 481.774 130.744 482.722C126.665 487.127 127.342 484.732 123.569 486.994C122.543 485.196 118.183 483.439 122.264 481.676C124.079 480.892 123.894 480.488 123.963 478.745Z" fill="#9B9C93"/>
<path d="M130.744 482.722L133.036 484.104C129.59 486.221 128.071 486.824 124.718 489.411C124.338 488.596 123.972 487.8 123.569 486.994C127.342 484.732 126.665 487.127 130.744 482.722Z" fill="#E1D3CC"/>
<path d="M170.299 158.504C172.238 159.047 174.708 159.027 175.766 159.355C183.912 161.887 174.974 171.714 175.054 177.471C175.419 178.111 175.774 178.756 176.119 179.406L175.522 179.62C174.091 178.381 173.772 178.028 172.595 176.54C170.122 178.361 169.605 178.434 167.205 179.905C150.671 175.037 151.385 177.997 161.334 164.745C161.433 163.86 162.086 163.854 162.97 163.476C163.281 163.612 163.79 163.912 164.072 163.838C164 163.376 163.527 162.838 163.289 162.478C164.29 161.156 164.119 160.582 165.539 161.704C166.847 163.681 168.233 165.33 169.569 167.414C171.272 161.845 169.491 160.991 170.299 158.504Z" fill="#9B9C93"/>
<path d="M170.299 158.504C172.238 159.047 174.708 159.027 175.766 159.355C183.912 161.887 174.974 171.714 175.054 177.471C175.419 178.111 175.774 178.756 176.119 179.406L175.522 179.62C174.091 178.381 173.772 178.028 172.595 176.54C171.355 175.086 167.203 170.132 167.006 168.447L166.889 168.406C166.892 168.319 166.895 168.233 166.898 168.146L166.967 168.114C167.186 168.23 167.346 168.434 167.527 168.603C168.17 168.243 168.966 167.824 169.569 167.414C171.272 161.845 169.491 160.991 170.299 158.504Z" fill="#8D9087"/>
<path d="M172.595 176.54C171.355 175.086 167.203 170.132 167.006 168.447L166.889 168.406C166.892 168.319 166.895 168.233 166.898 168.146L166.967 168.114C167.186 168.23 167.346 168.434 167.527 168.603C171.399 171.454 171.533 174.641 175.054 177.471C175.419 178.111 175.774 178.756 176.119 179.406L175.522 179.62C174.091 178.381 173.772 178.028 172.595 176.54Z" fill="#5F625C"/>
<path d="M133.883 402.976C134.85 401.577 138.745 394.653 140.894 396.968C144.48 400.83 138.409 409.566 141.29 411.905C143.797 413.941 149.775 407.043 150.349 414.559C149.645 414.309 148.86 414.531 148.39 415.111C147.92 415.692 147.867 416.505 148.257 417.142C146.428 416.983 145.179 418.034 143.396 418.932C141.788 416.063 140.045 414.55 137.835 412.086C139.24 414.784 140.761 417.475 142.854 419.691C141.325 420.595 139.904 421.413 138.177 421.88C137.982 421.933 137.287 422.075 137.137 422.339C137.028 422.53 137.278 423.082 137.282 423.096C135.017 422.632 131.87 421.768 131.816 418.662C131.769 415.991 135.502 415.739 136.465 414.825C136.546 414.573 136.548 414.698 136.459 414.45C136.1 414.253 133.11 414.406 132.284 414.344C128.797 414.08 123.383 408.936 124.232 405.275C125.316 400.596 130.572 401.947 133.883 402.976Z" fill="#9B9C93"/>
<path d="M287.022 449.193C289.21 449.313 289.826 449.566 291.685 450.442C291.526 450.367 295.643 448.236 296.342 447.974C297.027 448.855 298.662 451.063 298.477 452.149C297.299 459.084 304.568 453.148 303.941 460.036C303.627 463.481 299.509 463.606 300.723 466.621C301.957 472.073 295.787 470.602 293.903 472.301C292.272 469.884 292.062 469.252 289.466 467.871C288.96 467.348 288.476 466.857 287.992 466.316L287.221 465.349C286.984 464.588 286.794 463.966 286.598 463.188L286.656 462.625C284.84 457.646 286.594 457.46 286.436 452.955C286.366 451.681 286.792 450.439 287.022 449.193Z" fill="#E0C1B2"/>
<path d="M290.903 458.664C291.327 462.369 291.001 462.502 290.849 466.117L287.992 466.316L287.221 465.349C286.984 464.588 286.794 463.966 286.598 463.188L286.656 462.625C288.104 461.317 289.416 459.989 290.903 458.664Z" fill="#BF8D81"/>
<path d="M290.903 458.664C291.364 456.994 292.271 457.648 292.806 459.015C293.869 461.735 296.266 461.314 296.706 461.75C300.177 465.186 293.559 459.676 290.849 466.117C291.001 462.502 291.327 462.369 290.903 458.664Z" fill="#C09884"/>
<path d="M291.501 453.302C292.089 453.02 292.783 453.082 293.312 453.463C293.841 453.844 294.119 454.483 294.037 455.13C293.955 455.776 293.526 456.326 292.919 456.563C292.028 456.911 291.021 456.492 290.64 455.615C290.259 454.738 290.639 453.716 291.501 453.302Z" fill="#DAC3B9"/>
<path d="M123.963 478.745C118.969 479.704 114.186 483.194 109.883 478.057C106.759 474.786 107.699 470.554 111.403 468.214C113.429 466.934 115.842 467.671 117.959 468C118.935 468.152 119.342 463.178 120.916 462.37C121.418 462.114 122.754 460.778 123.84 461.044C129.092 462.763 126.393 474.332 125.84 477.038C125.189 476.182 124.622 475.38 123.667 474.843L123.361 474.853C122.939 475.532 124.544 476.865 124.894 477.361L123.963 478.745Z" fill="#9B9C93"/>
<path d="M262.911 146.816L263.883 146.608C262.964 149.216 262.057 149.952 263.679 152.064C263.556 158.074 260.235 157.371 264.218 160.742C258.97 167.374 261.235 170.254 263.637 177.544C263.782 178.808 263.884 179.791 263.938 181.057C260.299 179.031 253.254 175.7 250.335 173.632C251.124 173.128 252.849 172.52 251.598 171.513L251.04 171.043C252.8 168.496 254.54 168.664 254.552 165.476C254.767 163.046 254.948 159.412 255.849 157.24C257.67 152.853 257.225 151.576 255.425 147.47C256.978 147.242 259.058 147.582 260.586 147.984C261.042 148.23 261.59 148.238 262.053 148.005C262.516 147.773 262.836 147.329 262.911 146.816ZM260.247 175.821C261.314 172.174 261.059 172.032 257.626 171.65C257.364 173.858 257.644 175.471 260.247 175.821Z" fill="#E1D3CC"/>
<path d="M257.626 171.65C261.059 172.032 261.314 172.174 260.247 175.821C257.644 175.471 257.364 173.858 257.626 171.65Z" fill="#FDFDFD" fill-opacity="0.560784"/>
<path d="M294.026 309.492C303.868 312.753 296.92 310.863 304.706 310.512L305.109 313.283C306.239 315.573 308.42 316.891 307.359 319.962C305.399 325.636 293.361 322.324 289.173 322.308C289.114 322.698 289.176 323.66 288.623 323.728C288.166 323.3 288.234 323.239 288.118 322.547C286.977 320.917 286.281 320.77 285.801 318.819C285.876 317.564 285.961 316.35 285.964 315.091C288.505 313.205 291.367 311.482 294.026 309.492Z" fill="#DAC3B9"/>
<path d="M294.026 309.492C303.868 312.753 296.92 310.863 304.706 310.512L305.109 313.283C305.03 313.404 304.702 313.995 304.558 313.959C296.152 311.891 293.189 313.7 285.801 318.819C285.876 317.564 285.961 316.35 285.964 315.091C288.505 313.205 291.367 311.482 294.026 309.492Z" fill="#FDFDFD"/>
<path d="M153.173 498.254C155.174 498.898 155.843 500.307 157.474 499.329C160.858 500.886 162.894 501.976 166.104 503.906C165.584 504.34 165.638 504.327 165.245 504.915C163.697 508.999 161.697 513.778 157.303 515.479C154.121 516.711 147.811 515.202 146.839 511.502C146.172 508.965 146.787 506.53 148.137 504.355L148.536 503.686L149.063 503.373C150.347 502.482 150.495 502.313 151.939 501.811C152.949 500.142 152.887 500.217 153.173 498.254Z" fill="#8D9087"/>
<path d="M144.955 491.108C145.953 489.621 150.297 475.214 155.365 487.148C155.982 488.602 154.208 494.8 153.577 496.751C155.137 497.458 155.879 497.759 157.362 498.616C157.165 499.037 157.212 498.796 157.474 499.329C155.843 500.307 155.174 498.898 153.173 498.254L152.303 497.702C151.437 498.87 150.654 499.941 149.721 501.067C149.142 501.636 148.639 502.132 148.091 502.738C138.112 510.702 140.575 497.441 141.432 492.254L143.154 491.155C142.823 490.767 142.577 490.485 142.273 490.072C143.285 490.402 143.982 490.685 144.955 491.108Z" fill="#8D9087"/>
<path d="M144.955 491.108C145.953 489.621 150.297 475.214 155.365 487.148C155.982 488.602 154.208 494.8 153.577 496.751C152.149 495.985 146.079 492.073 144.955 491.108Z" fill="#8D9087"/>
<path d="M142.273 490.071C143.285 490.401 143.982 490.685 144.955 491.108C146.079 492.073 152.149 495.984 153.577 496.75C155.137 497.457 155.879 497.758 157.362 498.615C157.165 499.036 157.212 498.796 157.474 499.329C155.843 500.307 155.174 498.898 153.173 498.254L152.303 497.702C149.446 495.272 146.317 493.919 143.154 491.154C142.823 490.766 142.577 490.484 142.273 490.071Z" fill="#5F625C"/>
<path d="M316.41 253.843C316.947 249.813 315.525 245.958 319.263 243.21C324.493 239.367 332.658 245.624 331.466 251.712C331.036 253.908 328.366 256.018 328.398 256.176C329.057 259.397 329.627 262.309 323.861 261.321C321.611 260.936 322.343 256.931 319.221 257.259L317.703 257.078C317.286 255.95 316.389 254.77 316.41 253.843Z" fill="#9B9C93"/>
<path d="M323.112 252.42C323.585 254.468 322.05 255.144 320.529 256.386C320.049 254.79 321.999 253.557 323.112 252.42Z" fill="#2E2520"/>
<path d="M286.436 452.955C286.594 457.46 284.84 457.646 286.656 462.625L286.598 463.188C285.819 464.04 275.056 474.763 275.178 474.751C274.986 474.398 274.856 473.452 274.772 473.011C275.774 471.287 281.023 464.327 280.71 463.304C279.04 461.741 275.332 464.741 273.345 464.604C272.917 463.111 272.224 459.452 269.82 460.941C263.619 464.783 269.38 472.498 266.358 477.564C265.726 474.665 265.288 473.385 264.393 470.686C259.482 467.272 259.851 469.396 258.693 464.007C260.42 462.556 260.01 462.62 261.472 460.913C262.792 459.381 264.066 457.811 265.292 456.203C265.885 455.428 265.893 455.409 266.541 454.699C274.447 461.822 281.094 463.42 286.436 452.955ZM264.575 467.758C264.127 463.506 265.002 463.336 260.668 463.559L261.128 464.825C261.787 466.59 262.932 467.129 264.575 467.758ZM266.447 461.951C267.734 459.836 268.64 459.345 266.507 457.7C265.985 459.493 265.025 460.596 266.447 461.951Z" fill="#FDFDFD" fill-opacity="0.980392"/>
<path d="M260.668 463.559C265.002 463.336 264.127 463.506 264.575 467.758C262.932 467.129 261.787 466.59 261.128 464.825L260.668 463.559Z" fill="#FDFDFD" fill-opacity="0.454902"/>
<path d="M266.507 457.7C268.64 459.345 267.734 459.836 266.447 461.951C265.025 460.596 265.985 459.493 266.507 457.7Z" fill="#FDFDFD" fill-opacity="0.666667"/>
<path d="M158.699 151.076C160.771 154.242 169.009 144.878 168.699 156.701C166.166 159.363 166.91 158.866 165.539 161.704C164.119 160.582 164.29 161.156 163.289 162.478C163.527 162.838 164 163.376 164.072 163.838C163.79 163.912 163.281 163.612 162.97 163.476C162.086 163.854 161.433 163.86 161.334 164.745C159.324 163.819 147.058 166.924 146.865 159.949C146.829 158.635 148.949 155.845 149.655 154.477L150.114 154.484C152.369 155.978 152.978 155.35 155.494 154.615C157.021 154.615 156.292 153.754 155.811 152.449L156.222 152.323C156.668 152.665 157.251 153.419 157.862 153.053C158.256 152.269 158.034 151.701 158.699 151.076Z" fill="#8D9087"/>
<path d="M162.97 163.476C161.089 161.643 157.882 157.987 157.906 155.274C158.916 154.944 162.361 161.152 163.071 162.171L163.289 162.478C163.527 162.838 164 163.376 164.072 163.838C163.79 163.912 163.281 163.612 162.97 163.476Z" fill="#5F625C"/>
<path d="M262.129 129.231C262.735 130.573 263.018 131.176 263.472 132.587C263.468 133.331 263.468 134.075 263.472 134.819C263.115 138.899 263.248 138.609 263.675 142.533C263.689 143.561 263.76 144.538 263.825 145.561C263.928 145.868 263.888 146.279 263.883 146.608L262.911 146.816C262.836 147.329 262.516 147.773 262.053 148.005C261.59 148.238 261.042 148.23 260.586 147.984C259.058 147.582 256.978 147.242 255.425 147.47C254.997 146.831 254.926 146.675 254.393 146.151C253.053 145.298 252.111 144.496 250.845 143.601C247.944 137.666 251.243 139.657 251.476 136.811C253.66 136.837 253.797 136.805 255.753 135.745L255.727 133.811C258.678 129.895 255.755 130.261 262.129 129.231Z" fill="#E0C1B2"/>
<path d="M262.13 129.231C262.736 130.573 263.019 131.176 263.473 132.587C263.469 133.331 263.469 134.075 263.473 134.819C261.716 135.364 260.977 135.382 259.382 136.342C258.008 135.477 257.031 134.779 255.728 133.811C258.679 129.895 255.756 130.261 262.13 129.231Z" fill="#DAC3B9"/>
<path d="M255.728 133.811C257.031 134.779 258.008 135.477 259.382 136.342C259.956 137.267 260.445 137.874 260.469 138.999C260.723 150.783 257.533 140.083 256.111 136.188C255.992 136.04 255.873 135.892 255.754 135.745L255.728 133.811Z" fill="#F8F5F3"/>
<path d="M260.586 147.984C259.877 147.602 259.567 146.749 259.864 146C260.162 145.252 260.972 144.845 261.751 145.053C262.529 145.261 263.028 146.019 262.911 146.816C262.836 147.329 262.516 147.773 262.053 148.005C261.59 148.238 261.042 148.23 260.586 147.984Z" fill="#DCB9A6"/>
<path d="M288.087 139.48C288.195 140.464 288.189 140.719 288.513 141.663C291.312 146.542 289.857 143.339 293.717 147.418L293.56 148.045C290.439 150.761 291.062 147.66 287.007 146.918C279.872 145.613 276.151 155.386 281.658 159.382C277.122 165.573 278.753 156.01 273.207 159.653C268.981 158.653 267.723 159.302 264.218 160.742C260.235 157.371 263.556 158.074 263.679 152.064C266.777 153.617 278.714 157.71 275.884 150.054C277.467 146.841 277.271 146.915 277.923 143.309C278.536 142.937 278.441 142.983 279.14 142.79C280.15 144.588 280.289 145.035 282.346 145.392C282.748 145.501 283.175 145.472 283.558 145.308C284.643 144.663 284.921 144.578 285.702 143.538L286.074 143.034C286.777 142.095 287.392 140.64 288.087 139.48Z" fill="#FDFDFD" fill-opacity="0.945098"/>
<path d="M281.46 434.778C284.589 436.144 286.472 436.671 289.823 437.358C293.392 438.089 295.46 435.985 297.29 438.903C295.201 442.083 293.937 444.547 296.342 447.974C295.643 448.236 291.526 450.367 291.685 450.442C289.826 449.566 289.21 449.313 287.022 449.193C283.495 442.192 281.408 443.282 278.445 438.991C279.76 437.386 280.497 436.644 281.46 434.778Z" fill="#FDFDFD" fill-opacity="0.866667"/>
<path d="M257.831 499.894C259.552 497.869 262.136 492.424 264.424 494.276C263.228 498.636 257.775 499.707 260.171 501.286C260.359 501.41 265.146 498.148 265.777 497.617C266.321 497.492 266.832 497.366 267.382 497.268C269.75 496.548 271.85 496.089 274.188 495.44C282.218 505.822 263.288 506.101 257.788 506.084C257.691 503.787 257.749 502.205 257.831 499.894Z" fill="#DAC3B9"/>
<path d="M254.393 146.151C254.926 146.675 254.997 146.831 255.425 147.47C257.225 151.576 257.67 152.853 255.849 157.24C254.948 159.412 254.767 163.046 254.552 165.476C253.296 166.281 252.877 165.718 252.128 164.499C251.715 163.764 251.998 162.496 251.358 161.922C250.927 161.535 250.221 162.37 250.189 162.817C250.005 165.362 250.328 165.134 248.186 166.528C248.127 165.523 248.059 164.519 247.981 163.516C249.638 157.979 250.337 159.137 245.994 155.86L245.271 155.757C247.241 149.419 248.358 148.939 253.919 146.373L254.393 146.151Z" fill="url(#paint0_linear_117_10738)"/>
<path d="M126.857 316.963C124.265 320.46 126.517 319.838 125.224 322.711C121.409 331.185 110.126 327.761 114.103 318.074C115.839 313.845 121.465 316.524 124.897 315.714L124.444 316.327C122.794 318.478 126.251 317.088 126.857 316.963Z" fill="#8D9087"/>
<path d="M124.897 315.714C125.446 312.406 120.466 312.486 120.604 310.606C121.056 304.421 131.057 312.112 131.736 312.59L131.976 313.278C132.452 313.586 132.234 313.35 132.42 314.045C132.607 316.015 132.89 319.825 135.105 316.732C135.396 319.323 134.174 318.71 134.314 321.415C132.738 330.06 127.592 329.179 128.529 317.508C128.053 317.324 127.357 317.122 126.857 316.963C126.251 317.088 122.794 318.478 124.444 316.327L124.897 315.714Z" fill="#8D9087"/>
<path d="M124.897 315.714C125.446 312.406 120.466 312.486 120.604 310.606C121.056 304.421 131.057 312.112 131.736 312.59L131.976 313.278C129.928 313.979 129.894 314.061 128.075 315.322C128.511 316.668 128.401 315.596 129.27 316.485C129.285 316.92 128.778 317.256 128.529 317.508C128.053 317.324 127.357 317.122 126.857 316.963C126.251 317.088 122.794 318.478 124.444 316.327L124.897 315.714Z" fill="#9B9C93"/>
<path d="M131.976 313.278C132.452 313.586 132.234 313.35 132.42 314.045C130.157 315.337 130.572 315.442 128.075 315.322C129.894 314.061 129.928 313.979 131.976 313.278Z" fill="#5F625C"/>
<path d="M168.645 446.67L168.809 446.295C170.192 443.083 169.305 434.772 176.141 437.241C181.352 439.124 176.407 451.027 175.471 454.181C174.127 452.655 169.271 447.852 168.645 446.67Z" fill="#9B9C93"/>
<path d="M135.876 236.769C137.248 236.772 138.349 236.766 139.726 236.666C141.895 236.976 144.054 237.351 146.201 237.79C147.552 239.035 147.851 239.237 149.395 240.236C151.532 242.878 151.527 241.689 151.661 245.187L151.266 245.344C145.151 245.594 135.877 244.45 135.876 236.769Z" fill="#DAC3B9"/>
<path d="M157.362 498.615C158.434 494.963 162.017 483.996 165.944 492.464C166.181 492.975 166.883 502.988 166.754 503.63L166.104 503.906C162.894 501.976 160.858 500.886 157.474 499.329C157.212 498.796 157.165 499.036 157.362 498.615Z" fill="#8D9087"/>
<path d="M238.309 144.745C239.884 142.304 242.232 139.892 242.952 137.128C243.191 136.211 242.948 135.403 243.993 134.852C245.448 135.178 245.349 137.139 246.367 137.82C247.018 138.257 249.855 137.06 251.476 136.811C251.243 139.657 247.944 137.666 250.845 143.601C246.823 146.17 242.491 148.379 238.32 145.608L238.309 144.745Z" fill="#FDFDFD" fill-opacity="0.984314"/>
<path d="M250.845 143.601C252.111 144.496 253.053 145.298 254.393 146.151L253.919 146.373C248.358 148.939 247.241 149.419 245.271 155.757C244.848 155.032 244.424 154.357 243.98 153.647C243.304 152.529 242.863 152.234 241.487 152.126C239.277 151.952 239.083 148.952 237.941 148.435C236.882 148.713 237.05 149.989 235.555 150.682C235.542 148.608 236.903 147.059 238.32 145.608C242.491 148.379 246.823 146.17 250.845 143.601Z" fill="#FDFDFD" fill-opacity="0.890196"/>
<path d="M286.335 126.318C287.361 128.067 289.292 129.142 289.495 129.396C292.617 133.296 286.568 132.16 292.936 136.783C293.994 137.245 293.958 137.595 294.381 138.655C290.802 138.639 290.694 138.596 288.514 141.663C288.19 140.719 288.196 140.464 288.088 139.48C286.666 137.082 285.098 136.114 284.638 134.084C281.437 127.203 279.667 131.292 286.335 126.318Z" fill="#FDFDFD" fill-opacity="0.984314"/>
<path d="M235.555 150.682C237.05 149.989 236.882 148.713 237.941 148.435C239.083 148.952 239.277 151.952 241.487 152.126C242.863 152.234 243.304 152.529 243.98 153.647L243.337 153.586C238.752 152.726 238.132 157.108 237.602 160.429C238.103 159.733 237.997 158.772 237.357 158.203C236.717 157.633 235.75 157.638 235.117 158.215C234.484 158.793 234.389 159.755 234.898 160.444L234.362 160.8C230.2 157.079 230.416 160.487 227.245 155.097C228.505 155.547 229.762 156.006 231.017 156.472C231.143 156.476 231.269 156.48 231.395 156.484C231.262 156.56 234.562 151.823 235.555 150.682Z" fill="#FDFDFD" fill-opacity="0.972549"/>
<path d="M271.982 132.065C279.483 125.918 278.193 127.964 284.637 134.084C283.525 135.958 281.881 136.448 279.747 137.003C273.072 133.065 273.012 139.002 271.982 132.065Z" fill="#FDFDFD" fill-opacity="0.6"/>
<path d="M266.382 488.793C267.769 488.039 267.812 487.007 269.433 487.609C273.906 489.27 279.024 488.878 283.733 488.975C280.348 489.606 278.891 489.448 275.49 489.398L275.342 489.899C274.871 491.454 273.541 494.172 274.188 495.44C271.85 496.089 269.75 496.548 267.382 497.268C267.829 493.16 269.993 489.446 265.079 492.948C265.135 491.076 265.633 490.492 266.382 488.793Z" fill="#FDFDFD" fill-opacity="0.423529"/>
<path d="M172.595 176.54C173.772 178.028 174.091 178.381 175.522 179.62C174.012 182.247 166.963 184.37 164.563 186.909C163.208 188.342 162.17 189.89 160.822 191.287C161.305 188.764 164.432 181.524 166.574 180.298L167.205 179.905C169.605 178.434 170.122 178.361 172.595 176.54Z" fill="#FDFDFD" fill-opacity="0.831373"/>
<path d="M284.637 134.084C285.097 136.114 286.665 137.082 288.087 139.48C287.392 140.64 286.777 142.095 286.074 143.034L285.702 143.538C284.921 144.578 284.643 144.663 283.558 145.308C284.39 144.953 284.844 144.05 284.633 143.17C284.421 142.291 283.605 141.693 282.703 141.756C281.8 141.818 281.075 142.523 280.987 143.423C280.898 144.323 281.473 145.156 282.346 145.392C280.289 145.035 280.15 144.588 279.14 142.79C279.449 141.829 279.768 140.967 279.938 139.97C280.008 138.591 280.012 138.388 279.747 137.003C281.881 136.448 283.525 135.958 284.637 134.084Z" fill="#FDFDFD" fill-opacity="0.811765"/>
<path d="M152.293 310.59C152.462 312.41 152.701 312.399 153.807 313.878C154.505 314.712 154.411 314.655 154.768 315.777C154.612 319.182 155.753 320.728 152.391 321.335C152.29 321.235 152.188 321.135 152.086 321.035C151.61 320.974 151.076 321.614 150.77 321.508C149.288 320.996 148.552 318.829 147.118 317.473C147.702 315.544 148.456 315.225 149.043 312.908C150.699 311.702 150.951 312.407 152.293 310.59Z" fill="#FDFDFD" fill-opacity="0.176471"/>
<path d="M273.345 464.604C275.332 464.741 279.04 461.741 280.71 463.304C281.023 464.327 275.774 471.287 274.772 473.011C274.428 471.174 273.948 470.775 272.98 469.125C272.761 467.037 272.845 466.63 273.345 464.604Z" fill="#FDFDFD" fill-opacity="0.815686"/>
<path d="M238.309 144.745L238.32 145.608C236.903 147.059 235.542 148.608 235.555 150.682C234.562 151.823 231.262 156.56 231.395 156.484C231.269 156.48 231.143 156.476 231.017 156.472C231.166 151.21 230.181 150.883 227.245 155.097C227.529 153.516 232.704 146.68 233.792 145.599C235.764 146.356 236.659 145.987 238.309 144.745Z" fill="#FDFDFD" fill-opacity="0.454902"/>
<path d="M142.957 227.847C143.252 228.565 143.316 228.723 143.688 229.378C142.975 230.42 139.405 235.755 139.726 236.666C138.349 236.766 137.248 236.772 135.876 236.769C136.213 234.083 136.203 234.128 135.278 231.654C138.371 230.387 140.056 229.568 142.957 227.847Z" fill="#FDFDFD" fill-opacity="0.239216"/>
<path d="M143.688 229.378C144.607 230.52 147.703 233.75 147.504 235.081C147.075 235.986 146.64 236.889 146.201 237.79C144.054 237.351 141.895 236.976 139.726 236.666C139.405 235.755 142.975 230.42 143.688 229.378Z" fill="#FDFDFD" fill-opacity="0.0392157"/>
<path d="M288.807 267.196C290.154 270.116 292.009 273.436 294.874 275.257C296.794 276.318 295.969 278.465 294.141 278.849C293.844 278.912 291.329 275.722 290.958 275.293C288.968 272.994 287.17 274.256 286.765 271.333C289.073 270.255 288.456 269.67 288.807 267.196Z" fill="#FDFDFD" fill-opacity="0.984314"/>
<path d="M248.186 166.528C250.328 165.134 250.005 165.362 250.189 162.817C250.221 162.37 250.927 161.535 251.358 161.922C251.998 162.496 251.714 163.764 252.127 164.499C252.876 165.718 253.296 166.281 254.552 165.476C254.54 168.664 252.8 168.496 251.04 171.043C247.714 170.85 247.567 169.717 248.186 166.528Z" fill="#FDFDFD" fill-opacity="0.627451"/>
<path d="M165.539 161.704C166.91 158.866 166.166 159.363 168.699 156.701C169.359 157.376 169.712 157.743 170.299 158.504C169.491 160.991 171.272 161.845 169.569 167.414C168.233 165.33 166.847 163.681 165.539 161.704Z" fill="#FDFDFD" fill-opacity="0.431373"/>
<path d="M286.334 256.02C286.606 258.545 285.88 259.965 288.527 259.265C288.602 262.361 288.496 264.067 288.807 267.197C288.456 269.671 289.073 270.255 286.765 271.333L286.141 270.964C286.224 265.925 286.214 261.104 286.334 256.02Z" fill="#FDFDFD" fill-opacity="0.627451"/>
<path d="M152.571 211.46C152.937 212.729 153.317 213.993 153.712 215.253C153.487 217.556 152.101 226.29 148.988 220.171C150.323 218.113 150.232 213.569 151.008 213.323C151.357 213.55 151.557 213.886 151.812 214.241L151.793 214.281C151.905 214.472 151.836 214.41 151.984 214.49C152.504 214.204 152.508 212.061 152.571 211.46Z" fill="#FDFDFD" fill-opacity="0.67451"/>
<path d="M151.42 237.444C152.847 239.022 153.349 239.251 155.022 240.467C155.015 244.611 155.921 245.35 151.662 245.187C151.528 241.689 151.533 242.878 149.396 240.236C150.74 239.045 150.541 239.152 151.42 237.444Z" fill="#FDFDFD" fill-opacity="0.807843"/>
<path d="M305.699 258.048C307.234 262.677 306.796 261.604 306.658 266.618L305.939 267.125C304.504 264.821 304.377 262.758 303.129 260.345L302.777 259.641C303.902 259.151 304.862 258.883 305.699 258.048Z" fill="#FDFDFD" fill-opacity="0.223529"/>
<path d="M289.467 467.871C292.063 469.252 292.273 469.884 293.904 472.301L293.484 474.058C290.233 466.543 285.517 474.291 285.062 469.395C286.724 467.484 287.097 467.685 289.467 467.871Z" fill="#FDFDFD" fill-opacity="0.905882"/>
<path d="M300.846 402.167C301.518 401.423 302.052 400.863 302.766 400.158C304.633 402.623 305.497 403.093 306.905 405.941L305.875 407.236C303.137 405.372 303.111 404.351 300.846 402.167Z" fill="#FDFDFD" fill-opacity="0.0980392"/>
<path d="M149.043 312.908L148.631 311.918C147.406 309.043 148.541 303.442 152.293 310.59C150.951 312.407 150.699 311.702 149.043 312.908Z" fill="#FDFDFD" fill-opacity="0.027451"/>
<path d="M295.828 421.285C297.99 422.224 299.079 422.772 301.102 423.941L298.452 425.79C294.767 424.921 294.165 424.576 295.828 421.285Z" fill="#FDFDFD" fill-opacity="0.113725"/>
<path d="M265.079 492.948C269.993 489.446 267.829 493.16 267.382 497.268C266.832 497.366 266.321 497.492 265.777 497.617C264.933 496.37 264.91 495.813 264.655 494.378L265.079 492.948Z" fill="#FDFDFD" fill-opacity="0.313726"/>
<path d="M264.424 494.276L264.655 494.378C264.91 495.813 264.933 496.37 265.777 497.617C265.146 498.148 260.359 501.41 260.171 501.286C257.775 499.707 263.228 498.636 264.424 494.276Z" fill="#FDFDFD" fill-opacity="0.682353"/>
<path d="M294.026 309.492C297.766 309.248 300.88 309.206 304.507 309.958L304.706 310.512C296.92 310.863 303.868 312.753 294.026 309.492Z" fill="#FDFDFD" fill-opacity="0.941176"/>
<path d="M135.105 316.732C134.837 312.34 137.608 314.053 137.441 319.086C136.243 318.962 134.898 320.498 134.314 321.415C134.174 318.71 135.396 319.323 135.105 316.732Z" fill="#FDFDFD" fill-opacity="0.4"/>
<path d="M147.504 235.081C148.965 235.562 149.474 235.737 150.67 236.794L151.419 237.444C150.54 239.152 150.739 239.045 149.395 240.236C147.851 239.237 147.552 239.035 146.201 237.79C146.64 236.889 147.075 235.986 147.504 235.081Z" fill="#FDFDFD" fill-opacity="0.909804"/>
<path d="M262.129 129.231C266.854 127.93 264.25 127.506 266.405 131.821C266.141 132.177 265.877 132.533 265.613 132.889L263.472 132.587C263.018 131.176 262.735 130.573 262.129 129.231Z" fill="#FDFDFD" fill-opacity="0.054902"/>
<path d="M168.975 506.097C170.825 506.391 172.388 507.376 174.055 508.253C175.711 508.978 175.837 509.038 177.247 510.157C177.347 510.456 177.569 510.927 177.484 511.217C176.964 511.132 169.971 507.674 169.23 507.19L168.975 506.097Z" fill="#BAAFA6" fill-opacity="0.403922"/>
<path d="M272.98 469.125C273.948 470.775 274.428 471.174 274.772 473.011C271.892 482.917 272.566 472.109 272.98 469.125Z" fill="#FDFDFD" fill-opacity="0.415686"/>
<path d="M245.994 155.86C250.337 159.137 249.638 157.979 247.981 163.516C247.249 160.794 246.545 158.671 245.994 155.86Z" fill="#FDFDFD" fill-opacity="0.611765"/>
<path d="M294.994 129.861C295.28 133.122 294.893 133.705 296.648 136.29C294.989 137.277 295.16 137.142 294.661 139.063L294.381 138.655C293.958 137.595 293.994 137.245 292.936 136.783C295.133 133.58 294.721 133.708 294.994 129.861Z" fill="#FDFDFD" fill-opacity="0.72549"/>
<path d="M282.347 145.392C281.474 145.156 280.899 144.323 280.988 143.423C281.076 142.523 281.801 141.818 282.704 141.756C283.606 141.693 284.422 142.291 284.634 143.17C284.845 144.05 284.391 144.954 283.559 145.309C283.176 145.473 282.749 145.501 282.347 145.392Z" fill="#FDFDFD" fill-opacity="0.690196"/>
<path d="M301.102 423.941C302.175 424.197 303.24 424.482 304.298 424.796C303.112 425.397 303.276 425.66 302.923 426.903C301.269 426.384 300.134 426.142 298.452 425.79L301.102 423.941Z" fill="#FDFDFD" fill-opacity="0.301961"/>
<path d="M152.259 209.382C153.107 209.165 153.683 209.01 154.522 208.734C154.619 210.597 154.039 213.296 153.712 215.253C153.317 213.993 152.937 212.729 152.571 211.46C152.459 210.757 152.348 210.088 152.259 209.382Z" fill="#FDFDFD" fill-opacity="0.564706"/>
<path d="M263.472 132.587L265.613 132.889L265.286 133.956C264.057 135.154 263.986 140.462 263.675 142.533C263.248 138.609 263.115 138.899 263.472 134.819C263.468 134.075 263.468 133.331 263.472 132.587Z" fill="#E1D3CC" fill-opacity="0.392157"/>
<path d="M148.257 417.142C147.867 416.505 147.92 415.692 148.39 415.111C148.86 414.531 149.645 414.309 150.349 414.559C151.249 414.877 151.732 415.854 151.439 416.762C151.254 417.337 150.788 417.777 150.203 417.928C149.618 418.079 148.997 417.921 148.556 417.509C148.44 417.4 148.34 417.277 148.257 417.142Z" fill="#FDFDFD" fill-opacity="0.976471"/>
<path d="M227.245 155.097C230.181 150.883 231.166 151.21 231.017 156.472C229.762 156.006 228.505 155.547 227.245 155.097Z" fill="#F8F5F3" fill-opacity="0.137255"/>
<path d="M234.898 160.444C234.389 159.755 234.484 158.793 235.117 158.215C235.75 157.638 236.717 157.633 237.357 158.203C237.997 158.772 238.103 159.733 237.602 160.429C237.29 160.863 236.789 161.121 236.254 161.124C235.719 161.127 235.215 160.875 234.898 160.444Z" fill="#FDFDFD" fill-opacity="0.580392"/>
<path d="M265.286 133.956C264.58 138.06 265.158 143.374 263.825 145.561C263.76 144.538 263.689 143.561 263.675 142.533C263.986 140.462 264.057 135.154 265.286 133.956Z" fill="#F8F5F3" fill-opacity="0.631373"/>
<path d="M150.114 154.484C153.196 152.376 153.03 151.91 155.494 154.615C152.978 155.35 152.369 155.978 150.114 154.484Z" fill="#FDFDFD" fill-opacity="0.0156863"/>
<path d="M296.647 136.29C298.342 137.535 297.628 138.315 297.666 140.494C296.662 140.028 295.642 139.57 294.66 139.063C295.159 137.142 294.988 137.277 296.647 136.29Z" fill="#FDFDFD" fill-opacity="0.513726"/>
<path d="M152.303 497.702L153.173 498.254C152.887 500.217 152.949 500.142 151.939 501.811L150.599 501.439L149.721 501.067C150.654 499.941 151.437 498.87 152.303 497.702Z" fill="#FDFDFD" fill-opacity="0.129412"/>
<path d="M166.104 503.906L166.754 503.63C167.545 504.909 167.823 505.055 168.975 506.097L169.23 507.19C167.348 506.421 167.371 506.211 165.631 505.147L165.245 504.915C165.638 504.327 165.584 504.34 166.104 503.906Z" fill="#9B9C93" fill-opacity="0.52549"/>
<path d="M263.637 177.544L263.898 177.82C264.548 178.496 264.983 178.795 265.529 179.564L264.542 181.222L263.938 181.057C263.884 179.791 263.782 178.808 263.637 177.544Z" fill="#FDFDFD" fill-opacity="0.831373"/>
<path d="M175.145 507.311C176.157 507.98 176.994 508.51 178.042 509.117L177.247 510.158C175.837 509.039 175.711 508.979 174.055 508.254L175.145 507.311Z" fill="#FDFDFD" fill-opacity="0.0392157"/>
<path d="M149.721 501.067L150.599 501.439C150.064 502.081 149.574 502.712 149.063 503.373L148.536 503.686L148.091 502.738C148.639 502.132 149.142 501.636 149.721 501.067Z" fill="#FDFDFD" fill-opacity="0.321569"/>
<path d="M177.713 456.05C178.722 456.758 179.259 457.141 180.172 457.971L180.015 458.824C179.105 458.177 178.439 457.727 177.6 456.968L177.713 456.05Z" fill="#484A46" fill-opacity="0.576471"/>
<path d="M177.6 456.968C176.94 456.471 177.028 456.628 176.628 456.036L176.713 455.966C177.046 455.994 177.38 456.022 177.713 456.05L177.6 456.968Z" fill="#9B9C93" fill-opacity="0.207843"/>
<path d="M151.939 501.811C150.495 502.313 150.347 502.482 149.063 503.373C149.574 502.712 150.064 502.081 150.599 501.439L151.939 501.811Z" fill="#E1D3CC" fill-opacity="0.513726"/>
<defs>
<linearGradient id="paint0_linear_117_10738" x1="254.417" y1="157.694" x2="248.985" y2="156.589" gradientUnits="userSpaceOnUse">
<stop stop-color="#FDFDFC" stop-opacity="0.607843"/>
<stop offset="1" stop-color="#FAFAF9" stop-opacity="0.666667"/>
</linearGradient>
</defs>
</svg>
